%TF.GenerationSoftware,KiCad,Pcbnew,(5.1.10)-1*%
%TF.CreationDate,2022-01-18T17:24:38+07:00*%
%TF.ProjectId,Digital_module_v3,44696769-7461-46c5-9f6d-6f64756c655f,rev?*%
%TF.SameCoordinates,Original*%
%TF.FileFunction,Paste,Top*%
%TF.FilePolarity,Positive*%
%FSLAX46Y46*%
G04 Gerber Fmt 4.6, Leading zero omitted, Abs format (unit mm)*
G04 Created by KiCad (PCBNEW (5.1.10)-1) date 2022-01-18 17:24:38*
%MOMM*%
%LPD*%
G01*
G04 APERTURE LIST*
%ADD10R,0.950000X0.450000*%
%ADD11R,0.800000X0.900000*%
%ADD12R,0.900000X0.800000*%
%ADD13R,0.400000X3.200000*%
%ADD14R,0.650000X1.800000*%
%ADD15R,1.050000X1.400000*%
%ADD16R,1.870000X3.520000*%
%ADD17R,1.820000X4.320000*%
%ADD18R,2.000000X1.500000*%
%ADD19R,2.000000X3.800000*%
%ADD20R,0.900000X0.700000*%
%ADD21R,1.060000X0.650000*%
%ADD22R,2.500000X2.000000*%
%ADD23R,4.000000X3.000000*%
%ADD24R,2.500000X1.500000*%
%ADD25R,1.300000X1.600000*%
%ADD26R,1.900000X0.450000*%
%ADD27R,1.000000X2.500000*%
%ADD28R,1.800000X1.000000*%
G04 APERTURE END LIST*
D10*
%TO.C,D3*%
X76969800Y-103413800D03*
X76969800Y-104063800D03*
X76969800Y-104713800D03*
X74769800Y-104713800D03*
X74769800Y-104063800D03*
X74769800Y-103413800D03*
%TD*%
%TO.C,R71*%
G36*
G01*
X91153800Y-96972800D02*
X91153800Y-96422800D01*
G75*
G02*
X91353800Y-96222800I200000J0D01*
G01*
X91753800Y-96222800D01*
G75*
G02*
X91953800Y-96422800I0J-200000D01*
G01*
X91953800Y-96972800D01*
G75*
G02*
X91753800Y-97172800I-200000J0D01*
G01*
X91353800Y-97172800D01*
G75*
G02*
X91153800Y-96972800I0J200000D01*
G01*
G37*
G36*
G01*
X89503800Y-96972800D02*
X89503800Y-96422800D01*
G75*
G02*
X89703800Y-96222800I200000J0D01*
G01*
X90103800Y-96222800D01*
G75*
G02*
X90303800Y-96422800I0J-200000D01*
G01*
X90303800Y-96972800D01*
G75*
G02*
X90103800Y-97172800I-200000J0D01*
G01*
X89703800Y-97172800D01*
G75*
G02*
X89503800Y-96972800I0J200000D01*
G01*
G37*
%TD*%
%TO.C,R70*%
G36*
G01*
X92231800Y-102901800D02*
X92781800Y-102901800D01*
G75*
G02*
X92981800Y-103101800I0J-200000D01*
G01*
X92981800Y-103501800D01*
G75*
G02*
X92781800Y-103701800I-200000J0D01*
G01*
X92231800Y-103701800D01*
G75*
G02*
X92031800Y-103501800I0J200000D01*
G01*
X92031800Y-103101800D01*
G75*
G02*
X92231800Y-102901800I200000J0D01*
G01*
G37*
G36*
G01*
X92231800Y-101251800D02*
X92781800Y-101251800D01*
G75*
G02*
X92981800Y-101451800I0J-200000D01*
G01*
X92981800Y-101851800D01*
G75*
G02*
X92781800Y-102051800I-200000J0D01*
G01*
X92231800Y-102051800D01*
G75*
G02*
X92031800Y-101851800I0J200000D01*
G01*
X92031800Y-101451800D01*
G75*
G02*
X92231800Y-101251800I200000J0D01*
G01*
G37*
%TD*%
%TO.C,R68*%
G36*
G01*
X92781800Y-98876800D02*
X92231800Y-98876800D01*
G75*
G02*
X92031800Y-98676800I0J200000D01*
G01*
X92031800Y-98276800D01*
G75*
G02*
X92231800Y-98076800I200000J0D01*
G01*
X92781800Y-98076800D01*
G75*
G02*
X92981800Y-98276800I0J-200000D01*
G01*
X92981800Y-98676800D01*
G75*
G02*
X92781800Y-98876800I-200000J0D01*
G01*
G37*
G36*
G01*
X92781800Y-100526800D02*
X92231800Y-100526800D01*
G75*
G02*
X92031800Y-100326800I0J200000D01*
G01*
X92031800Y-99926800D01*
G75*
G02*
X92231800Y-99726800I200000J0D01*
G01*
X92781800Y-99726800D01*
G75*
G02*
X92981800Y-99926800I0J-200000D01*
G01*
X92981800Y-100326800D01*
G75*
G02*
X92781800Y-100526800I-200000J0D01*
G01*
G37*
%TD*%
%TO.C,R67*%
G36*
G01*
X94557800Y-96422800D02*
X94557800Y-96972800D01*
G75*
G02*
X94357800Y-97172800I-200000J0D01*
G01*
X93957800Y-97172800D01*
G75*
G02*
X93757800Y-96972800I0J200000D01*
G01*
X93757800Y-96422800D01*
G75*
G02*
X93957800Y-96222800I200000J0D01*
G01*
X94357800Y-96222800D01*
G75*
G02*
X94557800Y-96422800I0J-200000D01*
G01*
G37*
G36*
G01*
X96207800Y-96422800D02*
X96207800Y-96972800D01*
G75*
G02*
X96007800Y-97172800I-200000J0D01*
G01*
X95607800Y-97172800D01*
G75*
G02*
X95407800Y-96972800I0J200000D01*
G01*
X95407800Y-96422800D01*
G75*
G02*
X95607800Y-96222800I200000J0D01*
G01*
X96007800Y-96222800D01*
G75*
G02*
X96207800Y-96422800I0J-200000D01*
G01*
G37*
%TD*%
%TO.C,R34*%
G36*
G01*
X93374800Y-115981800D02*
X93924800Y-115981800D01*
G75*
G02*
X94124800Y-116181800I0J-200000D01*
G01*
X94124800Y-116581800D01*
G75*
G02*
X93924800Y-116781800I-200000J0D01*
G01*
X93374800Y-116781800D01*
G75*
G02*
X93174800Y-116581800I0J200000D01*
G01*
X93174800Y-116181800D01*
G75*
G02*
X93374800Y-115981800I200000J0D01*
G01*
G37*
G36*
G01*
X93374800Y-114331800D02*
X93924800Y-114331800D01*
G75*
G02*
X94124800Y-114531800I0J-200000D01*
G01*
X94124800Y-114931800D01*
G75*
G02*
X93924800Y-115131800I-200000J0D01*
G01*
X93374800Y-115131800D01*
G75*
G02*
X93174800Y-114931800I0J200000D01*
G01*
X93174800Y-114531800D01*
G75*
G02*
X93374800Y-114331800I200000J0D01*
G01*
G37*
%TD*%
%TO.C,R33*%
G36*
G01*
X92233800Y-109418800D02*
X92233800Y-108868800D01*
G75*
G02*
X92433800Y-108668800I200000J0D01*
G01*
X92833800Y-108668800D01*
G75*
G02*
X93033800Y-108868800I0J-200000D01*
G01*
X93033800Y-109418800D01*
G75*
G02*
X92833800Y-109618800I-200000J0D01*
G01*
X92433800Y-109618800D01*
G75*
G02*
X92233800Y-109418800I0J200000D01*
G01*
G37*
G36*
G01*
X90583800Y-109418800D02*
X90583800Y-108868800D01*
G75*
G02*
X90783800Y-108668800I200000J0D01*
G01*
X91183800Y-108668800D01*
G75*
G02*
X91383800Y-108868800I0J-200000D01*
G01*
X91383800Y-109418800D01*
G75*
G02*
X91183800Y-109618800I-200000J0D01*
G01*
X90783800Y-109618800D01*
G75*
G02*
X90583800Y-109418800I0J200000D01*
G01*
G37*
%TD*%
%TO.C,R31*%
G36*
G01*
X91598800Y-118435800D02*
X91598800Y-117885800D01*
G75*
G02*
X91798800Y-117685800I200000J0D01*
G01*
X92198800Y-117685800D01*
G75*
G02*
X92398800Y-117885800I0J-200000D01*
G01*
X92398800Y-118435800D01*
G75*
G02*
X92198800Y-118635800I-200000J0D01*
G01*
X91798800Y-118635800D01*
G75*
G02*
X91598800Y-118435800I0J200000D01*
G01*
G37*
G36*
G01*
X89948800Y-118435800D02*
X89948800Y-117885800D01*
G75*
G02*
X90148800Y-117685800I200000J0D01*
G01*
X90548800Y-117685800D01*
G75*
G02*
X90748800Y-117885800I0J-200000D01*
G01*
X90748800Y-118435800D01*
G75*
G02*
X90548800Y-118635800I-200000J0D01*
G01*
X90148800Y-118635800D01*
G75*
G02*
X89948800Y-118435800I0J200000D01*
G01*
G37*
%TD*%
%TO.C,R30*%
G36*
G01*
X94559800Y-111067800D02*
X94009800Y-111067800D01*
G75*
G02*
X93809800Y-110867800I0J200000D01*
G01*
X93809800Y-110467800D01*
G75*
G02*
X94009800Y-110267800I200000J0D01*
G01*
X94559800Y-110267800D01*
G75*
G02*
X94759800Y-110467800I0J-200000D01*
G01*
X94759800Y-110867800D01*
G75*
G02*
X94559800Y-111067800I-200000J0D01*
G01*
G37*
G36*
G01*
X94559800Y-112717800D02*
X94009800Y-112717800D01*
G75*
G02*
X93809800Y-112517800I0J200000D01*
G01*
X93809800Y-112117800D01*
G75*
G02*
X94009800Y-111917800I200000J0D01*
G01*
X94559800Y-111917800D01*
G75*
G02*
X94759800Y-112117800I0J-200000D01*
G01*
X94759800Y-112517800D01*
G75*
G02*
X94559800Y-112717800I-200000J0D01*
G01*
G37*
%TD*%
D11*
%TO.C,Q20*%
X87360800Y-99459800D03*
X86410800Y-97459800D03*
X88310800Y-97459800D03*
%TD*%
%TO.C,Q19*%
X89823800Y-101097800D03*
X90773800Y-103097800D03*
X88873800Y-103097800D03*
%TD*%
D12*
%TO.C,Q18*%
X96157800Y-99425800D03*
X94157800Y-100375800D03*
X94157800Y-98475800D03*
%TD*%
D11*
%TO.C,Q17*%
X93141800Y-104825800D03*
X94091800Y-106825800D03*
X92191800Y-106825800D03*
%TD*%
D12*
%TO.C,Q15*%
X85934800Y-112633800D03*
X87934800Y-111683800D03*
X87934800Y-113583800D03*
%TD*%
%TO.C,Q14*%
X90125800Y-115554800D03*
X92125800Y-114604800D03*
X92125800Y-116504800D03*
%TD*%
D11*
%TO.C,Q13*%
X91683800Y-112953800D03*
X90733800Y-110953800D03*
X92633800Y-110953800D03*
%TD*%
%TO.C,R69*%
G36*
G01*
X88548800Y-105821800D02*
X89098800Y-105821800D01*
G75*
G02*
X89298800Y-106021800I0J-200000D01*
G01*
X89298800Y-106421800D01*
G75*
G02*
X89098800Y-106621800I-200000J0D01*
G01*
X88548800Y-106621800D01*
G75*
G02*
X88348800Y-106421800I0J200000D01*
G01*
X88348800Y-106021800D01*
G75*
G02*
X88548800Y-105821800I200000J0D01*
G01*
G37*
G36*
G01*
X88548800Y-104171800D02*
X89098800Y-104171800D01*
G75*
G02*
X89298800Y-104371800I0J-200000D01*
G01*
X89298800Y-104771800D01*
G75*
G02*
X89098800Y-104971800I-200000J0D01*
G01*
X88548800Y-104971800D01*
G75*
G02*
X88348800Y-104771800I0J200000D01*
G01*
X88348800Y-104371800D01*
G75*
G02*
X88548800Y-104171800I200000J0D01*
G01*
G37*
%TD*%
%TO.C,R66*%
G36*
G01*
X90199800Y-105822800D02*
X90749800Y-105822800D01*
G75*
G02*
X90949800Y-106022800I0J-200000D01*
G01*
X90949800Y-106422800D01*
G75*
G02*
X90749800Y-106622800I-200000J0D01*
G01*
X90199800Y-106622800D01*
G75*
G02*
X89999800Y-106422800I0J200000D01*
G01*
X89999800Y-106022800D01*
G75*
G02*
X90199800Y-105822800I200000J0D01*
G01*
G37*
G36*
G01*
X90199800Y-104172800D02*
X90749800Y-104172800D01*
G75*
G02*
X90949800Y-104372800I0J-200000D01*
G01*
X90949800Y-104772800D01*
G75*
G02*
X90749800Y-104972800I-200000J0D01*
G01*
X90199800Y-104972800D01*
G75*
G02*
X89999800Y-104772800I0J200000D01*
G01*
X89999800Y-104372800D01*
G75*
G02*
X90199800Y-104172800I200000J0D01*
G01*
G37*
%TD*%
%TO.C,R25*%
G36*
G01*
X103957800Y-94684800D02*
X103407800Y-94684800D01*
G75*
G02*
X103207800Y-94484800I0J200000D01*
G01*
X103207800Y-94084800D01*
G75*
G02*
X103407800Y-93884800I200000J0D01*
G01*
X103957800Y-93884800D01*
G75*
G02*
X104157800Y-94084800I0J-200000D01*
G01*
X104157800Y-94484800D01*
G75*
G02*
X103957800Y-94684800I-200000J0D01*
G01*
G37*
G36*
G01*
X103957800Y-96334800D02*
X103407800Y-96334800D01*
G75*
G02*
X103207800Y-96134800I0J200000D01*
G01*
X103207800Y-95734800D01*
G75*
G02*
X103407800Y-95534800I200000J0D01*
G01*
X103957800Y-95534800D01*
G75*
G02*
X104157800Y-95734800I0J-200000D01*
G01*
X104157800Y-96134800D01*
G75*
G02*
X103957800Y-96334800I-200000J0D01*
G01*
G37*
%TD*%
%TO.C,R26*%
G36*
G01*
X100909800Y-94684800D02*
X100359800Y-94684800D01*
G75*
G02*
X100159800Y-94484800I0J200000D01*
G01*
X100159800Y-94084800D01*
G75*
G02*
X100359800Y-93884800I200000J0D01*
G01*
X100909800Y-93884800D01*
G75*
G02*
X101109800Y-94084800I0J-200000D01*
G01*
X101109800Y-94484800D01*
G75*
G02*
X100909800Y-94684800I-200000J0D01*
G01*
G37*
G36*
G01*
X100909800Y-96334800D02*
X100359800Y-96334800D01*
G75*
G02*
X100159800Y-96134800I0J200000D01*
G01*
X100159800Y-95734800D01*
G75*
G02*
X100359800Y-95534800I200000J0D01*
G01*
X100909800Y-95534800D01*
G75*
G02*
X101109800Y-95734800I0J-200000D01*
G01*
X101109800Y-96134800D01*
G75*
G02*
X100909800Y-96334800I-200000J0D01*
G01*
G37*
%TD*%
%TO.C,R24*%
G36*
G01*
X104931800Y-95534800D02*
X105481800Y-95534800D01*
G75*
G02*
X105681800Y-95734800I0J-200000D01*
G01*
X105681800Y-96134800D01*
G75*
G02*
X105481800Y-96334800I-200000J0D01*
G01*
X104931800Y-96334800D01*
G75*
G02*
X104731800Y-96134800I0J200000D01*
G01*
X104731800Y-95734800D01*
G75*
G02*
X104931800Y-95534800I200000J0D01*
G01*
G37*
G36*
G01*
X104931800Y-93884800D02*
X105481800Y-93884800D01*
G75*
G02*
X105681800Y-94084800I0J-200000D01*
G01*
X105681800Y-94484800D01*
G75*
G02*
X105481800Y-94684800I-200000J0D01*
G01*
X104931800Y-94684800D01*
G75*
G02*
X104731800Y-94484800I0J200000D01*
G01*
X104731800Y-94084800D01*
G75*
G02*
X104931800Y-93884800I200000J0D01*
G01*
G37*
%TD*%
%TO.C,D4*%
G36*
G01*
X128069050Y-96474800D02*
X127556550Y-96474800D01*
G75*
G02*
X127337800Y-96256050I0J218750D01*
G01*
X127337800Y-95818550D01*
G75*
G02*
X127556550Y-95599800I218750J0D01*
G01*
X128069050Y-95599800D01*
G75*
G02*
X128287800Y-95818550I0J-218750D01*
G01*
X128287800Y-96256050D01*
G75*
G02*
X128069050Y-96474800I-218750J0D01*
G01*
G37*
G36*
G01*
X128069050Y-98049800D02*
X127556550Y-98049800D01*
G75*
G02*
X127337800Y-97831050I0J218750D01*
G01*
X127337800Y-97393550D01*
G75*
G02*
X127556550Y-97174800I218750J0D01*
G01*
X128069050Y-97174800D01*
G75*
G02*
X128287800Y-97393550I0J-218750D01*
G01*
X128287800Y-97831050D01*
G75*
G02*
X128069050Y-98049800I-218750J0D01*
G01*
G37*
%TD*%
%TO.C,R41*%
G36*
G01*
X123641800Y-95787800D02*
X123641800Y-96337800D01*
G75*
G02*
X123441800Y-96537800I-200000J0D01*
G01*
X123041800Y-96537800D01*
G75*
G02*
X122841800Y-96337800I0J200000D01*
G01*
X122841800Y-95787800D01*
G75*
G02*
X123041800Y-95587800I200000J0D01*
G01*
X123441800Y-95587800D01*
G75*
G02*
X123641800Y-95787800I0J-200000D01*
G01*
G37*
G36*
G01*
X125291800Y-95787800D02*
X125291800Y-96337800D01*
G75*
G02*
X125091800Y-96537800I-200000J0D01*
G01*
X124691800Y-96537800D01*
G75*
G02*
X124491800Y-96337800I0J200000D01*
G01*
X124491800Y-95787800D01*
G75*
G02*
X124691800Y-95587800I200000J0D01*
G01*
X125091800Y-95587800D01*
G75*
G02*
X125291800Y-95787800I0J-200000D01*
G01*
G37*
%TD*%
%TO.C,C3*%
G36*
G01*
X107996800Y-102582800D02*
X107496800Y-102582800D01*
G75*
G02*
X107271800Y-102357800I0J225000D01*
G01*
X107271800Y-101907800D01*
G75*
G02*
X107496800Y-101682800I225000J0D01*
G01*
X107996800Y-101682800D01*
G75*
G02*
X108221800Y-101907800I0J-225000D01*
G01*
X108221800Y-102357800D01*
G75*
G02*
X107996800Y-102582800I-225000J0D01*
G01*
G37*
G36*
G01*
X107996800Y-104132800D02*
X107496800Y-104132800D01*
G75*
G02*
X107271800Y-103907800I0J225000D01*
G01*
X107271800Y-103457800D01*
G75*
G02*
X107496800Y-103232800I225000J0D01*
G01*
X107996800Y-103232800D01*
G75*
G02*
X108221800Y-103457800I0J-225000D01*
G01*
X108221800Y-103907800D01*
G75*
G02*
X107996800Y-104132800I-225000J0D01*
G01*
G37*
%TD*%
%TO.C,R15*%
G36*
G01*
X102433800Y-94685800D02*
X101883800Y-94685800D01*
G75*
G02*
X101683800Y-94485800I0J200000D01*
G01*
X101683800Y-94085800D01*
G75*
G02*
X101883800Y-93885800I200000J0D01*
G01*
X102433800Y-93885800D01*
G75*
G02*
X102633800Y-94085800I0J-200000D01*
G01*
X102633800Y-94485800D01*
G75*
G02*
X102433800Y-94685800I-200000J0D01*
G01*
G37*
G36*
G01*
X102433800Y-96335800D02*
X101883800Y-96335800D01*
G75*
G02*
X101683800Y-96135800I0J200000D01*
G01*
X101683800Y-95735800D01*
G75*
G02*
X101883800Y-95535800I200000J0D01*
G01*
X102433800Y-95535800D01*
G75*
G02*
X102633800Y-95735800I0J-200000D01*
G01*
X102633800Y-96135800D01*
G75*
G02*
X102433800Y-96335800I-200000J0D01*
G01*
G37*
%TD*%
%TO.C,R6*%
G36*
G01*
X99385800Y-94684800D02*
X98835800Y-94684800D01*
G75*
G02*
X98635800Y-94484800I0J200000D01*
G01*
X98635800Y-94084800D01*
G75*
G02*
X98835800Y-93884800I200000J0D01*
G01*
X99385800Y-93884800D01*
G75*
G02*
X99585800Y-94084800I0J-200000D01*
G01*
X99585800Y-94484800D01*
G75*
G02*
X99385800Y-94684800I-200000J0D01*
G01*
G37*
G36*
G01*
X99385800Y-96334800D02*
X98835800Y-96334800D01*
G75*
G02*
X98635800Y-96134800I0J200000D01*
G01*
X98635800Y-95734800D01*
G75*
G02*
X98835800Y-95534800I200000J0D01*
G01*
X99385800Y-95534800D01*
G75*
G02*
X99585800Y-95734800I0J-200000D01*
G01*
X99585800Y-96134800D01*
G75*
G02*
X99385800Y-96334800I-200000J0D01*
G01*
G37*
%TD*%
%TO.C,R9*%
G36*
G01*
X116401800Y-117123800D02*
X116401800Y-117673800D01*
G75*
G02*
X116201800Y-117873800I-200000J0D01*
G01*
X115801800Y-117873800D01*
G75*
G02*
X115601800Y-117673800I0J200000D01*
G01*
X115601800Y-117123800D01*
G75*
G02*
X115801800Y-116923800I200000J0D01*
G01*
X116201800Y-116923800D01*
G75*
G02*
X116401800Y-117123800I0J-200000D01*
G01*
G37*
G36*
G01*
X118051800Y-117123800D02*
X118051800Y-117673800D01*
G75*
G02*
X117851800Y-117873800I-200000J0D01*
G01*
X117451800Y-117873800D01*
G75*
G02*
X117251800Y-117673800I0J200000D01*
G01*
X117251800Y-117123800D01*
G75*
G02*
X117451800Y-116923800I200000J0D01*
G01*
X117851800Y-116923800D01*
G75*
G02*
X118051800Y-117123800I0J-200000D01*
G01*
G37*
%TD*%
%TO.C,R19*%
G36*
G01*
X107979800Y-95535800D02*
X108529800Y-95535800D01*
G75*
G02*
X108729800Y-95735800I0J-200000D01*
G01*
X108729800Y-96135800D01*
G75*
G02*
X108529800Y-96335800I-200000J0D01*
G01*
X107979800Y-96335800D01*
G75*
G02*
X107779800Y-96135800I0J200000D01*
G01*
X107779800Y-95735800D01*
G75*
G02*
X107979800Y-95535800I200000J0D01*
G01*
G37*
G36*
G01*
X107979800Y-93885800D02*
X108529800Y-93885800D01*
G75*
G02*
X108729800Y-94085800I0J-200000D01*
G01*
X108729800Y-94485800D01*
G75*
G02*
X108529800Y-94685800I-200000J0D01*
G01*
X107979800Y-94685800D01*
G75*
G02*
X107779800Y-94485800I0J200000D01*
G01*
X107779800Y-94085800D01*
G75*
G02*
X107979800Y-93885800I200000J0D01*
G01*
G37*
%TD*%
%TO.C,R20*%
G36*
G01*
X106455800Y-95534800D02*
X107005800Y-95534800D01*
G75*
G02*
X107205800Y-95734800I0J-200000D01*
G01*
X107205800Y-96134800D01*
G75*
G02*
X107005800Y-96334800I-200000J0D01*
G01*
X106455800Y-96334800D01*
G75*
G02*
X106255800Y-96134800I0J200000D01*
G01*
X106255800Y-95734800D01*
G75*
G02*
X106455800Y-95534800I200000J0D01*
G01*
G37*
G36*
G01*
X106455800Y-93884800D02*
X107005800Y-93884800D01*
G75*
G02*
X107205800Y-94084800I0J-200000D01*
G01*
X107205800Y-94484800D01*
G75*
G02*
X107005800Y-94684800I-200000J0D01*
G01*
X106455800Y-94684800D01*
G75*
G02*
X106255800Y-94484800I0J200000D01*
G01*
X106255800Y-94084800D01*
G75*
G02*
X106455800Y-93884800I200000J0D01*
G01*
G37*
%TD*%
%TO.C,U14*%
G36*
G01*
X79385300Y-128786300D02*
X79085300Y-128786300D01*
G75*
G02*
X78935300Y-128636300I0J150000D01*
G01*
X78935300Y-126986300D01*
G75*
G02*
X79085300Y-126836300I150000J0D01*
G01*
X79385300Y-126836300D01*
G75*
G02*
X79535300Y-126986300I0J-150000D01*
G01*
X79535300Y-128636300D01*
G75*
G02*
X79385300Y-128786300I-150000J0D01*
G01*
G37*
G36*
G01*
X80655300Y-128786300D02*
X80355300Y-128786300D01*
G75*
G02*
X80205300Y-128636300I0J150000D01*
G01*
X80205300Y-126986300D01*
G75*
G02*
X80355300Y-126836300I150000J0D01*
G01*
X80655300Y-126836300D01*
G75*
G02*
X80805300Y-126986300I0J-150000D01*
G01*
X80805300Y-128636300D01*
G75*
G02*
X80655300Y-128786300I-150000J0D01*
G01*
G37*
G36*
G01*
X81925300Y-128786300D02*
X81625300Y-128786300D01*
G75*
G02*
X81475300Y-128636300I0J150000D01*
G01*
X81475300Y-126986300D01*
G75*
G02*
X81625300Y-126836300I150000J0D01*
G01*
X81925300Y-126836300D01*
G75*
G02*
X82075300Y-126986300I0J-150000D01*
G01*
X82075300Y-128636300D01*
G75*
G02*
X81925300Y-128786300I-150000J0D01*
G01*
G37*
G36*
G01*
X83195300Y-128786300D02*
X82895300Y-128786300D01*
G75*
G02*
X82745300Y-128636300I0J150000D01*
G01*
X82745300Y-126986300D01*
G75*
G02*
X82895300Y-126836300I150000J0D01*
G01*
X83195300Y-126836300D01*
G75*
G02*
X83345300Y-126986300I0J-150000D01*
G01*
X83345300Y-128636300D01*
G75*
G02*
X83195300Y-128786300I-150000J0D01*
G01*
G37*
G36*
G01*
X83195300Y-123836300D02*
X82895300Y-123836300D01*
G75*
G02*
X82745300Y-123686300I0J150000D01*
G01*
X82745300Y-122036300D01*
G75*
G02*
X82895300Y-121886300I150000J0D01*
G01*
X83195300Y-121886300D01*
G75*
G02*
X83345300Y-122036300I0J-150000D01*
G01*
X83345300Y-123686300D01*
G75*
G02*
X83195300Y-123836300I-150000J0D01*
G01*
G37*
G36*
G01*
X81925300Y-123836300D02*
X81625300Y-123836300D01*
G75*
G02*
X81475300Y-123686300I0J150000D01*
G01*
X81475300Y-122036300D01*
G75*
G02*
X81625300Y-121886300I150000J0D01*
G01*
X81925300Y-121886300D01*
G75*
G02*
X82075300Y-122036300I0J-150000D01*
G01*
X82075300Y-123686300D01*
G75*
G02*
X81925300Y-123836300I-150000J0D01*
G01*
G37*
G36*
G01*
X80655300Y-123836300D02*
X80355300Y-123836300D01*
G75*
G02*
X80205300Y-123686300I0J150000D01*
G01*
X80205300Y-122036300D01*
G75*
G02*
X80355300Y-121886300I150000J0D01*
G01*
X80655300Y-121886300D01*
G75*
G02*
X80805300Y-122036300I0J-150000D01*
G01*
X80805300Y-123686300D01*
G75*
G02*
X80655300Y-123836300I-150000J0D01*
G01*
G37*
G36*
G01*
X79385300Y-123836300D02*
X79085300Y-123836300D01*
G75*
G02*
X78935300Y-123686300I0J150000D01*
G01*
X78935300Y-122036300D01*
G75*
G02*
X79085300Y-121886300I150000J0D01*
G01*
X79385300Y-121886300D01*
G75*
G02*
X79535300Y-122036300I0J-150000D01*
G01*
X79535300Y-123686300D01*
G75*
G02*
X79385300Y-123836300I-150000J0D01*
G01*
G37*
%TD*%
%TO.C,C39*%
G36*
G01*
X78645300Y-121014300D02*
X78645300Y-120514300D01*
G75*
G02*
X78870300Y-120289300I225000J0D01*
G01*
X79320300Y-120289300D01*
G75*
G02*
X79545300Y-120514300I0J-225000D01*
G01*
X79545300Y-121014300D01*
G75*
G02*
X79320300Y-121239300I-225000J0D01*
G01*
X78870300Y-121239300D01*
G75*
G02*
X78645300Y-121014300I0J225000D01*
G01*
G37*
G36*
G01*
X80195300Y-121014300D02*
X80195300Y-120514300D01*
G75*
G02*
X80420300Y-120289300I225000J0D01*
G01*
X80870300Y-120289300D01*
G75*
G02*
X81095300Y-120514300I0J-225000D01*
G01*
X81095300Y-121014300D01*
G75*
G02*
X80870300Y-121239300I-225000J0D01*
G01*
X80420300Y-121239300D01*
G75*
G02*
X80195300Y-121014300I0J225000D01*
G01*
G37*
%TD*%
%TO.C,U15*%
G36*
G01*
X73478300Y-123089300D02*
X73278300Y-123089300D01*
G75*
G02*
X73178300Y-122989300I0J100000D01*
G01*
X73178300Y-121714300D01*
G75*
G02*
X73278300Y-121614300I100000J0D01*
G01*
X73478300Y-121614300D01*
G75*
G02*
X73578300Y-121714300I0J-100000D01*
G01*
X73578300Y-122989300D01*
G75*
G02*
X73478300Y-123089300I-100000J0D01*
G01*
G37*
G36*
G01*
X74128300Y-123089300D02*
X73928300Y-123089300D01*
G75*
G02*
X73828300Y-122989300I0J100000D01*
G01*
X73828300Y-121714300D01*
G75*
G02*
X73928300Y-121614300I100000J0D01*
G01*
X74128300Y-121614300D01*
G75*
G02*
X74228300Y-121714300I0J-100000D01*
G01*
X74228300Y-122989300D01*
G75*
G02*
X74128300Y-123089300I-100000J0D01*
G01*
G37*
G36*
G01*
X74778300Y-123089300D02*
X74578300Y-123089300D01*
G75*
G02*
X74478300Y-122989300I0J100000D01*
G01*
X74478300Y-121714300D01*
G75*
G02*
X74578300Y-121614300I100000J0D01*
G01*
X74778300Y-121614300D01*
G75*
G02*
X74878300Y-121714300I0J-100000D01*
G01*
X74878300Y-122989300D01*
G75*
G02*
X74778300Y-123089300I-100000J0D01*
G01*
G37*
G36*
G01*
X75428300Y-123089300D02*
X75228300Y-123089300D01*
G75*
G02*
X75128300Y-122989300I0J100000D01*
G01*
X75128300Y-121714300D01*
G75*
G02*
X75228300Y-121614300I100000J0D01*
G01*
X75428300Y-121614300D01*
G75*
G02*
X75528300Y-121714300I0J-100000D01*
G01*
X75528300Y-122989300D01*
G75*
G02*
X75428300Y-123089300I-100000J0D01*
G01*
G37*
G36*
G01*
X75428300Y-128814300D02*
X75228300Y-128814300D01*
G75*
G02*
X75128300Y-128714300I0J100000D01*
G01*
X75128300Y-127439300D01*
G75*
G02*
X75228300Y-127339300I100000J0D01*
G01*
X75428300Y-127339300D01*
G75*
G02*
X75528300Y-127439300I0J-100000D01*
G01*
X75528300Y-128714300D01*
G75*
G02*
X75428300Y-128814300I-100000J0D01*
G01*
G37*
G36*
G01*
X74778300Y-128814300D02*
X74578300Y-128814300D01*
G75*
G02*
X74478300Y-128714300I0J100000D01*
G01*
X74478300Y-127439300D01*
G75*
G02*
X74578300Y-127339300I100000J0D01*
G01*
X74778300Y-127339300D01*
G75*
G02*
X74878300Y-127439300I0J-100000D01*
G01*
X74878300Y-128714300D01*
G75*
G02*
X74778300Y-128814300I-100000J0D01*
G01*
G37*
G36*
G01*
X74128300Y-128814300D02*
X73928300Y-128814300D01*
G75*
G02*
X73828300Y-128714300I0J100000D01*
G01*
X73828300Y-127439300D01*
G75*
G02*
X73928300Y-127339300I100000J0D01*
G01*
X74128300Y-127339300D01*
G75*
G02*
X74228300Y-127439300I0J-100000D01*
G01*
X74228300Y-128714300D01*
G75*
G02*
X74128300Y-128814300I-100000J0D01*
G01*
G37*
G36*
G01*
X73478300Y-128814300D02*
X73278300Y-128814300D01*
G75*
G02*
X73178300Y-128714300I0J100000D01*
G01*
X73178300Y-127439300D01*
G75*
G02*
X73278300Y-127339300I100000J0D01*
G01*
X73478300Y-127339300D01*
G75*
G02*
X73578300Y-127439300I0J-100000D01*
G01*
X73578300Y-128714300D01*
G75*
G02*
X73478300Y-128814300I-100000J0D01*
G01*
G37*
%TD*%
%TO.C,C40*%
G36*
G01*
X73514800Y-118283800D02*
X73514800Y-117783800D01*
G75*
G02*
X73739800Y-117558800I225000J0D01*
G01*
X74189800Y-117558800D01*
G75*
G02*
X74414800Y-117783800I0J-225000D01*
G01*
X74414800Y-118283800D01*
G75*
G02*
X74189800Y-118508800I-225000J0D01*
G01*
X73739800Y-118508800D01*
G75*
G02*
X73514800Y-118283800I0J225000D01*
G01*
G37*
G36*
G01*
X71964800Y-118283800D02*
X71964800Y-117783800D01*
G75*
G02*
X72189800Y-117558800I225000J0D01*
G01*
X72639800Y-117558800D01*
G75*
G02*
X72864800Y-117783800I0J-225000D01*
G01*
X72864800Y-118283800D01*
G75*
G02*
X72639800Y-118508800I-225000J0D01*
G01*
X72189800Y-118508800D01*
G75*
G02*
X71964800Y-118283800I0J225000D01*
G01*
G37*
%TD*%
%TO.C,U16*%
G36*
G01*
X72590800Y-121105800D02*
X72290800Y-121105800D01*
G75*
G02*
X72140800Y-120955800I0J150000D01*
G01*
X72140800Y-119305800D01*
G75*
G02*
X72290800Y-119155800I150000J0D01*
G01*
X72590800Y-119155800D01*
G75*
G02*
X72740800Y-119305800I0J-150000D01*
G01*
X72740800Y-120955800D01*
G75*
G02*
X72590800Y-121105800I-150000J0D01*
G01*
G37*
G36*
G01*
X73860800Y-121105800D02*
X73560800Y-121105800D01*
G75*
G02*
X73410800Y-120955800I0J150000D01*
G01*
X73410800Y-119305800D01*
G75*
G02*
X73560800Y-119155800I150000J0D01*
G01*
X73860800Y-119155800D01*
G75*
G02*
X74010800Y-119305800I0J-150000D01*
G01*
X74010800Y-120955800D01*
G75*
G02*
X73860800Y-121105800I-150000J0D01*
G01*
G37*
G36*
G01*
X75130800Y-121105800D02*
X74830800Y-121105800D01*
G75*
G02*
X74680800Y-120955800I0J150000D01*
G01*
X74680800Y-119305800D01*
G75*
G02*
X74830800Y-119155800I150000J0D01*
G01*
X75130800Y-119155800D01*
G75*
G02*
X75280800Y-119305800I0J-150000D01*
G01*
X75280800Y-120955800D01*
G75*
G02*
X75130800Y-121105800I-150000J0D01*
G01*
G37*
G36*
G01*
X76400800Y-121105800D02*
X76100800Y-121105800D01*
G75*
G02*
X75950800Y-120955800I0J150000D01*
G01*
X75950800Y-119305800D01*
G75*
G02*
X76100800Y-119155800I150000J0D01*
G01*
X76400800Y-119155800D01*
G75*
G02*
X76550800Y-119305800I0J-150000D01*
G01*
X76550800Y-120955800D01*
G75*
G02*
X76400800Y-121105800I-150000J0D01*
G01*
G37*
G36*
G01*
X76400800Y-126055800D02*
X76100800Y-126055800D01*
G75*
G02*
X75950800Y-125905800I0J150000D01*
G01*
X75950800Y-124255800D01*
G75*
G02*
X76100800Y-124105800I150000J0D01*
G01*
X76400800Y-124105800D01*
G75*
G02*
X76550800Y-124255800I0J-150000D01*
G01*
X76550800Y-125905800D01*
G75*
G02*
X76400800Y-126055800I-150000J0D01*
G01*
G37*
G36*
G01*
X75130800Y-126055800D02*
X74830800Y-126055800D01*
G75*
G02*
X74680800Y-125905800I0J150000D01*
G01*
X74680800Y-124255800D01*
G75*
G02*
X74830800Y-124105800I150000J0D01*
G01*
X75130800Y-124105800D01*
G75*
G02*
X75280800Y-124255800I0J-150000D01*
G01*
X75280800Y-125905800D01*
G75*
G02*
X75130800Y-126055800I-150000J0D01*
G01*
G37*
G36*
G01*
X73860800Y-126055800D02*
X73560800Y-126055800D01*
G75*
G02*
X73410800Y-125905800I0J150000D01*
G01*
X73410800Y-124255800D01*
G75*
G02*
X73560800Y-124105800I150000J0D01*
G01*
X73860800Y-124105800D01*
G75*
G02*
X74010800Y-124255800I0J-150000D01*
G01*
X74010800Y-125905800D01*
G75*
G02*
X73860800Y-126055800I-150000J0D01*
G01*
G37*
G36*
G01*
X72590800Y-126055800D02*
X72290800Y-126055800D01*
G75*
G02*
X72140800Y-125905800I0J150000D01*
G01*
X72140800Y-124255800D01*
G75*
G02*
X72290800Y-124105800I150000J0D01*
G01*
X72590800Y-124105800D01*
G75*
G02*
X72740800Y-124255800I0J-150000D01*
G01*
X72740800Y-125905800D01*
G75*
G02*
X72590800Y-126055800I-150000J0D01*
G01*
G37*
%TD*%
%TO.C,R38*%
G36*
G01*
X101060300Y-117102300D02*
X101060300Y-116552300D01*
G75*
G02*
X101260300Y-116352300I200000J0D01*
G01*
X101660300Y-116352300D01*
G75*
G02*
X101860300Y-116552300I0J-200000D01*
G01*
X101860300Y-117102300D01*
G75*
G02*
X101660300Y-117302300I-200000J0D01*
G01*
X101260300Y-117302300D01*
G75*
G02*
X101060300Y-117102300I0J200000D01*
G01*
G37*
G36*
G01*
X99410300Y-117102300D02*
X99410300Y-116552300D01*
G75*
G02*
X99610300Y-116352300I200000J0D01*
G01*
X100010300Y-116352300D01*
G75*
G02*
X100210300Y-116552300I0J-200000D01*
G01*
X100210300Y-117102300D01*
G75*
G02*
X100010300Y-117302300I-200000J0D01*
G01*
X99610300Y-117302300D01*
G75*
G02*
X99410300Y-117102300I0J200000D01*
G01*
G37*
%TD*%
%TO.C,C17*%
G36*
G01*
X99051300Y-123515300D02*
X99551300Y-123515300D01*
G75*
G02*
X99776300Y-123740300I0J-225000D01*
G01*
X99776300Y-124190300D01*
G75*
G02*
X99551300Y-124415300I-225000J0D01*
G01*
X99051300Y-124415300D01*
G75*
G02*
X98826300Y-124190300I0J225000D01*
G01*
X98826300Y-123740300D01*
G75*
G02*
X99051300Y-123515300I225000J0D01*
G01*
G37*
G36*
G01*
X99051300Y-121965300D02*
X99551300Y-121965300D01*
G75*
G02*
X99776300Y-122190300I0J-225000D01*
G01*
X99776300Y-122640300D01*
G75*
G02*
X99551300Y-122865300I-225000J0D01*
G01*
X99051300Y-122865300D01*
G75*
G02*
X98826300Y-122640300I0J225000D01*
G01*
X98826300Y-122190300D01*
G75*
G02*
X99051300Y-121965300I225000J0D01*
G01*
G37*
%TD*%
D13*
%TO.C,Y2*%
X99117300Y-119748300D03*
X100317300Y-119748300D03*
X101517300Y-119748300D03*
%TD*%
%TO.C,C16*%
G36*
G01*
X101083300Y-123515300D02*
X101583300Y-123515300D01*
G75*
G02*
X101808300Y-123740300I0J-225000D01*
G01*
X101808300Y-124190300D01*
G75*
G02*
X101583300Y-124415300I-225000J0D01*
G01*
X101083300Y-124415300D01*
G75*
G02*
X100858300Y-124190300I0J225000D01*
G01*
X100858300Y-123740300D01*
G75*
G02*
X101083300Y-123515300I225000J0D01*
G01*
G37*
G36*
G01*
X101083300Y-121965300D02*
X101583300Y-121965300D01*
G75*
G02*
X101808300Y-122190300I0J-225000D01*
G01*
X101808300Y-122640300D01*
G75*
G02*
X101583300Y-122865300I-225000J0D01*
G01*
X101083300Y-122865300D01*
G75*
G02*
X100858300Y-122640300I0J225000D01*
G01*
X100858300Y-122190300D01*
G75*
G02*
X101083300Y-121965300I225000J0D01*
G01*
G37*
%TD*%
D14*
%TO.C,J9*%
X90030300Y-120938300D03*
X87490300Y-120938300D03*
X91300300Y-123638300D03*
X88760300Y-123638300D03*
X86220300Y-123638300D03*
%TD*%
D15*
%TO.C,SW1*%
X72355800Y-111598300D03*
X72355800Y-115198300D03*
X73795800Y-111598300D03*
X73795800Y-115198300D03*
%TD*%
%TO.C,R84*%
G36*
G01*
X126308800Y-109503800D02*
X126308800Y-110053800D01*
G75*
G02*
X126108800Y-110253800I-200000J0D01*
G01*
X125708800Y-110253800D01*
G75*
G02*
X125508800Y-110053800I0J200000D01*
G01*
X125508800Y-109503800D01*
G75*
G02*
X125708800Y-109303800I200000J0D01*
G01*
X126108800Y-109303800D01*
G75*
G02*
X126308800Y-109503800I0J-200000D01*
G01*
G37*
G36*
G01*
X127958800Y-109503800D02*
X127958800Y-110053800D01*
G75*
G02*
X127758800Y-110253800I-200000J0D01*
G01*
X127358800Y-110253800D01*
G75*
G02*
X127158800Y-110053800I0J200000D01*
G01*
X127158800Y-109503800D01*
G75*
G02*
X127358800Y-109303800I200000J0D01*
G01*
X127758800Y-109303800D01*
G75*
G02*
X127958800Y-109503800I0J-200000D01*
G01*
G37*
%TD*%
%TO.C,R83*%
G36*
G01*
X127157800Y-107386800D02*
X127157800Y-106836800D01*
G75*
G02*
X127357800Y-106636800I200000J0D01*
G01*
X127757800Y-106636800D01*
G75*
G02*
X127957800Y-106836800I0J-200000D01*
G01*
X127957800Y-107386800D01*
G75*
G02*
X127757800Y-107586800I-200000J0D01*
G01*
X127357800Y-107586800D01*
G75*
G02*
X127157800Y-107386800I0J200000D01*
G01*
G37*
G36*
G01*
X125507800Y-107386800D02*
X125507800Y-106836800D01*
G75*
G02*
X125707800Y-106636800I200000J0D01*
G01*
X126107800Y-106636800D01*
G75*
G02*
X126307800Y-106836800I0J-200000D01*
G01*
X126307800Y-107386800D01*
G75*
G02*
X126107800Y-107586800I-200000J0D01*
G01*
X125707800Y-107586800D01*
G75*
G02*
X125507800Y-107386800I0J200000D01*
G01*
G37*
%TD*%
%TO.C,R65*%
G36*
G01*
X122244800Y-100804300D02*
X122244800Y-101354300D01*
G75*
G02*
X122044800Y-101554300I-200000J0D01*
G01*
X121644800Y-101554300D01*
G75*
G02*
X121444800Y-101354300I0J200000D01*
G01*
X121444800Y-100804300D01*
G75*
G02*
X121644800Y-100604300I200000J0D01*
G01*
X122044800Y-100604300D01*
G75*
G02*
X122244800Y-100804300I0J-200000D01*
G01*
G37*
G36*
G01*
X123894800Y-100804300D02*
X123894800Y-101354300D01*
G75*
G02*
X123694800Y-101554300I-200000J0D01*
G01*
X123294800Y-101554300D01*
G75*
G02*
X123094800Y-101354300I0J200000D01*
G01*
X123094800Y-100804300D01*
G75*
G02*
X123294800Y-100604300I200000J0D01*
G01*
X123694800Y-100604300D01*
G75*
G02*
X123894800Y-100804300I0J-200000D01*
G01*
G37*
%TD*%
%TO.C,R64*%
G36*
G01*
X119703800Y-102645800D02*
X119703800Y-103195800D01*
G75*
G02*
X119503800Y-103395800I-200000J0D01*
G01*
X119103800Y-103395800D01*
G75*
G02*
X118903800Y-103195800I0J200000D01*
G01*
X118903800Y-102645800D01*
G75*
G02*
X119103800Y-102445800I200000J0D01*
G01*
X119503800Y-102445800D01*
G75*
G02*
X119703800Y-102645800I0J-200000D01*
G01*
G37*
G36*
G01*
X121353800Y-102645800D02*
X121353800Y-103195800D01*
G75*
G02*
X121153800Y-103395800I-200000J0D01*
G01*
X120753800Y-103395800D01*
G75*
G02*
X120553800Y-103195800I0J200000D01*
G01*
X120553800Y-102645800D01*
G75*
G02*
X120753800Y-102445800I200000J0D01*
G01*
X121153800Y-102445800D01*
G75*
G02*
X121353800Y-102645800I0J-200000D01*
G01*
G37*
%TD*%
%TO.C,R63*%
G36*
G01*
X116530800Y-102939800D02*
X115980800Y-102939800D01*
G75*
G02*
X115780800Y-102739800I0J200000D01*
G01*
X115780800Y-102339800D01*
G75*
G02*
X115980800Y-102139800I200000J0D01*
G01*
X116530800Y-102139800D01*
G75*
G02*
X116730800Y-102339800I0J-200000D01*
G01*
X116730800Y-102739800D01*
G75*
G02*
X116530800Y-102939800I-200000J0D01*
G01*
G37*
G36*
G01*
X116530800Y-104589800D02*
X115980800Y-104589800D01*
G75*
G02*
X115780800Y-104389800I0J200000D01*
G01*
X115780800Y-103989800D01*
G75*
G02*
X115980800Y-103789800I200000J0D01*
G01*
X116530800Y-103789800D01*
G75*
G02*
X116730800Y-103989800I0J-200000D01*
G01*
X116730800Y-104389800D01*
G75*
G02*
X116530800Y-104589800I-200000J0D01*
G01*
G37*
%TD*%
%TO.C,R62*%
G36*
G01*
X117443300Y-101290800D02*
X117443300Y-100740800D01*
G75*
G02*
X117643300Y-100540800I200000J0D01*
G01*
X118043300Y-100540800D01*
G75*
G02*
X118243300Y-100740800I0J-200000D01*
G01*
X118243300Y-101290800D01*
G75*
G02*
X118043300Y-101490800I-200000J0D01*
G01*
X117643300Y-101490800D01*
G75*
G02*
X117443300Y-101290800I0J200000D01*
G01*
G37*
G36*
G01*
X115793300Y-101290800D02*
X115793300Y-100740800D01*
G75*
G02*
X115993300Y-100540800I200000J0D01*
G01*
X116393300Y-100540800D01*
G75*
G02*
X116593300Y-100740800I0J-200000D01*
G01*
X116593300Y-101290800D01*
G75*
G02*
X116393300Y-101490800I-200000J0D01*
G01*
X115993300Y-101490800D01*
G75*
G02*
X115793300Y-101290800I0J200000D01*
G01*
G37*
%TD*%
%TO.C,R61*%
G36*
G01*
X122243800Y-109186300D02*
X122243800Y-109736300D01*
G75*
G02*
X122043800Y-109936300I-200000J0D01*
G01*
X121643800Y-109936300D01*
G75*
G02*
X121443800Y-109736300I0J200000D01*
G01*
X121443800Y-109186300D01*
G75*
G02*
X121643800Y-108986300I200000J0D01*
G01*
X122043800Y-108986300D01*
G75*
G02*
X122243800Y-109186300I0J-200000D01*
G01*
G37*
G36*
G01*
X123893800Y-109186300D02*
X123893800Y-109736300D01*
G75*
G02*
X123693800Y-109936300I-200000J0D01*
G01*
X123293800Y-109936300D01*
G75*
G02*
X123093800Y-109736300I0J200000D01*
G01*
X123093800Y-109186300D01*
G75*
G02*
X123293800Y-108986300I200000J0D01*
G01*
X123693800Y-108986300D01*
G75*
G02*
X123893800Y-109186300I0J-200000D01*
G01*
G37*
%TD*%
%TO.C,R60*%
G36*
G01*
X119703800Y-111027800D02*
X119703800Y-111577800D01*
G75*
G02*
X119503800Y-111777800I-200000J0D01*
G01*
X119103800Y-111777800D01*
G75*
G02*
X118903800Y-111577800I0J200000D01*
G01*
X118903800Y-111027800D01*
G75*
G02*
X119103800Y-110827800I200000J0D01*
G01*
X119503800Y-110827800D01*
G75*
G02*
X119703800Y-111027800I0J-200000D01*
G01*
G37*
G36*
G01*
X121353800Y-111027800D02*
X121353800Y-111577800D01*
G75*
G02*
X121153800Y-111777800I-200000J0D01*
G01*
X120753800Y-111777800D01*
G75*
G02*
X120553800Y-111577800I0J200000D01*
G01*
X120553800Y-111027800D01*
G75*
G02*
X120753800Y-110827800I200000J0D01*
G01*
X121153800Y-110827800D01*
G75*
G02*
X121353800Y-111027800I0J-200000D01*
G01*
G37*
%TD*%
D12*
%TO.C,Q22*%
X127939800Y-112384800D03*
X125939800Y-113334800D03*
X125939800Y-111434800D03*
%TD*%
%TO.C,R28*%
G36*
G01*
X80295800Y-115514800D02*
X80295800Y-114964800D01*
G75*
G02*
X80495800Y-114764800I200000J0D01*
G01*
X80895800Y-114764800D01*
G75*
G02*
X81095800Y-114964800I0J-200000D01*
G01*
X81095800Y-115514800D01*
G75*
G02*
X80895800Y-115714800I-200000J0D01*
G01*
X80495800Y-115714800D01*
G75*
G02*
X80295800Y-115514800I0J200000D01*
G01*
G37*
G36*
G01*
X78645800Y-115514800D02*
X78645800Y-114964800D01*
G75*
G02*
X78845800Y-114764800I200000J0D01*
G01*
X79245800Y-114764800D01*
G75*
G02*
X79445800Y-114964800I0J-200000D01*
G01*
X79445800Y-115514800D01*
G75*
G02*
X79245800Y-115714800I-200000J0D01*
G01*
X78845800Y-115714800D01*
G75*
G02*
X78645800Y-115514800I0J200000D01*
G01*
G37*
%TD*%
%TO.C,R29*%
G36*
G01*
X80295800Y-109418800D02*
X80295800Y-108868800D01*
G75*
G02*
X80495800Y-108668800I200000J0D01*
G01*
X80895800Y-108668800D01*
G75*
G02*
X81095800Y-108868800I0J-200000D01*
G01*
X81095800Y-109418800D01*
G75*
G02*
X80895800Y-109618800I-200000J0D01*
G01*
X80495800Y-109618800D01*
G75*
G02*
X80295800Y-109418800I0J200000D01*
G01*
G37*
G36*
G01*
X78645800Y-109418800D02*
X78645800Y-108868800D01*
G75*
G02*
X78845800Y-108668800I200000J0D01*
G01*
X79245800Y-108668800D01*
G75*
G02*
X79445800Y-108868800I0J-200000D01*
G01*
X79445800Y-109418800D01*
G75*
G02*
X79245800Y-109618800I-200000J0D01*
G01*
X78845800Y-109618800D01*
G75*
G02*
X78645800Y-109418800I0J200000D01*
G01*
G37*
%TD*%
%TO.C,R27*%
G36*
G01*
X80294800Y-140152800D02*
X80294800Y-139602800D01*
G75*
G02*
X80494800Y-139402800I200000J0D01*
G01*
X80894800Y-139402800D01*
G75*
G02*
X81094800Y-139602800I0J-200000D01*
G01*
X81094800Y-140152800D01*
G75*
G02*
X80894800Y-140352800I-200000J0D01*
G01*
X80494800Y-140352800D01*
G75*
G02*
X80294800Y-140152800I0J200000D01*
G01*
G37*
G36*
G01*
X78644800Y-140152800D02*
X78644800Y-139602800D01*
G75*
G02*
X78844800Y-139402800I200000J0D01*
G01*
X79244800Y-139402800D01*
G75*
G02*
X79444800Y-139602800I0J-200000D01*
G01*
X79444800Y-140152800D01*
G75*
G02*
X79244800Y-140352800I-200000J0D01*
G01*
X78844800Y-140352800D01*
G75*
G02*
X78644800Y-140152800I0J200000D01*
G01*
G37*
%TD*%
D11*
%TO.C,Q11*%
X82854800Y-119033800D03*
X81904800Y-117033800D03*
X83804800Y-117033800D03*
%TD*%
D12*
%TO.C,Q12*%
X83838800Y-112125800D03*
X81838800Y-113075800D03*
X81838800Y-111175800D03*
%TD*%
%TO.C,Q10*%
X85632800Y-140639800D03*
X83632800Y-141589800D03*
X83632800Y-139689800D03*
%TD*%
%TO.C,R42*%
G36*
G01*
X112593800Y-122498800D02*
X112043800Y-122498800D01*
G75*
G02*
X111843800Y-122298800I0J200000D01*
G01*
X111843800Y-121898800D01*
G75*
G02*
X112043800Y-121698800I200000J0D01*
G01*
X112593800Y-121698800D01*
G75*
G02*
X112793800Y-121898800I0J-200000D01*
G01*
X112793800Y-122298800D01*
G75*
G02*
X112593800Y-122498800I-200000J0D01*
G01*
G37*
G36*
G01*
X112593800Y-124148800D02*
X112043800Y-124148800D01*
G75*
G02*
X111843800Y-123948800I0J200000D01*
G01*
X111843800Y-123548800D01*
G75*
G02*
X112043800Y-123348800I200000J0D01*
G01*
X112593800Y-123348800D01*
G75*
G02*
X112793800Y-123548800I0J-200000D01*
G01*
X112793800Y-123948800D01*
G75*
G02*
X112593800Y-124148800I-200000J0D01*
G01*
G37*
%TD*%
%TO.C,C23*%
G36*
G01*
X104071300Y-116886800D02*
X104071300Y-116386800D01*
G75*
G02*
X104296300Y-116161800I225000J0D01*
G01*
X104746300Y-116161800D01*
G75*
G02*
X104971300Y-116386800I0J-225000D01*
G01*
X104971300Y-116886800D01*
G75*
G02*
X104746300Y-117111800I-225000J0D01*
G01*
X104296300Y-117111800D01*
G75*
G02*
X104071300Y-116886800I0J225000D01*
G01*
G37*
G36*
G01*
X102521300Y-116886800D02*
X102521300Y-116386800D01*
G75*
G02*
X102746300Y-116161800I225000J0D01*
G01*
X103196300Y-116161800D01*
G75*
G02*
X103421300Y-116386800I0J-225000D01*
G01*
X103421300Y-116886800D01*
G75*
G02*
X103196300Y-117111800I-225000J0D01*
G01*
X102746300Y-117111800D01*
G75*
G02*
X102521300Y-116886800I0J225000D01*
G01*
G37*
%TD*%
%TO.C,C20*%
G36*
G01*
X107119300Y-116886800D02*
X107119300Y-116386800D01*
G75*
G02*
X107344300Y-116161800I225000J0D01*
G01*
X107794300Y-116161800D01*
G75*
G02*
X108019300Y-116386800I0J-225000D01*
G01*
X108019300Y-116886800D01*
G75*
G02*
X107794300Y-117111800I-225000J0D01*
G01*
X107344300Y-117111800D01*
G75*
G02*
X107119300Y-116886800I0J225000D01*
G01*
G37*
G36*
G01*
X105569300Y-116886800D02*
X105569300Y-116386800D01*
G75*
G02*
X105794300Y-116161800I225000J0D01*
G01*
X106244300Y-116161800D01*
G75*
G02*
X106469300Y-116386800I0J-225000D01*
G01*
X106469300Y-116886800D01*
G75*
G02*
X106244300Y-117111800I-225000J0D01*
G01*
X105794300Y-117111800D01*
G75*
G02*
X105569300Y-116886800I0J225000D01*
G01*
G37*
%TD*%
%TO.C,R36*%
G36*
G01*
X78936800Y-104423800D02*
X78936800Y-104973800D01*
G75*
G02*
X78736800Y-105173800I-200000J0D01*
G01*
X78336800Y-105173800D01*
G75*
G02*
X78136800Y-104973800I0J200000D01*
G01*
X78136800Y-104423800D01*
G75*
G02*
X78336800Y-104223800I200000J0D01*
G01*
X78736800Y-104223800D01*
G75*
G02*
X78936800Y-104423800I0J-200000D01*
G01*
G37*
G36*
G01*
X80586800Y-104423800D02*
X80586800Y-104973800D01*
G75*
G02*
X80386800Y-105173800I-200000J0D01*
G01*
X79986800Y-105173800D01*
G75*
G02*
X79786800Y-104973800I0J200000D01*
G01*
X79786800Y-104423800D01*
G75*
G02*
X79986800Y-104223800I200000J0D01*
G01*
X80386800Y-104223800D01*
G75*
G02*
X80586800Y-104423800I0J-200000D01*
G01*
G37*
%TD*%
%TO.C,C14*%
G36*
G01*
X79937800Y-102724800D02*
X80437800Y-102724800D01*
G75*
G02*
X80662800Y-102949800I0J-225000D01*
G01*
X80662800Y-103399800D01*
G75*
G02*
X80437800Y-103624800I-225000J0D01*
G01*
X79937800Y-103624800D01*
G75*
G02*
X79712800Y-103399800I0J225000D01*
G01*
X79712800Y-102949800D01*
G75*
G02*
X79937800Y-102724800I225000J0D01*
G01*
G37*
G36*
G01*
X79937800Y-101174800D02*
X80437800Y-101174800D01*
G75*
G02*
X80662800Y-101399800I0J-225000D01*
G01*
X80662800Y-101849800D01*
G75*
G02*
X80437800Y-102074800I-225000J0D01*
G01*
X79937800Y-102074800D01*
G75*
G02*
X79712800Y-101849800I0J225000D01*
G01*
X79712800Y-101399800D01*
G75*
G02*
X79937800Y-101174800I225000J0D01*
G01*
G37*
%TD*%
%TO.C,C13*%
G36*
G01*
X78286800Y-102724800D02*
X78786800Y-102724800D01*
G75*
G02*
X79011800Y-102949800I0J-225000D01*
G01*
X79011800Y-103399800D01*
G75*
G02*
X78786800Y-103624800I-225000J0D01*
G01*
X78286800Y-103624800D01*
G75*
G02*
X78061800Y-103399800I0J225000D01*
G01*
X78061800Y-102949800D01*
G75*
G02*
X78286800Y-102724800I225000J0D01*
G01*
G37*
G36*
G01*
X78286800Y-101174800D02*
X78786800Y-101174800D01*
G75*
G02*
X79011800Y-101399800I0J-225000D01*
G01*
X79011800Y-101849800D01*
G75*
G02*
X78786800Y-102074800I-225000J0D01*
G01*
X78286800Y-102074800D01*
G75*
G02*
X78061800Y-101849800I0J225000D01*
G01*
X78061800Y-101399800D01*
G75*
G02*
X78286800Y-101174800I225000J0D01*
G01*
G37*
%TD*%
%TO.C,C11*%
G36*
G01*
X75800800Y-102154800D02*
X75800800Y-101654800D01*
G75*
G02*
X76025800Y-101429800I225000J0D01*
G01*
X76475800Y-101429800D01*
G75*
G02*
X76700800Y-101654800I0J-225000D01*
G01*
X76700800Y-102154800D01*
G75*
G02*
X76475800Y-102379800I-225000J0D01*
G01*
X76025800Y-102379800D01*
G75*
G02*
X75800800Y-102154800I0J225000D01*
G01*
G37*
G36*
G01*
X74250800Y-102154800D02*
X74250800Y-101654800D01*
G75*
G02*
X74475800Y-101429800I225000J0D01*
G01*
X74925800Y-101429800D01*
G75*
G02*
X75150800Y-101654800I0J-225000D01*
G01*
X75150800Y-102154800D01*
G75*
G02*
X74925800Y-102379800I-225000J0D01*
G01*
X74475800Y-102379800D01*
G75*
G02*
X74250800Y-102154800I0J225000D01*
G01*
G37*
%TD*%
%TO.C,C9*%
G36*
G01*
X75800800Y-100503800D02*
X75800800Y-100003800D01*
G75*
G02*
X76025800Y-99778800I225000J0D01*
G01*
X76475800Y-99778800D01*
G75*
G02*
X76700800Y-100003800I0J-225000D01*
G01*
X76700800Y-100503800D01*
G75*
G02*
X76475800Y-100728800I-225000J0D01*
G01*
X76025800Y-100728800D01*
G75*
G02*
X75800800Y-100503800I0J225000D01*
G01*
G37*
G36*
G01*
X74250800Y-100503800D02*
X74250800Y-100003800D01*
G75*
G02*
X74475800Y-99778800I225000J0D01*
G01*
X74925800Y-99778800D01*
G75*
G02*
X75150800Y-100003800I0J-225000D01*
G01*
X75150800Y-100503800D01*
G75*
G02*
X74925800Y-100728800I-225000J0D01*
G01*
X74475800Y-100728800D01*
G75*
G02*
X74250800Y-100503800I0J225000D01*
G01*
G37*
%TD*%
D16*
%TO.C,BT2*%
X95046800Y-140639800D03*
D17*
X95046800Y-125279800D03*
%TD*%
D18*
%TO.C,U6*%
X72211800Y-90206800D03*
X72211800Y-94806800D03*
X72211800Y-92506800D03*
D19*
X78511800Y-92506800D03*
%TD*%
%TO.C,C8*%
G36*
G01*
X82096800Y-90685800D02*
X82596800Y-90685800D01*
G75*
G02*
X82821800Y-90910800I0J-225000D01*
G01*
X82821800Y-91360800D01*
G75*
G02*
X82596800Y-91585800I-225000J0D01*
G01*
X82096800Y-91585800D01*
G75*
G02*
X81871800Y-91360800I0J225000D01*
G01*
X81871800Y-90910800D01*
G75*
G02*
X82096800Y-90685800I225000J0D01*
G01*
G37*
G36*
G01*
X82096800Y-89135800D02*
X82596800Y-89135800D01*
G75*
G02*
X82821800Y-89360800I0J-225000D01*
G01*
X82821800Y-89810800D01*
G75*
G02*
X82596800Y-90035800I-225000J0D01*
G01*
X82096800Y-90035800D01*
G75*
G02*
X81871800Y-89810800I0J225000D01*
G01*
X81871800Y-89360800D01*
G75*
G02*
X82096800Y-89135800I225000J0D01*
G01*
G37*
%TD*%
%TO.C,C7*%
G36*
G01*
X80445800Y-90685800D02*
X80945800Y-90685800D01*
G75*
G02*
X81170800Y-90910800I0J-225000D01*
G01*
X81170800Y-91360800D01*
G75*
G02*
X80945800Y-91585800I-225000J0D01*
G01*
X80445800Y-91585800D01*
G75*
G02*
X80220800Y-91360800I0J225000D01*
G01*
X80220800Y-90910800D01*
G75*
G02*
X80445800Y-90685800I225000J0D01*
G01*
G37*
G36*
G01*
X80445800Y-89135800D02*
X80945800Y-89135800D01*
G75*
G02*
X81170800Y-89360800I0J-225000D01*
G01*
X81170800Y-89810800D01*
G75*
G02*
X80945800Y-90035800I-225000J0D01*
G01*
X80445800Y-90035800D01*
G75*
G02*
X80220800Y-89810800I0J225000D01*
G01*
X80220800Y-89360800D01*
G75*
G02*
X80445800Y-89135800I225000J0D01*
G01*
G37*
%TD*%
%TO.C,C19*%
G36*
G01*
X83620800Y-108465800D02*
X84120800Y-108465800D01*
G75*
G02*
X84345800Y-108690800I0J-225000D01*
G01*
X84345800Y-109140800D01*
G75*
G02*
X84120800Y-109365800I-225000J0D01*
G01*
X83620800Y-109365800D01*
G75*
G02*
X83395800Y-109140800I0J225000D01*
G01*
X83395800Y-108690800D01*
G75*
G02*
X83620800Y-108465800I225000J0D01*
G01*
G37*
G36*
G01*
X83620800Y-106915800D02*
X84120800Y-106915800D01*
G75*
G02*
X84345800Y-107140800I0J-225000D01*
G01*
X84345800Y-107590800D01*
G75*
G02*
X84120800Y-107815800I-225000J0D01*
G01*
X83620800Y-107815800D01*
G75*
G02*
X83395800Y-107590800I0J225000D01*
G01*
X83395800Y-107140800D01*
G75*
G02*
X83620800Y-106915800I225000J0D01*
G01*
G37*
%TD*%
D20*
%TO.C,U9*%
X81838800Y-100115800D03*
X83338800Y-100115800D03*
X81838800Y-99145800D03*
X83338800Y-99145800D03*
X81838800Y-98175800D03*
X83338800Y-98175800D03*
X81838800Y-97205800D03*
X83338800Y-97205800D03*
%TD*%
%TO.C,C18*%
G36*
G01*
X78913800Y-97401800D02*
X78413800Y-97401800D01*
G75*
G02*
X78188800Y-97176800I0J225000D01*
G01*
X78188800Y-96726800D01*
G75*
G02*
X78413800Y-96501800I225000J0D01*
G01*
X78913800Y-96501800D01*
G75*
G02*
X79138800Y-96726800I0J-225000D01*
G01*
X79138800Y-97176800D01*
G75*
G02*
X78913800Y-97401800I-225000J0D01*
G01*
G37*
G36*
G01*
X78913800Y-98951800D02*
X78413800Y-98951800D01*
G75*
G02*
X78188800Y-98726800I0J225000D01*
G01*
X78188800Y-98276800D01*
G75*
G02*
X78413800Y-98051800I225000J0D01*
G01*
X78913800Y-98051800D01*
G75*
G02*
X79138800Y-98276800I0J-225000D01*
G01*
X79138800Y-98726800D01*
G75*
G02*
X78913800Y-98951800I-225000J0D01*
G01*
G37*
%TD*%
%TO.C,U3*%
G36*
G01*
X106253800Y-102886800D02*
X106453800Y-102886800D01*
G75*
G02*
X106553800Y-102986800I0J-100000D01*
G01*
X106553800Y-104261800D01*
G75*
G02*
X106453800Y-104361800I-100000J0D01*
G01*
X106253800Y-104361800D01*
G75*
G02*
X106153800Y-104261800I0J100000D01*
G01*
X106153800Y-102986800D01*
G75*
G02*
X106253800Y-102886800I100000J0D01*
G01*
G37*
G36*
G01*
X105603800Y-102886800D02*
X105803800Y-102886800D01*
G75*
G02*
X105903800Y-102986800I0J-100000D01*
G01*
X105903800Y-104261800D01*
G75*
G02*
X105803800Y-104361800I-100000J0D01*
G01*
X105603800Y-104361800D01*
G75*
G02*
X105503800Y-104261800I0J100000D01*
G01*
X105503800Y-102986800D01*
G75*
G02*
X105603800Y-102886800I100000J0D01*
G01*
G37*
G36*
G01*
X104953800Y-102886800D02*
X105153800Y-102886800D01*
G75*
G02*
X105253800Y-102986800I0J-100000D01*
G01*
X105253800Y-104261800D01*
G75*
G02*
X105153800Y-104361800I-100000J0D01*
G01*
X104953800Y-104361800D01*
G75*
G02*
X104853800Y-104261800I0J100000D01*
G01*
X104853800Y-102986800D01*
G75*
G02*
X104953800Y-102886800I100000J0D01*
G01*
G37*
G36*
G01*
X104303800Y-102886800D02*
X104503800Y-102886800D01*
G75*
G02*
X104603800Y-102986800I0J-100000D01*
G01*
X104603800Y-104261800D01*
G75*
G02*
X104503800Y-104361800I-100000J0D01*
G01*
X104303800Y-104361800D01*
G75*
G02*
X104203800Y-104261800I0J100000D01*
G01*
X104203800Y-102986800D01*
G75*
G02*
X104303800Y-102886800I100000J0D01*
G01*
G37*
G36*
G01*
X103653800Y-102886800D02*
X103853800Y-102886800D01*
G75*
G02*
X103953800Y-102986800I0J-100000D01*
G01*
X103953800Y-104261800D01*
G75*
G02*
X103853800Y-104361800I-100000J0D01*
G01*
X103653800Y-104361800D01*
G75*
G02*
X103553800Y-104261800I0J100000D01*
G01*
X103553800Y-102986800D01*
G75*
G02*
X103653800Y-102886800I100000J0D01*
G01*
G37*
G36*
G01*
X103003800Y-102886800D02*
X103203800Y-102886800D01*
G75*
G02*
X103303800Y-102986800I0J-100000D01*
G01*
X103303800Y-104261800D01*
G75*
G02*
X103203800Y-104361800I-100000J0D01*
G01*
X103003800Y-104361800D01*
G75*
G02*
X102903800Y-104261800I0J100000D01*
G01*
X102903800Y-102986800D01*
G75*
G02*
X103003800Y-102886800I100000J0D01*
G01*
G37*
G36*
G01*
X102353800Y-102886800D02*
X102553800Y-102886800D01*
G75*
G02*
X102653800Y-102986800I0J-100000D01*
G01*
X102653800Y-104261800D01*
G75*
G02*
X102553800Y-104361800I-100000J0D01*
G01*
X102353800Y-104361800D01*
G75*
G02*
X102253800Y-104261800I0J100000D01*
G01*
X102253800Y-102986800D01*
G75*
G02*
X102353800Y-102886800I100000J0D01*
G01*
G37*
G36*
G01*
X101703800Y-102886800D02*
X101903800Y-102886800D01*
G75*
G02*
X102003800Y-102986800I0J-100000D01*
G01*
X102003800Y-104261800D01*
G75*
G02*
X101903800Y-104361800I-100000J0D01*
G01*
X101703800Y-104361800D01*
G75*
G02*
X101603800Y-104261800I0J100000D01*
G01*
X101603800Y-102986800D01*
G75*
G02*
X101703800Y-102886800I100000J0D01*
G01*
G37*
G36*
G01*
X101053800Y-102886800D02*
X101253800Y-102886800D01*
G75*
G02*
X101353800Y-102986800I0J-100000D01*
G01*
X101353800Y-104261800D01*
G75*
G02*
X101253800Y-104361800I-100000J0D01*
G01*
X101053800Y-104361800D01*
G75*
G02*
X100953800Y-104261800I0J100000D01*
G01*
X100953800Y-102986800D01*
G75*
G02*
X101053800Y-102886800I100000J0D01*
G01*
G37*
G36*
G01*
X100403800Y-102886800D02*
X100603800Y-102886800D01*
G75*
G02*
X100703800Y-102986800I0J-100000D01*
G01*
X100703800Y-104261800D01*
G75*
G02*
X100603800Y-104361800I-100000J0D01*
G01*
X100403800Y-104361800D01*
G75*
G02*
X100303800Y-104261800I0J100000D01*
G01*
X100303800Y-102986800D01*
G75*
G02*
X100403800Y-102886800I100000J0D01*
G01*
G37*
G36*
G01*
X100403800Y-97161800D02*
X100603800Y-97161800D01*
G75*
G02*
X100703800Y-97261800I0J-100000D01*
G01*
X100703800Y-98536800D01*
G75*
G02*
X100603800Y-98636800I-100000J0D01*
G01*
X100403800Y-98636800D01*
G75*
G02*
X100303800Y-98536800I0J100000D01*
G01*
X100303800Y-97261800D01*
G75*
G02*
X100403800Y-97161800I100000J0D01*
G01*
G37*
G36*
G01*
X101053800Y-97161800D02*
X101253800Y-97161800D01*
G75*
G02*
X101353800Y-97261800I0J-100000D01*
G01*
X101353800Y-98536800D01*
G75*
G02*
X101253800Y-98636800I-100000J0D01*
G01*
X101053800Y-98636800D01*
G75*
G02*
X100953800Y-98536800I0J100000D01*
G01*
X100953800Y-97261800D01*
G75*
G02*
X101053800Y-97161800I100000J0D01*
G01*
G37*
G36*
G01*
X101703800Y-97161800D02*
X101903800Y-97161800D01*
G75*
G02*
X102003800Y-97261800I0J-100000D01*
G01*
X102003800Y-98536800D01*
G75*
G02*
X101903800Y-98636800I-100000J0D01*
G01*
X101703800Y-98636800D01*
G75*
G02*
X101603800Y-98536800I0J100000D01*
G01*
X101603800Y-97261800D01*
G75*
G02*
X101703800Y-97161800I100000J0D01*
G01*
G37*
G36*
G01*
X102353800Y-97161800D02*
X102553800Y-97161800D01*
G75*
G02*
X102653800Y-97261800I0J-100000D01*
G01*
X102653800Y-98536800D01*
G75*
G02*
X102553800Y-98636800I-100000J0D01*
G01*
X102353800Y-98636800D01*
G75*
G02*
X102253800Y-98536800I0J100000D01*
G01*
X102253800Y-97261800D01*
G75*
G02*
X102353800Y-97161800I100000J0D01*
G01*
G37*
G36*
G01*
X103003800Y-97161800D02*
X103203800Y-97161800D01*
G75*
G02*
X103303800Y-97261800I0J-100000D01*
G01*
X103303800Y-98536800D01*
G75*
G02*
X103203800Y-98636800I-100000J0D01*
G01*
X103003800Y-98636800D01*
G75*
G02*
X102903800Y-98536800I0J100000D01*
G01*
X102903800Y-97261800D01*
G75*
G02*
X103003800Y-97161800I100000J0D01*
G01*
G37*
G36*
G01*
X103653800Y-97161800D02*
X103853800Y-97161800D01*
G75*
G02*
X103953800Y-97261800I0J-100000D01*
G01*
X103953800Y-98536800D01*
G75*
G02*
X103853800Y-98636800I-100000J0D01*
G01*
X103653800Y-98636800D01*
G75*
G02*
X103553800Y-98536800I0J100000D01*
G01*
X103553800Y-97261800D01*
G75*
G02*
X103653800Y-97161800I100000J0D01*
G01*
G37*
G36*
G01*
X104303800Y-97161800D02*
X104503800Y-97161800D01*
G75*
G02*
X104603800Y-97261800I0J-100000D01*
G01*
X104603800Y-98536800D01*
G75*
G02*
X104503800Y-98636800I-100000J0D01*
G01*
X104303800Y-98636800D01*
G75*
G02*
X104203800Y-98536800I0J100000D01*
G01*
X104203800Y-97261800D01*
G75*
G02*
X104303800Y-97161800I100000J0D01*
G01*
G37*
G36*
G01*
X104953800Y-97161800D02*
X105153800Y-97161800D01*
G75*
G02*
X105253800Y-97261800I0J-100000D01*
G01*
X105253800Y-98536800D01*
G75*
G02*
X105153800Y-98636800I-100000J0D01*
G01*
X104953800Y-98636800D01*
G75*
G02*
X104853800Y-98536800I0J100000D01*
G01*
X104853800Y-97261800D01*
G75*
G02*
X104953800Y-97161800I100000J0D01*
G01*
G37*
G36*
G01*
X105603800Y-97161800D02*
X105803800Y-97161800D01*
G75*
G02*
X105903800Y-97261800I0J-100000D01*
G01*
X105903800Y-98536800D01*
G75*
G02*
X105803800Y-98636800I-100000J0D01*
G01*
X105603800Y-98636800D01*
G75*
G02*
X105503800Y-98536800I0J100000D01*
G01*
X105503800Y-97261800D01*
G75*
G02*
X105603800Y-97161800I100000J0D01*
G01*
G37*
G36*
G01*
X106253800Y-97161800D02*
X106453800Y-97161800D01*
G75*
G02*
X106553800Y-97261800I0J-100000D01*
G01*
X106553800Y-98536800D01*
G75*
G02*
X106453800Y-98636800I-100000J0D01*
G01*
X106253800Y-98636800D01*
G75*
G02*
X106153800Y-98536800I0J100000D01*
G01*
X106153800Y-97261800D01*
G75*
G02*
X106253800Y-97161800I100000J0D01*
G01*
G37*
%TD*%
%TO.C,R40*%
G36*
G01*
X82961800Y-101925800D02*
X82961800Y-101375800D01*
G75*
G02*
X83161800Y-101175800I200000J0D01*
G01*
X83561800Y-101175800D01*
G75*
G02*
X83761800Y-101375800I0J-200000D01*
G01*
X83761800Y-101925800D01*
G75*
G02*
X83561800Y-102125800I-200000J0D01*
G01*
X83161800Y-102125800D01*
G75*
G02*
X82961800Y-101925800I0J200000D01*
G01*
G37*
G36*
G01*
X81311800Y-101925800D02*
X81311800Y-101375800D01*
G75*
G02*
X81511800Y-101175800I200000J0D01*
G01*
X81911800Y-101175800D01*
G75*
G02*
X82111800Y-101375800I0J-200000D01*
G01*
X82111800Y-101925800D01*
G75*
G02*
X81911800Y-102125800I-200000J0D01*
G01*
X81511800Y-102125800D01*
G75*
G02*
X81311800Y-101925800I0J200000D01*
G01*
G37*
%TD*%
%TO.C,C21*%
G36*
G01*
X80564800Y-97401800D02*
X80064800Y-97401800D01*
G75*
G02*
X79839800Y-97176800I0J225000D01*
G01*
X79839800Y-96726800D01*
G75*
G02*
X80064800Y-96501800I225000J0D01*
G01*
X80564800Y-96501800D01*
G75*
G02*
X80789800Y-96726800I0J-225000D01*
G01*
X80789800Y-97176800D01*
G75*
G02*
X80564800Y-97401800I-225000J0D01*
G01*
G37*
G36*
G01*
X80564800Y-98951800D02*
X80064800Y-98951800D01*
G75*
G02*
X79839800Y-98726800I0J225000D01*
G01*
X79839800Y-98276800D01*
G75*
G02*
X80064800Y-98051800I225000J0D01*
G01*
X80564800Y-98051800D01*
G75*
G02*
X80789800Y-98276800I0J-225000D01*
G01*
X80789800Y-98726800D01*
G75*
G02*
X80564800Y-98951800I-225000J0D01*
G01*
G37*
%TD*%
%TO.C,C15*%
G36*
G01*
X84509800Y-99067800D02*
X85009800Y-99067800D01*
G75*
G02*
X85234800Y-99292800I0J-225000D01*
G01*
X85234800Y-99742800D01*
G75*
G02*
X85009800Y-99967800I-225000J0D01*
G01*
X84509800Y-99967800D01*
G75*
G02*
X84284800Y-99742800I0J225000D01*
G01*
X84284800Y-99292800D01*
G75*
G02*
X84509800Y-99067800I225000J0D01*
G01*
G37*
G36*
G01*
X84509800Y-97517800D02*
X85009800Y-97517800D01*
G75*
G02*
X85234800Y-97742800I0J-225000D01*
G01*
X85234800Y-98192800D01*
G75*
G02*
X85009800Y-98417800I-225000J0D01*
G01*
X84509800Y-98417800D01*
G75*
G02*
X84284800Y-98192800I0J225000D01*
G01*
X84284800Y-97742800D01*
G75*
G02*
X84509800Y-97517800I225000J0D01*
G01*
G37*
%TD*%
D21*
%TO.C,U7*%
X80060800Y-83489800D03*
X80060800Y-84439800D03*
X80060800Y-82539800D03*
X82260800Y-82539800D03*
X82260800Y-83489800D03*
X82260800Y-84439800D03*
%TD*%
%TO.C,F1*%
G36*
G01*
X82356800Y-81066800D02*
X82356800Y-79816800D01*
G75*
G02*
X82606800Y-79566800I250000J0D01*
G01*
X83356800Y-79566800D01*
G75*
G02*
X83606800Y-79816800I0J-250000D01*
G01*
X83606800Y-81066800D01*
G75*
G02*
X83356800Y-81316800I-250000J0D01*
G01*
X82606800Y-81316800D01*
G75*
G02*
X82356800Y-81066800I0J250000D01*
G01*
G37*
G36*
G01*
X79556800Y-81066800D02*
X79556800Y-79816800D01*
G75*
G02*
X79806800Y-79566800I250000J0D01*
G01*
X80556800Y-79566800D01*
G75*
G02*
X80806800Y-79816800I0J-250000D01*
G01*
X80806800Y-81066800D01*
G75*
G02*
X80556800Y-81316800I-250000J0D01*
G01*
X79806800Y-81316800D01*
G75*
G02*
X79556800Y-81066800I0J250000D01*
G01*
G37*
%TD*%
D22*
%TO.C,J11*%
X103688800Y-78639800D03*
X103688800Y-88639800D03*
X88188800Y-78639800D03*
X88188800Y-88639800D03*
D23*
X95938800Y-77139800D03*
X95938800Y-90139800D03*
D18*
X103938800Y-86139800D03*
D24*
X88188800Y-86139800D03*
D18*
X103938800Y-83639800D03*
X103938800Y-81139800D03*
D24*
X88188800Y-81139800D03*
%TD*%
D25*
%TO.C,J10*%
X114221800Y-77716800D03*
X110521800Y-77716800D03*
X107721800Y-77716800D03*
X114221800Y-89516800D03*
X110521800Y-89516800D03*
X107721800Y-89516800D03*
%TD*%
%TO.C,U10*%
G36*
G01*
X100196300Y-113654300D02*
X98946300Y-113654300D01*
G75*
G02*
X98821300Y-113529300I0J125000D01*
G01*
X98821300Y-113279300D01*
G75*
G02*
X98946300Y-113154300I125000J0D01*
G01*
X100196300Y-113154300D01*
G75*
G02*
X100321300Y-113279300I0J-125000D01*
G01*
X100321300Y-113529300D01*
G75*
G02*
X100196300Y-113654300I-125000J0D01*
G01*
G37*
G36*
G01*
X100196300Y-112854300D02*
X98946300Y-112854300D01*
G75*
G02*
X98821300Y-112729300I0J125000D01*
G01*
X98821300Y-112479300D01*
G75*
G02*
X98946300Y-112354300I125000J0D01*
G01*
X100196300Y-112354300D01*
G75*
G02*
X100321300Y-112479300I0J-125000D01*
G01*
X100321300Y-112729300D01*
G75*
G02*
X100196300Y-112854300I-125000J0D01*
G01*
G37*
G36*
G01*
X100196300Y-112054300D02*
X98946300Y-112054300D01*
G75*
G02*
X98821300Y-111929300I0J125000D01*
G01*
X98821300Y-111679300D01*
G75*
G02*
X98946300Y-111554300I125000J0D01*
G01*
X100196300Y-111554300D01*
G75*
G02*
X100321300Y-111679300I0J-125000D01*
G01*
X100321300Y-111929300D01*
G75*
G02*
X100196300Y-112054300I-125000J0D01*
G01*
G37*
G36*
G01*
X100196300Y-111254300D02*
X98946300Y-111254300D01*
G75*
G02*
X98821300Y-111129300I0J125000D01*
G01*
X98821300Y-110879300D01*
G75*
G02*
X98946300Y-110754300I125000J0D01*
G01*
X100196300Y-110754300D01*
G75*
G02*
X100321300Y-110879300I0J-125000D01*
G01*
X100321300Y-111129300D01*
G75*
G02*
X100196300Y-111254300I-125000J0D01*
G01*
G37*
G36*
G01*
X100196300Y-110454300D02*
X98946300Y-110454300D01*
G75*
G02*
X98821300Y-110329300I0J125000D01*
G01*
X98821300Y-110079300D01*
G75*
G02*
X98946300Y-109954300I125000J0D01*
G01*
X100196300Y-109954300D01*
G75*
G02*
X100321300Y-110079300I0J-125000D01*
G01*
X100321300Y-110329300D01*
G75*
G02*
X100196300Y-110454300I-125000J0D01*
G01*
G37*
G36*
G01*
X100196300Y-109654300D02*
X98946300Y-109654300D01*
G75*
G02*
X98821300Y-109529300I0J125000D01*
G01*
X98821300Y-109279300D01*
G75*
G02*
X98946300Y-109154300I125000J0D01*
G01*
X100196300Y-109154300D01*
G75*
G02*
X100321300Y-109279300I0J-125000D01*
G01*
X100321300Y-109529300D01*
G75*
G02*
X100196300Y-109654300I-125000J0D01*
G01*
G37*
G36*
G01*
X100196300Y-108854300D02*
X98946300Y-108854300D01*
G75*
G02*
X98821300Y-108729300I0J125000D01*
G01*
X98821300Y-108479300D01*
G75*
G02*
X98946300Y-108354300I125000J0D01*
G01*
X100196300Y-108354300D01*
G75*
G02*
X100321300Y-108479300I0J-125000D01*
G01*
X100321300Y-108729300D01*
G75*
G02*
X100196300Y-108854300I-125000J0D01*
G01*
G37*
G36*
G01*
X100196300Y-108054300D02*
X98946300Y-108054300D01*
G75*
G02*
X98821300Y-107929300I0J125000D01*
G01*
X98821300Y-107679300D01*
G75*
G02*
X98946300Y-107554300I125000J0D01*
G01*
X100196300Y-107554300D01*
G75*
G02*
X100321300Y-107679300I0J-125000D01*
G01*
X100321300Y-107929300D01*
G75*
G02*
X100196300Y-108054300I-125000J0D01*
G01*
G37*
G36*
G01*
X101071300Y-107179300D02*
X100821300Y-107179300D01*
G75*
G02*
X100696300Y-107054300I0J125000D01*
G01*
X100696300Y-105804300D01*
G75*
G02*
X100821300Y-105679300I125000J0D01*
G01*
X101071300Y-105679300D01*
G75*
G02*
X101196300Y-105804300I0J-125000D01*
G01*
X101196300Y-107054300D01*
G75*
G02*
X101071300Y-107179300I-125000J0D01*
G01*
G37*
G36*
G01*
X101871300Y-107179300D02*
X101621300Y-107179300D01*
G75*
G02*
X101496300Y-107054300I0J125000D01*
G01*
X101496300Y-105804300D01*
G75*
G02*
X101621300Y-105679300I125000J0D01*
G01*
X101871300Y-105679300D01*
G75*
G02*
X101996300Y-105804300I0J-125000D01*
G01*
X101996300Y-107054300D01*
G75*
G02*
X101871300Y-107179300I-125000J0D01*
G01*
G37*
G36*
G01*
X102671300Y-107179300D02*
X102421300Y-107179300D01*
G75*
G02*
X102296300Y-107054300I0J125000D01*
G01*
X102296300Y-105804300D01*
G75*
G02*
X102421300Y-105679300I125000J0D01*
G01*
X102671300Y-105679300D01*
G75*
G02*
X102796300Y-105804300I0J-125000D01*
G01*
X102796300Y-107054300D01*
G75*
G02*
X102671300Y-107179300I-125000J0D01*
G01*
G37*
G36*
G01*
X103471300Y-107179300D02*
X103221300Y-107179300D01*
G75*
G02*
X103096300Y-107054300I0J125000D01*
G01*
X103096300Y-105804300D01*
G75*
G02*
X103221300Y-105679300I125000J0D01*
G01*
X103471300Y-105679300D01*
G75*
G02*
X103596300Y-105804300I0J-125000D01*
G01*
X103596300Y-107054300D01*
G75*
G02*
X103471300Y-107179300I-125000J0D01*
G01*
G37*
G36*
G01*
X104271300Y-107179300D02*
X104021300Y-107179300D01*
G75*
G02*
X103896300Y-107054300I0J125000D01*
G01*
X103896300Y-105804300D01*
G75*
G02*
X104021300Y-105679300I125000J0D01*
G01*
X104271300Y-105679300D01*
G75*
G02*
X104396300Y-105804300I0J-125000D01*
G01*
X104396300Y-107054300D01*
G75*
G02*
X104271300Y-107179300I-125000J0D01*
G01*
G37*
G36*
G01*
X105071300Y-107179300D02*
X104821300Y-107179300D01*
G75*
G02*
X104696300Y-107054300I0J125000D01*
G01*
X104696300Y-105804300D01*
G75*
G02*
X104821300Y-105679300I125000J0D01*
G01*
X105071300Y-105679300D01*
G75*
G02*
X105196300Y-105804300I0J-125000D01*
G01*
X105196300Y-107054300D01*
G75*
G02*
X105071300Y-107179300I-125000J0D01*
G01*
G37*
G36*
G01*
X105871300Y-107179300D02*
X105621300Y-107179300D01*
G75*
G02*
X105496300Y-107054300I0J125000D01*
G01*
X105496300Y-105804300D01*
G75*
G02*
X105621300Y-105679300I125000J0D01*
G01*
X105871300Y-105679300D01*
G75*
G02*
X105996300Y-105804300I0J-125000D01*
G01*
X105996300Y-107054300D01*
G75*
G02*
X105871300Y-107179300I-125000J0D01*
G01*
G37*
G36*
G01*
X106671300Y-107179300D02*
X106421300Y-107179300D01*
G75*
G02*
X106296300Y-107054300I0J125000D01*
G01*
X106296300Y-105804300D01*
G75*
G02*
X106421300Y-105679300I125000J0D01*
G01*
X106671300Y-105679300D01*
G75*
G02*
X106796300Y-105804300I0J-125000D01*
G01*
X106796300Y-107054300D01*
G75*
G02*
X106671300Y-107179300I-125000J0D01*
G01*
G37*
G36*
G01*
X108546300Y-108054300D02*
X107296300Y-108054300D01*
G75*
G02*
X107171300Y-107929300I0J125000D01*
G01*
X107171300Y-107679300D01*
G75*
G02*
X107296300Y-107554300I125000J0D01*
G01*
X108546300Y-107554300D01*
G75*
G02*
X108671300Y-107679300I0J-125000D01*
G01*
X108671300Y-107929300D01*
G75*
G02*
X108546300Y-108054300I-125000J0D01*
G01*
G37*
G36*
G01*
X108546300Y-108854300D02*
X107296300Y-108854300D01*
G75*
G02*
X107171300Y-108729300I0J125000D01*
G01*
X107171300Y-108479300D01*
G75*
G02*
X107296300Y-108354300I125000J0D01*
G01*
X108546300Y-108354300D01*
G75*
G02*
X108671300Y-108479300I0J-125000D01*
G01*
X108671300Y-108729300D01*
G75*
G02*
X108546300Y-108854300I-125000J0D01*
G01*
G37*
G36*
G01*
X108546300Y-109654300D02*
X107296300Y-109654300D01*
G75*
G02*
X107171300Y-109529300I0J125000D01*
G01*
X107171300Y-109279300D01*
G75*
G02*
X107296300Y-109154300I125000J0D01*
G01*
X108546300Y-109154300D01*
G75*
G02*
X108671300Y-109279300I0J-125000D01*
G01*
X108671300Y-109529300D01*
G75*
G02*
X108546300Y-109654300I-125000J0D01*
G01*
G37*
G36*
G01*
X108546300Y-110454300D02*
X107296300Y-110454300D01*
G75*
G02*
X107171300Y-110329300I0J125000D01*
G01*
X107171300Y-110079300D01*
G75*
G02*
X107296300Y-109954300I125000J0D01*
G01*
X108546300Y-109954300D01*
G75*
G02*
X108671300Y-110079300I0J-125000D01*
G01*
X108671300Y-110329300D01*
G75*
G02*
X108546300Y-110454300I-125000J0D01*
G01*
G37*
G36*
G01*
X108546300Y-111254300D02*
X107296300Y-111254300D01*
G75*
G02*
X107171300Y-111129300I0J125000D01*
G01*
X107171300Y-110879300D01*
G75*
G02*
X107296300Y-110754300I125000J0D01*
G01*
X108546300Y-110754300D01*
G75*
G02*
X108671300Y-110879300I0J-125000D01*
G01*
X108671300Y-111129300D01*
G75*
G02*
X108546300Y-111254300I-125000J0D01*
G01*
G37*
G36*
G01*
X108546300Y-112054300D02*
X107296300Y-112054300D01*
G75*
G02*
X107171300Y-111929300I0J125000D01*
G01*
X107171300Y-111679300D01*
G75*
G02*
X107296300Y-111554300I125000J0D01*
G01*
X108546300Y-111554300D01*
G75*
G02*
X108671300Y-111679300I0J-125000D01*
G01*
X108671300Y-111929300D01*
G75*
G02*
X108546300Y-112054300I-125000J0D01*
G01*
G37*
G36*
G01*
X108546300Y-112854300D02*
X107296300Y-112854300D01*
G75*
G02*
X107171300Y-112729300I0J125000D01*
G01*
X107171300Y-112479300D01*
G75*
G02*
X107296300Y-112354300I125000J0D01*
G01*
X108546300Y-112354300D01*
G75*
G02*
X108671300Y-112479300I0J-125000D01*
G01*
X108671300Y-112729300D01*
G75*
G02*
X108546300Y-112854300I-125000J0D01*
G01*
G37*
G36*
G01*
X108546300Y-113654300D02*
X107296300Y-113654300D01*
G75*
G02*
X107171300Y-113529300I0J125000D01*
G01*
X107171300Y-113279300D01*
G75*
G02*
X107296300Y-113154300I125000J0D01*
G01*
X108546300Y-113154300D01*
G75*
G02*
X108671300Y-113279300I0J-125000D01*
G01*
X108671300Y-113529300D01*
G75*
G02*
X108546300Y-113654300I-125000J0D01*
G01*
G37*
G36*
G01*
X106671300Y-115529300D02*
X106421300Y-115529300D01*
G75*
G02*
X106296300Y-115404300I0J125000D01*
G01*
X106296300Y-114154300D01*
G75*
G02*
X106421300Y-114029300I125000J0D01*
G01*
X106671300Y-114029300D01*
G75*
G02*
X106796300Y-114154300I0J-125000D01*
G01*
X106796300Y-115404300D01*
G75*
G02*
X106671300Y-115529300I-125000J0D01*
G01*
G37*
G36*
G01*
X105871300Y-115529300D02*
X105621300Y-115529300D01*
G75*
G02*
X105496300Y-115404300I0J125000D01*
G01*
X105496300Y-114154300D01*
G75*
G02*
X105621300Y-114029300I125000J0D01*
G01*
X105871300Y-114029300D01*
G75*
G02*
X105996300Y-114154300I0J-125000D01*
G01*
X105996300Y-115404300D01*
G75*
G02*
X105871300Y-115529300I-125000J0D01*
G01*
G37*
G36*
G01*
X105071300Y-115529300D02*
X104821300Y-115529300D01*
G75*
G02*
X104696300Y-115404300I0J125000D01*
G01*
X104696300Y-114154300D01*
G75*
G02*
X104821300Y-114029300I125000J0D01*
G01*
X105071300Y-114029300D01*
G75*
G02*
X105196300Y-114154300I0J-125000D01*
G01*
X105196300Y-115404300D01*
G75*
G02*
X105071300Y-115529300I-125000J0D01*
G01*
G37*
G36*
G01*
X104271300Y-115529300D02*
X104021300Y-115529300D01*
G75*
G02*
X103896300Y-115404300I0J125000D01*
G01*
X103896300Y-114154300D01*
G75*
G02*
X104021300Y-114029300I125000J0D01*
G01*
X104271300Y-114029300D01*
G75*
G02*
X104396300Y-114154300I0J-125000D01*
G01*
X104396300Y-115404300D01*
G75*
G02*
X104271300Y-115529300I-125000J0D01*
G01*
G37*
G36*
G01*
X103471300Y-115529300D02*
X103221300Y-115529300D01*
G75*
G02*
X103096300Y-115404300I0J125000D01*
G01*
X103096300Y-114154300D01*
G75*
G02*
X103221300Y-114029300I125000J0D01*
G01*
X103471300Y-114029300D01*
G75*
G02*
X103596300Y-114154300I0J-125000D01*
G01*
X103596300Y-115404300D01*
G75*
G02*
X103471300Y-115529300I-125000J0D01*
G01*
G37*
G36*
G01*
X102671300Y-115529300D02*
X102421300Y-115529300D01*
G75*
G02*
X102296300Y-115404300I0J125000D01*
G01*
X102296300Y-114154300D01*
G75*
G02*
X102421300Y-114029300I125000J0D01*
G01*
X102671300Y-114029300D01*
G75*
G02*
X102796300Y-114154300I0J-125000D01*
G01*
X102796300Y-115404300D01*
G75*
G02*
X102671300Y-115529300I-125000J0D01*
G01*
G37*
G36*
G01*
X101871300Y-115529300D02*
X101621300Y-115529300D01*
G75*
G02*
X101496300Y-115404300I0J125000D01*
G01*
X101496300Y-114154300D01*
G75*
G02*
X101621300Y-114029300I125000J0D01*
G01*
X101871300Y-114029300D01*
G75*
G02*
X101996300Y-114154300I0J-125000D01*
G01*
X101996300Y-115404300D01*
G75*
G02*
X101871300Y-115529300I-125000J0D01*
G01*
G37*
G36*
G01*
X101071300Y-115529300D02*
X100821300Y-115529300D01*
G75*
G02*
X100696300Y-115404300I0J125000D01*
G01*
X100696300Y-114154300D01*
G75*
G02*
X100821300Y-114029300I125000J0D01*
G01*
X101071300Y-114029300D01*
G75*
G02*
X101196300Y-114154300I0J-125000D01*
G01*
X101196300Y-115404300D01*
G75*
G02*
X101071300Y-115529300I-125000J0D01*
G01*
G37*
%TD*%
D26*
%TO.C,J5*%
X77870800Y-85085800D03*
X77870800Y-84435800D03*
X77870800Y-83785800D03*
X77870800Y-83135800D03*
X77870800Y-82485800D03*
%TD*%
%TO.C,R81*%
G36*
G01*
X118562800Y-122498800D02*
X118012800Y-122498800D01*
G75*
G02*
X117812800Y-122298800I0J200000D01*
G01*
X117812800Y-121898800D01*
G75*
G02*
X118012800Y-121698800I200000J0D01*
G01*
X118562800Y-121698800D01*
G75*
G02*
X118762800Y-121898800I0J-200000D01*
G01*
X118762800Y-122298800D01*
G75*
G02*
X118562800Y-122498800I-200000J0D01*
G01*
G37*
G36*
G01*
X118562800Y-124148800D02*
X118012800Y-124148800D01*
G75*
G02*
X117812800Y-123948800I0J200000D01*
G01*
X117812800Y-123548800D01*
G75*
G02*
X118012800Y-123348800I200000J0D01*
G01*
X118562800Y-123348800D01*
G75*
G02*
X118762800Y-123548800I0J-200000D01*
G01*
X118762800Y-123948800D01*
G75*
G02*
X118562800Y-124148800I-200000J0D01*
G01*
G37*
%TD*%
D15*
%TO.C,SW3*%
X127685800Y-118795800D03*
X127685800Y-115195800D03*
X126245800Y-118795800D03*
X126245800Y-115195800D03*
%TD*%
%TO.C,R79*%
G36*
G01*
X116530800Y-122498800D02*
X115980800Y-122498800D01*
G75*
G02*
X115780800Y-122298800I0J200000D01*
G01*
X115780800Y-121898800D01*
G75*
G02*
X115980800Y-121698800I200000J0D01*
G01*
X116530800Y-121698800D01*
G75*
G02*
X116730800Y-121898800I0J-200000D01*
G01*
X116730800Y-122298800D01*
G75*
G02*
X116530800Y-122498800I-200000J0D01*
G01*
G37*
G36*
G01*
X116530800Y-124148800D02*
X115980800Y-124148800D01*
G75*
G02*
X115780800Y-123948800I0J200000D01*
G01*
X115780800Y-123548800D01*
G75*
G02*
X115980800Y-123348800I200000J0D01*
G01*
X116530800Y-123348800D01*
G75*
G02*
X116730800Y-123548800I0J-200000D01*
G01*
X116730800Y-123948800D01*
G75*
G02*
X116530800Y-124148800I-200000J0D01*
G01*
G37*
%TD*%
%TO.C,R78*%
G36*
G01*
X114498800Y-122497800D02*
X113948800Y-122497800D01*
G75*
G02*
X113748800Y-122297800I0J200000D01*
G01*
X113748800Y-121897800D01*
G75*
G02*
X113948800Y-121697800I200000J0D01*
G01*
X114498800Y-121697800D01*
G75*
G02*
X114698800Y-121897800I0J-200000D01*
G01*
X114698800Y-122297800D01*
G75*
G02*
X114498800Y-122497800I-200000J0D01*
G01*
G37*
G36*
G01*
X114498800Y-124147800D02*
X113948800Y-124147800D01*
G75*
G02*
X113748800Y-123947800I0J200000D01*
G01*
X113748800Y-123547800D01*
G75*
G02*
X113948800Y-123347800I200000J0D01*
G01*
X114498800Y-123347800D01*
G75*
G02*
X114698800Y-123547800I0J-200000D01*
G01*
X114698800Y-123947800D01*
G75*
G02*
X114498800Y-124147800I-200000J0D01*
G01*
G37*
%TD*%
%TO.C,R72*%
G36*
G01*
X120467800Y-122498800D02*
X119917800Y-122498800D01*
G75*
G02*
X119717800Y-122298800I0J200000D01*
G01*
X119717800Y-121898800D01*
G75*
G02*
X119917800Y-121698800I200000J0D01*
G01*
X120467800Y-121698800D01*
G75*
G02*
X120667800Y-121898800I0J-200000D01*
G01*
X120667800Y-122298800D01*
G75*
G02*
X120467800Y-122498800I-200000J0D01*
G01*
G37*
G36*
G01*
X120467800Y-124148800D02*
X119917800Y-124148800D01*
G75*
G02*
X119717800Y-123948800I0J200000D01*
G01*
X119717800Y-123548800D01*
G75*
G02*
X119917800Y-123348800I200000J0D01*
G01*
X120467800Y-123348800D01*
G75*
G02*
X120667800Y-123548800I0J-200000D01*
G01*
X120667800Y-123948800D01*
G75*
G02*
X120467800Y-124148800I-200000J0D01*
G01*
G37*
%TD*%
%TO.C,C38*%
G36*
G01*
X106472800Y-122534800D02*
X105972800Y-122534800D01*
G75*
G02*
X105747800Y-122309800I0J225000D01*
G01*
X105747800Y-121859800D01*
G75*
G02*
X105972800Y-121634800I225000J0D01*
G01*
X106472800Y-121634800D01*
G75*
G02*
X106697800Y-121859800I0J-225000D01*
G01*
X106697800Y-122309800D01*
G75*
G02*
X106472800Y-122534800I-225000J0D01*
G01*
G37*
G36*
G01*
X106472800Y-124084800D02*
X105972800Y-124084800D01*
G75*
G02*
X105747800Y-123859800I0J225000D01*
G01*
X105747800Y-123409800D01*
G75*
G02*
X105972800Y-123184800I225000J0D01*
G01*
X106472800Y-123184800D01*
G75*
G02*
X106697800Y-123409800I0J-225000D01*
G01*
X106697800Y-123859800D01*
G75*
G02*
X106472800Y-124084800I-225000J0D01*
G01*
G37*
%TD*%
%TO.C,C37*%
G36*
G01*
X104821800Y-122521800D02*
X104321800Y-122521800D01*
G75*
G02*
X104096800Y-122296800I0J225000D01*
G01*
X104096800Y-121846800D01*
G75*
G02*
X104321800Y-121621800I225000J0D01*
G01*
X104821800Y-121621800D01*
G75*
G02*
X105046800Y-121846800I0J-225000D01*
G01*
X105046800Y-122296800D01*
G75*
G02*
X104821800Y-122521800I-225000J0D01*
G01*
G37*
G36*
G01*
X104821800Y-124071800D02*
X104321800Y-124071800D01*
G75*
G02*
X104096800Y-123846800I0J225000D01*
G01*
X104096800Y-123396800D01*
G75*
G02*
X104321800Y-123171800I225000J0D01*
G01*
X104821800Y-123171800D01*
G75*
G02*
X105046800Y-123396800I0J-225000D01*
G01*
X105046800Y-123846800D01*
G75*
G02*
X104821800Y-124071800I-225000J0D01*
G01*
G37*
%TD*%
%TO.C,C33*%
G36*
G01*
X127362800Y-120823800D02*
X127362800Y-120323800D01*
G75*
G02*
X127587800Y-120098800I225000J0D01*
G01*
X128037800Y-120098800D01*
G75*
G02*
X128262800Y-120323800I0J-225000D01*
G01*
X128262800Y-120823800D01*
G75*
G02*
X128037800Y-121048800I-225000J0D01*
G01*
X127587800Y-121048800D01*
G75*
G02*
X127362800Y-120823800I0J225000D01*
G01*
G37*
G36*
G01*
X125812800Y-120823800D02*
X125812800Y-120323800D01*
G75*
G02*
X126037800Y-120098800I225000J0D01*
G01*
X126487800Y-120098800D01*
G75*
G02*
X126712800Y-120323800I0J-225000D01*
G01*
X126712800Y-120823800D01*
G75*
G02*
X126487800Y-121048800I-225000J0D01*
G01*
X126037800Y-121048800D01*
G75*
G02*
X125812800Y-120823800I0J225000D01*
G01*
G37*
%TD*%
D27*
%TO.C,U13*%
X120263800Y-141127800D03*
X118263800Y-141127800D03*
X116263800Y-141127800D03*
X114263800Y-141127800D03*
X112263800Y-141127800D03*
X110263800Y-141127800D03*
X108263800Y-141127800D03*
X106263800Y-141127800D03*
D28*
X104763800Y-138527800D03*
X104763800Y-136527800D03*
X104763800Y-134527800D03*
X104763800Y-132527800D03*
X104763800Y-130527800D03*
X104763800Y-128527800D03*
D27*
X106263800Y-125927800D03*
X108263800Y-125927800D03*
X110263800Y-125927800D03*
X112263800Y-125927800D03*
X114263800Y-125927800D03*
X116263800Y-125927800D03*
X118263800Y-125927800D03*
X120263800Y-125927800D03*
%TD*%
M02*
