%TF.GenerationSoftware,KiCad,Pcbnew,(5.1.10)-1*%
%TF.CreationDate,2022-01-19T08:49:31+07:00*%
%TF.ProjectId,Digital_module_v3,44696769-7461-46c5-9f6d-6f64756c655f,rev?*%
%TF.SameCoordinates,Original*%
%TF.FileFunction,Copper,L4,Bot*%
%TF.FilePolarity,Positive*%
%FSLAX46Y46*%
G04 Gerber Fmt 4.6, Leading zero omitted, Abs format (unit mm)*
G04 Created by KiCad (PCBNEW (5.1.10)-1) date 2022-01-19 08:49:31*
%MOMM*%
%LPD*%
G01*
G04 APERTURE LIST*
%TA.AperFunction,SMDPad,CuDef*%
%ADD10R,0.740000X2.400000*%
%TD*%
%TA.AperFunction,ComponentPad*%
%ADD11C,3.500000*%
%TD*%
%TA.AperFunction,ComponentPad*%
%ADD12C,1.700000*%
%TD*%
%TA.AperFunction,ComponentPad*%
%ADD13R,1.700000X1.700000*%
%TD*%
%TA.AperFunction,SMDPad,CuDef*%
%ADD14R,0.800000X0.900000*%
%TD*%
%TA.AperFunction,SMDPad,CuDef*%
%ADD15R,0.900000X0.800000*%
%TD*%
%TA.AperFunction,ComponentPad*%
%ADD16O,1.000000X1.000000*%
%TD*%
%TA.AperFunction,ComponentPad*%
%ADD17R,1.000000X1.000000*%
%TD*%
%TA.AperFunction,ComponentPad*%
%ADD18C,2.000000*%
%TD*%
%TA.AperFunction,SMDPad,CuDef*%
%ADD19R,0.650000X0.400000*%
%TD*%
%TA.AperFunction,SMDPad,CuDef*%
%ADD20R,0.650000X1.060000*%
%TD*%
%TA.AperFunction,SMDPad,CuDef*%
%ADD21R,1.800000X1.000000*%
%TD*%
%TA.AperFunction,ComponentPad*%
%ADD22C,1.800000*%
%TD*%
%TA.AperFunction,SMDPad,CuDef*%
%ADD23R,1.300000X0.450000*%
%TD*%
%TA.AperFunction,SMDPad,CuDef*%
%ADD24R,0.700000X0.450000*%
%TD*%
%TA.AperFunction,SMDPad,CuDef*%
%ADD25R,1.800000X2.500000*%
%TD*%
%TA.AperFunction,ComponentPad*%
%ADD26O,1.950000X1.700000*%
%TD*%
%TA.AperFunction,ComponentPad*%
%ADD27O,2.000000X1.700000*%
%TD*%
%TA.AperFunction,ComponentPad*%
%ADD28O,1.000000X1.800000*%
%TD*%
%TA.AperFunction,ComponentPad*%
%ADD29R,1.000000X1.800000*%
%TD*%
%TA.AperFunction,ComponentPad*%
%ADD30O,1.800000X1.000000*%
%TD*%
%TA.AperFunction,ComponentPad*%
%ADD31C,2.100000*%
%TD*%
%TA.AperFunction,ComponentPad*%
%ADD32O,2.200000X1.600000*%
%TD*%
%TA.AperFunction,ComponentPad*%
%ADD33C,0.900000*%
%TD*%
%TA.AperFunction,ComponentPad*%
%ADD34O,1.800000X1.150000*%
%TD*%
%TA.AperFunction,ComponentPad*%
%ADD35O,2.000000X1.450000*%
%TD*%
%TA.AperFunction,SMDPad,CuDef*%
%ADD36R,1.050000X1.400000*%
%TD*%
%TA.AperFunction,ViaPad*%
%ADD37C,0.800000*%
%TD*%
%TA.AperFunction,ViaPad*%
%ADD38C,1.000000*%
%TD*%
%TA.AperFunction,ViaPad*%
%ADD39C,1.200000*%
%TD*%
%TA.AperFunction,ViaPad*%
%ADD40C,1.100000*%
%TD*%
%TA.AperFunction,Conductor*%
%ADD41C,0.400000*%
%TD*%
%TA.AperFunction,Conductor*%
%ADD42C,0.250000*%
%TD*%
%TA.AperFunction,Conductor*%
%ADD43C,0.500000*%
%TD*%
%TA.AperFunction,Conductor*%
%ADD44C,0.600000*%
%TD*%
%TA.AperFunction,Conductor*%
%ADD45C,1.000000*%
%TD*%
%TA.AperFunction,Conductor*%
%ADD46C,0.300000*%
%TD*%
G04 APERTURE END LIST*
D10*
%TO.P,U2,2.3*%
%TO.N,GND1*%
X122479000Y-115427000D03*
%TO.P,U2,2.1*%
%TO.N,+5P*%
X121209000Y-115427000D03*
%TO.P,U2,2.5*%
%TO.N,Net-(Q8-Pad3)*%
X123749000Y-115427000D03*
%TO.P,U2,2.4*%
%TO.N,GND1*%
X122479000Y-119327000D03*
%TO.P,U2,2.2*%
%TO.N,+5P*%
X121209000Y-119327000D03*
%TO.P,U2,2.6*%
%TO.N,Net-(Q9-Pad3)*%
X123749000Y-119327000D03*
%TD*%
%TO.P,U1,3.6*%
%TO.N,+3V3*%
X89459000Y-97150000D03*
%TO.P,U1,3.2*%
%TO.N,/int0*%
X91999000Y-97150000D03*
%TO.P,U1,3.4*%
%TO.N,GND1*%
X90729000Y-97150000D03*
%TO.P,U1,3.5*%
%TO.N,/scl0*%
X89459000Y-101050000D03*
%TO.P,U1,3.1*%
%TO.N,Net-(Q4-Pad3)*%
X91999000Y-101050000D03*
%TO.P,U1,3.3*%
%TO.N,GND1*%
X90729000Y-101050000D03*
%TO.P,U1,2.6*%
%TO.N,+5P*%
X76251000Y-97150000D03*
%TO.P,U1,2.2*%
%TO.N,/+5V*%
X78791000Y-97150000D03*
%TO.P,U1,2.4*%
%TO.N,GND1*%
X77521000Y-97150000D03*
%TO.P,U1,2.5*%
%TO.N,+5P*%
X76251000Y-101050000D03*
%TO.P,U1,2.1*%
%TO.N,/+5V*%
X78791000Y-101050000D03*
%TO.P,U1,2.3*%
%TO.N,GND1*%
X77521000Y-101050000D03*
%TD*%
D11*
%TO.P,U8,~*%
%TO.N,N/C*%
X111048800Y-116987800D03*
X111048800Y-94187800D03*
X87048800Y-94187800D03*
X87048800Y-116987800D03*
D12*
%TO.P,U8,4*%
%TO.N,/Ctrl_part/IFC_SDA_VLT/S_left*%
X86318800Y-101777800D03*
%TO.P,U8,3*%
%TO.N,/Ctrl_part/IFC_SCL_VLT/S_left*%
X86318800Y-104317800D03*
%TO.P,U8,2*%
%TO.N,+5P*%
X86318800Y-106857800D03*
D13*
%TO.P,U8,1*%
%TO.N,GND1*%
X86318800Y-109397800D03*
%TD*%
%TO.P,R39,2*%
%TO.N,/Ctrl_part/~RST*%
%TA.AperFunction,SMDPad,CuDef*%
G36*
G01*
X85288800Y-122751800D02*
X84738800Y-122751800D01*
G75*
G02*
X84538800Y-122551800I0J200000D01*
G01*
X84538800Y-122151800D01*
G75*
G02*
X84738800Y-121951800I200000J0D01*
G01*
X85288800Y-121951800D01*
G75*
G02*
X85488800Y-122151800I0J-200000D01*
G01*
X85488800Y-122551800D01*
G75*
G02*
X85288800Y-122751800I-200000J0D01*
G01*
G37*
%TD.AperFunction*%
%TO.P,R39,1*%
%TO.N,+3V3*%
%TA.AperFunction,SMDPad,CuDef*%
G36*
G01*
X85288800Y-124401800D02*
X84738800Y-124401800D01*
G75*
G02*
X84538800Y-124201800I0J200000D01*
G01*
X84538800Y-123801800D01*
G75*
G02*
X84738800Y-123601800I200000J0D01*
G01*
X85288800Y-123601800D01*
G75*
G02*
X85488800Y-123801800I0J-200000D01*
G01*
X85488800Y-124201800D01*
G75*
G02*
X85288800Y-124401800I-200000J0D01*
G01*
G37*
%TD.AperFunction*%
%TD*%
%TO.P,R37,2*%
%TO.N,+3V3*%
%TA.AperFunction,SMDPad,CuDef*%
G36*
G01*
X87151800Y-123601800D02*
X87701800Y-123601800D01*
G75*
G02*
X87901800Y-123801800I0J-200000D01*
G01*
X87901800Y-124201800D01*
G75*
G02*
X87701800Y-124401800I-200000J0D01*
G01*
X87151800Y-124401800D01*
G75*
G02*
X86951800Y-124201800I0J200000D01*
G01*
X86951800Y-123801800D01*
G75*
G02*
X87151800Y-123601800I200000J0D01*
G01*
G37*
%TD.AperFunction*%
%TO.P,R37,1*%
%TO.N,/Ctrl_part/SWCLK*%
%TA.AperFunction,SMDPad,CuDef*%
G36*
G01*
X87151800Y-121951800D02*
X87701800Y-121951800D01*
G75*
G02*
X87901800Y-122151800I0J-200000D01*
G01*
X87901800Y-122551800D01*
G75*
G02*
X87701800Y-122751800I-200000J0D01*
G01*
X87151800Y-122751800D01*
G75*
G02*
X86951800Y-122551800I0J200000D01*
G01*
X86951800Y-122151800D01*
G75*
G02*
X87151800Y-121951800I200000J0D01*
G01*
G37*
%TD.AperFunction*%
%TD*%
%TO.P,R35,2*%
%TO.N,+3V3*%
%TA.AperFunction,SMDPad,CuDef*%
G36*
G01*
X86684800Y-111408800D02*
X86684800Y-111958800D01*
G75*
G02*
X86484800Y-112158800I-200000J0D01*
G01*
X86084800Y-112158800D01*
G75*
G02*
X85884800Y-111958800I0J200000D01*
G01*
X85884800Y-111408800D01*
G75*
G02*
X86084800Y-111208800I200000J0D01*
G01*
X86484800Y-111208800D01*
G75*
G02*
X86684800Y-111408800I0J-200000D01*
G01*
G37*
%TD.AperFunction*%
%TO.P,R35,1*%
%TO.N,/DTS_2*%
%TA.AperFunction,SMDPad,CuDef*%
G36*
G01*
X88334800Y-111408800D02*
X88334800Y-111958800D01*
G75*
G02*
X88134800Y-112158800I-200000J0D01*
G01*
X87734800Y-112158800D01*
G75*
G02*
X87534800Y-111958800I0J200000D01*
G01*
X87534800Y-111408800D01*
G75*
G02*
X87734800Y-111208800I200000J0D01*
G01*
X88134800Y-111208800D01*
G75*
G02*
X88334800Y-111408800I0J-200000D01*
G01*
G37*
%TD.AperFunction*%
%TD*%
%TO.P,R32,2*%
%TO.N,+3V3*%
%TA.AperFunction,SMDPad,CuDef*%
G36*
G01*
X87534800Y-113863800D02*
X87534800Y-113313800D01*
G75*
G02*
X87734800Y-113113800I200000J0D01*
G01*
X88134800Y-113113800D01*
G75*
G02*
X88334800Y-113313800I0J-200000D01*
G01*
X88334800Y-113863800D01*
G75*
G02*
X88134800Y-114063800I-200000J0D01*
G01*
X87734800Y-114063800D01*
G75*
G02*
X87534800Y-113863800I0J200000D01*
G01*
G37*
%TD.AperFunction*%
%TO.P,R32,1*%
%TO.N,Net-(Q12-Pad3)*%
%TA.AperFunction,SMDPad,CuDef*%
G36*
G01*
X85884800Y-113863800D02*
X85884800Y-113313800D01*
G75*
G02*
X86084800Y-113113800I200000J0D01*
G01*
X86484800Y-113113800D01*
G75*
G02*
X86684800Y-113313800I0J-200000D01*
G01*
X86684800Y-113863800D01*
G75*
G02*
X86484800Y-114063800I-200000J0D01*
G01*
X86084800Y-114063800D01*
G75*
G02*
X85884800Y-113863800I0J200000D01*
G01*
G37*
%TD.AperFunction*%
%TD*%
%TO.P,R13,2*%
%TO.N,+3V3*%
%TA.AperFunction,SMDPad,CuDef*%
G36*
G01*
X97438800Y-100107800D02*
X97988800Y-100107800D01*
G75*
G02*
X98188800Y-100307800I0J-200000D01*
G01*
X98188800Y-100707800D01*
G75*
G02*
X97988800Y-100907800I-200000J0D01*
G01*
X97438800Y-100907800D01*
G75*
G02*
X97238800Y-100707800I0J200000D01*
G01*
X97238800Y-100307800D01*
G75*
G02*
X97438800Y-100107800I200000J0D01*
G01*
G37*
%TD.AperFunction*%
%TO.P,R13,1*%
%TO.N,/+5V_state*%
%TA.AperFunction,SMDPad,CuDef*%
G36*
G01*
X97438800Y-98457800D02*
X97988800Y-98457800D01*
G75*
G02*
X98188800Y-98657800I0J-200000D01*
G01*
X98188800Y-99057800D01*
G75*
G02*
X97988800Y-99257800I-200000J0D01*
G01*
X97438800Y-99257800D01*
G75*
G02*
X97238800Y-99057800I0J200000D01*
G01*
X97238800Y-98657800D01*
G75*
G02*
X97438800Y-98457800I200000J0D01*
G01*
G37*
%TD.AperFunction*%
%TD*%
%TO.P,R4,2*%
%TO.N,+3V3*%
%TA.AperFunction,SMDPad,CuDef*%
G36*
G01*
X94431800Y-102010800D02*
X94431800Y-102560800D01*
G75*
G02*
X94231800Y-102760800I-200000J0D01*
G01*
X93831800Y-102760800D01*
G75*
G02*
X93631800Y-102560800I0J200000D01*
G01*
X93631800Y-102010800D01*
G75*
G02*
X93831800Y-101810800I200000J0D01*
G01*
X94231800Y-101810800D01*
G75*
G02*
X94431800Y-102010800I0J-200000D01*
G01*
G37*
%TD.AperFunction*%
%TO.P,R4,1*%
%TO.N,Net-(Q4-Pad3)*%
%TA.AperFunction,SMDPad,CuDef*%
G36*
G01*
X96081800Y-102010800D02*
X96081800Y-102560800D01*
G75*
G02*
X95881800Y-102760800I-200000J0D01*
G01*
X95481800Y-102760800D01*
G75*
G02*
X95281800Y-102560800I0J200000D01*
G01*
X95281800Y-102010800D01*
G75*
G02*
X95481800Y-101810800I200000J0D01*
G01*
X95881800Y-101810800D01*
G75*
G02*
X96081800Y-102010800I0J-200000D01*
G01*
G37*
%TD.AperFunction*%
%TD*%
D14*
%TO.P,Q16,3*%
%TO.N,/Ctrl_part/~RST*%
X90027800Y-122097800D03*
%TO.P,Q16,2*%
%TO.N,GND1*%
X89077800Y-124097800D03*
%TO.P,Q16,1*%
%TO.N,Net-(Q16-Pad1)*%
X90977800Y-124097800D03*
%TD*%
D15*
%TO.P,Q4,3*%
%TO.N,Net-(Q4-Pad3)*%
X96062800Y-99618800D03*
%TO.P,Q4,2*%
%TO.N,/+5V_state*%
X94062800Y-98668800D03*
%TO.P,Q4,1*%
%TO.N,+3V3*%
X94062800Y-100568800D03*
%TD*%
%TO.P,R21,2*%
%TO.N,GND1*%
%TA.AperFunction,SMDPad,CuDef*%
G36*
G01*
X107979800Y-100234800D02*
X108529800Y-100234800D01*
G75*
G02*
X108729800Y-100434800I0J-200000D01*
G01*
X108729800Y-100834800D01*
G75*
G02*
X108529800Y-101034800I-200000J0D01*
G01*
X107979800Y-101034800D01*
G75*
G02*
X107779800Y-100834800I0J200000D01*
G01*
X107779800Y-100434800D01*
G75*
G02*
X107979800Y-100234800I200000J0D01*
G01*
G37*
%TD.AperFunction*%
%TO.P,R21,1*%
%TO.N,Net-(R19-Pad2)*%
%TA.AperFunction,SMDPad,CuDef*%
G36*
G01*
X107979800Y-98584800D02*
X108529800Y-98584800D01*
G75*
G02*
X108729800Y-98784800I0J-200000D01*
G01*
X108729800Y-99184800D01*
G75*
G02*
X108529800Y-99384800I-200000J0D01*
G01*
X107979800Y-99384800D01*
G75*
G02*
X107779800Y-99184800I0J200000D01*
G01*
X107779800Y-98784800D01*
G75*
G02*
X107979800Y-98584800I200000J0D01*
G01*
G37*
%TD.AperFunction*%
%TD*%
%TO.P,R22,2*%
%TO.N,GND1*%
%TA.AperFunction,SMDPad,CuDef*%
G36*
G01*
X106455800Y-100234800D02*
X107005800Y-100234800D01*
G75*
G02*
X107205800Y-100434800I0J-200000D01*
G01*
X107205800Y-100834800D01*
G75*
G02*
X107005800Y-101034800I-200000J0D01*
G01*
X106455800Y-101034800D01*
G75*
G02*
X106255800Y-100834800I0J200000D01*
G01*
X106255800Y-100434800D01*
G75*
G02*
X106455800Y-100234800I200000J0D01*
G01*
G37*
%TD.AperFunction*%
%TO.P,R22,1*%
%TO.N,Net-(R20-Pad2)*%
%TA.AperFunction,SMDPad,CuDef*%
G36*
G01*
X106455800Y-98584800D02*
X107005800Y-98584800D01*
G75*
G02*
X107205800Y-98784800I0J-200000D01*
G01*
X107205800Y-99184800D01*
G75*
G02*
X107005800Y-99384800I-200000J0D01*
G01*
X106455800Y-99384800D01*
G75*
G02*
X106255800Y-99184800I0J200000D01*
G01*
X106255800Y-98784800D01*
G75*
G02*
X106455800Y-98584800I200000J0D01*
G01*
G37*
%TD.AperFunction*%
%TD*%
%TO.P,Q1,3*%
%TO.N,/sda1*%
X124415800Y-82153800D03*
%TO.P,Q1,2*%
%TO.N,/EXT_SDA*%
X126415800Y-83103800D03*
%TO.P,Q1,1*%
%TO.N,+3V3*%
X126415800Y-81203800D03*
%TD*%
%TO.P,Q2,3*%
%TO.N,/scl1*%
X124415800Y-88635800D03*
%TO.P,Q2,2*%
%TO.N,/EXT_SCL*%
X126415800Y-89585800D03*
%TO.P,Q2,1*%
%TO.N,+3V3*%
X126415800Y-87685800D03*
%TD*%
%TO.P,R16,2*%
%TO.N,/+5V_valid*%
%TA.AperFunction,SMDPad,CuDef*%
G36*
G01*
X95279800Y-94646800D02*
X95829800Y-94646800D01*
G75*
G02*
X96029800Y-94846800I0J-200000D01*
G01*
X96029800Y-95246800D01*
G75*
G02*
X95829800Y-95446800I-200000J0D01*
G01*
X95279800Y-95446800D01*
G75*
G02*
X95079800Y-95246800I0J200000D01*
G01*
X95079800Y-94846800D01*
G75*
G02*
X95279800Y-94646800I200000J0D01*
G01*
G37*
%TD.AperFunction*%
%TO.P,R16,1*%
%TO.N,+3V3*%
%TA.AperFunction,SMDPad,CuDef*%
G36*
G01*
X95279800Y-92996800D02*
X95829800Y-92996800D01*
G75*
G02*
X96029800Y-93196800I0J-200000D01*
G01*
X96029800Y-93596800D01*
G75*
G02*
X95829800Y-93796800I-200000J0D01*
G01*
X95279800Y-93796800D01*
G75*
G02*
X95079800Y-93596800I0J200000D01*
G01*
X95079800Y-93196800D01*
G75*
G02*
X95279800Y-92996800I200000J0D01*
G01*
G37*
%TD.AperFunction*%
%TD*%
%TO.P,R17,2*%
%TO.N,+3V3*%
%TA.AperFunction,SMDPad,CuDef*%
G36*
G01*
X112297800Y-111791800D02*
X112847800Y-111791800D01*
G75*
G02*
X113047800Y-111991800I0J-200000D01*
G01*
X113047800Y-112391800D01*
G75*
G02*
X112847800Y-112591800I-200000J0D01*
G01*
X112297800Y-112591800D01*
G75*
G02*
X112097800Y-112391800I0J200000D01*
G01*
X112097800Y-111991800D01*
G75*
G02*
X112297800Y-111791800I200000J0D01*
G01*
G37*
%TD.AperFunction*%
%TO.P,R17,1*%
%TO.N,/FAN_SCL*%
%TA.AperFunction,SMDPad,CuDef*%
G36*
G01*
X112297800Y-110141800D02*
X112847800Y-110141800D01*
G75*
G02*
X113047800Y-110341800I0J-200000D01*
G01*
X113047800Y-110741800D01*
G75*
G02*
X112847800Y-110941800I-200000J0D01*
G01*
X112297800Y-110941800D01*
G75*
G02*
X112097800Y-110741800I0J200000D01*
G01*
X112097800Y-110341800D01*
G75*
G02*
X112297800Y-110141800I200000J0D01*
G01*
G37*
%TD.AperFunction*%
%TD*%
%TO.P,R18,2*%
%TO.N,+3V3*%
%TA.AperFunction,SMDPad,CuDef*%
G36*
G01*
X114202800Y-116998800D02*
X114752800Y-116998800D01*
G75*
G02*
X114952800Y-117198800I0J-200000D01*
G01*
X114952800Y-117598800D01*
G75*
G02*
X114752800Y-117798800I-200000J0D01*
G01*
X114202800Y-117798800D01*
G75*
G02*
X114002800Y-117598800I0J200000D01*
G01*
X114002800Y-117198800D01*
G75*
G02*
X114202800Y-116998800I200000J0D01*
G01*
G37*
%TD.AperFunction*%
%TO.P,R18,1*%
%TO.N,/FAN_SDA*%
%TA.AperFunction,SMDPad,CuDef*%
G36*
G01*
X114202800Y-115348800D02*
X114752800Y-115348800D01*
G75*
G02*
X114952800Y-115548800I0J-200000D01*
G01*
X114952800Y-115948800D01*
G75*
G02*
X114752800Y-116148800I-200000J0D01*
G01*
X114202800Y-116148800D01*
G75*
G02*
X114002800Y-115948800I0J200000D01*
G01*
X114002800Y-115548800D01*
G75*
G02*
X114202800Y-115348800I200000J0D01*
G01*
G37*
%TD.AperFunction*%
%TD*%
%TO.P,R1,2*%
%TO.N,+3V3*%
%TA.AperFunction,SMDPad,CuDef*%
G36*
G01*
X126014800Y-79827800D02*
X126014800Y-79277800D01*
G75*
G02*
X126214800Y-79077800I200000J0D01*
G01*
X126614800Y-79077800D01*
G75*
G02*
X126814800Y-79277800I0J-200000D01*
G01*
X126814800Y-79827800D01*
G75*
G02*
X126614800Y-80027800I-200000J0D01*
G01*
X126214800Y-80027800D01*
G75*
G02*
X126014800Y-79827800I0J200000D01*
G01*
G37*
%TD.AperFunction*%
%TO.P,R1,1*%
%TO.N,/sda1*%
%TA.AperFunction,SMDPad,CuDef*%
G36*
G01*
X124364800Y-79827800D02*
X124364800Y-79277800D01*
G75*
G02*
X124564800Y-79077800I200000J0D01*
G01*
X124964800Y-79077800D01*
G75*
G02*
X125164800Y-79277800I0J-200000D01*
G01*
X125164800Y-79827800D01*
G75*
G02*
X124964800Y-80027800I-200000J0D01*
G01*
X124564800Y-80027800D01*
G75*
G02*
X124364800Y-79827800I0J200000D01*
G01*
G37*
%TD.AperFunction*%
%TD*%
%TO.P,R2,2*%
%TO.N,+3V3*%
%TA.AperFunction,SMDPad,CuDef*%
G36*
G01*
X126015800Y-86304800D02*
X126015800Y-85754800D01*
G75*
G02*
X126215800Y-85554800I200000J0D01*
G01*
X126615800Y-85554800D01*
G75*
G02*
X126815800Y-85754800I0J-200000D01*
G01*
X126815800Y-86304800D01*
G75*
G02*
X126615800Y-86504800I-200000J0D01*
G01*
X126215800Y-86504800D01*
G75*
G02*
X126015800Y-86304800I0J200000D01*
G01*
G37*
%TD.AperFunction*%
%TO.P,R2,1*%
%TO.N,/scl1*%
%TA.AperFunction,SMDPad,CuDef*%
G36*
G01*
X124365800Y-86304800D02*
X124365800Y-85754800D01*
G75*
G02*
X124565800Y-85554800I200000J0D01*
G01*
X124965800Y-85554800D01*
G75*
G02*
X125165800Y-85754800I0J-200000D01*
G01*
X125165800Y-86304800D01*
G75*
G02*
X124965800Y-86504800I-200000J0D01*
G01*
X124565800Y-86504800D01*
G75*
G02*
X124365800Y-86304800I0J200000D01*
G01*
G37*
%TD.AperFunction*%
%TD*%
%TO.P,R3,2*%
%TO.N,Net-(J1-Pad4)*%
%TA.AperFunction,SMDPad,CuDef*%
G36*
G01*
X119410800Y-88082800D02*
X119410800Y-87532800D01*
G75*
G02*
X119610800Y-87332800I200000J0D01*
G01*
X120010800Y-87332800D01*
G75*
G02*
X120210800Y-87532800I0J-200000D01*
G01*
X120210800Y-88082800D01*
G75*
G02*
X120010800Y-88282800I-200000J0D01*
G01*
X119610800Y-88282800D01*
G75*
G02*
X119410800Y-88082800I0J200000D01*
G01*
G37*
%TD.AperFunction*%
%TO.P,R3,1*%
%TO.N,+3V3*%
%TA.AperFunction,SMDPad,CuDef*%
G36*
G01*
X117760800Y-88082800D02*
X117760800Y-87532800D01*
G75*
G02*
X117960800Y-87332800I200000J0D01*
G01*
X118360800Y-87332800D01*
G75*
G02*
X118560800Y-87532800I0J-200000D01*
G01*
X118560800Y-88082800D01*
G75*
G02*
X118360800Y-88282800I-200000J0D01*
G01*
X117960800Y-88282800D01*
G75*
G02*
X117760800Y-88082800I0J200000D01*
G01*
G37*
%TD.AperFunction*%
%TD*%
%TO.P,Q7,3*%
%TO.N,/int0*%
X92030800Y-94157800D03*
%TO.P,Q7,2*%
%TO.N,/+5V_valid*%
X94030800Y-95107800D03*
%TO.P,Q7,1*%
%TO.N,+3V3*%
X94030800Y-93207800D03*
%TD*%
%TO.P,Q8,3*%
%TO.N,Net-(Q8-Pad3)*%
X116096800Y-111241800D03*
%TO.P,Q8,2*%
%TO.N,/FAN_SCL*%
X114096800Y-110291800D03*
%TO.P,Q8,1*%
%TO.N,+3V3*%
X114096800Y-112191800D03*
%TD*%
%TO.P,Q9,3*%
%TO.N,Net-(Q9-Pad3)*%
X118001800Y-116448800D03*
%TO.P,Q9,2*%
%TO.N,/FAN_SDA*%
X116001800Y-115498800D03*
%TO.P,Q9,1*%
%TO.N,+3V3*%
X116001800Y-117398800D03*
%TD*%
D14*
%TO.P,Q3,3*%
%TO.N,Net-(J1-Pad4)*%
X119242800Y-89363800D03*
%TO.P,Q3,2*%
%TO.N,/~EXT_INT*%
X118292800Y-91363800D03*
%TO.P,Q3,1*%
%TO.N,+3V3*%
X120192800Y-91363800D03*
%TD*%
%TO.P,Q5,3*%
%TO.N,/scl0*%
X91363800Y-103698800D03*
%TO.P,Q5,2*%
%TO.N,/POW_SCL*%
X90413800Y-105698800D03*
%TO.P,Q5,1*%
%TO.N,+3V3*%
X92313800Y-105698800D03*
%TD*%
D15*
%TO.P,Q6,3*%
%TO.N,Net-(Q6-Pad3)*%
X99904800Y-94091800D03*
%TO.P,Q6,2*%
%TO.N,/POW_SDA*%
X101904800Y-95041800D03*
%TO.P,Q6,1*%
%TO.N,+3V3*%
X101904800Y-93141800D03*
%TD*%
%TO.P,R12,2*%
%TO.N,/~EXT_INT*%
%TA.AperFunction,SMDPad,CuDef*%
G36*
G01*
X118942800Y-92612800D02*
X118942800Y-93162800D01*
G75*
G02*
X118742800Y-93362800I-200000J0D01*
G01*
X118342800Y-93362800D01*
G75*
G02*
X118142800Y-93162800I0J200000D01*
G01*
X118142800Y-92612800D01*
G75*
G02*
X118342800Y-92412800I200000J0D01*
G01*
X118742800Y-92412800D01*
G75*
G02*
X118942800Y-92612800I0J-200000D01*
G01*
G37*
%TD.AperFunction*%
%TO.P,R12,1*%
%TO.N,+3V3*%
%TA.AperFunction,SMDPad,CuDef*%
G36*
G01*
X120592800Y-92612800D02*
X120592800Y-93162800D01*
G75*
G02*
X120392800Y-93362800I-200000J0D01*
G01*
X119992800Y-93362800D01*
G75*
G02*
X119792800Y-93162800I0J200000D01*
G01*
X119792800Y-92612800D01*
G75*
G02*
X119992800Y-92412800I200000J0D01*
G01*
X120392800Y-92412800D01*
G75*
G02*
X120592800Y-92612800I0J-200000D01*
G01*
G37*
%TD.AperFunction*%
%TD*%
%TO.P,R14,2*%
%TO.N,/POW_SCL*%
%TA.AperFunction,SMDPad,CuDef*%
G36*
G01*
X90875800Y-106963800D02*
X90875800Y-107513800D01*
G75*
G02*
X90675800Y-107713800I-200000J0D01*
G01*
X90275800Y-107713800D01*
G75*
G02*
X90075800Y-107513800I0J200000D01*
G01*
X90075800Y-106963800D01*
G75*
G02*
X90275800Y-106763800I200000J0D01*
G01*
X90675800Y-106763800D01*
G75*
G02*
X90875800Y-106963800I0J-200000D01*
G01*
G37*
%TD.AperFunction*%
%TO.P,R14,1*%
%TO.N,+3V3*%
%TA.AperFunction,SMDPad,CuDef*%
G36*
G01*
X92525800Y-106963800D02*
X92525800Y-107513800D01*
G75*
G02*
X92325800Y-107713800I-200000J0D01*
G01*
X91925800Y-107713800D01*
G75*
G02*
X91725800Y-107513800I0J200000D01*
G01*
X91725800Y-106963800D01*
G75*
G02*
X91925800Y-106763800I200000J0D01*
G01*
X92325800Y-106763800D01*
G75*
G02*
X92525800Y-106963800I0J-200000D01*
G01*
G37*
%TD.AperFunction*%
%TD*%
%TO.P,R5,2*%
%TO.N,/scl0*%
%TA.AperFunction,SMDPad,CuDef*%
G36*
G01*
X94813800Y-104210800D02*
X94263800Y-104210800D01*
G75*
G02*
X94063800Y-104010800I0J200000D01*
G01*
X94063800Y-103610800D01*
G75*
G02*
X94263800Y-103410800I200000J0D01*
G01*
X94813800Y-103410800D01*
G75*
G02*
X95013800Y-103610800I0J-200000D01*
G01*
X95013800Y-104010800D01*
G75*
G02*
X94813800Y-104210800I-200000J0D01*
G01*
G37*
%TD.AperFunction*%
%TO.P,R5,1*%
%TO.N,+3V3*%
%TA.AperFunction,SMDPad,CuDef*%
G36*
G01*
X94813800Y-105860800D02*
X94263800Y-105860800D01*
G75*
G02*
X94063800Y-105660800I0J200000D01*
G01*
X94063800Y-105260800D01*
G75*
G02*
X94263800Y-105060800I200000J0D01*
G01*
X94813800Y-105060800D01*
G75*
G02*
X95013800Y-105260800I0J-200000D01*
G01*
X95013800Y-105660800D01*
G75*
G02*
X94813800Y-105860800I-200000J0D01*
G01*
G37*
%TD.AperFunction*%
%TD*%
%TO.P,R7,2*%
%TO.N,/int0*%
%TA.AperFunction,SMDPad,CuDef*%
G36*
G01*
X96930800Y-94645800D02*
X97480800Y-94645800D01*
G75*
G02*
X97680800Y-94845800I0J-200000D01*
G01*
X97680800Y-95245800D01*
G75*
G02*
X97480800Y-95445800I-200000J0D01*
G01*
X96930800Y-95445800D01*
G75*
G02*
X96730800Y-95245800I0J200000D01*
G01*
X96730800Y-94845800D01*
G75*
G02*
X96930800Y-94645800I200000J0D01*
G01*
G37*
%TD.AperFunction*%
%TO.P,R7,1*%
%TO.N,+3V3*%
%TA.AperFunction,SMDPad,CuDef*%
G36*
G01*
X96930800Y-92995800D02*
X97480800Y-92995800D01*
G75*
G02*
X97680800Y-93195800I0J-200000D01*
G01*
X97680800Y-93595800D01*
G75*
G02*
X97480800Y-93795800I-200000J0D01*
G01*
X96930800Y-93795800D01*
G75*
G02*
X96730800Y-93595800I0J200000D01*
G01*
X96730800Y-93195800D01*
G75*
G02*
X96930800Y-92995800I200000J0D01*
G01*
G37*
%TD.AperFunction*%
%TD*%
%TO.P,R8,2*%
%TO.N,+3V3*%
%TA.AperFunction,SMDPad,CuDef*%
G36*
G01*
X114496800Y-113567800D02*
X114496800Y-114117800D01*
G75*
G02*
X114296800Y-114317800I-200000J0D01*
G01*
X113896800Y-114317800D01*
G75*
G02*
X113696800Y-114117800I0J200000D01*
G01*
X113696800Y-113567800D01*
G75*
G02*
X113896800Y-113367800I200000J0D01*
G01*
X114296800Y-113367800D01*
G75*
G02*
X114496800Y-113567800I0J-200000D01*
G01*
G37*
%TD.AperFunction*%
%TO.P,R8,1*%
%TO.N,Net-(Q8-Pad3)*%
%TA.AperFunction,SMDPad,CuDef*%
G36*
G01*
X116146800Y-113567800D02*
X116146800Y-114117800D01*
G75*
G02*
X115946800Y-114317800I-200000J0D01*
G01*
X115546800Y-114317800D01*
G75*
G02*
X115346800Y-114117800I0J200000D01*
G01*
X115346800Y-113567800D01*
G75*
G02*
X115546800Y-113367800I200000J0D01*
G01*
X115946800Y-113367800D01*
G75*
G02*
X116146800Y-113567800I0J-200000D01*
G01*
G37*
%TD.AperFunction*%
%TD*%
%TO.P,R10,2*%
%TO.N,+3V3*%
%TA.AperFunction,SMDPad,CuDef*%
G36*
G01*
X128214800Y-81604800D02*
X127664800Y-81604800D01*
G75*
G02*
X127464800Y-81404800I0J200000D01*
G01*
X127464800Y-81004800D01*
G75*
G02*
X127664800Y-80804800I200000J0D01*
G01*
X128214800Y-80804800D01*
G75*
G02*
X128414800Y-81004800I0J-200000D01*
G01*
X128414800Y-81404800D01*
G75*
G02*
X128214800Y-81604800I-200000J0D01*
G01*
G37*
%TD.AperFunction*%
%TO.P,R10,1*%
%TO.N,/EXT_SDA*%
%TA.AperFunction,SMDPad,CuDef*%
G36*
G01*
X128214800Y-83254800D02*
X127664800Y-83254800D01*
G75*
G02*
X127464800Y-83054800I0J200000D01*
G01*
X127464800Y-82654800D01*
G75*
G02*
X127664800Y-82454800I200000J0D01*
G01*
X128214800Y-82454800D01*
G75*
G02*
X128414800Y-82654800I0J-200000D01*
G01*
X128414800Y-83054800D01*
G75*
G02*
X128214800Y-83254800I-200000J0D01*
G01*
G37*
%TD.AperFunction*%
%TD*%
%TO.P,R11,2*%
%TO.N,+3V3*%
%TA.AperFunction,SMDPad,CuDef*%
G36*
G01*
X128214800Y-88080800D02*
X127664800Y-88080800D01*
G75*
G02*
X127464800Y-87880800I0J200000D01*
G01*
X127464800Y-87480800D01*
G75*
G02*
X127664800Y-87280800I200000J0D01*
G01*
X128214800Y-87280800D01*
G75*
G02*
X128414800Y-87480800I0J-200000D01*
G01*
X128414800Y-87880800D01*
G75*
G02*
X128214800Y-88080800I-200000J0D01*
G01*
G37*
%TD.AperFunction*%
%TO.P,R11,1*%
%TO.N,/EXT_SCL*%
%TA.AperFunction,SMDPad,CuDef*%
G36*
G01*
X128214800Y-89730800D02*
X127664800Y-89730800D01*
G75*
G02*
X127464800Y-89530800I0J200000D01*
G01*
X127464800Y-89130800D01*
G75*
G02*
X127664800Y-88930800I200000J0D01*
G01*
X128214800Y-88930800D01*
G75*
G02*
X128414800Y-89130800I0J-200000D01*
G01*
X128414800Y-89530800D01*
G75*
G02*
X128214800Y-89730800I-200000J0D01*
G01*
G37*
%TD.AperFunction*%
%TD*%
D16*
%TO.P,JP2,2*%
%TO.N,GND1*%
X95681800Y-121208800D03*
D17*
%TO.P,JP2,1*%
%TO.N,/Ctrl_part/SWCLK*%
X94411800Y-121208800D03*
%TD*%
%TO.P,R96,2*%
%TO.N,GND1*%
%TA.AperFunction,SMDPad,CuDef*%
G36*
G01*
X74959800Y-127920800D02*
X75509800Y-127920800D01*
G75*
G02*
X75709800Y-128120800I0J-200000D01*
G01*
X75709800Y-128520800D01*
G75*
G02*
X75509800Y-128720800I-200000J0D01*
G01*
X74959800Y-128720800D01*
G75*
G02*
X74759800Y-128520800I0J200000D01*
G01*
X74759800Y-128120800D01*
G75*
G02*
X74959800Y-127920800I200000J0D01*
G01*
G37*
%TD.AperFunction*%
%TO.P,R96,1*%
%TO.N,/ESP32_part/a2*%
%TA.AperFunction,SMDPad,CuDef*%
G36*
G01*
X74959800Y-126270800D02*
X75509800Y-126270800D01*
G75*
G02*
X75709800Y-126470800I0J-200000D01*
G01*
X75709800Y-126870800D01*
G75*
G02*
X75509800Y-127070800I-200000J0D01*
G01*
X74959800Y-127070800D01*
G75*
G02*
X74759800Y-126870800I0J200000D01*
G01*
X74759800Y-126470800D01*
G75*
G02*
X74959800Y-126270800I200000J0D01*
G01*
G37*
%TD.AperFunction*%
%TD*%
%TO.P,R87,2*%
%TO.N,/ESP32_part/a0*%
%TA.AperFunction,SMDPad,CuDef*%
G36*
G01*
X71911800Y-124745800D02*
X72461800Y-124745800D01*
G75*
G02*
X72661800Y-124945800I0J-200000D01*
G01*
X72661800Y-125345800D01*
G75*
G02*
X72461800Y-125545800I-200000J0D01*
G01*
X71911800Y-125545800D01*
G75*
G02*
X71711800Y-125345800I0J200000D01*
G01*
X71711800Y-124945800D01*
G75*
G02*
X71911800Y-124745800I200000J0D01*
G01*
G37*
%TD.AperFunction*%
%TO.P,R87,1*%
%TO.N,+3V3*%
%TA.AperFunction,SMDPad,CuDef*%
G36*
G01*
X71911800Y-123095800D02*
X72461800Y-123095800D01*
G75*
G02*
X72661800Y-123295800I0J-200000D01*
G01*
X72661800Y-123695800D01*
G75*
G02*
X72461800Y-123895800I-200000J0D01*
G01*
X71911800Y-123895800D01*
G75*
G02*
X71711800Y-123695800I0J200000D01*
G01*
X71711800Y-123295800D01*
G75*
G02*
X71911800Y-123095800I200000J0D01*
G01*
G37*
%TD.AperFunction*%
%TD*%
%TO.P,R94,1*%
%TO.N,Net-(R90-Pad2)*%
%TA.AperFunction,SMDPad,CuDef*%
G36*
G01*
X80230300Y-125190300D02*
X80780300Y-125190300D01*
G75*
G02*
X80980300Y-125390300I0J-200000D01*
G01*
X80980300Y-125790300D01*
G75*
G02*
X80780300Y-125990300I-200000J0D01*
G01*
X80230300Y-125990300D01*
G75*
G02*
X80030300Y-125790300I0J200000D01*
G01*
X80030300Y-125390300D01*
G75*
G02*
X80230300Y-125190300I200000J0D01*
G01*
G37*
%TD.AperFunction*%
%TO.P,R94,2*%
%TO.N,GND1*%
%TA.AperFunction,SMDPad,CuDef*%
G36*
G01*
X80230300Y-126840300D02*
X80780300Y-126840300D01*
G75*
G02*
X80980300Y-127040300I0J-200000D01*
G01*
X80980300Y-127440300D01*
G75*
G02*
X80780300Y-127640300I-200000J0D01*
G01*
X80230300Y-127640300D01*
G75*
G02*
X80030300Y-127440300I0J200000D01*
G01*
X80030300Y-127040300D01*
G75*
G02*
X80230300Y-126840300I200000J0D01*
G01*
G37*
%TD.AperFunction*%
%TD*%
%TO.P,R88,2*%
%TO.N,/ESP32_part/a1*%
%TA.AperFunction,SMDPad,CuDef*%
G36*
G01*
X73435800Y-124745800D02*
X73985800Y-124745800D01*
G75*
G02*
X74185800Y-124945800I0J-200000D01*
G01*
X74185800Y-125345800D01*
G75*
G02*
X73985800Y-125545800I-200000J0D01*
G01*
X73435800Y-125545800D01*
G75*
G02*
X73235800Y-125345800I0J200000D01*
G01*
X73235800Y-124945800D01*
G75*
G02*
X73435800Y-124745800I200000J0D01*
G01*
G37*
%TD.AperFunction*%
%TO.P,R88,1*%
%TO.N,+3V3*%
%TA.AperFunction,SMDPad,CuDef*%
G36*
G01*
X73435800Y-123095800D02*
X73985800Y-123095800D01*
G75*
G02*
X74185800Y-123295800I0J-200000D01*
G01*
X74185800Y-123695800D01*
G75*
G02*
X73985800Y-123895800I-200000J0D01*
G01*
X73435800Y-123895800D01*
G75*
G02*
X73235800Y-123695800I0J200000D01*
G01*
X73235800Y-123295800D01*
G75*
G02*
X73435800Y-123095800I200000J0D01*
G01*
G37*
%TD.AperFunction*%
%TD*%
%TO.P,R89,1*%
%TO.N,+3V3*%
%TA.AperFunction,SMDPad,CuDef*%
G36*
G01*
X78706300Y-122016300D02*
X79256300Y-122016300D01*
G75*
G02*
X79456300Y-122216300I0J-200000D01*
G01*
X79456300Y-122616300D01*
G75*
G02*
X79256300Y-122816300I-200000J0D01*
G01*
X78706300Y-122816300D01*
G75*
G02*
X78506300Y-122616300I0J200000D01*
G01*
X78506300Y-122216300D01*
G75*
G02*
X78706300Y-122016300I200000J0D01*
G01*
G37*
%TD.AperFunction*%
%TO.P,R89,2*%
%TO.N,Net-(R89-Pad2)*%
%TA.AperFunction,SMDPad,CuDef*%
G36*
G01*
X78706300Y-123666300D02*
X79256300Y-123666300D01*
G75*
G02*
X79456300Y-123866300I0J-200000D01*
G01*
X79456300Y-124266300D01*
G75*
G02*
X79256300Y-124466300I-200000J0D01*
G01*
X78706300Y-124466300D01*
G75*
G02*
X78506300Y-124266300I0J200000D01*
G01*
X78506300Y-123866300D01*
G75*
G02*
X78706300Y-123666300I200000J0D01*
G01*
G37*
%TD.AperFunction*%
%TD*%
%TO.P,R90,1*%
%TO.N,+3V3*%
%TA.AperFunction,SMDPad,CuDef*%
G36*
G01*
X80230300Y-122016300D02*
X80780300Y-122016300D01*
G75*
G02*
X80980300Y-122216300I0J-200000D01*
G01*
X80980300Y-122616300D01*
G75*
G02*
X80780300Y-122816300I-200000J0D01*
G01*
X80230300Y-122816300D01*
G75*
G02*
X80030300Y-122616300I0J200000D01*
G01*
X80030300Y-122216300D01*
G75*
G02*
X80230300Y-122016300I200000J0D01*
G01*
G37*
%TD.AperFunction*%
%TO.P,R90,2*%
%TO.N,Net-(R90-Pad2)*%
%TA.AperFunction,SMDPad,CuDef*%
G36*
G01*
X80230300Y-123666300D02*
X80780300Y-123666300D01*
G75*
G02*
X80980300Y-123866300I0J-200000D01*
G01*
X80980300Y-124266300D01*
G75*
G02*
X80780300Y-124466300I-200000J0D01*
G01*
X80230300Y-124466300D01*
G75*
G02*
X80030300Y-124266300I0J200000D01*
G01*
X80030300Y-123866300D01*
G75*
G02*
X80230300Y-123666300I200000J0D01*
G01*
G37*
%TD.AperFunction*%
%TD*%
%TO.P,R91,2*%
%TO.N,GND1*%
%TA.AperFunction,SMDPad,CuDef*%
G36*
G01*
X71911800Y-127919800D02*
X72461800Y-127919800D01*
G75*
G02*
X72661800Y-128119800I0J-200000D01*
G01*
X72661800Y-128519800D01*
G75*
G02*
X72461800Y-128719800I-200000J0D01*
G01*
X71911800Y-128719800D01*
G75*
G02*
X71711800Y-128519800I0J200000D01*
G01*
X71711800Y-128119800D01*
G75*
G02*
X71911800Y-127919800I200000J0D01*
G01*
G37*
%TD.AperFunction*%
%TO.P,R91,1*%
%TO.N,/ESP32_part/a0*%
%TA.AperFunction,SMDPad,CuDef*%
G36*
G01*
X71911800Y-126269800D02*
X72461800Y-126269800D01*
G75*
G02*
X72661800Y-126469800I0J-200000D01*
G01*
X72661800Y-126869800D01*
G75*
G02*
X72461800Y-127069800I-200000J0D01*
G01*
X71911800Y-127069800D01*
G75*
G02*
X71711800Y-126869800I0J200000D01*
G01*
X71711800Y-126469800D01*
G75*
G02*
X71911800Y-126269800I200000J0D01*
G01*
G37*
%TD.AperFunction*%
%TD*%
%TO.P,R92,2*%
%TO.N,GND1*%
%TA.AperFunction,SMDPad,CuDef*%
G36*
G01*
X73435800Y-127919800D02*
X73985800Y-127919800D01*
G75*
G02*
X74185800Y-128119800I0J-200000D01*
G01*
X74185800Y-128519800D01*
G75*
G02*
X73985800Y-128719800I-200000J0D01*
G01*
X73435800Y-128719800D01*
G75*
G02*
X73235800Y-128519800I0J200000D01*
G01*
X73235800Y-128119800D01*
G75*
G02*
X73435800Y-127919800I200000J0D01*
G01*
G37*
%TD.AperFunction*%
%TO.P,R92,1*%
%TO.N,/ESP32_part/a1*%
%TA.AperFunction,SMDPad,CuDef*%
G36*
G01*
X73435800Y-126269800D02*
X73985800Y-126269800D01*
G75*
G02*
X74185800Y-126469800I0J-200000D01*
G01*
X74185800Y-126869800D01*
G75*
G02*
X73985800Y-127069800I-200000J0D01*
G01*
X73435800Y-127069800D01*
G75*
G02*
X73235800Y-126869800I0J200000D01*
G01*
X73235800Y-126469800D01*
G75*
G02*
X73435800Y-126269800I200000J0D01*
G01*
G37*
%TD.AperFunction*%
%TD*%
%TO.P,R93,1*%
%TO.N,Net-(R89-Pad2)*%
%TA.AperFunction,SMDPad,CuDef*%
G36*
G01*
X78706300Y-125190300D02*
X79256300Y-125190300D01*
G75*
G02*
X79456300Y-125390300I0J-200000D01*
G01*
X79456300Y-125790300D01*
G75*
G02*
X79256300Y-125990300I-200000J0D01*
G01*
X78706300Y-125990300D01*
G75*
G02*
X78506300Y-125790300I0J200000D01*
G01*
X78506300Y-125390300D01*
G75*
G02*
X78706300Y-125190300I200000J0D01*
G01*
G37*
%TD.AperFunction*%
%TO.P,R93,2*%
%TO.N,GND1*%
%TA.AperFunction,SMDPad,CuDef*%
G36*
G01*
X78706300Y-126840300D02*
X79256300Y-126840300D01*
G75*
G02*
X79456300Y-127040300I0J-200000D01*
G01*
X79456300Y-127440300D01*
G75*
G02*
X79256300Y-127640300I-200000J0D01*
G01*
X78706300Y-127640300D01*
G75*
G02*
X78506300Y-127440300I0J200000D01*
G01*
X78506300Y-127040300D01*
G75*
G02*
X78706300Y-126840300I200000J0D01*
G01*
G37*
%TD.AperFunction*%
%TD*%
%TO.P,R95,1*%
%TO.N,Net-(R95-Pad1)*%
%TA.AperFunction,SMDPad,CuDef*%
G36*
G01*
X81754300Y-125190300D02*
X82304300Y-125190300D01*
G75*
G02*
X82504300Y-125390300I0J-200000D01*
G01*
X82504300Y-125790300D01*
G75*
G02*
X82304300Y-125990300I-200000J0D01*
G01*
X81754300Y-125990300D01*
G75*
G02*
X81554300Y-125790300I0J200000D01*
G01*
X81554300Y-125390300D01*
G75*
G02*
X81754300Y-125190300I200000J0D01*
G01*
G37*
%TD.AperFunction*%
%TO.P,R95,2*%
%TO.N,GND1*%
%TA.AperFunction,SMDPad,CuDef*%
G36*
G01*
X81754300Y-126840300D02*
X82304300Y-126840300D01*
G75*
G02*
X82504300Y-127040300I0J-200000D01*
G01*
X82504300Y-127440300D01*
G75*
G02*
X82304300Y-127640300I-200000J0D01*
G01*
X81754300Y-127640300D01*
G75*
G02*
X81554300Y-127440300I0J200000D01*
G01*
X81554300Y-127040300D01*
G75*
G02*
X81754300Y-126840300I200000J0D01*
G01*
G37*
%TD.AperFunction*%
%TD*%
D18*
%TO.P,TP1,1*%
%TO.N,GND1*%
X123367800Y-77139800D03*
%TD*%
%TO.P,C10,2*%
%TO.N,GND1*%
%TA.AperFunction,SMDPad,CuDef*%
G36*
G01*
X91407800Y-129028300D02*
X91407800Y-126978300D01*
G75*
G02*
X91657800Y-126728300I250000J0D01*
G01*
X93232800Y-126728300D01*
G75*
G02*
X93482800Y-126978300I0J-250000D01*
G01*
X93482800Y-129028300D01*
G75*
G02*
X93232800Y-129278300I-250000J0D01*
G01*
X91657800Y-129278300D01*
G75*
G02*
X91407800Y-129028300I0J250000D01*
G01*
G37*
%TD.AperFunction*%
%TO.P,C10,1*%
%TO.N,+3V3*%
%TA.AperFunction,SMDPad,CuDef*%
G36*
G01*
X85182800Y-129028300D02*
X85182800Y-126978300D01*
G75*
G02*
X85432800Y-126728300I250000J0D01*
G01*
X87007800Y-126728300D01*
G75*
G02*
X87257800Y-126978300I0J-250000D01*
G01*
X87257800Y-129028300D01*
G75*
G02*
X87007800Y-129278300I-250000J0D01*
G01*
X85432800Y-129278300D01*
G75*
G02*
X85182800Y-129028300I0J250000D01*
G01*
G37*
%TD.AperFunction*%
%TD*%
%TO.P,C12,2*%
%TO.N,GND1*%
%TA.AperFunction,SMDPad,CuDef*%
G36*
G01*
X98687800Y-126978300D02*
X98687800Y-129028300D01*
G75*
G02*
X98437800Y-129278300I-250000J0D01*
G01*
X96862800Y-129278300D01*
G75*
G02*
X96612800Y-129028300I0J250000D01*
G01*
X96612800Y-126978300D01*
G75*
G02*
X96862800Y-126728300I250000J0D01*
G01*
X98437800Y-126728300D01*
G75*
G02*
X98687800Y-126978300I0J-250000D01*
G01*
G37*
%TD.AperFunction*%
%TO.P,C12,1*%
%TO.N,+3V3*%
%TA.AperFunction,SMDPad,CuDef*%
G36*
G01*
X104912800Y-126978300D02*
X104912800Y-129028300D01*
G75*
G02*
X104662800Y-129278300I-250000J0D01*
G01*
X103087800Y-129278300D01*
G75*
G02*
X102837800Y-129028300I0J250000D01*
G01*
X102837800Y-126978300D01*
G75*
G02*
X103087800Y-126728300I250000J0D01*
G01*
X104662800Y-126728300D01*
G75*
G02*
X104912800Y-126978300I0J-250000D01*
G01*
G37*
%TD.AperFunction*%
%TD*%
D19*
%TO.P,Q21,6*%
%TO.N,/ESP32_part/~RST*%
X93710800Y-86362300D03*
%TO.P,Q21,4*%
%TO.N,/ESP32_part/DTR*%
X93710800Y-85062300D03*
%TO.P,Q21,2*%
X91810800Y-85712300D03*
%TO.P,Q21,5*%
%TO.N,/ESP32_part/RTS*%
X93710800Y-85712300D03*
%TO.P,Q21,3*%
%TO.N,/ESP32_part/GPIO0*%
X91810800Y-85062300D03*
%TO.P,Q21,1*%
%TO.N,/ESP32_part/RTS*%
X91810800Y-86362300D03*
%TD*%
%TO.P,R86,2*%
%TO.N,Net-(R86-Pad2)*%
%TA.AperFunction,SMDPad,CuDef*%
G36*
G01*
X120467800Y-137738800D02*
X119917800Y-137738800D01*
G75*
G02*
X119717800Y-137538800I0J200000D01*
G01*
X119717800Y-137138800D01*
G75*
G02*
X119917800Y-136938800I200000J0D01*
G01*
X120467800Y-136938800D01*
G75*
G02*
X120667800Y-137138800I0J-200000D01*
G01*
X120667800Y-137538800D01*
G75*
G02*
X120467800Y-137738800I-200000J0D01*
G01*
G37*
%TD.AperFunction*%
%TO.P,R86,1*%
%TO.N,/ESP32_part/TX*%
%TA.AperFunction,SMDPad,CuDef*%
G36*
G01*
X120467800Y-139388800D02*
X119917800Y-139388800D01*
G75*
G02*
X119717800Y-139188800I0J200000D01*
G01*
X119717800Y-138788800D01*
G75*
G02*
X119917800Y-138588800I200000J0D01*
G01*
X120467800Y-138588800D01*
G75*
G02*
X120667800Y-138788800I0J-200000D01*
G01*
X120667800Y-139188800D01*
G75*
G02*
X120467800Y-139388800I-200000J0D01*
G01*
G37*
%TD.AperFunction*%
%TD*%
%TO.P,R85,2*%
%TO.N,Net-(R85-Pad2)*%
%TA.AperFunction,SMDPad,CuDef*%
G36*
G01*
X118562800Y-137737800D02*
X118012800Y-137737800D01*
G75*
G02*
X117812800Y-137537800I0J200000D01*
G01*
X117812800Y-137137800D01*
G75*
G02*
X118012800Y-136937800I200000J0D01*
G01*
X118562800Y-136937800D01*
G75*
G02*
X118762800Y-137137800I0J-200000D01*
G01*
X118762800Y-137537800D01*
G75*
G02*
X118562800Y-137737800I-200000J0D01*
G01*
G37*
%TD.AperFunction*%
%TO.P,R85,1*%
%TO.N,/ESP32_part/RX*%
%TA.AperFunction,SMDPad,CuDef*%
G36*
G01*
X118562800Y-139387800D02*
X118012800Y-139387800D01*
G75*
G02*
X117812800Y-139187800I0J200000D01*
G01*
X117812800Y-138787800D01*
G75*
G02*
X118012800Y-138587800I200000J0D01*
G01*
X118562800Y-138587800D01*
G75*
G02*
X118762800Y-138787800I0J-200000D01*
G01*
X118762800Y-139187800D01*
G75*
G02*
X118562800Y-139387800I-200000J0D01*
G01*
G37*
%TD.AperFunction*%
%TD*%
%TO.P,R43,2*%
%TO.N,GND1*%
%TA.AperFunction,SMDPad,CuDef*%
G36*
G01*
X112043800Y-129444800D02*
X112593800Y-129444800D01*
G75*
G02*
X112793800Y-129644800I0J-200000D01*
G01*
X112793800Y-130044800D01*
G75*
G02*
X112593800Y-130244800I-200000J0D01*
G01*
X112043800Y-130244800D01*
G75*
G02*
X111843800Y-130044800I0J200000D01*
G01*
X111843800Y-129644800D01*
G75*
G02*
X112043800Y-129444800I200000J0D01*
G01*
G37*
%TD.AperFunction*%
%TO.P,R43,1*%
%TO.N,Net-(Q16-Pad1)*%
%TA.AperFunction,SMDPad,CuDef*%
G36*
G01*
X112043800Y-127794800D02*
X112593800Y-127794800D01*
G75*
G02*
X112793800Y-127994800I0J-200000D01*
G01*
X112793800Y-128394800D01*
G75*
G02*
X112593800Y-128594800I-200000J0D01*
G01*
X112043800Y-128594800D01*
G75*
G02*
X111843800Y-128394800I0J200000D01*
G01*
X111843800Y-127994800D01*
G75*
G02*
X112043800Y-127794800I200000J0D01*
G01*
G37*
%TD.AperFunction*%
%TD*%
%TO.P,R59,2*%
%TO.N,/Ctrl_part/eLine_E*%
%TA.AperFunction,SMDPad,CuDef*%
G36*
G01*
X88463800Y-77539800D02*
X87913800Y-77539800D01*
G75*
G02*
X87713800Y-77339800I0J200000D01*
G01*
X87713800Y-76939800D01*
G75*
G02*
X87913800Y-76739800I200000J0D01*
G01*
X88463800Y-76739800D01*
G75*
G02*
X88663800Y-76939800I0J-200000D01*
G01*
X88663800Y-77339800D01*
G75*
G02*
X88463800Y-77539800I-200000J0D01*
G01*
G37*
%TD.AperFunction*%
%TO.P,R59,1*%
%TO.N,/Ctrl_part/EC11_E*%
%TA.AperFunction,SMDPad,CuDef*%
G36*
G01*
X88463800Y-79189800D02*
X87913800Y-79189800D01*
G75*
G02*
X87713800Y-78989800I0J200000D01*
G01*
X87713800Y-78589800D01*
G75*
G02*
X87913800Y-78389800I200000J0D01*
G01*
X88463800Y-78389800D01*
G75*
G02*
X88663800Y-78589800I0J-200000D01*
G01*
X88663800Y-78989800D01*
G75*
G02*
X88463800Y-79189800I-200000J0D01*
G01*
G37*
%TD.AperFunction*%
%TD*%
%TO.P,R58,2*%
%TO.N,/Ctrl_part/eLine_B*%
%TA.AperFunction,SMDPad,CuDef*%
G36*
G01*
X100527800Y-80801800D02*
X100527800Y-81351800D01*
G75*
G02*
X100327800Y-81551800I-200000J0D01*
G01*
X99927800Y-81551800D01*
G75*
G02*
X99727800Y-81351800I0J200000D01*
G01*
X99727800Y-80801800D01*
G75*
G02*
X99927800Y-80601800I200000J0D01*
G01*
X100327800Y-80601800D01*
G75*
G02*
X100527800Y-80801800I0J-200000D01*
G01*
G37*
%TD.AperFunction*%
%TO.P,R58,1*%
%TO.N,/Ctrl_part/EC11_B*%
%TA.AperFunction,SMDPad,CuDef*%
G36*
G01*
X102177800Y-80801800D02*
X102177800Y-81351800D01*
G75*
G02*
X101977800Y-81551800I-200000J0D01*
G01*
X101577800Y-81551800D01*
G75*
G02*
X101377800Y-81351800I0J200000D01*
G01*
X101377800Y-80801800D01*
G75*
G02*
X101577800Y-80601800I200000J0D01*
G01*
X101977800Y-80601800D01*
G75*
G02*
X102177800Y-80801800I0J-200000D01*
G01*
G37*
%TD.AperFunction*%
%TD*%
%TO.P,R57,2*%
%TO.N,/Ctrl_part/eLine_A*%
%TA.AperFunction,SMDPad,CuDef*%
G36*
G01*
X100527800Y-85881800D02*
X100527800Y-86431800D01*
G75*
G02*
X100327800Y-86631800I-200000J0D01*
G01*
X99927800Y-86631800D01*
G75*
G02*
X99727800Y-86431800I0J200000D01*
G01*
X99727800Y-85881800D01*
G75*
G02*
X99927800Y-85681800I200000J0D01*
G01*
X100327800Y-85681800D01*
G75*
G02*
X100527800Y-85881800I0J-200000D01*
G01*
G37*
%TD.AperFunction*%
%TO.P,R57,1*%
%TO.N,/Ctrl_part/EC11_A*%
%TA.AperFunction,SMDPad,CuDef*%
G36*
G01*
X102177800Y-85881800D02*
X102177800Y-86431800D01*
G75*
G02*
X101977800Y-86631800I-200000J0D01*
G01*
X101577800Y-86631800D01*
G75*
G02*
X101377800Y-86431800I0J200000D01*
G01*
X101377800Y-85881800D01*
G75*
G02*
X101577800Y-85681800I200000J0D01*
G01*
X101977800Y-85681800D01*
G75*
G02*
X102177800Y-85881800I0J-200000D01*
G01*
G37*
%TD.AperFunction*%
%TD*%
%TO.P,R56,2*%
%TO.N,+3V3*%
%TA.AperFunction,SMDPad,CuDef*%
G36*
G01*
X90495800Y-77540800D02*
X89945800Y-77540800D01*
G75*
G02*
X89745800Y-77340800I0J200000D01*
G01*
X89745800Y-76940800D01*
G75*
G02*
X89945800Y-76740800I200000J0D01*
G01*
X90495800Y-76740800D01*
G75*
G02*
X90695800Y-76940800I0J-200000D01*
G01*
X90695800Y-77340800D01*
G75*
G02*
X90495800Y-77540800I-200000J0D01*
G01*
G37*
%TD.AperFunction*%
%TO.P,R56,1*%
%TO.N,/Ctrl_part/EC11_E*%
%TA.AperFunction,SMDPad,CuDef*%
G36*
G01*
X90495800Y-79190800D02*
X89945800Y-79190800D01*
G75*
G02*
X89745800Y-78990800I0J200000D01*
G01*
X89745800Y-78590800D01*
G75*
G02*
X89945800Y-78390800I200000J0D01*
G01*
X90495800Y-78390800D01*
G75*
G02*
X90695800Y-78590800I0J-200000D01*
G01*
X90695800Y-78990800D01*
G75*
G02*
X90495800Y-79190800I-200000J0D01*
G01*
G37*
%TD.AperFunction*%
%TD*%
%TO.P,R55,2*%
%TO.N,+3V3*%
%TA.AperFunction,SMDPad,CuDef*%
G36*
G01*
X100527800Y-79150800D02*
X100527800Y-79700800D01*
G75*
G02*
X100327800Y-79900800I-200000J0D01*
G01*
X99927800Y-79900800D01*
G75*
G02*
X99727800Y-79700800I0J200000D01*
G01*
X99727800Y-79150800D01*
G75*
G02*
X99927800Y-78950800I200000J0D01*
G01*
X100327800Y-78950800D01*
G75*
G02*
X100527800Y-79150800I0J-200000D01*
G01*
G37*
%TD.AperFunction*%
%TO.P,R55,1*%
%TO.N,/Ctrl_part/EC11_B*%
%TA.AperFunction,SMDPad,CuDef*%
G36*
G01*
X102177800Y-79150800D02*
X102177800Y-79700800D01*
G75*
G02*
X101977800Y-79900800I-200000J0D01*
G01*
X101577800Y-79900800D01*
G75*
G02*
X101377800Y-79700800I0J200000D01*
G01*
X101377800Y-79150800D01*
G75*
G02*
X101577800Y-78950800I200000J0D01*
G01*
X101977800Y-78950800D01*
G75*
G02*
X102177800Y-79150800I0J-200000D01*
G01*
G37*
%TD.AperFunction*%
%TD*%
%TO.P,R54,2*%
%TO.N,+3V3*%
%TA.AperFunction,SMDPad,CuDef*%
G36*
G01*
X100527800Y-87532800D02*
X100527800Y-88082800D01*
G75*
G02*
X100327800Y-88282800I-200000J0D01*
G01*
X99927800Y-88282800D01*
G75*
G02*
X99727800Y-88082800I0J200000D01*
G01*
X99727800Y-87532800D01*
G75*
G02*
X99927800Y-87332800I200000J0D01*
G01*
X100327800Y-87332800D01*
G75*
G02*
X100527800Y-87532800I0J-200000D01*
G01*
G37*
%TD.AperFunction*%
%TO.P,R54,1*%
%TO.N,/Ctrl_part/EC11_A*%
%TA.AperFunction,SMDPad,CuDef*%
G36*
G01*
X102177800Y-87532800D02*
X102177800Y-88082800D01*
G75*
G02*
X101977800Y-88282800I-200000J0D01*
G01*
X101577800Y-88282800D01*
G75*
G02*
X101377800Y-88082800I0J200000D01*
G01*
X101377800Y-87532800D01*
G75*
G02*
X101577800Y-87332800I200000J0D01*
G01*
X101977800Y-87332800D01*
G75*
G02*
X102177800Y-87532800I0J-200000D01*
G01*
G37*
%TD.AperFunction*%
%TD*%
%TO.P,R53,2*%
%TO.N,/Ctrl_part/jbline*%
%TA.AperFunction,SMDPad,CuDef*%
G36*
G01*
X110815800Y-88208800D02*
X110265800Y-88208800D01*
G75*
G02*
X110065800Y-88008800I0J200000D01*
G01*
X110065800Y-87608800D01*
G75*
G02*
X110265800Y-87408800I200000J0D01*
G01*
X110815800Y-87408800D01*
G75*
G02*
X111015800Y-87608800I0J-200000D01*
G01*
X111015800Y-88008800D01*
G75*
G02*
X110815800Y-88208800I-200000J0D01*
G01*
G37*
%TD.AperFunction*%
%TO.P,R53,1*%
%TO.N,/Ctrl_part/jbbtn*%
%TA.AperFunction,SMDPad,CuDef*%
G36*
G01*
X110815800Y-89858800D02*
X110265800Y-89858800D01*
G75*
G02*
X110065800Y-89658800I0J200000D01*
G01*
X110065800Y-89258800D01*
G75*
G02*
X110265800Y-89058800I200000J0D01*
G01*
X110815800Y-89058800D01*
G75*
G02*
X111015800Y-89258800I0J-200000D01*
G01*
X111015800Y-89658800D01*
G75*
G02*
X110815800Y-89858800I-200000J0D01*
G01*
G37*
%TD.AperFunction*%
%TD*%
%TO.P,R52,2*%
%TO.N,/Ctrl_part/jlline*%
%TA.AperFunction,SMDPad,CuDef*%
G36*
G01*
X105820800Y-79024800D02*
X106370800Y-79024800D01*
G75*
G02*
X106570800Y-79224800I0J-200000D01*
G01*
X106570800Y-79624800D01*
G75*
G02*
X106370800Y-79824800I-200000J0D01*
G01*
X105820800Y-79824800D01*
G75*
G02*
X105620800Y-79624800I0J200000D01*
G01*
X105620800Y-79224800D01*
G75*
G02*
X105820800Y-79024800I200000J0D01*
G01*
G37*
%TD.AperFunction*%
%TO.P,R52,1*%
%TO.N,/Ctrl_part/jlbtn*%
%TA.AperFunction,SMDPad,CuDef*%
G36*
G01*
X105820800Y-77374800D02*
X106370800Y-77374800D01*
G75*
G02*
X106570800Y-77574800I0J-200000D01*
G01*
X106570800Y-77974800D01*
G75*
G02*
X106370800Y-78174800I-200000J0D01*
G01*
X105820800Y-78174800D01*
G75*
G02*
X105620800Y-77974800I0J200000D01*
G01*
X105620800Y-77574800D01*
G75*
G02*
X105820800Y-77374800I200000J0D01*
G01*
G37*
%TD.AperFunction*%
%TD*%
%TO.P,R51,2*%
%TO.N,/Ctrl_part/jtline*%
%TA.AperFunction,SMDPad,CuDef*%
G36*
G01*
X115599800Y-79024800D02*
X116149800Y-79024800D01*
G75*
G02*
X116349800Y-79224800I0J-200000D01*
G01*
X116349800Y-79624800D01*
G75*
G02*
X116149800Y-79824800I-200000J0D01*
G01*
X115599800Y-79824800D01*
G75*
G02*
X115399800Y-79624800I0J200000D01*
G01*
X115399800Y-79224800D01*
G75*
G02*
X115599800Y-79024800I200000J0D01*
G01*
G37*
%TD.AperFunction*%
%TO.P,R51,1*%
%TO.N,/Ctrl_part/jtbtn*%
%TA.AperFunction,SMDPad,CuDef*%
G36*
G01*
X115599800Y-77374800D02*
X116149800Y-77374800D01*
G75*
G02*
X116349800Y-77574800I0J-200000D01*
G01*
X116349800Y-77974800D01*
G75*
G02*
X116149800Y-78174800I-200000J0D01*
G01*
X115599800Y-78174800D01*
G75*
G02*
X115399800Y-77974800I0J200000D01*
G01*
X115399800Y-77574800D01*
G75*
G02*
X115599800Y-77374800I200000J0D01*
G01*
G37*
%TD.AperFunction*%
%TD*%
%TO.P,R50,2*%
%TO.N,/Ctrl_part/jcline*%
%TA.AperFunction,SMDPad,CuDef*%
G36*
G01*
X110265800Y-79024800D02*
X110815800Y-79024800D01*
G75*
G02*
X111015800Y-79224800I0J-200000D01*
G01*
X111015800Y-79624800D01*
G75*
G02*
X110815800Y-79824800I-200000J0D01*
G01*
X110265800Y-79824800D01*
G75*
G02*
X110065800Y-79624800I0J200000D01*
G01*
X110065800Y-79224800D01*
G75*
G02*
X110265800Y-79024800I200000J0D01*
G01*
G37*
%TD.AperFunction*%
%TO.P,R50,1*%
%TO.N,/Ctrl_part/jcbtn*%
%TA.AperFunction,SMDPad,CuDef*%
G36*
G01*
X110265800Y-77374800D02*
X110815800Y-77374800D01*
G75*
G02*
X111015800Y-77574800I0J-200000D01*
G01*
X111015800Y-77974800D01*
G75*
G02*
X110815800Y-78174800I-200000J0D01*
G01*
X110265800Y-78174800D01*
G75*
G02*
X110065800Y-77974800I0J200000D01*
G01*
X110065800Y-77574800D01*
G75*
G02*
X110265800Y-77374800I200000J0D01*
G01*
G37*
%TD.AperFunction*%
%TD*%
%TO.P,R49,2*%
%TO.N,/Ctrl_part/jrline*%
%TA.AperFunction,SMDPad,CuDef*%
G36*
G01*
X116149800Y-88208800D02*
X115599800Y-88208800D01*
G75*
G02*
X115399800Y-88008800I0J200000D01*
G01*
X115399800Y-87608800D01*
G75*
G02*
X115599800Y-87408800I200000J0D01*
G01*
X116149800Y-87408800D01*
G75*
G02*
X116349800Y-87608800I0J-200000D01*
G01*
X116349800Y-88008800D01*
G75*
G02*
X116149800Y-88208800I-200000J0D01*
G01*
G37*
%TD.AperFunction*%
%TO.P,R49,1*%
%TO.N,/Ctrl_part/jrbtn*%
%TA.AperFunction,SMDPad,CuDef*%
G36*
G01*
X116149800Y-89858800D02*
X115599800Y-89858800D01*
G75*
G02*
X115399800Y-89658800I0J200000D01*
G01*
X115399800Y-89258800D01*
G75*
G02*
X115599800Y-89058800I200000J0D01*
G01*
X116149800Y-89058800D01*
G75*
G02*
X116349800Y-89258800I0J-200000D01*
G01*
X116349800Y-89658800D01*
G75*
G02*
X116149800Y-89858800I-200000J0D01*
G01*
G37*
%TD.AperFunction*%
%TD*%
%TO.P,R48,2*%
%TO.N,+3V3*%
%TA.AperFunction,SMDPad,CuDef*%
G36*
G01*
X112466800Y-88207800D02*
X111916800Y-88207800D01*
G75*
G02*
X111716800Y-88007800I0J200000D01*
G01*
X111716800Y-87607800D01*
G75*
G02*
X111916800Y-87407800I200000J0D01*
G01*
X112466800Y-87407800D01*
G75*
G02*
X112666800Y-87607800I0J-200000D01*
G01*
X112666800Y-88007800D01*
G75*
G02*
X112466800Y-88207800I-200000J0D01*
G01*
G37*
%TD.AperFunction*%
%TO.P,R48,1*%
%TO.N,/Ctrl_part/jbbtn*%
%TA.AperFunction,SMDPad,CuDef*%
G36*
G01*
X112466800Y-89857800D02*
X111916800Y-89857800D01*
G75*
G02*
X111716800Y-89657800I0J200000D01*
G01*
X111716800Y-89257800D01*
G75*
G02*
X111916800Y-89057800I200000J0D01*
G01*
X112466800Y-89057800D01*
G75*
G02*
X112666800Y-89257800I0J-200000D01*
G01*
X112666800Y-89657800D01*
G75*
G02*
X112466800Y-89857800I-200000J0D01*
G01*
G37*
%TD.AperFunction*%
%TD*%
%TO.P,R47,2*%
%TO.N,+3V3*%
%TA.AperFunction,SMDPad,CuDef*%
G36*
G01*
X107471800Y-79024800D02*
X108021800Y-79024800D01*
G75*
G02*
X108221800Y-79224800I0J-200000D01*
G01*
X108221800Y-79624800D01*
G75*
G02*
X108021800Y-79824800I-200000J0D01*
G01*
X107471800Y-79824800D01*
G75*
G02*
X107271800Y-79624800I0J200000D01*
G01*
X107271800Y-79224800D01*
G75*
G02*
X107471800Y-79024800I200000J0D01*
G01*
G37*
%TD.AperFunction*%
%TO.P,R47,1*%
%TO.N,/Ctrl_part/jlbtn*%
%TA.AperFunction,SMDPad,CuDef*%
G36*
G01*
X107471800Y-77374800D02*
X108021800Y-77374800D01*
G75*
G02*
X108221800Y-77574800I0J-200000D01*
G01*
X108221800Y-77974800D01*
G75*
G02*
X108021800Y-78174800I-200000J0D01*
G01*
X107471800Y-78174800D01*
G75*
G02*
X107271800Y-77974800I0J200000D01*
G01*
X107271800Y-77574800D01*
G75*
G02*
X107471800Y-77374800I200000J0D01*
G01*
G37*
%TD.AperFunction*%
%TD*%
%TO.P,R46,2*%
%TO.N,+3V3*%
%TA.AperFunction,SMDPad,CuDef*%
G36*
G01*
X113948800Y-79024800D02*
X114498800Y-79024800D01*
G75*
G02*
X114698800Y-79224800I0J-200000D01*
G01*
X114698800Y-79624800D01*
G75*
G02*
X114498800Y-79824800I-200000J0D01*
G01*
X113948800Y-79824800D01*
G75*
G02*
X113748800Y-79624800I0J200000D01*
G01*
X113748800Y-79224800D01*
G75*
G02*
X113948800Y-79024800I200000J0D01*
G01*
G37*
%TD.AperFunction*%
%TO.P,R46,1*%
%TO.N,/Ctrl_part/jtbtn*%
%TA.AperFunction,SMDPad,CuDef*%
G36*
G01*
X113948800Y-77374800D02*
X114498800Y-77374800D01*
G75*
G02*
X114698800Y-77574800I0J-200000D01*
G01*
X114698800Y-77974800D01*
G75*
G02*
X114498800Y-78174800I-200000J0D01*
G01*
X113948800Y-78174800D01*
G75*
G02*
X113748800Y-77974800I0J200000D01*
G01*
X113748800Y-77574800D01*
G75*
G02*
X113948800Y-77374800I200000J0D01*
G01*
G37*
%TD.AperFunction*%
%TD*%
%TO.P,R45,2*%
%TO.N,+3V3*%
%TA.AperFunction,SMDPad,CuDef*%
G36*
G01*
X111916800Y-79024800D02*
X112466800Y-79024800D01*
G75*
G02*
X112666800Y-79224800I0J-200000D01*
G01*
X112666800Y-79624800D01*
G75*
G02*
X112466800Y-79824800I-200000J0D01*
G01*
X111916800Y-79824800D01*
G75*
G02*
X111716800Y-79624800I0J200000D01*
G01*
X111716800Y-79224800D01*
G75*
G02*
X111916800Y-79024800I200000J0D01*
G01*
G37*
%TD.AperFunction*%
%TO.P,R45,1*%
%TO.N,/Ctrl_part/jcbtn*%
%TA.AperFunction,SMDPad,CuDef*%
G36*
G01*
X111916800Y-77374800D02*
X112466800Y-77374800D01*
G75*
G02*
X112666800Y-77574800I0J-200000D01*
G01*
X112666800Y-77974800D01*
G75*
G02*
X112466800Y-78174800I-200000J0D01*
G01*
X111916800Y-78174800D01*
G75*
G02*
X111716800Y-77974800I0J200000D01*
G01*
X111716800Y-77574800D01*
G75*
G02*
X111916800Y-77374800I200000J0D01*
G01*
G37*
%TD.AperFunction*%
%TD*%
%TO.P,R44,2*%
%TO.N,+3V3*%
%TA.AperFunction,SMDPad,CuDef*%
G36*
G01*
X114498800Y-88208800D02*
X113948800Y-88208800D01*
G75*
G02*
X113748800Y-88008800I0J200000D01*
G01*
X113748800Y-87608800D01*
G75*
G02*
X113948800Y-87408800I200000J0D01*
G01*
X114498800Y-87408800D01*
G75*
G02*
X114698800Y-87608800I0J-200000D01*
G01*
X114698800Y-88008800D01*
G75*
G02*
X114498800Y-88208800I-200000J0D01*
G01*
G37*
%TD.AperFunction*%
%TO.P,R44,1*%
%TO.N,/Ctrl_part/jrbtn*%
%TA.AperFunction,SMDPad,CuDef*%
G36*
G01*
X114498800Y-89858800D02*
X113948800Y-89858800D01*
G75*
G02*
X113748800Y-89658800I0J200000D01*
G01*
X113748800Y-89258800D01*
G75*
G02*
X113948800Y-89058800I200000J0D01*
G01*
X114498800Y-89058800D01*
G75*
G02*
X114698800Y-89258800I0J-200000D01*
G01*
X114698800Y-89658800D01*
G75*
G02*
X114498800Y-89858800I-200000J0D01*
G01*
G37*
%TD.AperFunction*%
%TD*%
%TO.P,C32,2*%
%TO.N,GND1*%
%TA.AperFunction,SMDPad,CuDef*%
G36*
G01*
X85906800Y-78239800D02*
X86406800Y-78239800D01*
G75*
G02*
X86631800Y-78464800I0J-225000D01*
G01*
X86631800Y-78914800D01*
G75*
G02*
X86406800Y-79139800I-225000J0D01*
G01*
X85906800Y-79139800D01*
G75*
G02*
X85681800Y-78914800I0J225000D01*
G01*
X85681800Y-78464800D01*
G75*
G02*
X85906800Y-78239800I225000J0D01*
G01*
G37*
%TD.AperFunction*%
%TO.P,C32,1*%
%TO.N,/Ctrl_part/eLine_E*%
%TA.AperFunction,SMDPad,CuDef*%
G36*
G01*
X85906800Y-76689800D02*
X86406800Y-76689800D01*
G75*
G02*
X86631800Y-76914800I0J-225000D01*
G01*
X86631800Y-77364800D01*
G75*
G02*
X86406800Y-77589800I-225000J0D01*
G01*
X85906800Y-77589800D01*
G75*
G02*
X85681800Y-77364800I0J225000D01*
G01*
X85681800Y-76914800D01*
G75*
G02*
X85906800Y-76689800I225000J0D01*
G01*
G37*
%TD.AperFunction*%
%TD*%
%TO.P,C31,2*%
%TO.N,GND1*%
%TA.AperFunction,SMDPad,CuDef*%
G36*
G01*
X98225800Y-82176800D02*
X98725800Y-82176800D01*
G75*
G02*
X98950800Y-82401800I0J-225000D01*
G01*
X98950800Y-82851800D01*
G75*
G02*
X98725800Y-83076800I-225000J0D01*
G01*
X98225800Y-83076800D01*
G75*
G02*
X98000800Y-82851800I0J225000D01*
G01*
X98000800Y-82401800D01*
G75*
G02*
X98225800Y-82176800I225000J0D01*
G01*
G37*
%TD.AperFunction*%
%TO.P,C31,1*%
%TO.N,/Ctrl_part/eLine_B*%
%TA.AperFunction,SMDPad,CuDef*%
G36*
G01*
X98225800Y-80626800D02*
X98725800Y-80626800D01*
G75*
G02*
X98950800Y-80851800I0J-225000D01*
G01*
X98950800Y-81301800D01*
G75*
G02*
X98725800Y-81526800I-225000J0D01*
G01*
X98225800Y-81526800D01*
G75*
G02*
X98000800Y-81301800I0J225000D01*
G01*
X98000800Y-80851800D01*
G75*
G02*
X98225800Y-80626800I225000J0D01*
G01*
G37*
%TD.AperFunction*%
%TD*%
%TO.P,C30,2*%
%TO.N,GND1*%
%TA.AperFunction,SMDPad,CuDef*%
G36*
G01*
X98725800Y-85056800D02*
X98225800Y-85056800D01*
G75*
G02*
X98000800Y-84831800I0J225000D01*
G01*
X98000800Y-84381800D01*
G75*
G02*
X98225800Y-84156800I225000J0D01*
G01*
X98725800Y-84156800D01*
G75*
G02*
X98950800Y-84381800I0J-225000D01*
G01*
X98950800Y-84831800D01*
G75*
G02*
X98725800Y-85056800I-225000J0D01*
G01*
G37*
%TD.AperFunction*%
%TO.P,C30,1*%
%TO.N,/Ctrl_part/eLine_A*%
%TA.AperFunction,SMDPad,CuDef*%
G36*
G01*
X98725800Y-86606800D02*
X98225800Y-86606800D01*
G75*
G02*
X98000800Y-86381800I0J225000D01*
G01*
X98000800Y-85931800D01*
G75*
G02*
X98225800Y-85706800I225000J0D01*
G01*
X98725800Y-85706800D01*
G75*
G02*
X98950800Y-85931800I0J-225000D01*
G01*
X98950800Y-86381800D01*
G75*
G02*
X98725800Y-86606800I-225000J0D01*
G01*
G37*
%TD.AperFunction*%
%TD*%
%TO.P,C29,2*%
%TO.N,GND1*%
%TA.AperFunction,SMDPad,CuDef*%
G36*
G01*
X106941800Y-91232800D02*
X106941800Y-90732800D01*
G75*
G02*
X107166800Y-90507800I225000J0D01*
G01*
X107616800Y-90507800D01*
G75*
G02*
X107841800Y-90732800I0J-225000D01*
G01*
X107841800Y-91232800D01*
G75*
G02*
X107616800Y-91457800I-225000J0D01*
G01*
X107166800Y-91457800D01*
G75*
G02*
X106941800Y-91232800I0J225000D01*
G01*
G37*
%TD.AperFunction*%
%TO.P,C29,1*%
%TO.N,+3V3*%
%TA.AperFunction,SMDPad,CuDef*%
G36*
G01*
X105391800Y-91232800D02*
X105391800Y-90732800D01*
G75*
G02*
X105616800Y-90507800I225000J0D01*
G01*
X106066800Y-90507800D01*
G75*
G02*
X106291800Y-90732800I0J-225000D01*
G01*
X106291800Y-91232800D01*
G75*
G02*
X106066800Y-91457800I-225000J0D01*
G01*
X105616800Y-91457800D01*
G75*
G02*
X105391800Y-91232800I0J225000D01*
G01*
G37*
%TD.AperFunction*%
%TD*%
%TO.P,C28,2*%
%TO.N,GND1*%
%TA.AperFunction,SMDPad,CuDef*%
G36*
G01*
X110790800Y-85196800D02*
X110290800Y-85196800D01*
G75*
G02*
X110065800Y-84971800I0J225000D01*
G01*
X110065800Y-84521800D01*
G75*
G02*
X110290800Y-84296800I225000J0D01*
G01*
X110790800Y-84296800D01*
G75*
G02*
X111015800Y-84521800I0J-225000D01*
G01*
X111015800Y-84971800D01*
G75*
G02*
X110790800Y-85196800I-225000J0D01*
G01*
G37*
%TD.AperFunction*%
%TO.P,C28,1*%
%TO.N,/Ctrl_part/jbline*%
%TA.AperFunction,SMDPad,CuDef*%
G36*
G01*
X110790800Y-86746800D02*
X110290800Y-86746800D01*
G75*
G02*
X110065800Y-86521800I0J225000D01*
G01*
X110065800Y-86071800D01*
G75*
G02*
X110290800Y-85846800I225000J0D01*
G01*
X110790800Y-85846800D01*
G75*
G02*
X111015800Y-86071800I0J-225000D01*
G01*
X111015800Y-86521800D01*
G75*
G02*
X110790800Y-86746800I-225000J0D01*
G01*
G37*
%TD.AperFunction*%
%TD*%
%TO.P,C27,2*%
%TO.N,GND1*%
%TA.AperFunction,SMDPad,CuDef*%
G36*
G01*
X105845800Y-82023800D02*
X106345800Y-82023800D01*
G75*
G02*
X106570800Y-82248800I0J-225000D01*
G01*
X106570800Y-82698800D01*
G75*
G02*
X106345800Y-82923800I-225000J0D01*
G01*
X105845800Y-82923800D01*
G75*
G02*
X105620800Y-82698800I0J225000D01*
G01*
X105620800Y-82248800D01*
G75*
G02*
X105845800Y-82023800I225000J0D01*
G01*
G37*
%TD.AperFunction*%
%TO.P,C27,1*%
%TO.N,/Ctrl_part/jlline*%
%TA.AperFunction,SMDPad,CuDef*%
G36*
G01*
X105845800Y-80473800D02*
X106345800Y-80473800D01*
G75*
G02*
X106570800Y-80698800I0J-225000D01*
G01*
X106570800Y-81148800D01*
G75*
G02*
X106345800Y-81373800I-225000J0D01*
G01*
X105845800Y-81373800D01*
G75*
G02*
X105620800Y-81148800I0J225000D01*
G01*
X105620800Y-80698800D01*
G75*
G02*
X105845800Y-80473800I225000J0D01*
G01*
G37*
%TD.AperFunction*%
%TD*%
%TO.P,C26,2*%
%TO.N,GND1*%
%TA.AperFunction,SMDPad,CuDef*%
G36*
G01*
X115624800Y-82023800D02*
X116124800Y-82023800D01*
G75*
G02*
X116349800Y-82248800I0J-225000D01*
G01*
X116349800Y-82698800D01*
G75*
G02*
X116124800Y-82923800I-225000J0D01*
G01*
X115624800Y-82923800D01*
G75*
G02*
X115399800Y-82698800I0J225000D01*
G01*
X115399800Y-82248800D01*
G75*
G02*
X115624800Y-82023800I225000J0D01*
G01*
G37*
%TD.AperFunction*%
%TO.P,C26,1*%
%TO.N,/Ctrl_part/jtline*%
%TA.AperFunction,SMDPad,CuDef*%
G36*
G01*
X115624800Y-80473800D02*
X116124800Y-80473800D01*
G75*
G02*
X116349800Y-80698800I0J-225000D01*
G01*
X116349800Y-81148800D01*
G75*
G02*
X116124800Y-81373800I-225000J0D01*
G01*
X115624800Y-81373800D01*
G75*
G02*
X115399800Y-81148800I0J225000D01*
G01*
X115399800Y-80698800D01*
G75*
G02*
X115624800Y-80473800I225000J0D01*
G01*
G37*
%TD.AperFunction*%
%TD*%
%TO.P,C25,2*%
%TO.N,GND1*%
%TA.AperFunction,SMDPad,CuDef*%
G36*
G01*
X110290800Y-82049800D02*
X110790800Y-82049800D01*
G75*
G02*
X111015800Y-82274800I0J-225000D01*
G01*
X111015800Y-82724800D01*
G75*
G02*
X110790800Y-82949800I-225000J0D01*
G01*
X110290800Y-82949800D01*
G75*
G02*
X110065800Y-82724800I0J225000D01*
G01*
X110065800Y-82274800D01*
G75*
G02*
X110290800Y-82049800I225000J0D01*
G01*
G37*
%TD.AperFunction*%
%TO.P,C25,1*%
%TO.N,/Ctrl_part/jcline*%
%TA.AperFunction,SMDPad,CuDef*%
G36*
G01*
X110290800Y-80499800D02*
X110790800Y-80499800D01*
G75*
G02*
X111015800Y-80724800I0J-225000D01*
G01*
X111015800Y-81174800D01*
G75*
G02*
X110790800Y-81399800I-225000J0D01*
G01*
X110290800Y-81399800D01*
G75*
G02*
X110065800Y-81174800I0J225000D01*
G01*
X110065800Y-80724800D01*
G75*
G02*
X110290800Y-80499800I225000J0D01*
G01*
G37*
%TD.AperFunction*%
%TD*%
%TO.P,C24,2*%
%TO.N,GND1*%
%TA.AperFunction,SMDPad,CuDef*%
G36*
G01*
X116124800Y-85183800D02*
X115624800Y-85183800D01*
G75*
G02*
X115399800Y-84958800I0J225000D01*
G01*
X115399800Y-84508800D01*
G75*
G02*
X115624800Y-84283800I225000J0D01*
G01*
X116124800Y-84283800D01*
G75*
G02*
X116349800Y-84508800I0J-225000D01*
G01*
X116349800Y-84958800D01*
G75*
G02*
X116124800Y-85183800I-225000J0D01*
G01*
G37*
%TD.AperFunction*%
%TO.P,C24,1*%
%TO.N,/Ctrl_part/jrline*%
%TA.AperFunction,SMDPad,CuDef*%
G36*
G01*
X116124800Y-86733800D02*
X115624800Y-86733800D01*
G75*
G02*
X115399800Y-86508800I0J225000D01*
G01*
X115399800Y-86058800D01*
G75*
G02*
X115624800Y-85833800I225000J0D01*
G01*
X116124800Y-85833800D01*
G75*
G02*
X116349800Y-86058800I0J-225000D01*
G01*
X116349800Y-86508800D01*
G75*
G02*
X116124800Y-86733800I-225000J0D01*
G01*
G37*
%TD.AperFunction*%
%TD*%
D20*
%TO.P,U11,5*%
%TO.N,+3V3*%
X105846800Y-89372800D03*
%TO.P,U11,4*%
%TO.N,/Ctrl_part/~btn_int*%
X107746800Y-89372800D03*
%TO.P,U11,3*%
%TO.N,GND1*%
X107746800Y-87172800D03*
%TO.P,U11,2*%
%TO.N,/Ctrl_part/jcline*%
X106796800Y-87172800D03*
%TO.P,U11,1*%
%TO.N,/Ctrl_part/eLine_E*%
X105846800Y-87172800D03*
%TD*%
D21*
%TO.P,Y1,2*%
%TO.N,Net-(C2-Pad1)*%
X87045800Y-132404800D03*
%TO.P,Y1,1*%
%TO.N,/osci0*%
X87045800Y-134904800D03*
%TD*%
D22*
%TO.P,BT1,2*%
%TO.N,GND1*%
X95046800Y-141318800D03*
%TO.P,BT1,3*%
%TO.N,N/C*%
X90046800Y-137718800D03*
%TO.P,BT1,1*%
%TO.N,Net-(BT1-Pad1)*%
X100046800Y-137718800D03*
%TD*%
%TO.P,C6,2*%
%TO.N,+5P*%
%TA.AperFunction,SMDPad,CuDef*%
G36*
G01*
X72436800Y-97401800D02*
X71936800Y-97401800D01*
G75*
G02*
X71711800Y-97176800I0J225000D01*
G01*
X71711800Y-96726800D01*
G75*
G02*
X71936800Y-96501800I225000J0D01*
G01*
X72436800Y-96501800D01*
G75*
G02*
X72661800Y-96726800I0J-225000D01*
G01*
X72661800Y-97176800D01*
G75*
G02*
X72436800Y-97401800I-225000J0D01*
G01*
G37*
%TD.AperFunction*%
%TO.P,C6,1*%
%TO.N,GND1*%
%TA.AperFunction,SMDPad,CuDef*%
G36*
G01*
X72436800Y-98951800D02*
X71936800Y-98951800D01*
G75*
G02*
X71711800Y-98726800I0J225000D01*
G01*
X71711800Y-98276800D01*
G75*
G02*
X71936800Y-98051800I225000J0D01*
G01*
X72436800Y-98051800D01*
G75*
G02*
X72661800Y-98276800I0J-225000D01*
G01*
X72661800Y-98726800D01*
G75*
G02*
X72436800Y-98951800I-225000J0D01*
G01*
G37*
%TD.AperFunction*%
%TD*%
%TO.P,C5,2*%
%TO.N,+5P*%
%TA.AperFunction,SMDPad,CuDef*%
G36*
G01*
X74087800Y-97401800D02*
X73587800Y-97401800D01*
G75*
G02*
X73362800Y-97176800I0J225000D01*
G01*
X73362800Y-96726800D01*
G75*
G02*
X73587800Y-96501800I225000J0D01*
G01*
X74087800Y-96501800D01*
G75*
G02*
X74312800Y-96726800I0J-225000D01*
G01*
X74312800Y-97176800D01*
G75*
G02*
X74087800Y-97401800I-225000J0D01*
G01*
G37*
%TD.AperFunction*%
%TO.P,C5,1*%
%TO.N,GND1*%
%TA.AperFunction,SMDPad,CuDef*%
G36*
G01*
X74087800Y-98951800D02*
X73587800Y-98951800D01*
G75*
G02*
X73362800Y-98726800I0J225000D01*
G01*
X73362800Y-98276800D01*
G75*
G02*
X73587800Y-98051800I225000J0D01*
G01*
X74087800Y-98051800D01*
G75*
G02*
X74312800Y-98276800I0J-225000D01*
G01*
X74312800Y-98726800D01*
G75*
G02*
X74087800Y-98951800I-225000J0D01*
G01*
G37*
%TD.AperFunction*%
%TD*%
%TO.P,C22,2*%
%TO.N,+5P*%
%TA.AperFunction,SMDPad,CuDef*%
G36*
G01*
X84120800Y-107815800D02*
X83620800Y-107815800D01*
G75*
G02*
X83395800Y-107590800I0J225000D01*
G01*
X83395800Y-107140800D01*
G75*
G02*
X83620800Y-106915800I225000J0D01*
G01*
X84120800Y-106915800D01*
G75*
G02*
X84345800Y-107140800I0J-225000D01*
G01*
X84345800Y-107590800D01*
G75*
G02*
X84120800Y-107815800I-225000J0D01*
G01*
G37*
%TD.AperFunction*%
%TO.P,C22,1*%
%TO.N,GND1*%
%TA.AperFunction,SMDPad,CuDef*%
G36*
G01*
X84120800Y-109365800D02*
X83620800Y-109365800D01*
G75*
G02*
X83395800Y-109140800I0J225000D01*
G01*
X83395800Y-108690800D01*
G75*
G02*
X83620800Y-108465800I225000J0D01*
G01*
X84120800Y-108465800D01*
G75*
G02*
X84345800Y-108690800I0J-225000D01*
G01*
X84345800Y-109140800D01*
G75*
G02*
X84120800Y-109365800I-225000J0D01*
G01*
G37*
%TD.AperFunction*%
%TD*%
%TO.P,U12,16*%
%TO.N,+3V3*%
%TA.AperFunction,SMDPad,CuDef*%
G36*
G01*
X88861800Y-89354800D02*
X88861800Y-89054800D01*
G75*
G02*
X89011800Y-88904800I150000J0D01*
G01*
X90661800Y-88904800D01*
G75*
G02*
X90811800Y-89054800I0J-150000D01*
G01*
X90811800Y-89354800D01*
G75*
G02*
X90661800Y-89504800I-150000J0D01*
G01*
X89011800Y-89504800D01*
G75*
G02*
X88861800Y-89354800I0J150000D01*
G01*
G37*
%TD.AperFunction*%
%TO.P,U12,15*%
%TO.N,N/C*%
%TA.AperFunction,SMDPad,CuDef*%
G36*
G01*
X88861800Y-88084800D02*
X88861800Y-87784800D01*
G75*
G02*
X89011800Y-87634800I150000J0D01*
G01*
X90661800Y-87634800D01*
G75*
G02*
X90811800Y-87784800I0J-150000D01*
G01*
X90811800Y-88084800D01*
G75*
G02*
X90661800Y-88234800I-150000J0D01*
G01*
X89011800Y-88234800D01*
G75*
G02*
X88861800Y-88084800I0J150000D01*
G01*
G37*
%TD.AperFunction*%
%TO.P,U12,14*%
%TO.N,/ESP32_part/RTS*%
%TA.AperFunction,SMDPad,CuDef*%
G36*
G01*
X88861800Y-86814800D02*
X88861800Y-86514800D01*
G75*
G02*
X89011800Y-86364800I150000J0D01*
G01*
X90661800Y-86364800D01*
G75*
G02*
X90811800Y-86514800I0J-150000D01*
G01*
X90811800Y-86814800D01*
G75*
G02*
X90661800Y-86964800I-150000J0D01*
G01*
X89011800Y-86964800D01*
G75*
G02*
X88861800Y-86814800I0J150000D01*
G01*
G37*
%TD.AperFunction*%
%TO.P,U12,13*%
%TO.N,/ESP32_part/DTR*%
%TA.AperFunction,SMDPad,CuDef*%
G36*
G01*
X88861800Y-85544800D02*
X88861800Y-85244800D01*
G75*
G02*
X89011800Y-85094800I150000J0D01*
G01*
X90661800Y-85094800D01*
G75*
G02*
X90811800Y-85244800I0J-150000D01*
G01*
X90811800Y-85544800D01*
G75*
G02*
X90661800Y-85694800I-150000J0D01*
G01*
X89011800Y-85694800D01*
G75*
G02*
X88861800Y-85544800I0J150000D01*
G01*
G37*
%TD.AperFunction*%
%TO.P,U12,12*%
%TO.N,N/C*%
%TA.AperFunction,SMDPad,CuDef*%
G36*
G01*
X88861800Y-84274800D02*
X88861800Y-83974800D01*
G75*
G02*
X89011800Y-83824800I150000J0D01*
G01*
X90661800Y-83824800D01*
G75*
G02*
X90811800Y-83974800I0J-150000D01*
G01*
X90811800Y-84274800D01*
G75*
G02*
X90661800Y-84424800I-150000J0D01*
G01*
X89011800Y-84424800D01*
G75*
G02*
X88861800Y-84274800I0J150000D01*
G01*
G37*
%TD.AperFunction*%
%TO.P,U12,11*%
%TA.AperFunction,SMDPad,CuDef*%
G36*
G01*
X88861800Y-83004800D02*
X88861800Y-82704800D01*
G75*
G02*
X89011800Y-82554800I150000J0D01*
G01*
X90661800Y-82554800D01*
G75*
G02*
X90811800Y-82704800I0J-150000D01*
G01*
X90811800Y-83004800D01*
G75*
G02*
X90661800Y-83154800I-150000J0D01*
G01*
X89011800Y-83154800D01*
G75*
G02*
X88861800Y-83004800I0J150000D01*
G01*
G37*
%TD.AperFunction*%
%TO.P,U12,10*%
%TA.AperFunction,SMDPad,CuDef*%
G36*
G01*
X88861800Y-81734800D02*
X88861800Y-81434800D01*
G75*
G02*
X89011800Y-81284800I150000J0D01*
G01*
X90661800Y-81284800D01*
G75*
G02*
X90811800Y-81434800I0J-150000D01*
G01*
X90811800Y-81734800D01*
G75*
G02*
X90661800Y-81884800I-150000J0D01*
G01*
X89011800Y-81884800D01*
G75*
G02*
X88861800Y-81734800I0J150000D01*
G01*
G37*
%TD.AperFunction*%
%TO.P,U12,9*%
%TA.AperFunction,SMDPad,CuDef*%
G36*
G01*
X88861800Y-80464800D02*
X88861800Y-80164800D01*
G75*
G02*
X89011800Y-80014800I150000J0D01*
G01*
X90661800Y-80014800D01*
G75*
G02*
X90811800Y-80164800I0J-150000D01*
G01*
X90811800Y-80464800D01*
G75*
G02*
X90661800Y-80614800I-150000J0D01*
G01*
X89011800Y-80614800D01*
G75*
G02*
X88861800Y-80464800I0J150000D01*
G01*
G37*
%TD.AperFunction*%
%TO.P,U12,8*%
%TA.AperFunction,SMDPad,CuDef*%
G36*
G01*
X83911800Y-80464800D02*
X83911800Y-80164800D01*
G75*
G02*
X84061800Y-80014800I150000J0D01*
G01*
X85711800Y-80014800D01*
G75*
G02*
X85861800Y-80164800I0J-150000D01*
G01*
X85861800Y-80464800D01*
G75*
G02*
X85711800Y-80614800I-150000J0D01*
G01*
X84061800Y-80614800D01*
G75*
G02*
X83911800Y-80464800I0J150000D01*
G01*
G37*
%TD.AperFunction*%
%TO.P,U12,7*%
%TA.AperFunction,SMDPad,CuDef*%
G36*
G01*
X83911800Y-81734800D02*
X83911800Y-81434800D01*
G75*
G02*
X84061800Y-81284800I150000J0D01*
G01*
X85711800Y-81284800D01*
G75*
G02*
X85861800Y-81434800I0J-150000D01*
G01*
X85861800Y-81734800D01*
G75*
G02*
X85711800Y-81884800I-150000J0D01*
G01*
X84061800Y-81884800D01*
G75*
G02*
X83911800Y-81734800I0J150000D01*
G01*
G37*
%TD.AperFunction*%
%TO.P,U12,6*%
%TO.N,/USB_D-*%
%TA.AperFunction,SMDPad,CuDef*%
G36*
G01*
X83911800Y-83004800D02*
X83911800Y-82704800D01*
G75*
G02*
X84061800Y-82554800I150000J0D01*
G01*
X85711800Y-82554800D01*
G75*
G02*
X85861800Y-82704800I0J-150000D01*
G01*
X85861800Y-83004800D01*
G75*
G02*
X85711800Y-83154800I-150000J0D01*
G01*
X84061800Y-83154800D01*
G75*
G02*
X83911800Y-83004800I0J150000D01*
G01*
G37*
%TD.AperFunction*%
%TO.P,U12,5*%
%TO.N,/USB_D+*%
%TA.AperFunction,SMDPad,CuDef*%
G36*
G01*
X83911800Y-84274800D02*
X83911800Y-83974800D01*
G75*
G02*
X84061800Y-83824800I150000J0D01*
G01*
X85711800Y-83824800D01*
G75*
G02*
X85861800Y-83974800I0J-150000D01*
G01*
X85861800Y-84274800D01*
G75*
G02*
X85711800Y-84424800I-150000J0D01*
G01*
X84061800Y-84424800D01*
G75*
G02*
X83911800Y-84274800I0J150000D01*
G01*
G37*
%TD.AperFunction*%
%TO.P,U12,4*%
%TO.N,+3V3*%
%TA.AperFunction,SMDPad,CuDef*%
G36*
G01*
X83911800Y-85544800D02*
X83911800Y-85244800D01*
G75*
G02*
X84061800Y-85094800I150000J0D01*
G01*
X85711800Y-85094800D01*
G75*
G02*
X85861800Y-85244800I0J-150000D01*
G01*
X85861800Y-85544800D01*
G75*
G02*
X85711800Y-85694800I-150000J0D01*
G01*
X84061800Y-85694800D01*
G75*
G02*
X83911800Y-85544800I0J150000D01*
G01*
G37*
%TD.AperFunction*%
%TO.P,U12,3*%
%TO.N,Net-(R86-Pad2)*%
%TA.AperFunction,SMDPad,CuDef*%
G36*
G01*
X83911800Y-86814800D02*
X83911800Y-86514800D01*
G75*
G02*
X84061800Y-86364800I150000J0D01*
G01*
X85711800Y-86364800D01*
G75*
G02*
X85861800Y-86514800I0J-150000D01*
G01*
X85861800Y-86814800D01*
G75*
G02*
X85711800Y-86964800I-150000J0D01*
G01*
X84061800Y-86964800D01*
G75*
G02*
X83911800Y-86814800I0J150000D01*
G01*
G37*
%TD.AperFunction*%
%TO.P,U12,2*%
%TO.N,Net-(R85-Pad2)*%
%TA.AperFunction,SMDPad,CuDef*%
G36*
G01*
X83911800Y-88084800D02*
X83911800Y-87784800D01*
G75*
G02*
X84061800Y-87634800I150000J0D01*
G01*
X85711800Y-87634800D01*
G75*
G02*
X85861800Y-87784800I0J-150000D01*
G01*
X85861800Y-88084800D01*
G75*
G02*
X85711800Y-88234800I-150000J0D01*
G01*
X84061800Y-88234800D01*
G75*
G02*
X83911800Y-88084800I0J150000D01*
G01*
G37*
%TD.AperFunction*%
%TO.P,U12,1*%
%TO.N,GND1*%
%TA.AperFunction,SMDPad,CuDef*%
G36*
G01*
X83911800Y-89354800D02*
X83911800Y-89054800D01*
G75*
G02*
X84061800Y-88904800I150000J0D01*
G01*
X85711800Y-88904800D01*
G75*
G02*
X85861800Y-89054800I0J-150000D01*
G01*
X85861800Y-89354800D01*
G75*
G02*
X85711800Y-89504800I-150000J0D01*
G01*
X84061800Y-89504800D01*
G75*
G02*
X83911800Y-89354800I0J150000D01*
G01*
G37*
%TD.AperFunction*%
%TD*%
%TO.P,R80,2*%
%TO.N,GND1*%
%TA.AperFunction,SMDPad,CuDef*%
G36*
G01*
X108529800Y-137738300D02*
X107979800Y-137738300D01*
G75*
G02*
X107779800Y-137538300I0J200000D01*
G01*
X107779800Y-137138300D01*
G75*
G02*
X107979800Y-136938300I200000J0D01*
G01*
X108529800Y-136938300D01*
G75*
G02*
X108729800Y-137138300I0J-200000D01*
G01*
X108729800Y-137538300D01*
G75*
G02*
X108529800Y-137738300I-200000J0D01*
G01*
G37*
%TD.AperFunction*%
%TO.P,R80,1*%
%TO.N,/ESP32_part/GPIO15*%
%TA.AperFunction,SMDPad,CuDef*%
G36*
G01*
X108529800Y-139388300D02*
X107979800Y-139388300D01*
G75*
G02*
X107779800Y-139188300I0J200000D01*
G01*
X107779800Y-138788300D01*
G75*
G02*
X107979800Y-138588300I200000J0D01*
G01*
X108529800Y-138588300D01*
G75*
G02*
X108729800Y-138788300I0J-200000D01*
G01*
X108729800Y-139188300D01*
G75*
G02*
X108529800Y-139388300I-200000J0D01*
G01*
G37*
%TD.AperFunction*%
%TD*%
%TO.P,R75,2*%
%TO.N,+3V3*%
%TA.AperFunction,SMDPad,CuDef*%
G36*
G01*
X110561800Y-137737800D02*
X110011800Y-137737800D01*
G75*
G02*
X109811800Y-137537800I0J200000D01*
G01*
X109811800Y-137137800D01*
G75*
G02*
X110011800Y-136937800I200000J0D01*
G01*
X110561800Y-136937800D01*
G75*
G02*
X110761800Y-137137800I0J-200000D01*
G01*
X110761800Y-137537800D01*
G75*
G02*
X110561800Y-137737800I-200000J0D01*
G01*
G37*
%TD.AperFunction*%
%TO.P,R75,1*%
%TO.N,/ESP_LED*%
%TA.AperFunction,SMDPad,CuDef*%
G36*
G01*
X110561800Y-139387800D02*
X110011800Y-139387800D01*
G75*
G02*
X109811800Y-139187800I0J200000D01*
G01*
X109811800Y-138787800D01*
G75*
G02*
X110011800Y-138587800I200000J0D01*
G01*
X110561800Y-138587800D01*
G75*
G02*
X110761800Y-138787800I0J-200000D01*
G01*
X110761800Y-139187800D01*
G75*
G02*
X110561800Y-139387800I-200000J0D01*
G01*
G37*
%TD.AperFunction*%
%TD*%
%TO.P,R74,2*%
%TO.N,+3V3*%
%TA.AperFunction,SMDPad,CuDef*%
G36*
G01*
X112593800Y-137737800D02*
X112043800Y-137737800D01*
G75*
G02*
X111843800Y-137537800I0J200000D01*
G01*
X111843800Y-137137800D01*
G75*
G02*
X112043800Y-136937800I200000J0D01*
G01*
X112593800Y-136937800D01*
G75*
G02*
X112793800Y-137137800I0J-200000D01*
G01*
X112793800Y-137537800D01*
G75*
G02*
X112593800Y-137737800I-200000J0D01*
G01*
G37*
%TD.AperFunction*%
%TO.P,R74,1*%
%TO.N,/ESP32_part/GPIO0*%
%TA.AperFunction,SMDPad,CuDef*%
G36*
G01*
X112593800Y-139387800D02*
X112043800Y-139387800D01*
G75*
G02*
X111843800Y-139187800I0J200000D01*
G01*
X111843800Y-138787800D01*
G75*
G02*
X112043800Y-138587800I200000J0D01*
G01*
X112593800Y-138587800D01*
G75*
G02*
X112793800Y-138787800I0J-200000D01*
G01*
X112793800Y-139187800D01*
G75*
G02*
X112593800Y-139387800I-200000J0D01*
G01*
G37*
%TD.AperFunction*%
%TD*%
%TO.P,C36,2*%
%TO.N,GND1*%
%TA.AperFunction,SMDPad,CuDef*%
G36*
G01*
X87088800Y-90605800D02*
X87088800Y-91105800D01*
G75*
G02*
X86863800Y-91330800I-225000J0D01*
G01*
X86413800Y-91330800D01*
G75*
G02*
X86188800Y-91105800I0J225000D01*
G01*
X86188800Y-90605800D01*
G75*
G02*
X86413800Y-90380800I225000J0D01*
G01*
X86863800Y-90380800D01*
G75*
G02*
X87088800Y-90605800I0J-225000D01*
G01*
G37*
%TD.AperFunction*%
%TO.P,C36,1*%
%TO.N,+3V3*%
%TA.AperFunction,SMDPad,CuDef*%
G36*
G01*
X88638800Y-90605800D02*
X88638800Y-91105800D01*
G75*
G02*
X88413800Y-91330800I-225000J0D01*
G01*
X87963800Y-91330800D01*
G75*
G02*
X87738800Y-91105800I0J225000D01*
G01*
X87738800Y-90605800D01*
G75*
G02*
X87963800Y-90380800I225000J0D01*
G01*
X88413800Y-90380800D01*
G75*
G02*
X88638800Y-90605800I0J-225000D01*
G01*
G37*
%TD.AperFunction*%
%TD*%
%TO.P,C35,2*%
%TO.N,GND1*%
%TA.AperFunction,SMDPad,CuDef*%
G36*
G01*
X81080800Y-87751800D02*
X81580800Y-87751800D01*
G75*
G02*
X81805800Y-87976800I0J-225000D01*
G01*
X81805800Y-88426800D01*
G75*
G02*
X81580800Y-88651800I-225000J0D01*
G01*
X81080800Y-88651800D01*
G75*
G02*
X80855800Y-88426800I0J225000D01*
G01*
X80855800Y-87976800D01*
G75*
G02*
X81080800Y-87751800I225000J0D01*
G01*
G37*
%TD.AperFunction*%
%TO.P,C35,1*%
%TO.N,+3V3*%
%TA.AperFunction,SMDPad,CuDef*%
G36*
G01*
X81080800Y-86201800D02*
X81580800Y-86201800D01*
G75*
G02*
X81805800Y-86426800I0J-225000D01*
G01*
X81805800Y-86876800D01*
G75*
G02*
X81580800Y-87101800I-225000J0D01*
G01*
X81080800Y-87101800D01*
G75*
G02*
X80855800Y-86876800I0J225000D01*
G01*
X80855800Y-86426800D01*
G75*
G02*
X81080800Y-86201800I225000J0D01*
G01*
G37*
%TD.AperFunction*%
%TD*%
%TO.P,C34,2*%
%TO.N,+3V3*%
%TA.AperFunction,SMDPad,CuDef*%
G36*
G01*
X83104800Y-87101800D02*
X82604800Y-87101800D01*
G75*
G02*
X82379800Y-86876800I0J225000D01*
G01*
X82379800Y-86426800D01*
G75*
G02*
X82604800Y-86201800I225000J0D01*
G01*
X83104800Y-86201800D01*
G75*
G02*
X83329800Y-86426800I0J-225000D01*
G01*
X83329800Y-86876800D01*
G75*
G02*
X83104800Y-87101800I-225000J0D01*
G01*
G37*
%TD.AperFunction*%
%TO.P,C34,1*%
%TO.N,GND1*%
%TA.AperFunction,SMDPad,CuDef*%
G36*
G01*
X83104800Y-88651800D02*
X82604800Y-88651800D01*
G75*
G02*
X82379800Y-88426800I0J225000D01*
G01*
X82379800Y-87976800D01*
G75*
G02*
X82604800Y-87751800I225000J0D01*
G01*
X83104800Y-87751800D01*
G75*
G02*
X83329800Y-87976800I0J-225000D01*
G01*
X83329800Y-88426800D01*
G75*
G02*
X83104800Y-88651800I-225000J0D01*
G01*
G37*
%TD.AperFunction*%
%TD*%
%TO.P,R23,2*%
%TO.N,Net-(R23-Pad2)*%
%TA.AperFunction,SMDPad,CuDef*%
G36*
G01*
X88802800Y-133508800D02*
X89352800Y-133508800D01*
G75*
G02*
X89552800Y-133708800I0J-200000D01*
G01*
X89552800Y-134108800D01*
G75*
G02*
X89352800Y-134308800I-200000J0D01*
G01*
X88802800Y-134308800D01*
G75*
G02*
X88602800Y-134108800I0J200000D01*
G01*
X88602800Y-133708800D01*
G75*
G02*
X88802800Y-133508800I200000J0D01*
G01*
G37*
%TD.AperFunction*%
%TO.P,R23,1*%
%TO.N,Net-(C2-Pad1)*%
%TA.AperFunction,SMDPad,CuDef*%
G36*
G01*
X88802800Y-131858800D02*
X89352800Y-131858800D01*
G75*
G02*
X89552800Y-132058800I0J-200000D01*
G01*
X89552800Y-132458800D01*
G75*
G02*
X89352800Y-132658800I-200000J0D01*
G01*
X88802800Y-132658800D01*
G75*
G02*
X88602800Y-132458800I0J200000D01*
G01*
X88602800Y-132058800D01*
G75*
G02*
X88802800Y-131858800I200000J0D01*
G01*
G37*
%TD.AperFunction*%
%TD*%
D23*
%TO.P,U4,8*%
%TO.N,/Vdd0*%
X98348800Y-133938800D03*
%TO.P,U4,7*%
%TO.N,/RTC_CLK*%
X98348800Y-133288800D03*
%TO.P,U4,6*%
%TO.N,/I2C_SCL*%
X98348800Y-132638800D03*
%TO.P,U4,5*%
%TO.N,/I2C_SDA*%
X98348800Y-131988800D03*
%TO.P,U4,4*%
%TO.N,GND1*%
X93848800Y-131988800D03*
%TO.P,U4,3*%
%TO.N,/~RTC_INT*%
X93848800Y-132638800D03*
%TO.P,U4,2*%
%TO.N,Net-(R23-Pad2)*%
X93848800Y-133288800D03*
%TO.P,U4,1*%
%TO.N,/osci0*%
X93848800Y-133938800D03*
%TD*%
%TO.P,U5,1*%
%TO.N,/osci0*%
%TA.AperFunction,SMDPad,CuDef*%
G36*
G01*
X90291800Y-135328800D02*
X90291800Y-135028800D01*
G75*
G02*
X90441800Y-134878800I150000J0D01*
G01*
X91891800Y-134878800D01*
G75*
G02*
X92041800Y-135028800I0J-150000D01*
G01*
X92041800Y-135328800D01*
G75*
G02*
X91891800Y-135478800I-150000J0D01*
G01*
X90441800Y-135478800D01*
G75*
G02*
X90291800Y-135328800I0J150000D01*
G01*
G37*
%TD.AperFunction*%
%TO.P,U5,2*%
%TO.N,Net-(R23-Pad2)*%
%TA.AperFunction,SMDPad,CuDef*%
G36*
G01*
X90291800Y-134058800D02*
X90291800Y-133758800D01*
G75*
G02*
X90441800Y-133608800I150000J0D01*
G01*
X91891800Y-133608800D01*
G75*
G02*
X92041800Y-133758800I0J-150000D01*
G01*
X92041800Y-134058800D01*
G75*
G02*
X91891800Y-134208800I-150000J0D01*
G01*
X90441800Y-134208800D01*
G75*
G02*
X90291800Y-134058800I0J150000D01*
G01*
G37*
%TD.AperFunction*%
%TO.P,U5,3*%
%TO.N,/~RTC_INT*%
%TA.AperFunction,SMDPad,CuDef*%
G36*
G01*
X90291800Y-132788800D02*
X90291800Y-132488800D01*
G75*
G02*
X90441800Y-132338800I150000J0D01*
G01*
X91891800Y-132338800D01*
G75*
G02*
X92041800Y-132488800I0J-150000D01*
G01*
X92041800Y-132788800D01*
G75*
G02*
X91891800Y-132938800I-150000J0D01*
G01*
X90441800Y-132938800D01*
G75*
G02*
X90291800Y-132788800I0J150000D01*
G01*
G37*
%TD.AperFunction*%
%TO.P,U5,4*%
%TO.N,GND1*%
%TA.AperFunction,SMDPad,CuDef*%
G36*
G01*
X90291800Y-131518800D02*
X90291800Y-131218800D01*
G75*
G02*
X90441800Y-131068800I150000J0D01*
G01*
X91891800Y-131068800D01*
G75*
G02*
X92041800Y-131218800I0J-150000D01*
G01*
X92041800Y-131518800D01*
G75*
G02*
X91891800Y-131668800I-150000J0D01*
G01*
X90441800Y-131668800D01*
G75*
G02*
X90291800Y-131518800I0J150000D01*
G01*
G37*
%TD.AperFunction*%
%TO.P,U5,5*%
%TO.N,/I2C_SDA*%
%TA.AperFunction,SMDPad,CuDef*%
G36*
G01*
X95441800Y-131518800D02*
X95441800Y-131218800D01*
G75*
G02*
X95591800Y-131068800I150000J0D01*
G01*
X97041800Y-131068800D01*
G75*
G02*
X97191800Y-131218800I0J-150000D01*
G01*
X97191800Y-131518800D01*
G75*
G02*
X97041800Y-131668800I-150000J0D01*
G01*
X95591800Y-131668800D01*
G75*
G02*
X95441800Y-131518800I0J150000D01*
G01*
G37*
%TD.AperFunction*%
%TO.P,U5,6*%
%TO.N,/I2C_SCL*%
%TA.AperFunction,SMDPad,CuDef*%
G36*
G01*
X95441800Y-132788800D02*
X95441800Y-132488800D01*
G75*
G02*
X95591800Y-132338800I150000J0D01*
G01*
X97041800Y-132338800D01*
G75*
G02*
X97191800Y-132488800I0J-150000D01*
G01*
X97191800Y-132788800D01*
G75*
G02*
X97041800Y-132938800I-150000J0D01*
G01*
X95591800Y-132938800D01*
G75*
G02*
X95441800Y-132788800I0J150000D01*
G01*
G37*
%TD.AperFunction*%
%TO.P,U5,7*%
%TO.N,/RTC_CLK*%
%TA.AperFunction,SMDPad,CuDef*%
G36*
G01*
X95441800Y-134058800D02*
X95441800Y-133758800D01*
G75*
G02*
X95591800Y-133608800I150000J0D01*
G01*
X97041800Y-133608800D01*
G75*
G02*
X97191800Y-133758800I0J-150000D01*
G01*
X97191800Y-134058800D01*
G75*
G02*
X97041800Y-134208800I-150000J0D01*
G01*
X95591800Y-134208800D01*
G75*
G02*
X95441800Y-134058800I0J150000D01*
G01*
G37*
%TD.AperFunction*%
%TO.P,U5,8*%
%TO.N,/Vdd0*%
%TA.AperFunction,SMDPad,CuDef*%
G36*
G01*
X95441800Y-135328800D02*
X95441800Y-135028800D01*
G75*
G02*
X95591800Y-134878800I150000J0D01*
G01*
X97041800Y-134878800D01*
G75*
G02*
X97191800Y-135028800I0J-150000D01*
G01*
X97191800Y-135328800D01*
G75*
G02*
X97041800Y-135478800I-150000J0D01*
G01*
X95591800Y-135478800D01*
G75*
G02*
X95441800Y-135328800I0J150000D01*
G01*
G37*
%TD.AperFunction*%
%TD*%
D24*
%TO.P,D1,3*%
%TO.N,/Vdd0*%
X100063300Y-133464300D03*
%TO.P,D1,2*%
%TO.N,+3V3*%
X102063300Y-134114300D03*
%TO.P,D1,1*%
%TO.N,Net-(BT1-Pad1)*%
X102063300Y-132814300D03*
%TD*%
%TO.P,C4,2*%
%TO.N,GND1*%
%TA.AperFunction,SMDPad,CuDef*%
G36*
G01*
X99385300Y-135873300D02*
X99385300Y-135373300D01*
G75*
G02*
X99610300Y-135148300I225000J0D01*
G01*
X100060300Y-135148300D01*
G75*
G02*
X100285300Y-135373300I0J-225000D01*
G01*
X100285300Y-135873300D01*
G75*
G02*
X100060300Y-136098300I-225000J0D01*
G01*
X99610300Y-136098300D01*
G75*
G02*
X99385300Y-135873300I0J225000D01*
G01*
G37*
%TD.AperFunction*%
%TO.P,C4,1*%
%TO.N,/Vdd0*%
%TA.AperFunction,SMDPad,CuDef*%
G36*
G01*
X97835300Y-135873300D02*
X97835300Y-135373300D01*
G75*
G02*
X98060300Y-135148300I225000J0D01*
G01*
X98510300Y-135148300D01*
G75*
G02*
X98735300Y-135373300I0J-225000D01*
G01*
X98735300Y-135873300D01*
G75*
G02*
X98510300Y-136098300I-225000J0D01*
G01*
X98060300Y-136098300D01*
G75*
G02*
X97835300Y-135873300I0J225000D01*
G01*
G37*
%TD.AperFunction*%
%TD*%
%TO.P,C2,2*%
%TO.N,GND1*%
%TA.AperFunction,SMDPad,CuDef*%
G36*
G01*
X83913800Y-132261800D02*
X83913800Y-132761800D01*
G75*
G02*
X83688800Y-132986800I-225000J0D01*
G01*
X83238800Y-132986800D01*
G75*
G02*
X83013800Y-132761800I0J225000D01*
G01*
X83013800Y-132261800D01*
G75*
G02*
X83238800Y-132036800I225000J0D01*
G01*
X83688800Y-132036800D01*
G75*
G02*
X83913800Y-132261800I0J-225000D01*
G01*
G37*
%TD.AperFunction*%
%TO.P,C2,1*%
%TO.N,Net-(C2-Pad1)*%
%TA.AperFunction,SMDPad,CuDef*%
G36*
G01*
X85463800Y-132261800D02*
X85463800Y-132761800D01*
G75*
G02*
X85238800Y-132986800I-225000J0D01*
G01*
X84788800Y-132986800D01*
G75*
G02*
X84563800Y-132761800I0J225000D01*
G01*
X84563800Y-132261800D01*
G75*
G02*
X84788800Y-132036800I225000J0D01*
G01*
X85238800Y-132036800D01*
G75*
G02*
X85463800Y-132261800I0J-225000D01*
G01*
G37*
%TD.AperFunction*%
%TD*%
%TO.P,C1,2*%
%TO.N,GND1*%
%TA.AperFunction,SMDPad,CuDef*%
G36*
G01*
X83913800Y-134547800D02*
X83913800Y-135047800D01*
G75*
G02*
X83688800Y-135272800I-225000J0D01*
G01*
X83238800Y-135272800D01*
G75*
G02*
X83013800Y-135047800I0J225000D01*
G01*
X83013800Y-134547800D01*
G75*
G02*
X83238800Y-134322800I225000J0D01*
G01*
X83688800Y-134322800D01*
G75*
G02*
X83913800Y-134547800I0J-225000D01*
G01*
G37*
%TD.AperFunction*%
%TO.P,C1,1*%
%TO.N,/osci0*%
%TA.AperFunction,SMDPad,CuDef*%
G36*
G01*
X85463800Y-134547800D02*
X85463800Y-135047800D01*
G75*
G02*
X85238800Y-135272800I-225000J0D01*
G01*
X84788800Y-135272800D01*
G75*
G02*
X84563800Y-135047800I0J225000D01*
G01*
X84563800Y-134547800D01*
G75*
G02*
X84788800Y-134322800I225000J0D01*
G01*
X85238800Y-134322800D01*
G75*
G02*
X85463800Y-134547800I0J-225000D01*
G01*
G37*
%TD.AperFunction*%
%TD*%
%TO.P,R77,2*%
%TO.N,Net-(R77-Pad2)*%
%TA.AperFunction,SMDPad,CuDef*%
G36*
G01*
X114117800Y-137737800D02*
X113567800Y-137737800D01*
G75*
G02*
X113367800Y-137537800I0J200000D01*
G01*
X113367800Y-137137800D01*
G75*
G02*
X113567800Y-136937800I200000J0D01*
G01*
X114117800Y-136937800D01*
G75*
G02*
X114317800Y-137137800I0J-200000D01*
G01*
X114317800Y-137537800D01*
G75*
G02*
X114117800Y-137737800I-200000J0D01*
G01*
G37*
%TD.AperFunction*%
%TO.P,R77,1*%
%TO.N,/ESP32_part/GPIO0*%
%TA.AperFunction,SMDPad,CuDef*%
G36*
G01*
X114117800Y-139387800D02*
X113567800Y-139387800D01*
G75*
G02*
X113367800Y-139187800I0J200000D01*
G01*
X113367800Y-138787800D01*
G75*
G02*
X113567800Y-138587800I200000J0D01*
G01*
X114117800Y-138587800D01*
G75*
G02*
X114317800Y-138787800I0J-200000D01*
G01*
X114317800Y-139187800D01*
G75*
G02*
X114117800Y-139387800I-200000J0D01*
G01*
G37*
%TD.AperFunction*%
%TD*%
D25*
%TO.P,D2,2*%
%TO.N,Net-(D2-Pad2)*%
X81076800Y-80314800D03*
%TO.P,D2,1*%
%TO.N,/+5V*%
X81076800Y-84314800D03*
%TD*%
D26*
%TO.P,J1,4*%
%TO.N,Net-(J1-Pad4)*%
X122351800Y-89338800D03*
%TO.P,J1,3*%
%TO.N,/scl1*%
X122351800Y-86838800D03*
%TO.P,J1,2*%
%TO.N,/sda1*%
X122351800Y-84338800D03*
%TO.P,J1,1*%
%TO.N,GND1*%
%TA.AperFunction,ComponentPad*%
G36*
G01*
X121626800Y-80988800D02*
X123076800Y-80988800D01*
G75*
G02*
X123326800Y-81238800I0J-250000D01*
G01*
X123326800Y-82438800D01*
G75*
G02*
X123076800Y-82688800I-250000J0D01*
G01*
X121626800Y-82688800D01*
G75*
G02*
X121376800Y-82438800I0J250000D01*
G01*
X121376800Y-81238800D01*
G75*
G02*
X121626800Y-80988800I250000J0D01*
G01*
G37*
%TD.AperFunction*%
%TD*%
D27*
%TO.P,J4,2*%
%TO.N,GND1*%
X77647800Y-132170800D03*
%TO.P,J4,1*%
%TO.N,Net-(BT1-Pad1)*%
%TA.AperFunction,ComponentPad*%
G36*
G01*
X78397800Y-135520800D02*
X76897800Y-135520800D01*
G75*
G02*
X76647800Y-135270800I0J250000D01*
G01*
X76647800Y-134070800D01*
G75*
G02*
X76897800Y-133820800I250000J0D01*
G01*
X78397800Y-133820800D01*
G75*
G02*
X78647800Y-134070800I0J-250000D01*
G01*
X78647800Y-135270800D01*
G75*
G02*
X78397800Y-135520800I-250000J0D01*
G01*
G37*
%TD.AperFunction*%
%TD*%
D28*
%TO.P,J2,2*%
%TO.N,GND1*%
X124151800Y-111330800D03*
D29*
%TO.P,J2,1*%
%TO.N,/ADC*%
X117851800Y-111330800D03*
D30*
%TO.P,J2,3*%
%TO.N,/ADC0*%
X120051800Y-113080800D03*
X120051800Y-109580800D03*
%TD*%
D28*
%TO.P,J8,2*%
%TO.N,GND1*%
X75833800Y-109171800D03*
D29*
%TO.P,J8,1*%
%TO.N,+5VD*%
X82133800Y-109171800D03*
D30*
%TO.P,J8,3*%
%TO.N,Net-(J8-Pad3)*%
X79933800Y-107421800D03*
X79933800Y-110921800D03*
%TD*%
D28*
%TO.P,J7,2*%
%TO.N,GND1*%
X75833800Y-115140800D03*
D29*
%TO.P,J7,1*%
%TO.N,+5VD*%
X82133800Y-115140800D03*
D30*
%TO.P,J7,3*%
%TO.N,Net-(J7-Pad3)*%
X79933800Y-113390800D03*
X79933800Y-116890800D03*
%TD*%
D28*
%TO.P,J6,2*%
%TO.N,GND1*%
X75833800Y-139905800D03*
D29*
%TO.P,J6,1*%
%TO.N,+5VD*%
X82133800Y-139905800D03*
D30*
%TO.P,J6,3*%
%TO.N,Net-(J6-Pad3)*%
X79933800Y-138155800D03*
X79933800Y-141655800D03*
%TD*%
%TO.P,J3,3*%
%TO.N,/ADC2*%
X120051800Y-101170800D03*
X120051800Y-104670800D03*
D29*
%TO.P,J3,1*%
%TO.N,/ADC1*%
X117851800Y-102920800D03*
D28*
%TO.P,J3,2*%
%TO.N,GND1*%
X124151800Y-102920800D03*
%TD*%
D31*
%TO.P,J11,~*%
%TO.N,N/C*%
X95938800Y-83639800D03*
D32*
X100438800Y-83639800D03*
%TD*%
D33*
%TO.P,J10,~*%
%TO.N,N/C*%
X113171800Y-81416800D03*
X113171800Y-85816800D03*
%TD*%
%TO.P,D6,2*%
%TO.N,Net-(D6-Pad2)*%
%TA.AperFunction,SMDPad,CuDef*%
G36*
G01*
X119936550Y-135122300D02*
X120449050Y-135122300D01*
G75*
G02*
X120667800Y-135341050I0J-218750D01*
G01*
X120667800Y-135778550D01*
G75*
G02*
X120449050Y-135997300I-218750J0D01*
G01*
X119936550Y-135997300D01*
G75*
G02*
X119717800Y-135778550I0J218750D01*
G01*
X119717800Y-135341050D01*
G75*
G02*
X119936550Y-135122300I218750J0D01*
G01*
G37*
%TD.AperFunction*%
%TO.P,D6,1*%
%TO.N,/ESP_LED*%
%TA.AperFunction,SMDPad,CuDef*%
G36*
G01*
X119936550Y-133547300D02*
X120449050Y-133547300D01*
G75*
G02*
X120667800Y-133766050I0J-218750D01*
G01*
X120667800Y-134203550D01*
G75*
G02*
X120449050Y-134422300I-218750J0D01*
G01*
X119936550Y-134422300D01*
G75*
G02*
X119717800Y-134203550I0J218750D01*
G01*
X119717800Y-133766050D01*
G75*
G02*
X119936550Y-133547300I218750J0D01*
G01*
G37*
%TD.AperFunction*%
%TD*%
%TO.P,D5,2*%
%TO.N,Net-(D5-Pad2)*%
%TA.AperFunction,SMDPad,CuDef*%
G36*
G01*
X120449050Y-128631300D02*
X119936550Y-128631300D01*
G75*
G02*
X119717800Y-128412550I0J218750D01*
G01*
X119717800Y-127975050D01*
G75*
G02*
X119936550Y-127756300I218750J0D01*
G01*
X120449050Y-127756300D01*
G75*
G02*
X120667800Y-127975050I0J-218750D01*
G01*
X120667800Y-128412550D01*
G75*
G02*
X120449050Y-128631300I-218750J0D01*
G01*
G37*
%TD.AperFunction*%
%TO.P,D5,1*%
%TO.N,/ESP32_part/GPIO16*%
%TA.AperFunction,SMDPad,CuDef*%
G36*
G01*
X120449050Y-130206300D02*
X119936550Y-130206300D01*
G75*
G02*
X119717800Y-129987550I0J218750D01*
G01*
X119717800Y-129550050D01*
G75*
G02*
X119936550Y-129331300I218750J0D01*
G01*
X120449050Y-129331300D01*
G75*
G02*
X120667800Y-129550050I0J-218750D01*
G01*
X120667800Y-129987550D01*
G75*
G02*
X120449050Y-130206300I-218750J0D01*
G01*
G37*
%TD.AperFunction*%
%TD*%
%TO.P,R76,2*%
%TO.N,+3V3*%
%TA.AperFunction,SMDPad,CuDef*%
G36*
G01*
X118562800Y-134309800D02*
X118012800Y-134309800D01*
G75*
G02*
X117812800Y-134109800I0J200000D01*
G01*
X117812800Y-133709800D01*
G75*
G02*
X118012800Y-133509800I200000J0D01*
G01*
X118562800Y-133509800D01*
G75*
G02*
X118762800Y-133709800I0J-200000D01*
G01*
X118762800Y-134109800D01*
G75*
G02*
X118562800Y-134309800I-200000J0D01*
G01*
G37*
%TD.AperFunction*%
%TO.P,R76,1*%
%TO.N,Net-(D6-Pad2)*%
%TA.AperFunction,SMDPad,CuDef*%
G36*
G01*
X118562800Y-135959800D02*
X118012800Y-135959800D01*
G75*
G02*
X117812800Y-135759800I0J200000D01*
G01*
X117812800Y-135359800D01*
G75*
G02*
X118012800Y-135159800I200000J0D01*
G01*
X118562800Y-135159800D01*
G75*
G02*
X118762800Y-135359800I0J-200000D01*
G01*
X118762800Y-135759800D01*
G75*
G02*
X118562800Y-135959800I-200000J0D01*
G01*
G37*
%TD.AperFunction*%
%TD*%
%TO.P,R73,2*%
%TO.N,+3V3*%
%TA.AperFunction,SMDPad,CuDef*%
G36*
G01*
X120467800Y-122497800D02*
X119917800Y-122497800D01*
G75*
G02*
X119717800Y-122297800I0J200000D01*
G01*
X119717800Y-121897800D01*
G75*
G02*
X119917800Y-121697800I200000J0D01*
G01*
X120467800Y-121697800D01*
G75*
G02*
X120667800Y-121897800I0J-200000D01*
G01*
X120667800Y-122297800D01*
G75*
G02*
X120467800Y-122497800I-200000J0D01*
G01*
G37*
%TD.AperFunction*%
%TO.P,R73,1*%
%TO.N,Net-(D5-Pad2)*%
%TA.AperFunction,SMDPad,CuDef*%
G36*
G01*
X120467800Y-124147800D02*
X119917800Y-124147800D01*
G75*
G02*
X119717800Y-123947800I0J200000D01*
G01*
X119717800Y-123547800D01*
G75*
G02*
X119917800Y-123347800I200000J0D01*
G01*
X120467800Y-123347800D01*
G75*
G02*
X120667800Y-123547800I0J-200000D01*
G01*
X120667800Y-123947800D01*
G75*
G02*
X120467800Y-124147800I-200000J0D01*
G01*
G37*
%TD.AperFunction*%
%TD*%
D34*
%TO.P,J5,6*%
%TO.N,GND1*%
X73720800Y-87660800D03*
X73720800Y-79910800D03*
D35*
X77520800Y-87510800D03*
X77520800Y-80060800D03*
%TD*%
%TO.P,R82,2*%
%TO.N,/ESP32_part/ADC*%
%TA.AperFunction,SMDPad,CuDef*%
G36*
G01*
X118562800Y-128593800D02*
X118012800Y-128593800D01*
G75*
G02*
X117812800Y-128393800I0J200000D01*
G01*
X117812800Y-127993800D01*
G75*
G02*
X118012800Y-127793800I200000J0D01*
G01*
X118562800Y-127793800D01*
G75*
G02*
X118762800Y-127993800I0J-200000D01*
G01*
X118762800Y-128393800D01*
G75*
G02*
X118562800Y-128593800I-200000J0D01*
G01*
G37*
%TD.AperFunction*%
%TO.P,R82,1*%
%TO.N,GND1*%
%TA.AperFunction,SMDPad,CuDef*%
G36*
G01*
X118562800Y-130243800D02*
X118012800Y-130243800D01*
G75*
G02*
X117812800Y-130043800I0J200000D01*
G01*
X117812800Y-129643800D01*
G75*
G02*
X118012800Y-129443800I200000J0D01*
G01*
X118562800Y-129443800D01*
G75*
G02*
X118762800Y-129643800I0J-200000D01*
G01*
X118762800Y-130043800D01*
G75*
G02*
X118562800Y-130243800I-200000J0D01*
G01*
G37*
%TD.AperFunction*%
%TD*%
D36*
%TO.P,SW2,2*%
%TO.N,GND1*%
X127685800Y-115195800D03*
X127685800Y-118795800D03*
%TO.P,SW2,1*%
%TO.N,/ESP32_part/~RST*%
X126245800Y-115195800D03*
X126245800Y-118795800D03*
%TD*%
D37*
%TO.N,*%
X94411800Y-76123800D03*
X94411800Y-78155800D03*
X97459800Y-78155800D03*
X97459800Y-76123800D03*
X95935800Y-76123800D03*
X95935800Y-78155800D03*
X94411800Y-89077800D03*
X97459800Y-89077800D03*
X95935800Y-89077800D03*
X94411800Y-91109800D03*
X95935800Y-91109800D03*
X97459800Y-91109800D03*
X96697800Y-90093800D03*
X95173800Y-90093800D03*
X95173800Y-77139800D03*
X96697800Y-77139800D03*
%TO.N,GND1*%
X107556300Y-116636800D03*
X84759800Y-99491800D03*
X73837800Y-111556800D03*
X73837800Y-115239800D03*
X125907800Y-109778800D03*
X116255800Y-104190800D03*
X112318800Y-129844800D03*
X108254800Y-137337800D03*
X118287800Y-129844800D03*
X127812800Y-120573800D03*
X107365800Y-90982800D03*
X83870800Y-108889800D03*
X106095800Y-82473800D03*
X110540800Y-84759800D03*
X115874800Y-84759800D03*
X115874800Y-82473800D03*
X110540800Y-82473800D03*
X88188800Y-86156800D03*
X98475800Y-84632800D03*
X103936800Y-83616800D03*
X98475800Y-82600800D03*
X86156800Y-78663800D03*
X82346800Y-89585800D03*
X80695800Y-89585800D03*
X72186800Y-90220800D03*
D38*
X77520800Y-99110800D03*
D37*
X99872800Y-135623300D03*
X127685800Y-118795800D03*
X127685800Y-115239800D03*
D39*
X105079800Y-141147800D03*
D37*
X104571800Y-122071800D03*
X106222800Y-122084800D03*
X92887800Y-131368800D03*
X83489800Y-133654800D03*
X83362800Y-83489800D03*
X78536790Y-86029800D03*
X81330800Y-88201800D03*
X86638800Y-90855800D03*
X73837800Y-98501800D03*
X72186800Y-98501800D03*
X74700800Y-100253800D03*
X107746800Y-88188800D03*
D38*
X122479000Y-117398600D03*
D37*
X104521300Y-116636800D03*
X76250800Y-127558800D03*
X80645300Y-120764300D03*
X73964800Y-118033800D03*
X83045300Y-126352300D03*
X100317300Y-123939300D03*
D39*
X90601792Y-128003300D03*
X99491800Y-128003304D03*
X90728800Y-99110800D03*
D37*
X88760300Y-125336300D03*
X105206800Y-94284800D03*
X107746800Y-102158800D03*
D40*
X99618800Y-97205800D03*
D37*
X127812800Y-98983800D03*
%TO.N,+3V3*%
X101904800Y-93141800D03*
X118160800Y-87807800D03*
X97713800Y-100507800D03*
X92506800Y-103301800D03*
X112318800Y-137337800D03*
X110286800Y-137337800D03*
X118287800Y-133908800D03*
X107746800Y-79425800D03*
X112191800Y-87807800D03*
X114223800Y-87807800D03*
X114223800Y-79425800D03*
X112191800Y-79425800D03*
X100126800Y-87807800D03*
X100126800Y-79425800D03*
X90220800Y-77139800D03*
X83362800Y-101650800D03*
X104571800Y-123621800D03*
X120192800Y-122098800D03*
X116255800Y-122098800D03*
X81330800Y-86651800D03*
X88188800Y-90855800D03*
D39*
X81584800Y-95681800D03*
D37*
X105841800Y-90982800D03*
X102971300Y-116636800D03*
X72414800Y-118033800D03*
X79095300Y-120764300D03*
D39*
X88061808Y-128003300D03*
X102031804Y-128003300D03*
D37*
X84759800Y-97967800D03*
X94157800Y-96697800D03*
X94538800Y-105460800D03*
D39*
X89458800Y-95173800D03*
D37*
X89458800Y-98856800D03*
X95554800Y-93396800D03*
X86220300Y-125336300D03*
X101904800Y-135559800D03*
X87934800Y-113588800D03*
X91998800Y-118160800D03*
X94284800Y-110667800D03*
X114096800Y-113842800D03*
X120192800Y-92887800D03*
X126415800Y-86029800D03*
X126414800Y-79552800D03*
X108254800Y-94285800D03*
X103682800Y-94284800D03*
X107746800Y-103682800D03*
X116001800Y-117398800D03*
%TO.N,+5P*%
X83870800Y-107365800D03*
X72211800Y-94806800D03*
D38*
X76251000Y-99110600D03*
X121209000Y-117398600D03*
D37*
X88823800Y-106221800D03*
X88873800Y-103097800D03*
%TO.N,/Ctrl_part/~RST*%
X85013800Y-122351800D03*
X105968800Y-117970300D03*
X81711800Y-118414800D03*
X90030300Y-123050300D03*
%TO.N,/Ctrl_part/jrline*%
X111136285Y-111381868D03*
%TO.N,/Ctrl_part/jcline*%
X110540800Y-80949800D03*
X106796800Y-86029800D03*
X112191800Y-108889800D03*
%TO.N,/Ctrl_part/jtline*%
X111335054Y-110401810D03*
%TO.N,/Ctrl_part/jlline*%
X106095800Y-80923800D03*
X109778800Y-113080800D03*
%TO.N,/Ctrl_part/jbline*%
X106301183Y-105088388D03*
X110540800Y-87808800D03*
%TO.N,/Ctrl_part/eLine_B*%
X98475800Y-81076800D03*
%TO.N,/ESP32_part/~RST*%
X126262800Y-120573800D03*
X127558800Y-113588800D03*
X114223800Y-122097800D03*
X93776800Y-87299800D03*
%TO.N,/ESP32_part/GPIO16*%
X120192800Y-129768800D03*
%TO.N,/ESP_LED*%
X110286800Y-138987800D03*
X101016127Y-110545725D03*
%TO.N,/Ctrl_part/SWDIO*%
X99491800Y-106857800D03*
X96443800Y-120319800D03*
%TO.N,/Ctrl_part/SWCLK*%
X87426800Y-122351800D03*
X98221800Y-107873800D03*
%TO.N,/+5V_valid*%
X95554800Y-95046800D03*
X105206800Y-111429800D03*
%TO.N,Net-(Q8-Pad3)*%
X123748800Y-113461800D03*
X115746800Y-113842800D03*
%TO.N,Net-(Q9-Pad3)*%
X117652800Y-117398800D03*
X123748800Y-117398800D03*
%TO.N,/DTS_2*%
X87934800Y-111683800D03*
X99999800Y-115250800D03*
%TO.N,/Ctrl_part/IFC_SDA*%
X84759800Y-100761800D03*
X101650800Y-108000800D03*
%TO.N,/Ctrl_part/IFC_SCL*%
X102650786Y-108008013D03*
X86410800Y-97459800D03*
%TO.N,/ESP32_part/GPIO0*%
X112318800Y-138987800D03*
X91871800Y-84251800D03*
%TO.N,/Ctrl_part/~IFC_INT*%
X81711800Y-101650800D03*
X106200469Y-112341145D03*
%TO.N,/ESP32_part/GPIO15*%
X108254800Y-138988300D03*
%TO.N,/ESP32_part/ADC*%
X118287800Y-128193800D03*
%TO.N,/~ESP_RST*%
X125907800Y-107111800D03*
X100949726Y-109547930D03*
%TO.N,/ESP32_part/RX*%
X118287800Y-138987800D03*
%TO.N,/ESP32_part/TX*%
X120192800Y-138988800D03*
%TO.N,/I2C_SDA*%
X95110302Y-130987816D03*
X98602800Y-131114800D03*
X105968800Y-102276541D03*
X107492800Y-119684800D03*
%TO.N,/I2C_SCL*%
X95095121Y-132305145D03*
X99618794Y-132638800D03*
X104776609Y-102334991D03*
X106724577Y-120434800D03*
%TO.N,/~I2C_INT*%
X107689476Y-114408124D03*
X105307131Y-104979469D03*
%TO.N,/~CTRL_INT*%
X100507800Y-104952800D03*
X104444800Y-112699800D03*
%TO.N,/~RTC_INT*%
X92630400Y-132631494D03*
X98221800Y-110810787D03*
%TO.N,/RTC_CLK*%
X95110300Y-133591300D03*
X98221792Y-111810800D03*
%TO.N,/Ctrl_part/~btn_int*%
X105333800Y-108889800D03*
X106451400Y-93167200D03*
%TO.N,Net-(D2-Pad2)*%
X82981800Y-80441800D03*
%TO.N,/Ctrl_part/IFC_SDA_VLT/S_left*%
X90474800Y-104572800D03*
%TO.N,Net-(R85-Pad2)*%
X118287800Y-137337800D03*
X87553800Y-84632800D03*
%TO.N,Net-(R86-Pad2)*%
X120192800Y-137337800D03*
X86537800Y-84632800D03*
%TO.N,/USB_D-*%
X83362804Y-82473800D03*
%TO.N,/USB_D+*%
X83362808Y-84632796D03*
%TO.N,/Ctrl_part/jtbtn*%
X114223800Y-77774800D03*
%TO.N,/Ctrl_part/jcbtn*%
X110540800Y-77774800D03*
%TO.N,/Ctrl_part/jlbtn*%
X107746800Y-77774800D03*
%TO.N,/Ctrl_part/jrbtn*%
X114223800Y-89458800D03*
%TO.N,/Ctrl_part/jbbtn*%
X110540800Y-89458800D03*
%TO.N,/Ctrl_part/EC11_A*%
X103938800Y-86139800D03*
%TO.N,/Ctrl_part/EC11_B*%
X103938800Y-81139800D03*
%TO.N,/Ctrl_part/EC11_E*%
X88188800Y-81139800D03*
%TO.N,/EXT_SDA*%
X127939800Y-82854800D03*
%TO.N,/EXT_SCL*%
X127939800Y-89330800D03*
%TO.N,/~EXT_INT*%
X118542800Y-92887800D03*
%TO.N,/POW_SCL*%
X103103800Y-99181800D03*
%TO.N,/POW_SDA*%
X102158800Y-95935800D03*
%TO.N,/FAN_SCL*%
X102834969Y-100548969D03*
X112572800Y-110541800D03*
%TO.N,/FAN_SDA*%
X114477800Y-115748800D03*
X101903810Y-99237800D03*
%TO.N,Net-(R19-Pad2)*%
X108254800Y-95935800D03*
%TO.N,Net-(R20-Pad2)*%
X106730800Y-95934800D03*
%TO.N,Net-(Q16-Pad1)*%
X112318300Y-122098300D03*
%TO.N,Net-(R41-Pad2)*%
X104190800Y-107873800D03*
X107698779Y-105674719D03*
%TO.N,Net-(R77-Pad2)*%
X125120798Y-118795800D03*
%TO.N,Net-(R89-Pad2)*%
X78981300Y-125590300D03*
%TO.N,Net-(R90-Pad2)*%
X80505300Y-125590300D03*
%TO.N,Net-(R95-Pad1)*%
X82029300Y-125590300D03*
%TO.N,/+5V*%
X81076800Y-83489800D03*
%TO.N,/ESP32_part/a0*%
X72186800Y-126669800D03*
%TO.N,/ESP32_part/a1*%
X73710800Y-126669800D03*
%TO.N,/ESP32_part/a2*%
X75234800Y-126669800D03*
%TO.N,Net-(Q6-Pad3)*%
X99110800Y-95935800D03*
%TO.N,Net-(Q10-Pad3)*%
X85648800Y-140639800D03*
X91683808Y-112953800D03*
%TO.N,Net-(Q12-Pad3)*%
X86284800Y-113588800D03*
%TD*%
D41*
%TO.N,GND1*%
X93848800Y-131988800D02*
X93228800Y-131368800D01*
X93228800Y-131368800D02*
X92887800Y-131368800D01*
X92887800Y-131368800D02*
X91166800Y-131368800D01*
D42*
X83463800Y-133628800D02*
X83489800Y-133654800D01*
X83463800Y-132511800D02*
X83463800Y-133628800D01*
X83463800Y-133680800D02*
X83489800Y-133654800D01*
X83463800Y-134797800D02*
X83463800Y-133680800D01*
D43*
X83857800Y-89204800D02*
X82854800Y-88201800D01*
X84886800Y-89204800D02*
X83857800Y-89204800D01*
D44*
X82854800Y-88201800D02*
X81330800Y-88201800D01*
D43*
X86537800Y-90855800D02*
X84886800Y-89204800D01*
X86638800Y-90855800D02*
X86537800Y-90855800D01*
D44*
X73837800Y-98501800D02*
X73837800Y-98501800D01*
X77521000Y-99111000D02*
X77520800Y-99110800D01*
X77521000Y-101050000D02*
X77521000Y-99111000D01*
X77521000Y-99110600D02*
X77520800Y-99110800D01*
X77521000Y-97150000D02*
X77521000Y-99110600D01*
X73837800Y-98501800D02*
X72186800Y-98501800D01*
X72186800Y-98501800D02*
X72186800Y-98501800D01*
X122479000Y-115427000D02*
X122479000Y-117398600D01*
D43*
X107746800Y-87172800D02*
X107746800Y-88188800D01*
D44*
X122479000Y-117398600D02*
X122479000Y-119327000D01*
D43*
X75488800Y-128320800D02*
X76250800Y-127558800D01*
X75234800Y-128320800D02*
X75488800Y-128320800D01*
X73711800Y-128320800D02*
X73710800Y-128319800D01*
X75234800Y-128320800D02*
X73711800Y-128320800D01*
X73710800Y-128319800D02*
X72186800Y-128319800D01*
X78981300Y-127240300D02*
X80505300Y-127240300D01*
X80505300Y-127240300D02*
X82029300Y-127240300D01*
X82157300Y-127240300D02*
X83045300Y-126352300D01*
X82029300Y-127240300D02*
X82157300Y-127240300D01*
D45*
X92445300Y-128003300D02*
X90601792Y-128003300D01*
X97650300Y-128003300D02*
X99491796Y-128003300D01*
X99491796Y-128003300D02*
X99491800Y-128003304D01*
D44*
X90729000Y-99111000D02*
X90728800Y-99110800D01*
X90729000Y-101050000D02*
X90729000Y-99111000D01*
X90729000Y-99110600D02*
X90728800Y-99110800D01*
X90729000Y-97150000D02*
X90729000Y-99110600D01*
D43*
X107492800Y-100634800D02*
X108254800Y-100634800D01*
X106730800Y-100634800D02*
X107492800Y-100634800D01*
X107492800Y-101904800D02*
X107746800Y-102158800D01*
X107492800Y-100634800D02*
X107492800Y-101904800D01*
D41*
X89077800Y-125018800D02*
X88760300Y-125336300D01*
X89077800Y-124002800D02*
X89077800Y-125018800D01*
D46*
%TO.N,/int0*%
X91999000Y-94189600D02*
X92030800Y-94157800D01*
X91999000Y-97150000D02*
X91999000Y-94189600D01*
X96317800Y-94157800D02*
X97205800Y-95045800D01*
X92030800Y-94157800D02*
X96317800Y-94157800D01*
%TO.N,/scl0*%
X90607800Y-103698800D02*
X91363800Y-103698800D01*
X89459000Y-102550000D02*
X90607800Y-103698800D01*
X89459000Y-101050000D02*
X89459000Y-102550000D01*
X91793798Y-103698800D02*
X91363800Y-103698800D01*
X92146799Y-104051801D02*
X91793798Y-103698800D01*
X92866801Y-104051801D02*
X92146799Y-104051801D01*
X93107802Y-103810800D02*
X92866801Y-104051801D01*
X94538800Y-103810800D02*
X93107802Y-103810800D01*
%TO.N,Net-(BT1-Pad1)*%
X101015800Y-136749800D02*
X100046800Y-137718800D01*
X101015800Y-133861800D02*
X101015800Y-136749800D01*
X102063300Y-132814300D02*
X101015800Y-133861800D01*
D43*
%TO.N,+3V3*%
X84111800Y-85394800D02*
X82854800Y-86651800D01*
X84886800Y-85394800D02*
X84111800Y-85394800D01*
D44*
X82854800Y-86651800D02*
X81330800Y-86651800D01*
D43*
X88188800Y-90852800D02*
X89836800Y-89204800D01*
X88188800Y-90855800D02*
X88188800Y-90852800D01*
X105846800Y-90977800D02*
X105841800Y-90982800D01*
X105846800Y-89372800D02*
X105846800Y-90977800D01*
X78981300Y-122416300D02*
X78981300Y-120878300D01*
X78981300Y-120878300D02*
X79095300Y-120764300D01*
X80505300Y-122416300D02*
X78981300Y-122416300D01*
X72186800Y-123495800D02*
X72186800Y-118261800D01*
X72186800Y-118261800D02*
X72414800Y-118033800D01*
X72186800Y-123495800D02*
X73710800Y-123495800D01*
D41*
X72440800Y-118059800D02*
X72414800Y-118033800D01*
D45*
X86220300Y-128003300D02*
X88061808Y-128003300D01*
X103875300Y-128003300D02*
X102031800Y-128003300D01*
X102031800Y-128003300D02*
X102031804Y-128003300D01*
D41*
X92313800Y-107050800D02*
X92125800Y-107238800D01*
X92313800Y-105698800D02*
X92313800Y-107050800D01*
X94300800Y-105698800D02*
X94538800Y-105460800D01*
X92313800Y-105698800D02*
X94300800Y-105698800D01*
D44*
X89459000Y-97150000D02*
X89459000Y-95174000D01*
X89459000Y-95174000D02*
X89458800Y-95173800D01*
D41*
X89459000Y-98856600D02*
X89458800Y-98856800D01*
X89459000Y-97150000D02*
X89459000Y-98856600D01*
X95365800Y-93207800D02*
X95554800Y-93396800D01*
X94030800Y-93207800D02*
X95365800Y-93207800D01*
X95555800Y-93395800D02*
X95554800Y-93396800D01*
X97205800Y-93395800D02*
X95555800Y-93395800D01*
X85076800Y-124065800D02*
X85013800Y-124128800D01*
X87426800Y-124129800D02*
X86220300Y-125336300D01*
X87426800Y-124001800D02*
X87426800Y-124129800D01*
X85013800Y-124129800D02*
X86220300Y-125336300D01*
X85013800Y-124001800D02*
X85013800Y-124129800D01*
D46*
X102063300Y-134114300D02*
X102063300Y-135401300D01*
X102063300Y-135401300D02*
X101904800Y-135559800D01*
D41*
X94062800Y-102254800D02*
X94031800Y-102285800D01*
X94062800Y-100568800D02*
X94062800Y-102254800D01*
X93522800Y-102285800D02*
X94031800Y-102285800D01*
X92506800Y-103301800D02*
X93522800Y-102285800D01*
X86284800Y-111938800D02*
X87934800Y-113588800D01*
X86284800Y-111683800D02*
X86284800Y-111938800D01*
X116001800Y-117398800D02*
X116001800Y-117398800D01*
X114096800Y-112191800D02*
X112572800Y-112191800D01*
X114096800Y-112191800D02*
X114096800Y-113842800D01*
X120192800Y-91363800D02*
X120192800Y-92887800D01*
X126415800Y-87685800D02*
X126415800Y-86029800D01*
X127934800Y-87685800D02*
X127939800Y-87680800D01*
X126415800Y-87685800D02*
X127934800Y-87685800D01*
X126415800Y-79553800D02*
X126414800Y-79552800D01*
X126415800Y-81203800D02*
X126415800Y-79553800D01*
X127938800Y-81203800D02*
X127939800Y-81204800D01*
X126415800Y-81203800D02*
X127938800Y-81203800D01*
X116001800Y-117398800D02*
X114477800Y-117398800D01*
D44*
%TO.N,+5P*%
X76251000Y-101050000D02*
X76251000Y-99110600D01*
X76052800Y-96951800D02*
X76251000Y-97150000D01*
X73837800Y-96951800D02*
X76052800Y-96951800D01*
X73837800Y-96951800D02*
X72186800Y-96951800D01*
X72186800Y-94831800D02*
X72211800Y-94806800D01*
X72186800Y-96951800D02*
X72186800Y-94831800D01*
X121209000Y-115427000D02*
X121209000Y-117398600D01*
X76251000Y-99110600D02*
X76251000Y-97150000D01*
X79255001Y-102750001D02*
X83870800Y-107365800D01*
X76750999Y-102750001D02*
X79255001Y-102750001D01*
X76251000Y-102250002D02*
X76750999Y-102750001D01*
X76251000Y-101050000D02*
X76251000Y-102250002D01*
X121209000Y-117398600D02*
X121209000Y-119327000D01*
D46*
%TO.N,/Ctrl_part/~RST*%
X85013800Y-122351800D02*
X85013800Y-122097800D01*
X102539800Y-121399300D02*
X105968800Y-117970300D01*
X102539800Y-124891800D02*
X102539800Y-121399300D01*
X93649800Y-125145800D02*
X102285800Y-125145800D01*
X102285800Y-125145800D02*
X102539800Y-124891800D01*
X91554300Y-123050300D02*
X93649800Y-125145800D01*
X90030300Y-123050300D02*
X91554300Y-123050300D01*
X85800299Y-123138299D02*
X85013800Y-122351800D01*
X89942301Y-123138299D02*
X85800299Y-123138299D01*
X90030300Y-123050300D02*
X89942301Y-123138299D01*
X90027800Y-123047800D02*
X90030300Y-123050300D01*
X90027800Y-122097800D02*
X90027800Y-123047800D01*
%TO.N,/Ctrl_part/jrline*%
X115874800Y-86283800D02*
X115874800Y-87808800D01*
X110521801Y-110767384D02*
X111136285Y-111381868D01*
X110521801Y-102939797D02*
X110521801Y-110767384D01*
X116699809Y-96761789D02*
X110521801Y-102939797D01*
X115874800Y-87808800D02*
X116699809Y-88633809D01*
X116699809Y-88633809D02*
X116699809Y-96761789D01*
D41*
%TO.N,/Ctrl_part/jcline*%
X110540800Y-79424800D02*
X110540800Y-80949800D01*
D46*
X106796800Y-87172800D02*
X106796800Y-86029800D01*
%TO.N,/Ctrl_part/jtline*%
X115874800Y-79424800D02*
X115874800Y-80923800D01*
X117199820Y-82248820D02*
X117199820Y-97214280D01*
X111335054Y-103079046D02*
X111335054Y-110401810D01*
X117199820Y-97214280D02*
X111335054Y-103079046D01*
X115874800Y-80923800D02*
X117199820Y-82248820D01*
D41*
%TO.N,/Ctrl_part/jlline*%
X106095800Y-79424800D02*
X106095800Y-80923800D01*
D46*
X106377958Y-99884790D02*
X108757622Y-99884790D01*
X105905790Y-99412622D02*
X106377958Y-99884790D01*
X105905790Y-96369810D02*
X105905790Y-99412622D01*
X105980799Y-95034801D02*
X105980799Y-96294801D01*
X109778800Y-100905968D02*
X109778800Y-113080800D01*
X105980799Y-96294801D02*
X105905790Y-96369810D01*
X109143800Y-91871800D02*
X105980799Y-95034801D01*
X109143800Y-83971800D02*
X109143800Y-91871800D01*
X108757622Y-99884790D02*
X109778800Y-100905968D01*
X106095800Y-80923800D02*
X109143800Y-83971800D01*
D41*
%TO.N,/Ctrl_part/jbline*%
X110540800Y-87808800D02*
X110540800Y-86296800D01*
%TO.N,/Ctrl_part/eLine_B*%
X100127800Y-81076800D02*
X98475800Y-81076800D01*
D46*
%TO.N,/ESP32_part/~RST*%
X126245800Y-120556800D02*
X126262800Y-120573800D01*
X126245800Y-118795800D02*
X126245800Y-120556800D01*
X126245800Y-114901800D02*
X126245800Y-115195800D01*
X127558800Y-113588800D02*
X126245800Y-114901800D01*
X126245800Y-118330800D02*
X126923800Y-117652800D01*
X126245800Y-118795800D02*
X126245800Y-118330800D01*
X126245800Y-115704800D02*
X126923800Y-116382800D01*
X126245800Y-115195800D02*
X126245800Y-115704800D01*
X126923800Y-116382800D02*
X126923800Y-117652800D01*
X93710800Y-87233800D02*
X93776800Y-87299800D01*
X93710800Y-86362300D02*
X93710800Y-87233800D01*
%TO.N,/ESP_LED*%
X119517790Y-134659810D02*
X120192800Y-133984800D01*
X117934958Y-134659810D02*
X119517790Y-134659810D01*
X114356978Y-138237790D02*
X117934958Y-134659810D01*
X111036810Y-138237790D02*
X114356978Y-138237790D01*
X110286800Y-138987800D02*
X111036810Y-138237790D01*
%TO.N,Net-(Q4-Pad3)*%
X95681800Y-99999800D02*
X96062800Y-99618800D01*
X95681800Y-102285800D02*
X95681800Y-99999800D01*
X93430200Y-99618800D02*
X91999000Y-101050000D01*
X96062800Y-99618800D02*
X93430200Y-99618800D01*
%TO.N,/+5V_valid*%
X95493800Y-95107800D02*
X95554800Y-95046800D01*
X94030800Y-95107800D02*
X95493800Y-95107800D01*
X95554800Y-95046800D02*
X95554800Y-95046800D01*
%TO.N,Net-(Q8-Pad3)*%
X123749000Y-113462000D02*
X123748800Y-113461800D01*
X123749000Y-115427000D02*
X123749000Y-113462000D01*
X116096800Y-113492800D02*
X115746800Y-113842800D01*
X116096800Y-111241800D02*
X116096800Y-113492800D01*
%TO.N,Net-(Q9-Pad3)*%
X123749000Y-117399000D02*
X123748800Y-117398800D01*
X123749000Y-119327000D02*
X123749000Y-117399000D01*
X118001800Y-117049800D02*
X117652800Y-117398800D01*
X118001800Y-116448800D02*
X118001800Y-117049800D01*
%TO.N,/DTS_2*%
X88454799Y-112203799D02*
X87934800Y-111683800D01*
X99999800Y-115250800D02*
X97089800Y-115250800D01*
X97089800Y-115250800D02*
X94042799Y-112203799D01*
X94042799Y-112203799D02*
X88454799Y-112203799D01*
%TO.N,/ESP32_part/GPIO0*%
X113842800Y-138987800D02*
X112318800Y-138987800D01*
X91810800Y-84312800D02*
X91871800Y-84251800D01*
X91810800Y-85062300D02*
X91810800Y-84312800D01*
%TO.N,/I2C_SDA*%
X95491286Y-131368800D02*
X95110302Y-130987816D01*
X96316800Y-131368800D02*
X95491286Y-131368800D01*
X96316800Y-131368800D02*
X98348800Y-131368800D01*
X98348800Y-131368800D02*
X98602800Y-131114800D01*
X98348800Y-131988800D02*
X98348800Y-131368800D01*
X108948799Y-118228801D02*
X107492800Y-119684800D01*
X108948799Y-103774797D02*
X108948799Y-118228801D01*
X108106801Y-102932799D02*
X108948799Y-103774797D01*
X106625058Y-102932799D02*
X108106801Y-102932799D01*
X105968800Y-102276541D02*
X106625058Y-102932799D01*
D42*
%TO.N,/I2C_SCL*%
X98348800Y-132638800D02*
X96316800Y-132638800D01*
D46*
X95428776Y-132638800D02*
X95095121Y-132305145D01*
X96316800Y-132638800D02*
X95428776Y-132638800D01*
X98348800Y-132638800D02*
X99618794Y-132638800D01*
X106724577Y-119011362D02*
X106724577Y-120434800D01*
X108448788Y-117287151D02*
X106724577Y-119011362D01*
X108448788Y-105271286D02*
X108448788Y-117287151D01*
X107610303Y-104432801D02*
X108448788Y-105271286D01*
X106874419Y-104432801D02*
X107610303Y-104432801D01*
X104776609Y-102334991D02*
X106874419Y-104432801D01*
%TO.N,/~I2C_INT*%
X103440799Y-106845801D02*
X105307131Y-104979469D01*
X103440799Y-108520799D02*
X103440799Y-106845801D01*
X107746800Y-114477800D02*
X107746800Y-112826800D01*
X107746800Y-112826800D02*
X103440799Y-108520799D01*
%TO.N,/~CTRL_INT*%
X101544588Y-108842321D02*
X104444800Y-111742533D01*
X100507800Y-104952800D02*
X100507800Y-108146167D01*
X101203954Y-108842321D02*
X101544588Y-108842321D01*
X100507800Y-108146167D02*
X101203954Y-108842321D01*
X104444800Y-111742533D02*
X104444800Y-112699800D01*
D42*
%TO.N,/~RTC_INT*%
X93848800Y-132638800D02*
X91166800Y-132638800D01*
X92623094Y-132638800D02*
X92630400Y-132631494D01*
X91166800Y-132638800D02*
X92623094Y-132638800D01*
%TO.N,/RTC_CLK*%
X96316800Y-133908800D02*
X96936800Y-133288800D01*
X96936800Y-133288800D02*
X98348800Y-133288800D01*
X95427800Y-133908800D02*
X95110300Y-133591300D01*
X96316800Y-133908800D02*
X95427800Y-133908800D01*
D46*
%TO.N,/Ctrl_part/~btn_int*%
X106480242Y-93167200D02*
X106451400Y-93167200D01*
X107839632Y-91807810D02*
X106480242Y-93167200D01*
X107854980Y-91807810D02*
X107839632Y-91807810D01*
X108191810Y-91470980D02*
X107854980Y-91807810D01*
X108191810Y-90432310D02*
X108191810Y-91470980D01*
X107746800Y-89987300D02*
X108191810Y-90432310D01*
X107746800Y-89372800D02*
X107746800Y-89987300D01*
D42*
%TO.N,Net-(C2-Pad1)*%
X86938800Y-132511800D02*
X87045800Y-132404800D01*
X85013800Y-132511800D02*
X86938800Y-132511800D01*
X87191800Y-132258800D02*
X87045800Y-132404800D01*
X89077800Y-132258800D02*
X87191800Y-132258800D01*
D43*
%TO.N,Net-(D2-Pad2)*%
X82854800Y-80314800D02*
X82981800Y-80441800D01*
X81076800Y-80314800D02*
X82854800Y-80314800D01*
D46*
%TO.N,Net-(D5-Pad2)*%
X120192800Y-123747800D02*
X120192800Y-128193800D01*
%TO.N,/scl1*%
X123956800Y-86838800D02*
X124765800Y-86029800D01*
X122351800Y-86838800D02*
X123956800Y-86838800D01*
X124415800Y-87297800D02*
X123956800Y-86838800D01*
X124415800Y-88635800D02*
X124415800Y-87297800D01*
%TO.N,/sda1*%
X124764800Y-81804800D02*
X124415800Y-82153800D01*
X124764800Y-79552800D02*
X124764800Y-81804800D01*
X124415800Y-82274800D02*
X122351800Y-84338800D01*
X124415800Y-82153800D02*
X124415800Y-82274800D01*
%TO.N,/Ctrl_part/IFC_SDA_VLT/S_left*%
X89113800Y-104572800D02*
X90474800Y-104572800D01*
X86318800Y-101777800D02*
X89113800Y-104572800D01*
X90474800Y-104572800D02*
X90474800Y-104572800D01*
D42*
%TO.N,/ESP32_part/DTR*%
X89836800Y-85394800D02*
X90982800Y-85394800D01*
X91300300Y-85712300D02*
X91427300Y-85712300D01*
X90982800Y-85394800D02*
X91300300Y-85712300D01*
X91427300Y-85712300D02*
X91810800Y-85712300D01*
X93091890Y-85062300D02*
X93710800Y-85062300D01*
X91810800Y-85712300D02*
X92441890Y-85712300D01*
X92441890Y-85712300D02*
X93091890Y-85062300D01*
%TO.N,/ESP32_part/RTS*%
X89836800Y-86664800D02*
X90982800Y-86664800D01*
X91285300Y-86362300D02*
X91810800Y-86362300D01*
X90982800Y-86664800D02*
X91285300Y-86362300D01*
X93078300Y-85712300D02*
X93710800Y-85712300D01*
X92428300Y-86362300D02*
X93078300Y-85712300D01*
X91810800Y-86362300D02*
X92428300Y-86362300D01*
%TO.N,Net-(R23-Pad2)*%
X91166800Y-133908800D02*
X89077800Y-133908800D01*
X91166800Y-133908800D02*
X92316300Y-133908800D01*
X92936300Y-133288800D02*
X93848800Y-133288800D01*
X92316300Y-133908800D02*
X92936300Y-133288800D01*
D46*
%TO.N,Net-(R85-Pad2)*%
X87553800Y-85679924D02*
X87553800Y-84632800D01*
X85298924Y-87934800D02*
X87553800Y-85679924D01*
X84886800Y-87934800D02*
X85298924Y-87934800D01*
%TO.N,Net-(R86-Pad2)*%
X86537800Y-85988800D02*
X86537800Y-84632800D01*
X85861800Y-86664800D02*
X86537800Y-85988800D01*
X84886800Y-86664800D02*
X85861800Y-86664800D01*
D42*
%TO.N,/USB_D-*%
X83743804Y-82854800D02*
X83362804Y-82473800D01*
X84886800Y-82854800D02*
X83743804Y-82854800D01*
%TO.N,/USB_D+*%
X83870804Y-84124800D02*
X83362808Y-84632796D01*
X84886800Y-84124800D02*
X83870804Y-84124800D01*
%TO.N,/osci0*%
X87319800Y-135178800D02*
X87045800Y-134904800D01*
X91166800Y-135178800D02*
X87319800Y-135178800D01*
X86938800Y-134797800D02*
X87045800Y-134904800D01*
X85013800Y-134797800D02*
X86938800Y-134797800D01*
X93848800Y-133938800D02*
X93175300Y-133938800D01*
X91935300Y-135178800D02*
X91166800Y-135178800D01*
X93175300Y-133938800D02*
X91935300Y-135178800D01*
D41*
%TO.N,/Vdd0*%
X98348800Y-133938800D02*
X97108800Y-135178800D01*
X97108800Y-135178800D02*
X96316800Y-135178800D01*
D43*
X96761300Y-135623300D02*
X96316800Y-135178800D01*
X98285300Y-135623300D02*
X96761300Y-135623300D01*
D46*
X99588800Y-133938800D02*
X100063300Y-133464300D01*
X98348800Y-133938800D02*
X99588800Y-133938800D01*
D41*
%TO.N,/Ctrl_part/jtbtn*%
X115874800Y-77774800D02*
X114223800Y-77774800D01*
%TO.N,/Ctrl_part/jcbtn*%
X112191800Y-77774800D02*
X110540800Y-77774800D01*
%TO.N,/Ctrl_part/jlbtn*%
X106095800Y-77774800D02*
X107746800Y-77774800D01*
%TO.N,/Ctrl_part/jrbtn*%
X115874800Y-89458800D02*
X114223800Y-89458800D01*
%TO.N,/Ctrl_part/jbbtn*%
X110541800Y-89457800D02*
X110540800Y-89458800D01*
X112191800Y-89457800D02*
X110541800Y-89457800D01*
%TO.N,/Ctrl_part/EC11_A*%
X103921800Y-86156800D02*
X103938800Y-86139800D01*
X101777800Y-86156800D02*
X103921800Y-86156800D01*
X101777800Y-86156800D02*
X101777800Y-87807800D01*
%TO.N,/Ctrl_part/EC11_B*%
X101777800Y-79425800D02*
X101777800Y-81076800D01*
X103875800Y-81076800D02*
X103938800Y-81139800D01*
X101777800Y-81076800D02*
X103875800Y-81076800D01*
%TO.N,/Ctrl_part/EC11_E*%
X88188800Y-81139800D02*
X88188800Y-78789800D01*
X90219800Y-78789800D02*
X90220800Y-78790800D01*
X88188800Y-78789800D02*
X90219800Y-78789800D01*
D46*
%TO.N,/EXT_SDA*%
X127294800Y-82854800D02*
X127045800Y-83103800D01*
X127939800Y-82854800D02*
X127939800Y-82854800D01*
X126415800Y-83103800D02*
X127045800Y-83103800D01*
X127939800Y-82854800D02*
X127294800Y-82854800D01*
%TO.N,/EXT_SCL*%
X127305800Y-89330800D02*
X127050800Y-89585800D01*
X127939800Y-89330800D02*
X127939800Y-89330800D01*
X126415800Y-89585800D02*
X127050800Y-89585800D01*
X127939800Y-89330800D02*
X127305800Y-89330800D01*
%TO.N,/~EXT_INT*%
X118292800Y-92003800D02*
X118292800Y-91363800D01*
X118542800Y-92253800D02*
X118292800Y-92003800D01*
X118542800Y-92887800D02*
X118542800Y-92887800D01*
X118542800Y-92887800D02*
X118542800Y-92253800D01*
%TO.N,/POW_SCL*%
X90413800Y-107176800D02*
X90475800Y-107238800D01*
X90413800Y-105698800D02*
X90413800Y-107176800D01*
X94221790Y-108063810D02*
X103103800Y-99181800D01*
X91300810Y-108063810D02*
X94221790Y-108063810D01*
X90475800Y-107238800D02*
X91300810Y-108063810D01*
%TO.N,/POW_SDA*%
X101904800Y-95681800D02*
X102158800Y-95935800D01*
X101904800Y-95041800D02*
X101904800Y-95681800D01*
%TO.N,/FAN_SCL*%
X114096800Y-110291800D02*
X112822800Y-110291800D01*
%TO.N,/FAN_SDA*%
X115111800Y-115748800D02*
X115361800Y-115498800D01*
X114477800Y-115748800D02*
X115111800Y-115748800D01*
X116001800Y-115498800D02*
X115361800Y-115498800D01*
%TO.N,Net-(R19-Pad2)*%
X108254800Y-98984800D02*
X108254800Y-95935800D01*
%TO.N,Net-(R20-Pad2)*%
X106730800Y-98984800D02*
X106730800Y-95934800D01*
%TO.N,Net-(D6-Pad2)*%
X118287800Y-135559800D02*
X120192800Y-135559800D01*
%TO.N,Net-(Q16-Pad1)*%
X112318300Y-128194300D02*
X112318800Y-128194800D01*
X112318300Y-122098300D02*
X112318300Y-128194300D01*
X111918301Y-122498299D02*
X112318300Y-122098300D01*
X93387810Y-125645810D02*
X108770790Y-125645810D01*
X91839800Y-124097800D02*
X93387810Y-125645810D01*
X108770790Y-125645810D02*
X111918301Y-122498299D01*
X90982800Y-124097800D02*
X91839800Y-124097800D01*
%TO.N,Net-(R41-Pad2)*%
X104190800Y-107873800D02*
X105499698Y-107873800D01*
X105499698Y-107873800D02*
X107698779Y-105674719D01*
%TO.N,Net-(R77-Pad2)*%
X124399001Y-120877001D02*
X125120798Y-120155204D01*
X125120798Y-120155204D02*
X125120798Y-118795800D01*
X120160767Y-120877001D02*
X124399001Y-120877001D01*
X113842800Y-137337800D02*
X113842800Y-127194968D01*
X113842800Y-127194968D02*
X120160767Y-120877001D01*
%TO.N,Net-(R89-Pad2)*%
X78981300Y-125590300D02*
X78981300Y-124066300D01*
X78981300Y-125590300D02*
X78981300Y-125590300D01*
%TO.N,Net-(R90-Pad2)*%
X80505300Y-125590300D02*
X80505300Y-124066300D01*
X80505300Y-125590300D02*
X80505300Y-125590300D01*
D43*
%TO.N,/+5V*%
X81076800Y-84314800D02*
X81076800Y-83489800D01*
D44*
X78791000Y-97150000D02*
X78791000Y-101050000D01*
X78791000Y-89712600D02*
X78791000Y-97150000D01*
X79933800Y-88569800D02*
X78791000Y-89712600D01*
X79933800Y-86410800D02*
X79933800Y-88569800D01*
X81076800Y-85267800D02*
X79933800Y-86410800D01*
X81076800Y-84314800D02*
X81076800Y-85267800D01*
D46*
%TO.N,Net-(J1-Pad4)*%
X119810800Y-88795800D02*
X119242800Y-89363800D01*
X119810800Y-87807800D02*
X119810800Y-88795800D01*
X120353800Y-89338800D02*
X119810800Y-88795800D01*
X122351800Y-89338800D02*
X120353800Y-89338800D01*
D41*
%TO.N,/Ctrl_part/eLine_A*%
X100127800Y-86156800D02*
X98475800Y-86156800D01*
%TO.N,/Ctrl_part/eLine_E*%
X86156800Y-77139800D02*
X88188800Y-77139800D01*
D46*
X88939810Y-77890810D02*
X88188800Y-77139800D01*
X90573642Y-77890810D02*
X88939810Y-77890810D01*
X92934622Y-80251790D02*
X90573642Y-77890810D01*
X100555622Y-80251790D02*
X92934622Y-80251790D01*
X100877810Y-80573978D02*
X100555622Y-80251790D01*
X100877810Y-81998810D02*
X100877810Y-80573978D01*
X105846800Y-86967800D02*
X100877810Y-81998810D01*
X105846800Y-87172800D02*
X105846800Y-86967800D01*
%TO.N,/ESP32_part/a0*%
X72186800Y-125145800D02*
X72186800Y-126669800D01*
%TO.N,/ESP32_part/a1*%
X73710800Y-125145800D02*
X73710800Y-126669800D01*
%TO.N,/+5V_state*%
X97524800Y-98668800D02*
X97713800Y-98857800D01*
X94062800Y-98668800D02*
X97524800Y-98668800D01*
%TO.N,Net-(Q6-Pad3)*%
X99904800Y-95141800D02*
X99110800Y-95935800D01*
X99904800Y-94091800D02*
X99904800Y-95141800D01*
%TO.N,Net-(Q10-Pad3)*%
X89585800Y-115051808D02*
X91683808Y-112953800D01*
X89585800Y-118287800D02*
X89585800Y-115051808D01*
X85648800Y-119430800D02*
X88442800Y-119430800D01*
X88442800Y-119430800D02*
X89585800Y-118287800D01*
X83926980Y-121152620D02*
X85648800Y-119430800D01*
X83926980Y-129153620D02*
X83926980Y-121152620D01*
X82092800Y-137083800D02*
X82092800Y-130987800D01*
X82092800Y-130987800D02*
X83926980Y-129153620D01*
X85648800Y-140639800D02*
X82092800Y-137083800D01*
%TD*%
M02*
