M48
; DRILL file {KiCad (5.1.10)-1} date 01/18/22 17:24:43
; FORMAT={3:3/ absolute / metric / keep zeros}
; #@! TF.CreationDate,2022-01-18T17:24:43+07:00
; #@! TF.GenerationSoftware,Kicad,Pcbnew,(5.1.10)-1
; #@! TF.FileFunction,Plated,1,4,PTH
FMAT,2
METRIC
T1C0.400
T2C0.500
T3C0.550
T4C0.600
T5C0.650
T6C0.700
T7C0.850
T8C0.900
T9C0.950
T10C1.000
T11C1.200
T12C1.600
T13C2.100
T14C2.800
%
G90
G05
T1
X072187Y-090221
X072187Y-098502
X072187Y-126670
X072212Y-094807
X072415Y-118034
X073711Y-126670
X073838Y-098502
X073838Y-111557
X073838Y-115240
X073965Y-118034
X074701Y-100254
X075235Y-126670
X076251Y-127559
X078537Y-086030
X078981Y-125590
X079095Y-120764
X080505Y-125590
X080645Y-120764
X080696Y-089586
X081077Y-083490
X081331Y-086652
X081331Y-088202
X081712Y-101651
X081712Y-118415
X082029Y-125590
X082347Y-089586
X082982Y-080442
X083045Y-126352
X083363Y-083490
X083363Y-101651
X083363Y-082474
X083363Y-084633
X083490Y-133655
X083871Y-107366
X083871Y-108890
X084760Y-097968
X084760Y-099492
X084760Y-100762
X085014Y-122352
X085649Y-140640
X086157Y-078664
X086220Y-125336
X086285Y-113589
X086411Y-097460
X086538Y-084633
X086639Y-090856
X087427Y-122352
X087554Y-084633
X087935Y-111684
X087935Y-113589
X088189Y-081140
X088189Y-086157
X088189Y-090856
X088760Y-125336
X088824Y-106222
X088874Y-103098
X089459Y-098857
X090030Y-123050
X090221Y-077140
X090475Y-104573
X091684Y-112954
X091872Y-084252
X091999Y-118161
X092507Y-103302
X092630Y-132631
X092888Y-131369
X093777Y-087300
X094158Y-096698
X094285Y-110668
X094412Y-076124
X094412Y-078156
X094412Y-089078
X094412Y-091110
X094539Y-105461
X095095Y-132305
X095110Y-133591
X095110Y-130988
X095174Y-077140
X095174Y-090094
X095555Y-093397
X095555Y-095047
X095936Y-076124
X095936Y-078156
X095936Y-089078
X095936Y-091110
X096444Y-120320
X096698Y-077140
X096698Y-090094
X097460Y-076124
X097460Y-078156
X097460Y-089078
X097460Y-091110
X097714Y-100508
X098222Y-111811
X098222Y-107874
X098222Y-110811
X098476Y-081077
X098476Y-082601
X098476Y-084633
X098603Y-131115
X099111Y-095936
X099492Y-106858
X099619Y-132639
X099873Y-135623
X100000Y-115251
X100127Y-079426
X100127Y-087808
X100317Y-123939
X100508Y-104953
X100950Y-109548
X101016Y-110546
X101651Y-108001
X101904Y-099238
X101905Y-093142
X101905Y-135560
X102159Y-095936
X102651Y-108008
X102835Y-100549
X102971Y-116637
X103104Y-099182
X103683Y-094285
X103937Y-083617
X103939Y-081140
X103939Y-086140
X104191Y-107874
X104445Y-112700
X104521Y-116637
X104572Y-122072
X104572Y-123622
X104777Y-102335
X105207Y-094285
X105207Y-111430
X105307Y-104979
X105334Y-108890
X105842Y-090983
X105969Y-102277
X105969Y-117970
X106096Y-080924
X106096Y-082474
X106200Y-112341
X106223Y-122085
X106301Y-105088
X106451Y-093167
X106725Y-120435
X106731Y-095935
X106797Y-086030
X107366Y-090983
X107493Y-119685
X107556Y-116637
X107689Y-114408
X107699Y-105675
X107747Y-077775
X107747Y-079426
X107747Y-088189
X107747Y-102159
X107747Y-103683
X108255Y-094286
X108255Y-095936
X108255Y-137338
X108255Y-138988
X109779Y-113081
X110287Y-137338
X110287Y-138988
X110541Y-077775
X110541Y-080950
X110541Y-082474
X110541Y-084760
X110541Y-087809
X110541Y-089459
X111136Y-111382
X111335Y-110402
X112192Y-079426
X112192Y-087808
X112192Y-108890
X112318Y-122098
X112319Y-129845
X112319Y-137338
X112319Y-138988
X112573Y-110542
X114097Y-113843
X114224Y-077775
X114224Y-079426
X114224Y-087808
X114224Y-089459
X114224Y-122098
X114478Y-115749
X115747Y-113843
X115875Y-082474
X115875Y-084760
X116002Y-117399
X116256Y-104191
X116256Y-122099
X117653Y-117399
X118161Y-087808
X118288Y-128194
X118288Y-129845
X118288Y-133909
X118288Y-137338
X118288Y-138988
X118543Y-092888
X120193Y-092888
X120193Y-122099
X120193Y-129769
X120193Y-137338
X120193Y-138989
X123749Y-113462
X123749Y-117399
X125121Y-118796
X125908Y-107112
X125908Y-109779
X126263Y-120574
X126415Y-079553
X126416Y-086030
X127559Y-113589
X127686Y-115240
X127686Y-118796
X127813Y-098984
X127813Y-120574
X127940Y-082855
X127940Y-089331
T2
X076251Y-099111
X077521Y-099111
X121209Y-117399
X122479Y-117399
T4
X099619Y-097206
T5
X094412Y-121209
X095682Y-121209
T6
X081585Y-095682
X088062Y-128003
X089459Y-095174
X090602Y-128003
X090729Y-099111
X099492Y-128003
X102032Y-128003
X105080Y-141148
T8
X113172Y-081417
X113172Y-085817
T9
X122352Y-081839
X122352Y-084339
X122352Y-086839
X122352Y-089339
T10
X077648Y-132171
X077648Y-134671
X086319Y-101778
X086319Y-104318
X086319Y-106858
X086319Y-109398
X123368Y-077140
T11
X090047Y-137719
X095047Y-141319
X100047Y-137719
T13
X095939Y-083640
T14
X087049Y-094188
X087049Y-116988
X111049Y-094188
X111049Y-116988
T3
G00X074046Y-079911
M15
G01X073396Y-079911
M16
G05
G00X074046Y-087661
M15
G01X073396Y-087661
M16
G05
T4
G00X075834Y-108872
M15
G01X075834Y-109472
M16
G05
G00X075834Y-114841
M15
G01X075834Y-115441
M16
G05
G00X075834Y-139606
M15
G01X075834Y-140206
M16
G05
G00X080234Y-107422
M15
G01X079634Y-107422
M16
G05
G00X080234Y-110922
M15
G01X079634Y-110922
M16
G05
G00X080234Y-113391
M15
G01X079634Y-113391
M16
G05
G00X080234Y-116891
M15
G01X079634Y-116891
M16
G05
G00X080234Y-138156
M15
G01X079634Y-138156
M16
G05
G00X080234Y-141656
M15
G01X079634Y-141656
M16
G05
G00X082134Y-109472
M15
G01X082134Y-108872
M16
G05
G00X082134Y-115441
M15
G01X082134Y-114841
M16
G05
G00X082134Y-140206
M15
G01X082134Y-139606
M16
G05
G00X117852Y-102621
M15
G01X117852Y-103221
M16
G05
G00X117852Y-111031
M15
G01X117852Y-111631
M16
G05
G00X119752Y-101171
M15
G01X120352Y-101171
M16
G05
G00X119752Y-104671
M15
G01X120352Y-104671
M16
G05
G00X119752Y-109581
M15
G01X120352Y-109581
M16
G05
G00X119752Y-113081
M15
G01X120352Y-113081
M16
G05
G00X124152Y-103221
M15
G01X124152Y-102621
M16
G05
G00X124152Y-111631
M15
G01X124152Y-111031
M16
G05
T7
G00X077796Y-080061
M15
G01X077246Y-080061
M16
G05
G00X077796Y-087511
M15
G01X077246Y-087511
M16
G05
T12
G00X100139Y-083640
M15
G01X100739Y-083640
M16
G05
T0
M30
