%TF.GenerationSoftware,KiCad,Pcbnew,(5.1.10)-1*%
%TF.CreationDate,2022-01-18T17:24:37+07:00*%
%TF.ProjectId,Digital_module_v3,44696769-7461-46c5-9f6d-6f64756c655f,rev?*%
%TF.SameCoordinates,Original*%
%TF.FileFunction,Copper,L1,Top*%
%TF.FilePolarity,Positive*%
%FSLAX46Y46*%
G04 Gerber Fmt 4.6, Leading zero omitted, Abs format (unit mm)*
G04 Created by KiCad (PCBNEW (5.1.10)-1) date 2022-01-18 17:24:37*
%MOMM*%
%LPD*%
G01*
G04 APERTURE LIST*
%TA.AperFunction,NonConductor*%
%ADD10C,0.300000*%
%TD*%
%TA.AperFunction,SMDPad,CuDef*%
%ADD11R,0.950000X0.450000*%
%TD*%
%TA.AperFunction,ComponentPad*%
%ADD12C,3.500000*%
%TD*%
%TA.AperFunction,ComponentPad*%
%ADD13C,1.700000*%
%TD*%
%TA.AperFunction,ComponentPad*%
%ADD14R,1.700000X1.700000*%
%TD*%
%TA.AperFunction,SMDPad,CuDef*%
%ADD15R,0.800000X0.900000*%
%TD*%
%TA.AperFunction,SMDPad,CuDef*%
%ADD16R,0.900000X0.800000*%
%TD*%
%TA.AperFunction,ComponentPad*%
%ADD17O,1.000000X1.000000*%
%TD*%
%TA.AperFunction,ComponentPad*%
%ADD18R,1.000000X1.000000*%
%TD*%
%TA.AperFunction,SMDPad,CuDef*%
%ADD19R,0.400000X3.200000*%
%TD*%
%TA.AperFunction,ComponentPad*%
%ADD20C,2.000000*%
%TD*%
%TA.AperFunction,SMDPad,CuDef*%
%ADD21R,0.650000X1.800000*%
%TD*%
%TA.AperFunction,SMDPad,CuDef*%
%ADD22R,1.050000X1.400000*%
%TD*%
%TA.AperFunction,SMDPad,CuDef*%
%ADD23R,1.870000X3.520000*%
%TD*%
%TA.AperFunction,SMDPad,CuDef*%
%ADD24R,1.820000X4.320000*%
%TD*%
%TA.AperFunction,ComponentPad*%
%ADD25C,1.800000*%
%TD*%
%TA.AperFunction,SMDPad,CuDef*%
%ADD26R,2.000000X1.500000*%
%TD*%
%TA.AperFunction,SMDPad,CuDef*%
%ADD27R,2.000000X3.800000*%
%TD*%
%TA.AperFunction,SMDPad,CuDef*%
%ADD28C,0.100000*%
%TD*%
%TA.AperFunction,SMDPad,CuDef*%
%ADD29R,0.900000X0.700000*%
%TD*%
%TA.AperFunction,SMDPad,CuDef*%
%ADD30R,1.060000X0.650000*%
%TD*%
%TA.AperFunction,ComponentPad*%
%ADD31O,1.950000X1.700000*%
%TD*%
%TA.AperFunction,ComponentPad*%
%ADD32O,2.000000X1.700000*%
%TD*%
%TA.AperFunction,ComponentPad*%
%ADD33O,1.000000X1.800000*%
%TD*%
%TA.AperFunction,ComponentPad*%
%ADD34R,1.000000X1.800000*%
%TD*%
%TA.AperFunction,ComponentPad*%
%ADD35O,1.800000X1.000000*%
%TD*%
%TA.AperFunction,SMDPad,CuDef*%
%ADD36R,2.500000X2.000000*%
%TD*%
%TA.AperFunction,SMDPad,CuDef*%
%ADD37R,4.000000X3.000000*%
%TD*%
%TA.AperFunction,SMDPad,CuDef*%
%ADD38R,2.500000X1.500000*%
%TD*%
%TA.AperFunction,ComponentPad*%
%ADD39C,2.100000*%
%TD*%
%TA.AperFunction,ComponentPad*%
%ADD40O,2.200000X1.600000*%
%TD*%
%TA.AperFunction,SMDPad,CuDef*%
%ADD41R,1.300000X1.600000*%
%TD*%
%TA.AperFunction,ComponentPad*%
%ADD42C,0.900000*%
%TD*%
%TA.AperFunction,ComponentPad*%
%ADD43O,1.800000X1.150000*%
%TD*%
%TA.AperFunction,ComponentPad*%
%ADD44O,2.000000X1.450000*%
%TD*%
%TA.AperFunction,SMDPad,CuDef*%
%ADD45R,1.900000X0.450000*%
%TD*%
%TA.AperFunction,SMDPad,CuDef*%
%ADD46R,1.000000X2.500000*%
%TD*%
%TA.AperFunction,SMDPad,CuDef*%
%ADD47R,1.800000X1.000000*%
%TD*%
%TA.AperFunction,ViaPad*%
%ADD48C,0.800000*%
%TD*%
%TA.AperFunction,ViaPad*%
%ADD49C,1.000000*%
%TD*%
%TA.AperFunction,ViaPad*%
%ADD50C,1.200000*%
%TD*%
%TA.AperFunction,ViaPad*%
%ADD51C,1.100000*%
%TD*%
%TA.AperFunction,Conductor*%
%ADD52C,0.500000*%
%TD*%
%TA.AperFunction,Conductor*%
%ADD53C,0.400000*%
%TD*%
%TA.AperFunction,Conductor*%
%ADD54C,0.600000*%
%TD*%
%TA.AperFunction,Conductor*%
%ADD55C,0.800000*%
%TD*%
%TA.AperFunction,Conductor*%
%ADD56C,0.300000*%
%TD*%
%TA.AperFunction,Conductor*%
%ADD57C,0.250000*%
%TD*%
%TA.AperFunction,Conductor*%
%ADD58C,0.700000*%
%TD*%
G04 APERTURE END LIST*
D10*
X72627371Y-141203228D02*
X73627371Y-140846085D01*
X72627371Y-140488942D01*
X72127371Y-140060371D02*
X72127371Y-139131800D01*
X72698800Y-139631800D01*
X72698800Y-139417514D01*
X72770228Y-139274657D01*
X72841657Y-139203228D01*
X72984514Y-139131800D01*
X73341657Y-139131800D01*
X73484514Y-139203228D01*
X73555942Y-139274657D01*
X73627371Y-139417514D01*
X73627371Y-139846085D01*
X73555942Y-139988942D01*
X73484514Y-140060371D01*
D11*
%TO.P,D3,6*%
%TO.N,+5VD*%
X76969800Y-103413800D03*
%TO.P,D3,5*%
%TO.N,Net-(D3-Pad5)*%
X76969800Y-104063800D03*
%TO.P,D3,4*%
%TO.N,N/C*%
X76969800Y-104713800D03*
%TO.P,D3,3*%
%TO.N,+5VD*%
X74769800Y-104713800D03*
%TO.P,D3,2*%
%TO.N,GND1*%
X74769800Y-104063800D03*
%TO.P,D3,1*%
%TO.N,+5P*%
X74769800Y-103413800D03*
%TD*%
D12*
%TO.P,U8,~*%
%TO.N,N/C*%
X111048800Y-116987800D03*
X111048800Y-94187800D03*
X87048800Y-94187800D03*
X87048800Y-116987800D03*
D13*
%TO.P,U8,4*%
%TO.N,/Ctrl_part/IFC_SDA_VLT/S_left*%
X86318800Y-101777800D03*
%TO.P,U8,3*%
%TO.N,/Ctrl_part/IFC_SCL_VLT/S_left*%
X86318800Y-104317800D03*
%TO.P,U8,2*%
%TO.N,+5P*%
X86318800Y-106857800D03*
D14*
%TO.P,U8,1*%
%TO.N,GND1*%
X86318800Y-109397800D03*
%TD*%
%TO.P,R71,2*%
%TO.N,+3V3*%
%TA.AperFunction,SMDPad,CuDef*%
G36*
G01*
X91153800Y-96972800D02*
X91153800Y-96422800D01*
G75*
G02*
X91353800Y-96222800I200000J0D01*
G01*
X91753800Y-96222800D01*
G75*
G02*
X91953800Y-96422800I0J-200000D01*
G01*
X91953800Y-96972800D01*
G75*
G02*
X91753800Y-97172800I-200000J0D01*
G01*
X91353800Y-97172800D01*
G75*
G02*
X91153800Y-96972800I0J200000D01*
G01*
G37*
%TD.AperFunction*%
%TO.P,R71,1*%
%TO.N,/Ctrl_part/IFC_SCL*%
%TA.AperFunction,SMDPad,CuDef*%
G36*
G01*
X89503800Y-96972800D02*
X89503800Y-96422800D01*
G75*
G02*
X89703800Y-96222800I200000J0D01*
G01*
X90103800Y-96222800D01*
G75*
G02*
X90303800Y-96422800I0J-200000D01*
G01*
X90303800Y-96972800D01*
G75*
G02*
X90103800Y-97172800I-200000J0D01*
G01*
X89703800Y-97172800D01*
G75*
G02*
X89503800Y-96972800I0J200000D01*
G01*
G37*
%TD.AperFunction*%
%TD*%
%TO.P,R70,2*%
%TO.N,+3V3*%
%TA.AperFunction,SMDPad,CuDef*%
G36*
G01*
X92231800Y-102901800D02*
X92781800Y-102901800D01*
G75*
G02*
X92981800Y-103101800I0J-200000D01*
G01*
X92981800Y-103501800D01*
G75*
G02*
X92781800Y-103701800I-200000J0D01*
G01*
X92231800Y-103701800D01*
G75*
G02*
X92031800Y-103501800I0J200000D01*
G01*
X92031800Y-103101800D01*
G75*
G02*
X92231800Y-102901800I200000J0D01*
G01*
G37*
%TD.AperFunction*%
%TO.P,R70,1*%
%TO.N,Net-(Q19-Pad3)*%
%TA.AperFunction,SMDPad,CuDef*%
G36*
G01*
X92231800Y-101251800D02*
X92781800Y-101251800D01*
G75*
G02*
X92981800Y-101451800I0J-200000D01*
G01*
X92981800Y-101851800D01*
G75*
G02*
X92781800Y-102051800I-200000J0D01*
G01*
X92231800Y-102051800D01*
G75*
G02*
X92031800Y-101851800I0J200000D01*
G01*
X92031800Y-101451800D01*
G75*
G02*
X92231800Y-101251800I200000J0D01*
G01*
G37*
%TD.AperFunction*%
%TD*%
%TO.P,R68,2*%
%TO.N,+3V3*%
%TA.AperFunction,SMDPad,CuDef*%
G36*
G01*
X92781800Y-98876800D02*
X92231800Y-98876800D01*
G75*
G02*
X92031800Y-98676800I0J200000D01*
G01*
X92031800Y-98276800D01*
G75*
G02*
X92231800Y-98076800I200000J0D01*
G01*
X92781800Y-98076800D01*
G75*
G02*
X92981800Y-98276800I0J-200000D01*
G01*
X92981800Y-98676800D01*
G75*
G02*
X92781800Y-98876800I-200000J0D01*
G01*
G37*
%TD.AperFunction*%
%TO.P,R68,1*%
%TO.N,/Ctrl_part/IFC_SDA*%
%TA.AperFunction,SMDPad,CuDef*%
G36*
G01*
X92781800Y-100526800D02*
X92231800Y-100526800D01*
G75*
G02*
X92031800Y-100326800I0J200000D01*
G01*
X92031800Y-99926800D01*
G75*
G02*
X92231800Y-99726800I200000J0D01*
G01*
X92781800Y-99726800D01*
G75*
G02*
X92981800Y-99926800I0J-200000D01*
G01*
X92981800Y-100326800D01*
G75*
G02*
X92781800Y-100526800I-200000J0D01*
G01*
G37*
%TD.AperFunction*%
%TD*%
%TO.P,R67,2*%
%TO.N,+3V3*%
%TA.AperFunction,SMDPad,CuDef*%
G36*
G01*
X94557800Y-96422800D02*
X94557800Y-96972800D01*
G75*
G02*
X94357800Y-97172800I-200000J0D01*
G01*
X93957800Y-97172800D01*
G75*
G02*
X93757800Y-96972800I0J200000D01*
G01*
X93757800Y-96422800D01*
G75*
G02*
X93957800Y-96222800I200000J0D01*
G01*
X94357800Y-96222800D01*
G75*
G02*
X94557800Y-96422800I0J-200000D01*
G01*
G37*
%TD.AperFunction*%
%TO.P,R67,1*%
%TO.N,Net-(Q17-Pad3)*%
%TA.AperFunction,SMDPad,CuDef*%
G36*
G01*
X96207800Y-96422800D02*
X96207800Y-96972800D01*
G75*
G02*
X96007800Y-97172800I-200000J0D01*
G01*
X95607800Y-97172800D01*
G75*
G02*
X95407800Y-96972800I0J200000D01*
G01*
X95407800Y-96422800D01*
G75*
G02*
X95607800Y-96222800I200000J0D01*
G01*
X96007800Y-96222800D01*
G75*
G02*
X96207800Y-96422800I0J-200000D01*
G01*
G37*
%TD.AperFunction*%
%TD*%
%TO.P,R34,2*%
%TO.N,+3V3*%
%TA.AperFunction,SMDPad,CuDef*%
G36*
G01*
X93374800Y-115981800D02*
X93924800Y-115981800D01*
G75*
G02*
X94124800Y-116181800I0J-200000D01*
G01*
X94124800Y-116581800D01*
G75*
G02*
X93924800Y-116781800I-200000J0D01*
G01*
X93374800Y-116781800D01*
G75*
G02*
X93174800Y-116581800I0J200000D01*
G01*
X93174800Y-116181800D01*
G75*
G02*
X93374800Y-115981800I200000J0D01*
G01*
G37*
%TD.AperFunction*%
%TO.P,R34,1*%
%TO.N,/DTS_1*%
%TA.AperFunction,SMDPad,CuDef*%
G36*
G01*
X93374800Y-114331800D02*
X93924800Y-114331800D01*
G75*
G02*
X94124800Y-114531800I0J-200000D01*
G01*
X94124800Y-114931800D01*
G75*
G02*
X93924800Y-115131800I-200000J0D01*
G01*
X93374800Y-115131800D01*
G75*
G02*
X93174800Y-114931800I0J200000D01*
G01*
X93174800Y-114531800D01*
G75*
G02*
X93374800Y-114331800I200000J0D01*
G01*
G37*
%TD.AperFunction*%
%TD*%
%TO.P,R33,2*%
%TO.N,+3V3*%
%TA.AperFunction,SMDPad,CuDef*%
G36*
G01*
X92233800Y-109418800D02*
X92233800Y-108868800D01*
G75*
G02*
X92433800Y-108668800I200000J0D01*
G01*
X92833800Y-108668800D01*
G75*
G02*
X93033800Y-108868800I0J-200000D01*
G01*
X93033800Y-109418800D01*
G75*
G02*
X92833800Y-109618800I-200000J0D01*
G01*
X92433800Y-109618800D01*
G75*
G02*
X92233800Y-109418800I0J200000D01*
G01*
G37*
%TD.AperFunction*%
%TO.P,R33,1*%
%TO.N,/DTS_0*%
%TA.AperFunction,SMDPad,CuDef*%
G36*
G01*
X90583800Y-109418800D02*
X90583800Y-108868800D01*
G75*
G02*
X90783800Y-108668800I200000J0D01*
G01*
X91183800Y-108668800D01*
G75*
G02*
X91383800Y-108868800I0J-200000D01*
G01*
X91383800Y-109418800D01*
G75*
G02*
X91183800Y-109618800I-200000J0D01*
G01*
X90783800Y-109618800D01*
G75*
G02*
X90583800Y-109418800I0J200000D01*
G01*
G37*
%TD.AperFunction*%
%TD*%
%TO.P,R31,2*%
%TO.N,+3V3*%
%TA.AperFunction,SMDPad,CuDef*%
G36*
G01*
X91598800Y-118435800D02*
X91598800Y-117885800D01*
G75*
G02*
X91798800Y-117685800I200000J0D01*
G01*
X92198800Y-117685800D01*
G75*
G02*
X92398800Y-117885800I0J-200000D01*
G01*
X92398800Y-118435800D01*
G75*
G02*
X92198800Y-118635800I-200000J0D01*
G01*
X91798800Y-118635800D01*
G75*
G02*
X91598800Y-118435800I0J200000D01*
G01*
G37*
%TD.AperFunction*%
%TO.P,R31,1*%
%TO.N,Net-(Q11-Pad3)*%
%TA.AperFunction,SMDPad,CuDef*%
G36*
G01*
X89948800Y-118435800D02*
X89948800Y-117885800D01*
G75*
G02*
X90148800Y-117685800I200000J0D01*
G01*
X90548800Y-117685800D01*
G75*
G02*
X90748800Y-117885800I0J-200000D01*
G01*
X90748800Y-118435800D01*
G75*
G02*
X90548800Y-118635800I-200000J0D01*
G01*
X90148800Y-118635800D01*
G75*
G02*
X89948800Y-118435800I0J200000D01*
G01*
G37*
%TD.AperFunction*%
%TD*%
%TO.P,R30,2*%
%TO.N,+3V3*%
%TA.AperFunction,SMDPad,CuDef*%
G36*
G01*
X94559800Y-111067800D02*
X94009800Y-111067800D01*
G75*
G02*
X93809800Y-110867800I0J200000D01*
G01*
X93809800Y-110467800D01*
G75*
G02*
X94009800Y-110267800I200000J0D01*
G01*
X94559800Y-110267800D01*
G75*
G02*
X94759800Y-110467800I0J-200000D01*
G01*
X94759800Y-110867800D01*
G75*
G02*
X94559800Y-111067800I-200000J0D01*
G01*
G37*
%TD.AperFunction*%
%TO.P,R30,1*%
%TO.N,Net-(Q10-Pad3)*%
%TA.AperFunction,SMDPad,CuDef*%
G36*
G01*
X94559800Y-112717800D02*
X94009800Y-112717800D01*
G75*
G02*
X93809800Y-112517800I0J200000D01*
G01*
X93809800Y-112117800D01*
G75*
G02*
X94009800Y-111917800I200000J0D01*
G01*
X94559800Y-111917800D01*
G75*
G02*
X94759800Y-112117800I0J-200000D01*
G01*
X94759800Y-112517800D01*
G75*
G02*
X94559800Y-112717800I-200000J0D01*
G01*
G37*
%TD.AperFunction*%
%TD*%
D15*
%TO.P,Q20,3*%
%TO.N,Net-(Q19-Pad3)*%
X87360800Y-99459800D03*
%TO.P,Q20,2*%
%TO.N,/Ctrl_part/IFC_SCL*%
X86410800Y-97459800D03*
%TO.P,Q20,1*%
%TO.N,+3V3*%
X88310800Y-97459800D03*
%TD*%
%TO.P,Q19,3*%
%TO.N,Net-(Q19-Pad3)*%
X89823800Y-101097800D03*
%TO.P,Q19,2*%
%TO.N,/Ctrl_part/IFC_SCL_VLT/S_left*%
X90773800Y-103097800D03*
%TO.P,Q19,1*%
%TO.N,+5P*%
X88873800Y-103097800D03*
%TD*%
D16*
%TO.P,Q18,3*%
%TO.N,Net-(Q17-Pad3)*%
X96157800Y-99425800D03*
%TO.P,Q18,2*%
%TO.N,/Ctrl_part/IFC_SDA*%
X94157800Y-100375800D03*
%TO.P,Q18,1*%
%TO.N,+3V3*%
X94157800Y-98475800D03*
%TD*%
D15*
%TO.P,Q17,3*%
%TO.N,Net-(Q17-Pad3)*%
X93141800Y-104825800D03*
%TO.P,Q17,2*%
%TO.N,/Ctrl_part/IFC_SDA_VLT/S_left*%
X94091800Y-106825800D03*
%TO.P,Q17,1*%
%TO.N,+5P*%
X92191800Y-106825800D03*
%TD*%
D16*
%TO.P,Q15,3*%
%TO.N,Net-(Q12-Pad3)*%
X85934800Y-112633800D03*
%TO.P,Q15,2*%
%TO.N,/DTS_2*%
X87934800Y-111683800D03*
%TO.P,Q15,1*%
%TO.N,+3V3*%
X87934800Y-113583800D03*
%TD*%
%TO.P,Q14,3*%
%TO.N,Net-(Q11-Pad3)*%
X90125800Y-115554800D03*
%TO.P,Q14,2*%
%TO.N,/DTS_1*%
X92125800Y-114604800D03*
%TO.P,Q14,1*%
%TO.N,+3V3*%
X92125800Y-116504800D03*
%TD*%
D15*
%TO.P,Q13,3*%
%TO.N,Net-(Q10-Pad3)*%
X91683800Y-112953800D03*
%TO.P,Q13,2*%
%TO.N,/DTS_0*%
X90733800Y-110953800D03*
%TO.P,Q13,1*%
%TO.N,+3V3*%
X92633800Y-110953800D03*
%TD*%
%TO.P,R69,2*%
%TO.N,+5P*%
%TA.AperFunction,SMDPad,CuDef*%
G36*
G01*
X88548800Y-105821800D02*
X89098800Y-105821800D01*
G75*
G02*
X89298800Y-106021800I0J-200000D01*
G01*
X89298800Y-106421800D01*
G75*
G02*
X89098800Y-106621800I-200000J0D01*
G01*
X88548800Y-106621800D01*
G75*
G02*
X88348800Y-106421800I0J200000D01*
G01*
X88348800Y-106021800D01*
G75*
G02*
X88548800Y-105821800I200000J0D01*
G01*
G37*
%TD.AperFunction*%
%TO.P,R69,1*%
%TO.N,/Ctrl_part/IFC_SCL_VLT/S_left*%
%TA.AperFunction,SMDPad,CuDef*%
G36*
G01*
X88548800Y-104171800D02*
X89098800Y-104171800D01*
G75*
G02*
X89298800Y-104371800I0J-200000D01*
G01*
X89298800Y-104771800D01*
G75*
G02*
X89098800Y-104971800I-200000J0D01*
G01*
X88548800Y-104971800D01*
G75*
G02*
X88348800Y-104771800I0J200000D01*
G01*
X88348800Y-104371800D01*
G75*
G02*
X88548800Y-104171800I200000J0D01*
G01*
G37*
%TD.AperFunction*%
%TD*%
%TO.P,R66,2*%
%TO.N,+5P*%
%TA.AperFunction,SMDPad,CuDef*%
G36*
G01*
X90199800Y-105822800D02*
X90749800Y-105822800D01*
G75*
G02*
X90949800Y-106022800I0J-200000D01*
G01*
X90949800Y-106422800D01*
G75*
G02*
X90749800Y-106622800I-200000J0D01*
G01*
X90199800Y-106622800D01*
G75*
G02*
X89999800Y-106422800I0J200000D01*
G01*
X89999800Y-106022800D01*
G75*
G02*
X90199800Y-105822800I200000J0D01*
G01*
G37*
%TD.AperFunction*%
%TO.P,R66,1*%
%TO.N,/Ctrl_part/IFC_SDA_VLT/S_left*%
%TA.AperFunction,SMDPad,CuDef*%
G36*
G01*
X90199800Y-104172800D02*
X90749800Y-104172800D01*
G75*
G02*
X90949800Y-104372800I0J-200000D01*
G01*
X90949800Y-104772800D01*
G75*
G02*
X90749800Y-104972800I-200000J0D01*
G01*
X90199800Y-104972800D01*
G75*
G02*
X89999800Y-104772800I0J200000D01*
G01*
X89999800Y-104372800D01*
G75*
G02*
X90199800Y-104172800I200000J0D01*
G01*
G37*
%TD.AperFunction*%
%TD*%
%TO.P,R25,2*%
%TO.N,+3V3*%
%TA.AperFunction,SMDPad,CuDef*%
G36*
G01*
X103957800Y-94684800D02*
X103407800Y-94684800D01*
G75*
G02*
X103207800Y-94484800I0J200000D01*
G01*
X103207800Y-94084800D01*
G75*
G02*
X103407800Y-93884800I200000J0D01*
G01*
X103957800Y-93884800D01*
G75*
G02*
X104157800Y-94084800I0J-200000D01*
G01*
X104157800Y-94484800D01*
G75*
G02*
X103957800Y-94684800I-200000J0D01*
G01*
G37*
%TD.AperFunction*%
%TO.P,R25,1*%
%TO.N,Net-(R25-Pad1)*%
%TA.AperFunction,SMDPad,CuDef*%
G36*
G01*
X103957800Y-96334800D02*
X103407800Y-96334800D01*
G75*
G02*
X103207800Y-96134800I0J200000D01*
G01*
X103207800Y-95734800D01*
G75*
G02*
X103407800Y-95534800I200000J0D01*
G01*
X103957800Y-95534800D01*
G75*
G02*
X104157800Y-95734800I0J-200000D01*
G01*
X104157800Y-96134800D01*
G75*
G02*
X103957800Y-96334800I-200000J0D01*
G01*
G37*
%TD.AperFunction*%
%TD*%
%TO.P,R26,2*%
%TO.N,+3V3*%
%TA.AperFunction,SMDPad,CuDef*%
G36*
G01*
X100909800Y-94684800D02*
X100359800Y-94684800D01*
G75*
G02*
X100159800Y-94484800I0J200000D01*
G01*
X100159800Y-94084800D01*
G75*
G02*
X100359800Y-93884800I200000J0D01*
G01*
X100909800Y-93884800D01*
G75*
G02*
X101109800Y-94084800I0J-200000D01*
G01*
X101109800Y-94484800D01*
G75*
G02*
X100909800Y-94684800I-200000J0D01*
G01*
G37*
%TD.AperFunction*%
%TO.P,R26,1*%
%TO.N,Net-(R26-Pad1)*%
%TA.AperFunction,SMDPad,CuDef*%
G36*
G01*
X100909800Y-96334800D02*
X100359800Y-96334800D01*
G75*
G02*
X100159800Y-96134800I0J200000D01*
G01*
X100159800Y-95734800D01*
G75*
G02*
X100359800Y-95534800I200000J0D01*
G01*
X100909800Y-95534800D01*
G75*
G02*
X101109800Y-95734800I0J-200000D01*
G01*
X101109800Y-96134800D01*
G75*
G02*
X100909800Y-96334800I-200000J0D01*
G01*
G37*
%TD.AperFunction*%
%TD*%
%TO.P,R24,2*%
%TO.N,Net-(R24-Pad2)*%
%TA.AperFunction,SMDPad,CuDef*%
G36*
G01*
X104931800Y-95534800D02*
X105481800Y-95534800D01*
G75*
G02*
X105681800Y-95734800I0J-200000D01*
G01*
X105681800Y-96134800D01*
G75*
G02*
X105481800Y-96334800I-200000J0D01*
G01*
X104931800Y-96334800D01*
G75*
G02*
X104731800Y-96134800I0J200000D01*
G01*
X104731800Y-95734800D01*
G75*
G02*
X104931800Y-95534800I200000J0D01*
G01*
G37*
%TD.AperFunction*%
%TO.P,R24,1*%
%TO.N,GND1*%
%TA.AperFunction,SMDPad,CuDef*%
G36*
G01*
X104931800Y-93884800D02*
X105481800Y-93884800D01*
G75*
G02*
X105681800Y-94084800I0J-200000D01*
G01*
X105681800Y-94484800D01*
G75*
G02*
X105481800Y-94684800I-200000J0D01*
G01*
X104931800Y-94684800D01*
G75*
G02*
X104731800Y-94484800I0J200000D01*
G01*
X104731800Y-94084800D01*
G75*
G02*
X104931800Y-93884800I200000J0D01*
G01*
G37*
%TD.AperFunction*%
%TD*%
%TO.P,D4,2*%
%TO.N,Net-(D4-Pad2)*%
%TA.AperFunction,SMDPad,CuDef*%
G36*
G01*
X128069050Y-96474800D02*
X127556550Y-96474800D01*
G75*
G02*
X127337800Y-96256050I0J218750D01*
G01*
X127337800Y-95818550D01*
G75*
G02*
X127556550Y-95599800I218750J0D01*
G01*
X128069050Y-95599800D01*
G75*
G02*
X128287800Y-95818550I0J-218750D01*
G01*
X128287800Y-96256050D01*
G75*
G02*
X128069050Y-96474800I-218750J0D01*
G01*
G37*
%TD.AperFunction*%
%TO.P,D4,1*%
%TO.N,GND1*%
%TA.AperFunction,SMDPad,CuDef*%
G36*
G01*
X128069050Y-98049800D02*
X127556550Y-98049800D01*
G75*
G02*
X127337800Y-97831050I0J218750D01*
G01*
X127337800Y-97393550D01*
G75*
G02*
X127556550Y-97174800I218750J0D01*
G01*
X128069050Y-97174800D01*
G75*
G02*
X128287800Y-97393550I0J-218750D01*
G01*
X128287800Y-97831050D01*
G75*
G02*
X128069050Y-98049800I-218750J0D01*
G01*
G37*
%TD.AperFunction*%
%TD*%
%TO.P,R41,2*%
%TO.N,Net-(R41-Pad2)*%
%TA.AperFunction,SMDPad,CuDef*%
G36*
G01*
X123641800Y-95787800D02*
X123641800Y-96337800D01*
G75*
G02*
X123441800Y-96537800I-200000J0D01*
G01*
X123041800Y-96537800D01*
G75*
G02*
X122841800Y-96337800I0J200000D01*
G01*
X122841800Y-95787800D01*
G75*
G02*
X123041800Y-95587800I200000J0D01*
G01*
X123441800Y-95587800D01*
G75*
G02*
X123641800Y-95787800I0J-200000D01*
G01*
G37*
%TD.AperFunction*%
%TO.P,R41,1*%
%TO.N,Net-(D4-Pad2)*%
%TA.AperFunction,SMDPad,CuDef*%
G36*
G01*
X125291800Y-95787800D02*
X125291800Y-96337800D01*
G75*
G02*
X125091800Y-96537800I-200000J0D01*
G01*
X124691800Y-96537800D01*
G75*
G02*
X124491800Y-96337800I0J200000D01*
G01*
X124491800Y-95787800D01*
G75*
G02*
X124691800Y-95587800I200000J0D01*
G01*
X125091800Y-95587800D01*
G75*
G02*
X125291800Y-95787800I0J-200000D01*
G01*
G37*
%TD.AperFunction*%
%TD*%
%TO.P,C3,2*%
%TO.N,GND1*%
%TA.AperFunction,SMDPad,CuDef*%
G36*
G01*
X107996800Y-102582800D02*
X107496800Y-102582800D01*
G75*
G02*
X107271800Y-102357800I0J225000D01*
G01*
X107271800Y-101907800D01*
G75*
G02*
X107496800Y-101682800I225000J0D01*
G01*
X107996800Y-101682800D01*
G75*
G02*
X108221800Y-101907800I0J-225000D01*
G01*
X108221800Y-102357800D01*
G75*
G02*
X107996800Y-102582800I-225000J0D01*
G01*
G37*
%TD.AperFunction*%
%TO.P,C3,1*%
%TO.N,+3V3*%
%TA.AperFunction,SMDPad,CuDef*%
G36*
G01*
X107996800Y-104132800D02*
X107496800Y-104132800D01*
G75*
G02*
X107271800Y-103907800I0J225000D01*
G01*
X107271800Y-103457800D01*
G75*
G02*
X107496800Y-103232800I225000J0D01*
G01*
X107996800Y-103232800D01*
G75*
G02*
X108221800Y-103457800I0J-225000D01*
G01*
X108221800Y-103907800D01*
G75*
G02*
X107996800Y-104132800I-225000J0D01*
G01*
G37*
%TD.AperFunction*%
%TD*%
%TO.P,R15,2*%
%TO.N,+3V3*%
%TA.AperFunction,SMDPad,CuDef*%
G36*
G01*
X102433800Y-94685800D02*
X101883800Y-94685800D01*
G75*
G02*
X101683800Y-94485800I0J200000D01*
G01*
X101683800Y-94085800D01*
G75*
G02*
X101883800Y-93885800I200000J0D01*
G01*
X102433800Y-93885800D01*
G75*
G02*
X102633800Y-94085800I0J-200000D01*
G01*
X102633800Y-94485800D01*
G75*
G02*
X102433800Y-94685800I-200000J0D01*
G01*
G37*
%TD.AperFunction*%
%TO.P,R15,1*%
%TO.N,/POW_SDA*%
%TA.AperFunction,SMDPad,CuDef*%
G36*
G01*
X102433800Y-96335800D02*
X101883800Y-96335800D01*
G75*
G02*
X101683800Y-96135800I0J200000D01*
G01*
X101683800Y-95735800D01*
G75*
G02*
X101883800Y-95535800I200000J0D01*
G01*
X102433800Y-95535800D01*
G75*
G02*
X102633800Y-95735800I0J-200000D01*
G01*
X102633800Y-96135800D01*
G75*
G02*
X102433800Y-96335800I-200000J0D01*
G01*
G37*
%TD.AperFunction*%
%TD*%
%TO.P,R6,2*%
%TO.N,+3V3*%
%TA.AperFunction,SMDPad,CuDef*%
G36*
G01*
X99385800Y-94684800D02*
X98835800Y-94684800D01*
G75*
G02*
X98635800Y-94484800I0J200000D01*
G01*
X98635800Y-94084800D01*
G75*
G02*
X98835800Y-93884800I200000J0D01*
G01*
X99385800Y-93884800D01*
G75*
G02*
X99585800Y-94084800I0J-200000D01*
G01*
X99585800Y-94484800D01*
G75*
G02*
X99385800Y-94684800I-200000J0D01*
G01*
G37*
%TD.AperFunction*%
%TO.P,R6,1*%
%TO.N,Net-(Q6-Pad3)*%
%TA.AperFunction,SMDPad,CuDef*%
G36*
G01*
X99385800Y-96334800D02*
X98835800Y-96334800D01*
G75*
G02*
X98635800Y-96134800I0J200000D01*
G01*
X98635800Y-95734800D01*
G75*
G02*
X98835800Y-95534800I200000J0D01*
G01*
X99385800Y-95534800D01*
G75*
G02*
X99585800Y-95734800I0J-200000D01*
G01*
X99585800Y-96134800D01*
G75*
G02*
X99385800Y-96334800I-200000J0D01*
G01*
G37*
%TD.AperFunction*%
%TD*%
%TO.P,R9,2*%
%TO.N,+3V3*%
%TA.AperFunction,SMDPad,CuDef*%
G36*
G01*
X116401800Y-117123800D02*
X116401800Y-117673800D01*
G75*
G02*
X116201800Y-117873800I-200000J0D01*
G01*
X115801800Y-117873800D01*
G75*
G02*
X115601800Y-117673800I0J200000D01*
G01*
X115601800Y-117123800D01*
G75*
G02*
X115801800Y-116923800I200000J0D01*
G01*
X116201800Y-116923800D01*
G75*
G02*
X116401800Y-117123800I0J-200000D01*
G01*
G37*
%TD.AperFunction*%
%TO.P,R9,1*%
%TO.N,Net-(Q9-Pad3)*%
%TA.AperFunction,SMDPad,CuDef*%
G36*
G01*
X118051800Y-117123800D02*
X118051800Y-117673800D01*
G75*
G02*
X117851800Y-117873800I-200000J0D01*
G01*
X117451800Y-117873800D01*
G75*
G02*
X117251800Y-117673800I0J200000D01*
G01*
X117251800Y-117123800D01*
G75*
G02*
X117451800Y-116923800I200000J0D01*
G01*
X117851800Y-116923800D01*
G75*
G02*
X118051800Y-117123800I0J-200000D01*
G01*
G37*
%TD.AperFunction*%
%TD*%
%TO.P,R19,2*%
%TO.N,Net-(R19-Pad2)*%
%TA.AperFunction,SMDPad,CuDef*%
G36*
G01*
X107979800Y-95535800D02*
X108529800Y-95535800D01*
G75*
G02*
X108729800Y-95735800I0J-200000D01*
G01*
X108729800Y-96135800D01*
G75*
G02*
X108529800Y-96335800I-200000J0D01*
G01*
X107979800Y-96335800D01*
G75*
G02*
X107779800Y-96135800I0J200000D01*
G01*
X107779800Y-95735800D01*
G75*
G02*
X107979800Y-95535800I200000J0D01*
G01*
G37*
%TD.AperFunction*%
%TO.P,R19,1*%
%TO.N,+3V3*%
%TA.AperFunction,SMDPad,CuDef*%
G36*
G01*
X107979800Y-93885800D02*
X108529800Y-93885800D01*
G75*
G02*
X108729800Y-94085800I0J-200000D01*
G01*
X108729800Y-94485800D01*
G75*
G02*
X108529800Y-94685800I-200000J0D01*
G01*
X107979800Y-94685800D01*
G75*
G02*
X107779800Y-94485800I0J200000D01*
G01*
X107779800Y-94085800D01*
G75*
G02*
X107979800Y-93885800I200000J0D01*
G01*
G37*
%TD.AperFunction*%
%TD*%
%TO.P,R20,2*%
%TO.N,Net-(R20-Pad2)*%
%TA.AperFunction,SMDPad,CuDef*%
G36*
G01*
X106455800Y-95534800D02*
X107005800Y-95534800D01*
G75*
G02*
X107205800Y-95734800I0J-200000D01*
G01*
X107205800Y-96134800D01*
G75*
G02*
X107005800Y-96334800I-200000J0D01*
G01*
X106455800Y-96334800D01*
G75*
G02*
X106255800Y-96134800I0J200000D01*
G01*
X106255800Y-95734800D01*
G75*
G02*
X106455800Y-95534800I200000J0D01*
G01*
G37*
%TD.AperFunction*%
%TO.P,R20,1*%
%TO.N,+3V3*%
%TA.AperFunction,SMDPad,CuDef*%
G36*
G01*
X106455800Y-93884800D02*
X107005800Y-93884800D01*
G75*
G02*
X107205800Y-94084800I0J-200000D01*
G01*
X107205800Y-94484800D01*
G75*
G02*
X107005800Y-94684800I-200000J0D01*
G01*
X106455800Y-94684800D01*
G75*
G02*
X106255800Y-94484800I0J200000D01*
G01*
X106255800Y-94084800D01*
G75*
G02*
X106455800Y-93884800I200000J0D01*
G01*
G37*
%TD.AperFunction*%
%TD*%
D17*
%TO.P,JP2,2*%
%TO.N,GND1*%
X95681800Y-121208800D03*
D18*
%TO.P,JP2,1*%
%TO.N,/Ctrl_part/SWCLK*%
X94411800Y-121208800D03*
%TD*%
%TO.P,U14,1*%
%TO.N,Net-(R89-Pad2)*%
%TA.AperFunction,SMDPad,CuDef*%
G36*
G01*
X79385300Y-128786300D02*
X79085300Y-128786300D01*
G75*
G02*
X78935300Y-128636300I0J150000D01*
G01*
X78935300Y-126986300D01*
G75*
G02*
X79085300Y-126836300I150000J0D01*
G01*
X79385300Y-126836300D01*
G75*
G02*
X79535300Y-126986300I0J-150000D01*
G01*
X79535300Y-128636300D01*
G75*
G02*
X79385300Y-128786300I-150000J0D01*
G01*
G37*
%TD.AperFunction*%
%TO.P,U14,2*%
%TO.N,Net-(R90-Pad2)*%
%TA.AperFunction,SMDPad,CuDef*%
G36*
G01*
X80655300Y-128786300D02*
X80355300Y-128786300D01*
G75*
G02*
X80205300Y-128636300I0J150000D01*
G01*
X80205300Y-126986300D01*
G75*
G02*
X80355300Y-126836300I150000J0D01*
G01*
X80655300Y-126836300D01*
G75*
G02*
X80805300Y-126986300I0J-150000D01*
G01*
X80805300Y-128636300D01*
G75*
G02*
X80655300Y-128786300I-150000J0D01*
G01*
G37*
%TD.AperFunction*%
%TO.P,U14,3*%
%TO.N,Net-(R95-Pad1)*%
%TA.AperFunction,SMDPad,CuDef*%
G36*
G01*
X81925300Y-128786300D02*
X81625300Y-128786300D01*
G75*
G02*
X81475300Y-128636300I0J150000D01*
G01*
X81475300Y-126986300D01*
G75*
G02*
X81625300Y-126836300I150000J0D01*
G01*
X81925300Y-126836300D01*
G75*
G02*
X82075300Y-126986300I0J-150000D01*
G01*
X82075300Y-128636300D01*
G75*
G02*
X81925300Y-128786300I-150000J0D01*
G01*
G37*
%TD.AperFunction*%
%TO.P,U14,4*%
%TO.N,GND1*%
%TA.AperFunction,SMDPad,CuDef*%
G36*
G01*
X83195300Y-128786300D02*
X82895300Y-128786300D01*
G75*
G02*
X82745300Y-128636300I0J150000D01*
G01*
X82745300Y-126986300D01*
G75*
G02*
X82895300Y-126836300I150000J0D01*
G01*
X83195300Y-126836300D01*
G75*
G02*
X83345300Y-126986300I0J-150000D01*
G01*
X83345300Y-128636300D01*
G75*
G02*
X83195300Y-128786300I-150000J0D01*
G01*
G37*
%TD.AperFunction*%
%TO.P,U14,5*%
%TO.N,/I2C_SDA*%
%TA.AperFunction,SMDPad,CuDef*%
G36*
G01*
X83195300Y-123836300D02*
X82895300Y-123836300D01*
G75*
G02*
X82745300Y-123686300I0J150000D01*
G01*
X82745300Y-122036300D01*
G75*
G02*
X82895300Y-121886300I150000J0D01*
G01*
X83195300Y-121886300D01*
G75*
G02*
X83345300Y-122036300I0J-150000D01*
G01*
X83345300Y-123686300D01*
G75*
G02*
X83195300Y-123836300I-150000J0D01*
G01*
G37*
%TD.AperFunction*%
%TO.P,U14,6*%
%TO.N,/I2C_SCL*%
%TA.AperFunction,SMDPad,CuDef*%
G36*
G01*
X81925300Y-123836300D02*
X81625300Y-123836300D01*
G75*
G02*
X81475300Y-123686300I0J150000D01*
G01*
X81475300Y-122036300D01*
G75*
G02*
X81625300Y-121886300I150000J0D01*
G01*
X81925300Y-121886300D01*
G75*
G02*
X82075300Y-122036300I0J-150000D01*
G01*
X82075300Y-123686300D01*
G75*
G02*
X81925300Y-123836300I-150000J0D01*
G01*
G37*
%TD.AperFunction*%
%TO.P,U14,7*%
%TO.N,GND1*%
%TA.AperFunction,SMDPad,CuDef*%
G36*
G01*
X80655300Y-123836300D02*
X80355300Y-123836300D01*
G75*
G02*
X80205300Y-123686300I0J150000D01*
G01*
X80205300Y-122036300D01*
G75*
G02*
X80355300Y-121886300I150000J0D01*
G01*
X80655300Y-121886300D01*
G75*
G02*
X80805300Y-122036300I0J-150000D01*
G01*
X80805300Y-123686300D01*
G75*
G02*
X80655300Y-123836300I-150000J0D01*
G01*
G37*
%TD.AperFunction*%
%TO.P,U14,8*%
%TO.N,+3V3*%
%TA.AperFunction,SMDPad,CuDef*%
G36*
G01*
X79385300Y-123836300D02*
X79085300Y-123836300D01*
G75*
G02*
X78935300Y-123686300I0J150000D01*
G01*
X78935300Y-122036300D01*
G75*
G02*
X79085300Y-121886300I150000J0D01*
G01*
X79385300Y-121886300D01*
G75*
G02*
X79535300Y-122036300I0J-150000D01*
G01*
X79535300Y-123686300D01*
G75*
G02*
X79385300Y-123836300I-150000J0D01*
G01*
G37*
%TD.AperFunction*%
%TD*%
%TO.P,C39,1*%
%TO.N,+3V3*%
%TA.AperFunction,SMDPad,CuDef*%
G36*
G01*
X78645300Y-121014300D02*
X78645300Y-120514300D01*
G75*
G02*
X78870300Y-120289300I225000J0D01*
G01*
X79320300Y-120289300D01*
G75*
G02*
X79545300Y-120514300I0J-225000D01*
G01*
X79545300Y-121014300D01*
G75*
G02*
X79320300Y-121239300I-225000J0D01*
G01*
X78870300Y-121239300D01*
G75*
G02*
X78645300Y-121014300I0J225000D01*
G01*
G37*
%TD.AperFunction*%
%TO.P,C39,2*%
%TO.N,GND1*%
%TA.AperFunction,SMDPad,CuDef*%
G36*
G01*
X80195300Y-121014300D02*
X80195300Y-120514300D01*
G75*
G02*
X80420300Y-120289300I225000J0D01*
G01*
X80870300Y-120289300D01*
G75*
G02*
X81095300Y-120514300I0J-225000D01*
G01*
X81095300Y-121014300D01*
G75*
G02*
X80870300Y-121239300I-225000J0D01*
G01*
X80420300Y-121239300D01*
G75*
G02*
X80195300Y-121014300I0J225000D01*
G01*
G37*
%TD.AperFunction*%
%TD*%
%TO.P,U15,8*%
%TO.N,+3V3*%
%TA.AperFunction,SMDPad,CuDef*%
G36*
G01*
X73478300Y-123089300D02*
X73278300Y-123089300D01*
G75*
G02*
X73178300Y-122989300I0J100000D01*
G01*
X73178300Y-121714300D01*
G75*
G02*
X73278300Y-121614300I100000J0D01*
G01*
X73478300Y-121614300D01*
G75*
G02*
X73578300Y-121714300I0J-100000D01*
G01*
X73578300Y-122989300D01*
G75*
G02*
X73478300Y-123089300I-100000J0D01*
G01*
G37*
%TD.AperFunction*%
%TO.P,U15,7*%
%TO.N,GND1*%
%TA.AperFunction,SMDPad,CuDef*%
G36*
G01*
X74128300Y-123089300D02*
X73928300Y-123089300D01*
G75*
G02*
X73828300Y-122989300I0J100000D01*
G01*
X73828300Y-121714300D01*
G75*
G02*
X73928300Y-121614300I100000J0D01*
G01*
X74128300Y-121614300D01*
G75*
G02*
X74228300Y-121714300I0J-100000D01*
G01*
X74228300Y-122989300D01*
G75*
G02*
X74128300Y-123089300I-100000J0D01*
G01*
G37*
%TD.AperFunction*%
%TO.P,U15,6*%
%TO.N,/I2C_SCL*%
%TA.AperFunction,SMDPad,CuDef*%
G36*
G01*
X74778300Y-123089300D02*
X74578300Y-123089300D01*
G75*
G02*
X74478300Y-122989300I0J100000D01*
G01*
X74478300Y-121714300D01*
G75*
G02*
X74578300Y-121614300I100000J0D01*
G01*
X74778300Y-121614300D01*
G75*
G02*
X74878300Y-121714300I0J-100000D01*
G01*
X74878300Y-122989300D01*
G75*
G02*
X74778300Y-123089300I-100000J0D01*
G01*
G37*
%TD.AperFunction*%
%TO.P,U15,5*%
%TO.N,/I2C_SDA*%
%TA.AperFunction,SMDPad,CuDef*%
G36*
G01*
X75428300Y-123089300D02*
X75228300Y-123089300D01*
G75*
G02*
X75128300Y-122989300I0J100000D01*
G01*
X75128300Y-121714300D01*
G75*
G02*
X75228300Y-121614300I100000J0D01*
G01*
X75428300Y-121614300D01*
G75*
G02*
X75528300Y-121714300I0J-100000D01*
G01*
X75528300Y-122989300D01*
G75*
G02*
X75428300Y-123089300I-100000J0D01*
G01*
G37*
%TD.AperFunction*%
%TO.P,U15,4*%
%TO.N,GND1*%
%TA.AperFunction,SMDPad,CuDef*%
G36*
G01*
X75428300Y-128814300D02*
X75228300Y-128814300D01*
G75*
G02*
X75128300Y-128714300I0J100000D01*
G01*
X75128300Y-127439300D01*
G75*
G02*
X75228300Y-127339300I100000J0D01*
G01*
X75428300Y-127339300D01*
G75*
G02*
X75528300Y-127439300I0J-100000D01*
G01*
X75528300Y-128714300D01*
G75*
G02*
X75428300Y-128814300I-100000J0D01*
G01*
G37*
%TD.AperFunction*%
%TO.P,U15,3*%
%TO.N,/ESP32_part/a2*%
%TA.AperFunction,SMDPad,CuDef*%
G36*
G01*
X74778300Y-128814300D02*
X74578300Y-128814300D01*
G75*
G02*
X74478300Y-128714300I0J100000D01*
G01*
X74478300Y-127439300D01*
G75*
G02*
X74578300Y-127339300I100000J0D01*
G01*
X74778300Y-127339300D01*
G75*
G02*
X74878300Y-127439300I0J-100000D01*
G01*
X74878300Y-128714300D01*
G75*
G02*
X74778300Y-128814300I-100000J0D01*
G01*
G37*
%TD.AperFunction*%
%TO.P,U15,2*%
%TO.N,/ESP32_part/a1*%
%TA.AperFunction,SMDPad,CuDef*%
G36*
G01*
X74128300Y-128814300D02*
X73928300Y-128814300D01*
G75*
G02*
X73828300Y-128714300I0J100000D01*
G01*
X73828300Y-127439300D01*
G75*
G02*
X73928300Y-127339300I100000J0D01*
G01*
X74128300Y-127339300D01*
G75*
G02*
X74228300Y-127439300I0J-100000D01*
G01*
X74228300Y-128714300D01*
G75*
G02*
X74128300Y-128814300I-100000J0D01*
G01*
G37*
%TD.AperFunction*%
%TO.P,U15,1*%
%TO.N,/ESP32_part/a0*%
%TA.AperFunction,SMDPad,CuDef*%
G36*
G01*
X73478300Y-128814300D02*
X73278300Y-128814300D01*
G75*
G02*
X73178300Y-128714300I0J100000D01*
G01*
X73178300Y-127439300D01*
G75*
G02*
X73278300Y-127339300I100000J0D01*
G01*
X73478300Y-127339300D01*
G75*
G02*
X73578300Y-127439300I0J-100000D01*
G01*
X73578300Y-128714300D01*
G75*
G02*
X73478300Y-128814300I-100000J0D01*
G01*
G37*
%TD.AperFunction*%
%TD*%
%TO.P,C40,2*%
%TO.N,GND1*%
%TA.AperFunction,SMDPad,CuDef*%
G36*
G01*
X73514800Y-118283800D02*
X73514800Y-117783800D01*
G75*
G02*
X73739800Y-117558800I225000J0D01*
G01*
X74189800Y-117558800D01*
G75*
G02*
X74414800Y-117783800I0J-225000D01*
G01*
X74414800Y-118283800D01*
G75*
G02*
X74189800Y-118508800I-225000J0D01*
G01*
X73739800Y-118508800D01*
G75*
G02*
X73514800Y-118283800I0J225000D01*
G01*
G37*
%TD.AperFunction*%
%TO.P,C40,1*%
%TO.N,+3V3*%
%TA.AperFunction,SMDPad,CuDef*%
G36*
G01*
X71964800Y-118283800D02*
X71964800Y-117783800D01*
G75*
G02*
X72189800Y-117558800I225000J0D01*
G01*
X72639800Y-117558800D01*
G75*
G02*
X72864800Y-117783800I0J-225000D01*
G01*
X72864800Y-118283800D01*
G75*
G02*
X72639800Y-118508800I-225000J0D01*
G01*
X72189800Y-118508800D01*
G75*
G02*
X71964800Y-118283800I0J225000D01*
G01*
G37*
%TD.AperFunction*%
%TD*%
%TO.P,U16,8*%
%TO.N,+3V3*%
%TA.AperFunction,SMDPad,CuDef*%
G36*
G01*
X72590800Y-121105800D02*
X72290800Y-121105800D01*
G75*
G02*
X72140800Y-120955800I0J150000D01*
G01*
X72140800Y-119305800D01*
G75*
G02*
X72290800Y-119155800I150000J0D01*
G01*
X72590800Y-119155800D01*
G75*
G02*
X72740800Y-119305800I0J-150000D01*
G01*
X72740800Y-120955800D01*
G75*
G02*
X72590800Y-121105800I-150000J0D01*
G01*
G37*
%TD.AperFunction*%
%TO.P,U16,7*%
%TO.N,GND1*%
%TA.AperFunction,SMDPad,CuDef*%
G36*
G01*
X73860800Y-121105800D02*
X73560800Y-121105800D01*
G75*
G02*
X73410800Y-120955800I0J150000D01*
G01*
X73410800Y-119305800D01*
G75*
G02*
X73560800Y-119155800I150000J0D01*
G01*
X73860800Y-119155800D01*
G75*
G02*
X74010800Y-119305800I0J-150000D01*
G01*
X74010800Y-120955800D01*
G75*
G02*
X73860800Y-121105800I-150000J0D01*
G01*
G37*
%TD.AperFunction*%
%TO.P,U16,6*%
%TO.N,/I2C_SCL*%
%TA.AperFunction,SMDPad,CuDef*%
G36*
G01*
X75130800Y-121105800D02*
X74830800Y-121105800D01*
G75*
G02*
X74680800Y-120955800I0J150000D01*
G01*
X74680800Y-119305800D01*
G75*
G02*
X74830800Y-119155800I150000J0D01*
G01*
X75130800Y-119155800D01*
G75*
G02*
X75280800Y-119305800I0J-150000D01*
G01*
X75280800Y-120955800D01*
G75*
G02*
X75130800Y-121105800I-150000J0D01*
G01*
G37*
%TD.AperFunction*%
%TO.P,U16,5*%
%TO.N,/I2C_SDA*%
%TA.AperFunction,SMDPad,CuDef*%
G36*
G01*
X76400800Y-121105800D02*
X76100800Y-121105800D01*
G75*
G02*
X75950800Y-120955800I0J150000D01*
G01*
X75950800Y-119305800D01*
G75*
G02*
X76100800Y-119155800I150000J0D01*
G01*
X76400800Y-119155800D01*
G75*
G02*
X76550800Y-119305800I0J-150000D01*
G01*
X76550800Y-120955800D01*
G75*
G02*
X76400800Y-121105800I-150000J0D01*
G01*
G37*
%TD.AperFunction*%
%TO.P,U16,4*%
%TO.N,GND1*%
%TA.AperFunction,SMDPad,CuDef*%
G36*
G01*
X76400800Y-126055800D02*
X76100800Y-126055800D01*
G75*
G02*
X75950800Y-125905800I0J150000D01*
G01*
X75950800Y-124255800D01*
G75*
G02*
X76100800Y-124105800I150000J0D01*
G01*
X76400800Y-124105800D01*
G75*
G02*
X76550800Y-124255800I0J-150000D01*
G01*
X76550800Y-125905800D01*
G75*
G02*
X76400800Y-126055800I-150000J0D01*
G01*
G37*
%TD.AperFunction*%
%TO.P,U16,3*%
%TO.N,/ESP32_part/a2*%
%TA.AperFunction,SMDPad,CuDef*%
G36*
G01*
X75130800Y-126055800D02*
X74830800Y-126055800D01*
G75*
G02*
X74680800Y-125905800I0J150000D01*
G01*
X74680800Y-124255800D01*
G75*
G02*
X74830800Y-124105800I150000J0D01*
G01*
X75130800Y-124105800D01*
G75*
G02*
X75280800Y-124255800I0J-150000D01*
G01*
X75280800Y-125905800D01*
G75*
G02*
X75130800Y-126055800I-150000J0D01*
G01*
G37*
%TD.AperFunction*%
%TO.P,U16,2*%
%TO.N,/ESP32_part/a1*%
%TA.AperFunction,SMDPad,CuDef*%
G36*
G01*
X73860800Y-126055800D02*
X73560800Y-126055800D01*
G75*
G02*
X73410800Y-125905800I0J150000D01*
G01*
X73410800Y-124255800D01*
G75*
G02*
X73560800Y-124105800I150000J0D01*
G01*
X73860800Y-124105800D01*
G75*
G02*
X74010800Y-124255800I0J-150000D01*
G01*
X74010800Y-125905800D01*
G75*
G02*
X73860800Y-126055800I-150000J0D01*
G01*
G37*
%TD.AperFunction*%
%TO.P,U16,1*%
%TO.N,/ESP32_part/a0*%
%TA.AperFunction,SMDPad,CuDef*%
G36*
G01*
X72590800Y-126055800D02*
X72290800Y-126055800D01*
G75*
G02*
X72140800Y-125905800I0J150000D01*
G01*
X72140800Y-124255800D01*
G75*
G02*
X72290800Y-124105800I150000J0D01*
G01*
X72590800Y-124105800D01*
G75*
G02*
X72740800Y-124255800I0J-150000D01*
G01*
X72740800Y-125905800D01*
G75*
G02*
X72590800Y-126055800I-150000J0D01*
G01*
G37*
%TD.AperFunction*%
%TD*%
%TO.P,R38,2*%
%TO.N,Net-(R38-Pad2)*%
%TA.AperFunction,SMDPad,CuDef*%
G36*
G01*
X101060300Y-117102300D02*
X101060300Y-116552300D01*
G75*
G02*
X101260300Y-116352300I200000J0D01*
G01*
X101660300Y-116352300D01*
G75*
G02*
X101860300Y-116552300I0J-200000D01*
G01*
X101860300Y-117102300D01*
G75*
G02*
X101660300Y-117302300I-200000J0D01*
G01*
X101260300Y-117302300D01*
G75*
G02*
X101060300Y-117102300I0J200000D01*
G01*
G37*
%TD.AperFunction*%
%TO.P,R38,1*%
%TO.N,Net-(C17-Pad1)*%
%TA.AperFunction,SMDPad,CuDef*%
G36*
G01*
X99410300Y-117102300D02*
X99410300Y-116552300D01*
G75*
G02*
X99610300Y-116352300I200000J0D01*
G01*
X100010300Y-116352300D01*
G75*
G02*
X100210300Y-116552300I0J-200000D01*
G01*
X100210300Y-117102300D01*
G75*
G02*
X100010300Y-117302300I-200000J0D01*
G01*
X99610300Y-117302300D01*
G75*
G02*
X99410300Y-117102300I0J200000D01*
G01*
G37*
%TD.AperFunction*%
%TD*%
%TO.P,C17,2*%
%TO.N,GND1*%
%TA.AperFunction,SMDPad,CuDef*%
G36*
G01*
X99051300Y-123515300D02*
X99551300Y-123515300D01*
G75*
G02*
X99776300Y-123740300I0J-225000D01*
G01*
X99776300Y-124190300D01*
G75*
G02*
X99551300Y-124415300I-225000J0D01*
G01*
X99051300Y-124415300D01*
G75*
G02*
X98826300Y-124190300I0J225000D01*
G01*
X98826300Y-123740300D01*
G75*
G02*
X99051300Y-123515300I225000J0D01*
G01*
G37*
%TD.AperFunction*%
%TO.P,C17,1*%
%TO.N,Net-(C17-Pad1)*%
%TA.AperFunction,SMDPad,CuDef*%
G36*
G01*
X99051300Y-121965300D02*
X99551300Y-121965300D01*
G75*
G02*
X99776300Y-122190300I0J-225000D01*
G01*
X99776300Y-122640300D01*
G75*
G02*
X99551300Y-122865300I-225000J0D01*
G01*
X99051300Y-122865300D01*
G75*
G02*
X98826300Y-122640300I0J225000D01*
G01*
X98826300Y-122190300D01*
G75*
G02*
X99051300Y-121965300I225000J0D01*
G01*
G37*
%TD.AperFunction*%
%TD*%
D19*
%TO.P,Y2,3*%
%TO.N,Net-(C17-Pad1)*%
X99117300Y-119748300D03*
%TO.P,Y2,2*%
%TO.N,GND1*%
X100317300Y-119748300D03*
%TO.P,Y2,1*%
%TO.N,Net-(C16-Pad1)*%
X101517300Y-119748300D03*
%TD*%
%TO.P,C16,2*%
%TO.N,GND1*%
%TA.AperFunction,SMDPad,CuDef*%
G36*
G01*
X101083300Y-123515300D02*
X101583300Y-123515300D01*
G75*
G02*
X101808300Y-123740300I0J-225000D01*
G01*
X101808300Y-124190300D01*
G75*
G02*
X101583300Y-124415300I-225000J0D01*
G01*
X101083300Y-124415300D01*
G75*
G02*
X100858300Y-124190300I0J225000D01*
G01*
X100858300Y-123740300D01*
G75*
G02*
X101083300Y-123515300I225000J0D01*
G01*
G37*
%TD.AperFunction*%
%TO.P,C16,1*%
%TO.N,Net-(C16-Pad1)*%
%TA.AperFunction,SMDPad,CuDef*%
G36*
G01*
X101083300Y-121965300D02*
X101583300Y-121965300D01*
G75*
G02*
X101808300Y-122190300I0J-225000D01*
G01*
X101808300Y-122640300D01*
G75*
G02*
X101583300Y-122865300I-225000J0D01*
G01*
X101083300Y-122865300D01*
G75*
G02*
X100858300Y-122640300I0J225000D01*
G01*
X100858300Y-122190300D01*
G75*
G02*
X101083300Y-121965300I225000J0D01*
G01*
G37*
%TD.AperFunction*%
%TD*%
D20*
%TO.P,TP1,1*%
%TO.N,GND1*%
X123367800Y-77139800D03*
%TD*%
D21*
%TO.P,J9,4*%
%TO.N,/Ctrl_part/SWDIO*%
X90030300Y-120938300D03*
%TO.P,J9,2*%
%TO.N,/Ctrl_part/SWCLK*%
X87490300Y-120938300D03*
%TO.P,J9,5*%
%TO.N,/Ctrl_part/~RST*%
X91300300Y-123638300D03*
%TO.P,J9,3*%
%TO.N,GND1*%
X88760300Y-123638300D03*
%TO.P,J9,1*%
%TO.N,+3V3*%
X86220300Y-123638300D03*
%TD*%
D22*
%TO.P,SW1,2*%
%TO.N,/Ctrl_part/~RST*%
X72355800Y-111598300D03*
X72355800Y-115198300D03*
%TO.P,SW1,1*%
%TO.N,GND1*%
X73795800Y-111598300D03*
X73795800Y-115198300D03*
%TD*%
%TO.P,R84,2*%
%TO.N,GND1*%
%TA.AperFunction,SMDPad,CuDef*%
G36*
G01*
X126308800Y-109503800D02*
X126308800Y-110053800D01*
G75*
G02*
X126108800Y-110253800I-200000J0D01*
G01*
X125708800Y-110253800D01*
G75*
G02*
X125508800Y-110053800I0J200000D01*
G01*
X125508800Y-109503800D01*
G75*
G02*
X125708800Y-109303800I200000J0D01*
G01*
X126108800Y-109303800D01*
G75*
G02*
X126308800Y-109503800I0J-200000D01*
G01*
G37*
%TD.AperFunction*%
%TO.P,R84,1*%
%TO.N,Net-(Q22-Pad1)*%
%TA.AperFunction,SMDPad,CuDef*%
G36*
G01*
X127958800Y-109503800D02*
X127958800Y-110053800D01*
G75*
G02*
X127758800Y-110253800I-200000J0D01*
G01*
X127358800Y-110253800D01*
G75*
G02*
X127158800Y-110053800I0J200000D01*
G01*
X127158800Y-109503800D01*
G75*
G02*
X127358800Y-109303800I200000J0D01*
G01*
X127758800Y-109303800D01*
G75*
G02*
X127958800Y-109503800I0J-200000D01*
G01*
G37*
%TD.AperFunction*%
%TD*%
%TO.P,R83,2*%
%TO.N,Net-(Q22-Pad1)*%
%TA.AperFunction,SMDPad,CuDef*%
G36*
G01*
X127157800Y-107386800D02*
X127157800Y-106836800D01*
G75*
G02*
X127357800Y-106636800I200000J0D01*
G01*
X127757800Y-106636800D01*
G75*
G02*
X127957800Y-106836800I0J-200000D01*
G01*
X127957800Y-107386800D01*
G75*
G02*
X127757800Y-107586800I-200000J0D01*
G01*
X127357800Y-107586800D01*
G75*
G02*
X127157800Y-107386800I0J200000D01*
G01*
G37*
%TD.AperFunction*%
%TO.P,R83,1*%
%TO.N,/~ESP_RST*%
%TA.AperFunction,SMDPad,CuDef*%
G36*
G01*
X125507800Y-107386800D02*
X125507800Y-106836800D01*
G75*
G02*
X125707800Y-106636800I200000J0D01*
G01*
X126107800Y-106636800D01*
G75*
G02*
X126307800Y-106836800I0J-200000D01*
G01*
X126307800Y-107386800D01*
G75*
G02*
X126107800Y-107586800I-200000J0D01*
G01*
X125707800Y-107586800D01*
G75*
G02*
X125507800Y-107386800I0J200000D01*
G01*
G37*
%TD.AperFunction*%
%TD*%
%TO.P,R65,2*%
%TO.N,/Ctrl_part/ADC2*%
%TA.AperFunction,SMDPad,CuDef*%
G36*
G01*
X122244800Y-100804300D02*
X122244800Y-101354300D01*
G75*
G02*
X122044800Y-101554300I-200000J0D01*
G01*
X121644800Y-101554300D01*
G75*
G02*
X121444800Y-101354300I0J200000D01*
G01*
X121444800Y-100804300D01*
G75*
G02*
X121644800Y-100604300I200000J0D01*
G01*
X122044800Y-100604300D01*
G75*
G02*
X122244800Y-100804300I0J-200000D01*
G01*
G37*
%TD.AperFunction*%
%TO.P,R65,1*%
%TO.N,GND1*%
%TA.AperFunction,SMDPad,CuDef*%
G36*
G01*
X123894800Y-100804300D02*
X123894800Y-101354300D01*
G75*
G02*
X123694800Y-101554300I-200000J0D01*
G01*
X123294800Y-101554300D01*
G75*
G02*
X123094800Y-101354300I0J200000D01*
G01*
X123094800Y-100804300D01*
G75*
G02*
X123294800Y-100604300I200000J0D01*
G01*
X123694800Y-100604300D01*
G75*
G02*
X123894800Y-100804300I0J-200000D01*
G01*
G37*
%TD.AperFunction*%
%TD*%
%TO.P,R64,2*%
%TO.N,/ADC2*%
%TA.AperFunction,SMDPad,CuDef*%
G36*
G01*
X119703800Y-102645800D02*
X119703800Y-103195800D01*
G75*
G02*
X119503800Y-103395800I-200000J0D01*
G01*
X119103800Y-103395800D01*
G75*
G02*
X118903800Y-103195800I0J200000D01*
G01*
X118903800Y-102645800D01*
G75*
G02*
X119103800Y-102445800I200000J0D01*
G01*
X119503800Y-102445800D01*
G75*
G02*
X119703800Y-102645800I0J-200000D01*
G01*
G37*
%TD.AperFunction*%
%TO.P,R64,1*%
%TO.N,/Ctrl_part/ADC2*%
%TA.AperFunction,SMDPad,CuDef*%
G36*
G01*
X121353800Y-102645800D02*
X121353800Y-103195800D01*
G75*
G02*
X121153800Y-103395800I-200000J0D01*
G01*
X120753800Y-103395800D01*
G75*
G02*
X120553800Y-103195800I0J200000D01*
G01*
X120553800Y-102645800D01*
G75*
G02*
X120753800Y-102445800I200000J0D01*
G01*
X121153800Y-102445800D01*
G75*
G02*
X121353800Y-102645800I0J-200000D01*
G01*
G37*
%TD.AperFunction*%
%TD*%
%TO.P,R63,2*%
%TO.N,/Ctrl_part/ADC1*%
%TA.AperFunction,SMDPad,CuDef*%
G36*
G01*
X116530800Y-102939800D02*
X115980800Y-102939800D01*
G75*
G02*
X115780800Y-102739800I0J200000D01*
G01*
X115780800Y-102339800D01*
G75*
G02*
X115980800Y-102139800I200000J0D01*
G01*
X116530800Y-102139800D01*
G75*
G02*
X116730800Y-102339800I0J-200000D01*
G01*
X116730800Y-102739800D01*
G75*
G02*
X116530800Y-102939800I-200000J0D01*
G01*
G37*
%TD.AperFunction*%
%TO.P,R63,1*%
%TO.N,GND1*%
%TA.AperFunction,SMDPad,CuDef*%
G36*
G01*
X116530800Y-104589800D02*
X115980800Y-104589800D01*
G75*
G02*
X115780800Y-104389800I0J200000D01*
G01*
X115780800Y-103989800D01*
G75*
G02*
X115980800Y-103789800I200000J0D01*
G01*
X116530800Y-103789800D01*
G75*
G02*
X116730800Y-103989800I0J-200000D01*
G01*
X116730800Y-104389800D01*
G75*
G02*
X116530800Y-104589800I-200000J0D01*
G01*
G37*
%TD.AperFunction*%
%TD*%
%TO.P,R62,2*%
%TO.N,/ADC1*%
%TA.AperFunction,SMDPad,CuDef*%
G36*
G01*
X117443300Y-101290800D02*
X117443300Y-100740800D01*
G75*
G02*
X117643300Y-100540800I200000J0D01*
G01*
X118043300Y-100540800D01*
G75*
G02*
X118243300Y-100740800I0J-200000D01*
G01*
X118243300Y-101290800D01*
G75*
G02*
X118043300Y-101490800I-200000J0D01*
G01*
X117643300Y-101490800D01*
G75*
G02*
X117443300Y-101290800I0J200000D01*
G01*
G37*
%TD.AperFunction*%
%TO.P,R62,1*%
%TO.N,/Ctrl_part/ADC1*%
%TA.AperFunction,SMDPad,CuDef*%
G36*
G01*
X115793300Y-101290800D02*
X115793300Y-100740800D01*
G75*
G02*
X115993300Y-100540800I200000J0D01*
G01*
X116393300Y-100540800D01*
G75*
G02*
X116593300Y-100740800I0J-200000D01*
G01*
X116593300Y-101290800D01*
G75*
G02*
X116393300Y-101490800I-200000J0D01*
G01*
X115993300Y-101490800D01*
G75*
G02*
X115793300Y-101290800I0J200000D01*
G01*
G37*
%TD.AperFunction*%
%TD*%
%TO.P,R61,2*%
%TO.N,/Ctrl_part/ADC0*%
%TA.AperFunction,SMDPad,CuDef*%
G36*
G01*
X122243800Y-109186300D02*
X122243800Y-109736300D01*
G75*
G02*
X122043800Y-109936300I-200000J0D01*
G01*
X121643800Y-109936300D01*
G75*
G02*
X121443800Y-109736300I0J200000D01*
G01*
X121443800Y-109186300D01*
G75*
G02*
X121643800Y-108986300I200000J0D01*
G01*
X122043800Y-108986300D01*
G75*
G02*
X122243800Y-109186300I0J-200000D01*
G01*
G37*
%TD.AperFunction*%
%TO.P,R61,1*%
%TO.N,GND1*%
%TA.AperFunction,SMDPad,CuDef*%
G36*
G01*
X123893800Y-109186300D02*
X123893800Y-109736300D01*
G75*
G02*
X123693800Y-109936300I-200000J0D01*
G01*
X123293800Y-109936300D01*
G75*
G02*
X123093800Y-109736300I0J200000D01*
G01*
X123093800Y-109186300D01*
G75*
G02*
X123293800Y-108986300I200000J0D01*
G01*
X123693800Y-108986300D01*
G75*
G02*
X123893800Y-109186300I0J-200000D01*
G01*
G37*
%TD.AperFunction*%
%TD*%
%TO.P,R60,2*%
%TO.N,/ADC0*%
%TA.AperFunction,SMDPad,CuDef*%
G36*
G01*
X119703800Y-111027800D02*
X119703800Y-111577800D01*
G75*
G02*
X119503800Y-111777800I-200000J0D01*
G01*
X119103800Y-111777800D01*
G75*
G02*
X118903800Y-111577800I0J200000D01*
G01*
X118903800Y-111027800D01*
G75*
G02*
X119103800Y-110827800I200000J0D01*
G01*
X119503800Y-110827800D01*
G75*
G02*
X119703800Y-111027800I0J-200000D01*
G01*
G37*
%TD.AperFunction*%
%TO.P,R60,1*%
%TO.N,/Ctrl_part/ADC0*%
%TA.AperFunction,SMDPad,CuDef*%
G36*
G01*
X121353800Y-111027800D02*
X121353800Y-111577800D01*
G75*
G02*
X121153800Y-111777800I-200000J0D01*
G01*
X120753800Y-111777800D01*
G75*
G02*
X120553800Y-111577800I0J200000D01*
G01*
X120553800Y-111027800D01*
G75*
G02*
X120753800Y-110827800I200000J0D01*
G01*
X121153800Y-110827800D01*
G75*
G02*
X121353800Y-111027800I0J-200000D01*
G01*
G37*
%TD.AperFunction*%
%TD*%
D16*
%TO.P,Q22,3*%
%TO.N,/ESP32_part/~RST*%
X127939800Y-112384800D03*
%TO.P,Q22,2*%
%TO.N,GND1*%
X125939800Y-113334800D03*
%TO.P,Q22,1*%
%TO.N,Net-(Q22-Pad1)*%
X125939800Y-111434800D03*
%TD*%
%TO.P,R28,2*%
%TO.N,+5VD*%
%TA.AperFunction,SMDPad,CuDef*%
G36*
G01*
X80295800Y-115514800D02*
X80295800Y-114964800D01*
G75*
G02*
X80495800Y-114764800I200000J0D01*
G01*
X80895800Y-114764800D01*
G75*
G02*
X81095800Y-114964800I0J-200000D01*
G01*
X81095800Y-115514800D01*
G75*
G02*
X80895800Y-115714800I-200000J0D01*
G01*
X80495800Y-115714800D01*
G75*
G02*
X80295800Y-115514800I0J200000D01*
G01*
G37*
%TD.AperFunction*%
%TO.P,R28,1*%
%TO.N,Net-(J7-Pad3)*%
%TA.AperFunction,SMDPad,CuDef*%
G36*
G01*
X78645800Y-115514800D02*
X78645800Y-114964800D01*
G75*
G02*
X78845800Y-114764800I200000J0D01*
G01*
X79245800Y-114764800D01*
G75*
G02*
X79445800Y-114964800I0J-200000D01*
G01*
X79445800Y-115514800D01*
G75*
G02*
X79245800Y-115714800I-200000J0D01*
G01*
X78845800Y-115714800D01*
G75*
G02*
X78645800Y-115514800I0J200000D01*
G01*
G37*
%TD.AperFunction*%
%TD*%
%TO.P,R29,2*%
%TO.N,+5VD*%
%TA.AperFunction,SMDPad,CuDef*%
G36*
G01*
X80295800Y-109418800D02*
X80295800Y-108868800D01*
G75*
G02*
X80495800Y-108668800I200000J0D01*
G01*
X80895800Y-108668800D01*
G75*
G02*
X81095800Y-108868800I0J-200000D01*
G01*
X81095800Y-109418800D01*
G75*
G02*
X80895800Y-109618800I-200000J0D01*
G01*
X80495800Y-109618800D01*
G75*
G02*
X80295800Y-109418800I0J200000D01*
G01*
G37*
%TD.AperFunction*%
%TO.P,R29,1*%
%TO.N,Net-(J8-Pad3)*%
%TA.AperFunction,SMDPad,CuDef*%
G36*
G01*
X78645800Y-109418800D02*
X78645800Y-108868800D01*
G75*
G02*
X78845800Y-108668800I200000J0D01*
G01*
X79245800Y-108668800D01*
G75*
G02*
X79445800Y-108868800I0J-200000D01*
G01*
X79445800Y-109418800D01*
G75*
G02*
X79245800Y-109618800I-200000J0D01*
G01*
X78845800Y-109618800D01*
G75*
G02*
X78645800Y-109418800I0J200000D01*
G01*
G37*
%TD.AperFunction*%
%TD*%
%TO.P,R27,2*%
%TO.N,+5VD*%
%TA.AperFunction,SMDPad,CuDef*%
G36*
G01*
X80294800Y-140152800D02*
X80294800Y-139602800D01*
G75*
G02*
X80494800Y-139402800I200000J0D01*
G01*
X80894800Y-139402800D01*
G75*
G02*
X81094800Y-139602800I0J-200000D01*
G01*
X81094800Y-140152800D01*
G75*
G02*
X80894800Y-140352800I-200000J0D01*
G01*
X80494800Y-140352800D01*
G75*
G02*
X80294800Y-140152800I0J200000D01*
G01*
G37*
%TD.AperFunction*%
%TO.P,R27,1*%
%TO.N,Net-(J6-Pad3)*%
%TA.AperFunction,SMDPad,CuDef*%
G36*
G01*
X78644800Y-140152800D02*
X78644800Y-139602800D01*
G75*
G02*
X78844800Y-139402800I200000J0D01*
G01*
X79244800Y-139402800D01*
G75*
G02*
X79444800Y-139602800I0J-200000D01*
G01*
X79444800Y-140152800D01*
G75*
G02*
X79244800Y-140352800I-200000J0D01*
G01*
X78844800Y-140352800D01*
G75*
G02*
X78644800Y-140152800I0J200000D01*
G01*
G37*
%TD.AperFunction*%
%TD*%
D15*
%TO.P,Q11,3*%
%TO.N,Net-(Q11-Pad3)*%
X82854800Y-119033800D03*
%TO.P,Q11,2*%
%TO.N,Net-(J7-Pad3)*%
X81904800Y-117033800D03*
%TO.P,Q11,1*%
%TO.N,+5VD*%
X83804800Y-117033800D03*
%TD*%
D16*
%TO.P,Q12,3*%
%TO.N,Net-(Q12-Pad3)*%
X83838800Y-112125800D03*
%TO.P,Q12,2*%
%TO.N,Net-(J8-Pad3)*%
X81838800Y-113075800D03*
%TO.P,Q12,1*%
%TO.N,+5VD*%
X81838800Y-111175800D03*
%TD*%
%TO.P,Q10,3*%
%TO.N,Net-(Q10-Pad3)*%
X85632800Y-140639800D03*
%TO.P,Q10,2*%
%TO.N,Net-(J6-Pad3)*%
X83632800Y-141589800D03*
%TO.P,Q10,1*%
%TO.N,+5VD*%
X83632800Y-139689800D03*
%TD*%
%TO.P,R42,2*%
%TO.N,Net-(Q16-Pad1)*%
%TA.AperFunction,SMDPad,CuDef*%
G36*
G01*
X112593800Y-122498800D02*
X112043800Y-122498800D01*
G75*
G02*
X111843800Y-122298800I0J200000D01*
G01*
X111843800Y-121898800D01*
G75*
G02*
X112043800Y-121698800I200000J0D01*
G01*
X112593800Y-121698800D01*
G75*
G02*
X112793800Y-121898800I0J-200000D01*
G01*
X112793800Y-122298800D01*
G75*
G02*
X112593800Y-122498800I-200000J0D01*
G01*
G37*
%TD.AperFunction*%
%TO.P,R42,1*%
%TO.N,/~CTRL_RST*%
%TA.AperFunction,SMDPad,CuDef*%
G36*
G01*
X112593800Y-124148800D02*
X112043800Y-124148800D01*
G75*
G02*
X111843800Y-123948800I0J200000D01*
G01*
X111843800Y-123548800D01*
G75*
G02*
X112043800Y-123348800I200000J0D01*
G01*
X112593800Y-123348800D01*
G75*
G02*
X112793800Y-123548800I0J-200000D01*
G01*
X112793800Y-123948800D01*
G75*
G02*
X112593800Y-124148800I-200000J0D01*
G01*
G37*
%TD.AperFunction*%
%TD*%
%TO.P,C23,2*%
%TO.N,GND1*%
%TA.AperFunction,SMDPad,CuDef*%
G36*
G01*
X104071300Y-116886800D02*
X104071300Y-116386800D01*
G75*
G02*
X104296300Y-116161800I225000J0D01*
G01*
X104746300Y-116161800D01*
G75*
G02*
X104971300Y-116386800I0J-225000D01*
G01*
X104971300Y-116886800D01*
G75*
G02*
X104746300Y-117111800I-225000J0D01*
G01*
X104296300Y-117111800D01*
G75*
G02*
X104071300Y-116886800I0J225000D01*
G01*
G37*
%TD.AperFunction*%
%TO.P,C23,1*%
%TO.N,+3V3*%
%TA.AperFunction,SMDPad,CuDef*%
G36*
G01*
X102521300Y-116886800D02*
X102521300Y-116386800D01*
G75*
G02*
X102746300Y-116161800I225000J0D01*
G01*
X103196300Y-116161800D01*
G75*
G02*
X103421300Y-116386800I0J-225000D01*
G01*
X103421300Y-116886800D01*
G75*
G02*
X103196300Y-117111800I-225000J0D01*
G01*
X102746300Y-117111800D01*
G75*
G02*
X102521300Y-116886800I0J225000D01*
G01*
G37*
%TD.AperFunction*%
%TD*%
%TO.P,C20,2*%
%TO.N,GND1*%
%TA.AperFunction,SMDPad,CuDef*%
G36*
G01*
X107119300Y-116886800D02*
X107119300Y-116386800D01*
G75*
G02*
X107344300Y-116161800I225000J0D01*
G01*
X107794300Y-116161800D01*
G75*
G02*
X108019300Y-116386800I0J-225000D01*
G01*
X108019300Y-116886800D01*
G75*
G02*
X107794300Y-117111800I-225000J0D01*
G01*
X107344300Y-117111800D01*
G75*
G02*
X107119300Y-116886800I0J225000D01*
G01*
G37*
%TD.AperFunction*%
%TO.P,C20,1*%
%TO.N,/Ctrl_part/~RST*%
%TA.AperFunction,SMDPad,CuDef*%
G36*
G01*
X105569300Y-116886800D02*
X105569300Y-116386800D01*
G75*
G02*
X105794300Y-116161800I225000J0D01*
G01*
X106244300Y-116161800D01*
G75*
G02*
X106469300Y-116386800I0J-225000D01*
G01*
X106469300Y-116886800D01*
G75*
G02*
X106244300Y-117111800I-225000J0D01*
G01*
X105794300Y-117111800D01*
G75*
G02*
X105569300Y-116886800I0J225000D01*
G01*
G37*
%TD.AperFunction*%
%TD*%
%TO.P,R36,2*%
%TO.N,Net-(D3-Pad5)*%
%TA.AperFunction,SMDPad,CuDef*%
G36*
G01*
X78936800Y-104423800D02*
X78936800Y-104973800D01*
G75*
G02*
X78736800Y-105173800I-200000J0D01*
G01*
X78336800Y-105173800D01*
G75*
G02*
X78136800Y-104973800I0J200000D01*
G01*
X78136800Y-104423800D01*
G75*
G02*
X78336800Y-104223800I200000J0D01*
G01*
X78736800Y-104223800D01*
G75*
G02*
X78936800Y-104423800I0J-200000D01*
G01*
G37*
%TD.AperFunction*%
%TO.P,R36,1*%
%TO.N,+5VD*%
%TA.AperFunction,SMDPad,CuDef*%
G36*
G01*
X80586800Y-104423800D02*
X80586800Y-104973800D01*
G75*
G02*
X80386800Y-105173800I-200000J0D01*
G01*
X79986800Y-105173800D01*
G75*
G02*
X79786800Y-104973800I0J200000D01*
G01*
X79786800Y-104423800D01*
G75*
G02*
X79986800Y-104223800I200000J0D01*
G01*
X80386800Y-104223800D01*
G75*
G02*
X80586800Y-104423800I0J-200000D01*
G01*
G37*
%TD.AperFunction*%
%TD*%
%TO.P,C14,2*%
%TO.N,+5VD*%
%TA.AperFunction,SMDPad,CuDef*%
G36*
G01*
X79937800Y-102724800D02*
X80437800Y-102724800D01*
G75*
G02*
X80662800Y-102949800I0J-225000D01*
G01*
X80662800Y-103399800D01*
G75*
G02*
X80437800Y-103624800I-225000J0D01*
G01*
X79937800Y-103624800D01*
G75*
G02*
X79712800Y-103399800I0J225000D01*
G01*
X79712800Y-102949800D01*
G75*
G02*
X79937800Y-102724800I225000J0D01*
G01*
G37*
%TD.AperFunction*%
%TO.P,C14,1*%
%TO.N,GND1*%
%TA.AperFunction,SMDPad,CuDef*%
G36*
G01*
X79937800Y-101174800D02*
X80437800Y-101174800D01*
G75*
G02*
X80662800Y-101399800I0J-225000D01*
G01*
X80662800Y-101849800D01*
G75*
G02*
X80437800Y-102074800I-225000J0D01*
G01*
X79937800Y-102074800D01*
G75*
G02*
X79712800Y-101849800I0J225000D01*
G01*
X79712800Y-101399800D01*
G75*
G02*
X79937800Y-101174800I225000J0D01*
G01*
G37*
%TD.AperFunction*%
%TD*%
%TO.P,C13,2*%
%TO.N,+5VD*%
%TA.AperFunction,SMDPad,CuDef*%
G36*
G01*
X78286800Y-102724800D02*
X78786800Y-102724800D01*
G75*
G02*
X79011800Y-102949800I0J-225000D01*
G01*
X79011800Y-103399800D01*
G75*
G02*
X78786800Y-103624800I-225000J0D01*
G01*
X78286800Y-103624800D01*
G75*
G02*
X78061800Y-103399800I0J225000D01*
G01*
X78061800Y-102949800D01*
G75*
G02*
X78286800Y-102724800I225000J0D01*
G01*
G37*
%TD.AperFunction*%
%TO.P,C13,1*%
%TO.N,GND1*%
%TA.AperFunction,SMDPad,CuDef*%
G36*
G01*
X78286800Y-101174800D02*
X78786800Y-101174800D01*
G75*
G02*
X79011800Y-101399800I0J-225000D01*
G01*
X79011800Y-101849800D01*
G75*
G02*
X78786800Y-102074800I-225000J0D01*
G01*
X78286800Y-102074800D01*
G75*
G02*
X78061800Y-101849800I0J225000D01*
G01*
X78061800Y-101399800D01*
G75*
G02*
X78286800Y-101174800I225000J0D01*
G01*
G37*
%TD.AperFunction*%
%TD*%
%TO.P,C11,2*%
%TO.N,+5P*%
%TA.AperFunction,SMDPad,CuDef*%
G36*
G01*
X75800800Y-102154800D02*
X75800800Y-101654800D01*
G75*
G02*
X76025800Y-101429800I225000J0D01*
G01*
X76475800Y-101429800D01*
G75*
G02*
X76700800Y-101654800I0J-225000D01*
G01*
X76700800Y-102154800D01*
G75*
G02*
X76475800Y-102379800I-225000J0D01*
G01*
X76025800Y-102379800D01*
G75*
G02*
X75800800Y-102154800I0J225000D01*
G01*
G37*
%TD.AperFunction*%
%TO.P,C11,1*%
%TO.N,GND1*%
%TA.AperFunction,SMDPad,CuDef*%
G36*
G01*
X74250800Y-102154800D02*
X74250800Y-101654800D01*
G75*
G02*
X74475800Y-101429800I225000J0D01*
G01*
X74925800Y-101429800D01*
G75*
G02*
X75150800Y-101654800I0J-225000D01*
G01*
X75150800Y-102154800D01*
G75*
G02*
X74925800Y-102379800I-225000J0D01*
G01*
X74475800Y-102379800D01*
G75*
G02*
X74250800Y-102154800I0J225000D01*
G01*
G37*
%TD.AperFunction*%
%TD*%
%TO.P,C9,2*%
%TO.N,+5P*%
%TA.AperFunction,SMDPad,CuDef*%
G36*
G01*
X75800800Y-100503800D02*
X75800800Y-100003800D01*
G75*
G02*
X76025800Y-99778800I225000J0D01*
G01*
X76475800Y-99778800D01*
G75*
G02*
X76700800Y-100003800I0J-225000D01*
G01*
X76700800Y-100503800D01*
G75*
G02*
X76475800Y-100728800I-225000J0D01*
G01*
X76025800Y-100728800D01*
G75*
G02*
X75800800Y-100503800I0J225000D01*
G01*
G37*
%TD.AperFunction*%
%TO.P,C9,1*%
%TO.N,GND1*%
%TA.AperFunction,SMDPad,CuDef*%
G36*
G01*
X74250800Y-100503800D02*
X74250800Y-100003800D01*
G75*
G02*
X74475800Y-99778800I225000J0D01*
G01*
X74925800Y-99778800D01*
G75*
G02*
X75150800Y-100003800I0J-225000D01*
G01*
X75150800Y-100503800D01*
G75*
G02*
X74925800Y-100728800I-225000J0D01*
G01*
X74475800Y-100728800D01*
G75*
G02*
X74250800Y-100503800I0J225000D01*
G01*
G37*
%TD.AperFunction*%
%TD*%
D23*
%TO.P,BT2,2*%
%TO.N,GND1*%
X95046800Y-140639800D03*
D24*
%TO.P,BT2,1*%
%TO.N,Net-(BT1-Pad1)*%
X95046800Y-125279800D03*
%TD*%
D25*
%TO.P,BT1,2*%
%TO.N,GND1*%
X95046800Y-141318800D03*
%TO.P,BT1,3*%
%TO.N,N/C*%
X90046800Y-137718800D03*
%TO.P,BT1,1*%
%TO.N,Net-(BT1-Pad1)*%
X100046800Y-137718800D03*
%TD*%
D26*
%TO.P,U6,1*%
%TO.N,GND1*%
X72211800Y-90206800D03*
%TO.P,U6,3*%
%TO.N,+5P*%
X72211800Y-94806800D03*
%TO.P,U6,2*%
%TO.N,Net-(C7-Pad2)*%
X72211800Y-92506800D03*
D27*
X78511800Y-92506800D03*
%TD*%
%TA.AperFunction,SMDPad,CuDef*%
D28*
%TO.P,JP1,1*%
%TO.N,Net-(C7-Pad2)*%
G36*
X81584800Y-93924800D02*
G01*
X80834800Y-93424800D01*
X80834800Y-92424800D01*
X82334800Y-92424800D01*
X82334800Y-93424800D01*
X81584800Y-93924800D01*
G37*
%TD.AperFunction*%
%TA.AperFunction,SMDPad,CuDef*%
%TO.P,JP1,2*%
%TO.N,+3V3*%
G36*
X80834800Y-94874800D02*
G01*
X80834800Y-93724800D01*
X81584800Y-94224800D01*
X82334800Y-93724800D01*
X82334800Y-94874800D01*
X80834800Y-94874800D01*
G37*
%TD.AperFunction*%
%TD*%
%TO.P,C8,2*%
%TO.N,Net-(C7-Pad2)*%
%TA.AperFunction,SMDPad,CuDef*%
G36*
G01*
X82096800Y-90685800D02*
X82596800Y-90685800D01*
G75*
G02*
X82821800Y-90910800I0J-225000D01*
G01*
X82821800Y-91360800D01*
G75*
G02*
X82596800Y-91585800I-225000J0D01*
G01*
X82096800Y-91585800D01*
G75*
G02*
X81871800Y-91360800I0J225000D01*
G01*
X81871800Y-90910800D01*
G75*
G02*
X82096800Y-90685800I225000J0D01*
G01*
G37*
%TD.AperFunction*%
%TO.P,C8,1*%
%TO.N,GND1*%
%TA.AperFunction,SMDPad,CuDef*%
G36*
G01*
X82096800Y-89135800D02*
X82596800Y-89135800D01*
G75*
G02*
X82821800Y-89360800I0J-225000D01*
G01*
X82821800Y-89810800D01*
G75*
G02*
X82596800Y-90035800I-225000J0D01*
G01*
X82096800Y-90035800D01*
G75*
G02*
X81871800Y-89810800I0J225000D01*
G01*
X81871800Y-89360800D01*
G75*
G02*
X82096800Y-89135800I225000J0D01*
G01*
G37*
%TD.AperFunction*%
%TD*%
%TO.P,C7,2*%
%TO.N,Net-(C7-Pad2)*%
%TA.AperFunction,SMDPad,CuDef*%
G36*
G01*
X80445800Y-90685800D02*
X80945800Y-90685800D01*
G75*
G02*
X81170800Y-90910800I0J-225000D01*
G01*
X81170800Y-91360800D01*
G75*
G02*
X80945800Y-91585800I-225000J0D01*
G01*
X80445800Y-91585800D01*
G75*
G02*
X80220800Y-91360800I0J225000D01*
G01*
X80220800Y-90910800D01*
G75*
G02*
X80445800Y-90685800I225000J0D01*
G01*
G37*
%TD.AperFunction*%
%TO.P,C7,1*%
%TO.N,GND1*%
%TA.AperFunction,SMDPad,CuDef*%
G36*
G01*
X80445800Y-89135800D02*
X80945800Y-89135800D01*
G75*
G02*
X81170800Y-89360800I0J-225000D01*
G01*
X81170800Y-89810800D01*
G75*
G02*
X80945800Y-90035800I-225000J0D01*
G01*
X80445800Y-90035800D01*
G75*
G02*
X80220800Y-89810800I0J225000D01*
G01*
X80220800Y-89360800D01*
G75*
G02*
X80445800Y-89135800I225000J0D01*
G01*
G37*
%TD.AperFunction*%
%TD*%
%TO.P,C19,2*%
%TO.N,GND1*%
%TA.AperFunction,SMDPad,CuDef*%
G36*
G01*
X83620800Y-108465800D02*
X84120800Y-108465800D01*
G75*
G02*
X84345800Y-108690800I0J-225000D01*
G01*
X84345800Y-109140800D01*
G75*
G02*
X84120800Y-109365800I-225000J0D01*
G01*
X83620800Y-109365800D01*
G75*
G02*
X83395800Y-109140800I0J225000D01*
G01*
X83395800Y-108690800D01*
G75*
G02*
X83620800Y-108465800I225000J0D01*
G01*
G37*
%TD.AperFunction*%
%TO.P,C19,1*%
%TO.N,+5P*%
%TA.AperFunction,SMDPad,CuDef*%
G36*
G01*
X83620800Y-106915800D02*
X84120800Y-106915800D01*
G75*
G02*
X84345800Y-107140800I0J-225000D01*
G01*
X84345800Y-107590800D01*
G75*
G02*
X84120800Y-107815800I-225000J0D01*
G01*
X83620800Y-107815800D01*
G75*
G02*
X83395800Y-107590800I0J225000D01*
G01*
X83395800Y-107140800D01*
G75*
G02*
X83620800Y-106915800I225000J0D01*
G01*
G37*
%TD.AperFunction*%
%TD*%
D29*
%TO.P,U9,7*%
%TO.N,/Ctrl_part/~IFC_INT*%
X81838800Y-100115800D03*
%TO.P,U9,8*%
%TO.N,/Ctrl_part/IFC_SDA*%
X83338800Y-100115800D03*
%TO.P,U9,5*%
%TO.N,Net-(U9-Pad5)*%
X81838800Y-99145800D03*
%TO.P,U9,6*%
X83338800Y-99145800D03*
%TO.P,U9,3*%
%TO.N,GND1*%
X81838800Y-98175800D03*
%TO.P,U9,4*%
%TO.N,+3V3*%
X83338800Y-98175800D03*
%TO.P,U9,1*%
X81838800Y-97205800D03*
%TO.P,U9,2*%
%TO.N,/Ctrl_part/IFC_SCL*%
X83338800Y-97205800D03*
%TD*%
%TO.P,C18,2*%
%TO.N,+3V3*%
%TA.AperFunction,SMDPad,CuDef*%
G36*
G01*
X78913800Y-97401800D02*
X78413800Y-97401800D01*
G75*
G02*
X78188800Y-97176800I0J225000D01*
G01*
X78188800Y-96726800D01*
G75*
G02*
X78413800Y-96501800I225000J0D01*
G01*
X78913800Y-96501800D01*
G75*
G02*
X79138800Y-96726800I0J-225000D01*
G01*
X79138800Y-97176800D01*
G75*
G02*
X78913800Y-97401800I-225000J0D01*
G01*
G37*
%TD.AperFunction*%
%TO.P,C18,1*%
%TO.N,GND1*%
%TA.AperFunction,SMDPad,CuDef*%
G36*
G01*
X78913800Y-98951800D02*
X78413800Y-98951800D01*
G75*
G02*
X78188800Y-98726800I0J225000D01*
G01*
X78188800Y-98276800D01*
G75*
G02*
X78413800Y-98051800I225000J0D01*
G01*
X78913800Y-98051800D01*
G75*
G02*
X79138800Y-98276800I0J-225000D01*
G01*
X79138800Y-98726800D01*
G75*
G02*
X78913800Y-98951800I-225000J0D01*
G01*
G37*
%TD.AperFunction*%
%TD*%
%TO.P,U3,20*%
%TO.N,+3V3*%
%TA.AperFunction,SMDPad,CuDef*%
G36*
G01*
X106253800Y-102886800D02*
X106453800Y-102886800D01*
G75*
G02*
X106553800Y-102986800I0J-100000D01*
G01*
X106553800Y-104261800D01*
G75*
G02*
X106453800Y-104361800I-100000J0D01*
G01*
X106253800Y-104361800D01*
G75*
G02*
X106153800Y-104261800I0J100000D01*
G01*
X106153800Y-102986800D01*
G75*
G02*
X106253800Y-102886800I100000J0D01*
G01*
G37*
%TD.AperFunction*%
%TO.P,U3,19*%
%TO.N,/I2C_SDA*%
%TA.AperFunction,SMDPad,CuDef*%
G36*
G01*
X105603800Y-102886800D02*
X105803800Y-102886800D01*
G75*
G02*
X105903800Y-102986800I0J-100000D01*
G01*
X105903800Y-104261800D01*
G75*
G02*
X105803800Y-104361800I-100000J0D01*
G01*
X105603800Y-104361800D01*
G75*
G02*
X105503800Y-104261800I0J100000D01*
G01*
X105503800Y-102986800D01*
G75*
G02*
X105603800Y-102886800I100000J0D01*
G01*
G37*
%TD.AperFunction*%
%TO.P,U3,18*%
%TO.N,/I2C_SCL*%
%TA.AperFunction,SMDPad,CuDef*%
G36*
G01*
X104953800Y-102886800D02*
X105153800Y-102886800D01*
G75*
G02*
X105253800Y-102986800I0J-100000D01*
G01*
X105253800Y-104261800D01*
G75*
G02*
X105153800Y-104361800I-100000J0D01*
G01*
X104953800Y-104361800D01*
G75*
G02*
X104853800Y-104261800I0J100000D01*
G01*
X104853800Y-102986800D01*
G75*
G02*
X104953800Y-102886800I100000J0D01*
G01*
G37*
%TD.AperFunction*%
%TO.P,U3,17*%
%TO.N,/~I2C_INT*%
%TA.AperFunction,SMDPad,CuDef*%
G36*
G01*
X104303800Y-102886800D02*
X104503800Y-102886800D01*
G75*
G02*
X104603800Y-102986800I0J-100000D01*
G01*
X104603800Y-104261800D01*
G75*
G02*
X104503800Y-104361800I-100000J0D01*
G01*
X104303800Y-104361800D01*
G75*
G02*
X104203800Y-104261800I0J100000D01*
G01*
X104203800Y-102986800D01*
G75*
G02*
X104303800Y-102886800I100000J0D01*
G01*
G37*
%TD.AperFunction*%
%TO.P,U3,16*%
%TO.N,/EXT_SCL*%
%TA.AperFunction,SMDPad,CuDef*%
G36*
G01*
X103653800Y-102886800D02*
X103853800Y-102886800D01*
G75*
G02*
X103953800Y-102986800I0J-100000D01*
G01*
X103953800Y-104261800D01*
G75*
G02*
X103853800Y-104361800I-100000J0D01*
G01*
X103653800Y-104361800D01*
G75*
G02*
X103553800Y-104261800I0J100000D01*
G01*
X103553800Y-102986800D01*
G75*
G02*
X103653800Y-102886800I100000J0D01*
G01*
G37*
%TD.AperFunction*%
%TO.P,U3,15*%
%TO.N,/EXT_SDA*%
%TA.AperFunction,SMDPad,CuDef*%
G36*
G01*
X103003800Y-102886800D02*
X103203800Y-102886800D01*
G75*
G02*
X103303800Y-102986800I0J-100000D01*
G01*
X103303800Y-104261800D01*
G75*
G02*
X103203800Y-104361800I-100000J0D01*
G01*
X103003800Y-104361800D01*
G75*
G02*
X102903800Y-104261800I0J100000D01*
G01*
X102903800Y-102986800D01*
G75*
G02*
X103003800Y-102886800I100000J0D01*
G01*
G37*
%TD.AperFunction*%
%TO.P,U3,14*%
%TO.N,/~EXT_INT*%
%TA.AperFunction,SMDPad,CuDef*%
G36*
G01*
X102353800Y-102886800D02*
X102553800Y-102886800D01*
G75*
G02*
X102653800Y-102986800I0J-100000D01*
G01*
X102653800Y-104261800D01*
G75*
G02*
X102553800Y-104361800I-100000J0D01*
G01*
X102353800Y-104361800D01*
G75*
G02*
X102253800Y-104261800I0J100000D01*
G01*
X102253800Y-102986800D01*
G75*
G02*
X102353800Y-102886800I100000J0D01*
G01*
G37*
%TD.AperFunction*%
%TO.P,U3,13*%
%TO.N,/CTRL_SCL*%
%TA.AperFunction,SMDPad,CuDef*%
G36*
G01*
X101703800Y-102886800D02*
X101903800Y-102886800D01*
G75*
G02*
X102003800Y-102986800I0J-100000D01*
G01*
X102003800Y-104261800D01*
G75*
G02*
X101903800Y-104361800I-100000J0D01*
G01*
X101703800Y-104361800D01*
G75*
G02*
X101603800Y-104261800I0J100000D01*
G01*
X101603800Y-102986800D01*
G75*
G02*
X101703800Y-102886800I100000J0D01*
G01*
G37*
%TD.AperFunction*%
%TO.P,U3,12*%
%TO.N,/CTRL_SDA*%
%TA.AperFunction,SMDPad,CuDef*%
G36*
G01*
X101053800Y-102886800D02*
X101253800Y-102886800D01*
G75*
G02*
X101353800Y-102986800I0J-100000D01*
G01*
X101353800Y-104261800D01*
G75*
G02*
X101253800Y-104361800I-100000J0D01*
G01*
X101053800Y-104361800D01*
G75*
G02*
X100953800Y-104261800I0J100000D01*
G01*
X100953800Y-102986800D01*
G75*
G02*
X101053800Y-102886800I100000J0D01*
G01*
G37*
%TD.AperFunction*%
%TO.P,U3,11*%
%TO.N,/~CTRL_INT*%
%TA.AperFunction,SMDPad,CuDef*%
G36*
G01*
X100403800Y-102886800D02*
X100603800Y-102886800D01*
G75*
G02*
X100703800Y-102986800I0J-100000D01*
G01*
X100703800Y-104261800D01*
G75*
G02*
X100603800Y-104361800I-100000J0D01*
G01*
X100403800Y-104361800D01*
G75*
G02*
X100303800Y-104261800I0J100000D01*
G01*
X100303800Y-102986800D01*
G75*
G02*
X100403800Y-102886800I100000J0D01*
G01*
G37*
%TD.AperFunction*%
%TO.P,U3,10*%
%TO.N,GND1*%
%TA.AperFunction,SMDPad,CuDef*%
G36*
G01*
X100403800Y-97161800D02*
X100603800Y-97161800D01*
G75*
G02*
X100703800Y-97261800I0J-100000D01*
G01*
X100703800Y-98536800D01*
G75*
G02*
X100603800Y-98636800I-100000J0D01*
G01*
X100403800Y-98636800D01*
G75*
G02*
X100303800Y-98536800I0J100000D01*
G01*
X100303800Y-97261800D01*
G75*
G02*
X100403800Y-97161800I100000J0D01*
G01*
G37*
%TD.AperFunction*%
%TO.P,U3,9*%
%TO.N,/FAN_SCL*%
%TA.AperFunction,SMDPad,CuDef*%
G36*
G01*
X101053800Y-97161800D02*
X101253800Y-97161800D01*
G75*
G02*
X101353800Y-97261800I0J-100000D01*
G01*
X101353800Y-98536800D01*
G75*
G02*
X101253800Y-98636800I-100000J0D01*
G01*
X101053800Y-98636800D01*
G75*
G02*
X100953800Y-98536800I0J100000D01*
G01*
X100953800Y-97261800D01*
G75*
G02*
X101053800Y-97161800I100000J0D01*
G01*
G37*
%TD.AperFunction*%
%TO.P,U3,8*%
%TO.N,/FAN_SDA*%
%TA.AperFunction,SMDPad,CuDef*%
G36*
G01*
X101703800Y-97161800D02*
X101903800Y-97161800D01*
G75*
G02*
X102003800Y-97261800I0J-100000D01*
G01*
X102003800Y-98536800D01*
G75*
G02*
X101903800Y-98636800I-100000J0D01*
G01*
X101703800Y-98636800D01*
G75*
G02*
X101603800Y-98536800I0J100000D01*
G01*
X101603800Y-97261800D01*
G75*
G02*
X101703800Y-97161800I100000J0D01*
G01*
G37*
%TD.AperFunction*%
%TO.P,U3,7*%
%TO.N,Net-(R26-Pad1)*%
%TA.AperFunction,SMDPad,CuDef*%
G36*
G01*
X102353800Y-97161800D02*
X102553800Y-97161800D01*
G75*
G02*
X102653800Y-97261800I0J-100000D01*
G01*
X102653800Y-98536800D01*
G75*
G02*
X102553800Y-98636800I-100000J0D01*
G01*
X102353800Y-98636800D01*
G75*
G02*
X102253800Y-98536800I0J100000D01*
G01*
X102253800Y-97261800D01*
G75*
G02*
X102353800Y-97161800I100000J0D01*
G01*
G37*
%TD.AperFunction*%
%TO.P,U3,6*%
%TO.N,/POW_SCL*%
%TA.AperFunction,SMDPad,CuDef*%
G36*
G01*
X103003800Y-97161800D02*
X103203800Y-97161800D01*
G75*
G02*
X103303800Y-97261800I0J-100000D01*
G01*
X103303800Y-98536800D01*
G75*
G02*
X103203800Y-98636800I-100000J0D01*
G01*
X103003800Y-98636800D01*
G75*
G02*
X102903800Y-98536800I0J100000D01*
G01*
X102903800Y-97261800D01*
G75*
G02*
X103003800Y-97161800I100000J0D01*
G01*
G37*
%TD.AperFunction*%
%TO.P,U3,5*%
%TO.N,/POW_SDA*%
%TA.AperFunction,SMDPad,CuDef*%
G36*
G01*
X103653800Y-97161800D02*
X103853800Y-97161800D01*
G75*
G02*
X103953800Y-97261800I0J-100000D01*
G01*
X103953800Y-98536800D01*
G75*
G02*
X103853800Y-98636800I-100000J0D01*
G01*
X103653800Y-98636800D01*
G75*
G02*
X103553800Y-98536800I0J100000D01*
G01*
X103553800Y-97261800D01*
G75*
G02*
X103653800Y-97161800I100000J0D01*
G01*
G37*
%TD.AperFunction*%
%TO.P,U3,4*%
%TO.N,Net-(R25-Pad1)*%
%TA.AperFunction,SMDPad,CuDef*%
G36*
G01*
X104303800Y-97161800D02*
X104503800Y-97161800D01*
G75*
G02*
X104603800Y-97261800I0J-100000D01*
G01*
X104603800Y-98536800D01*
G75*
G02*
X104503800Y-98636800I-100000J0D01*
G01*
X104303800Y-98636800D01*
G75*
G02*
X104203800Y-98536800I0J100000D01*
G01*
X104203800Y-97261800D01*
G75*
G02*
X104303800Y-97161800I100000J0D01*
G01*
G37*
%TD.AperFunction*%
%TO.P,U3,3*%
%TO.N,Net-(R24-Pad2)*%
%TA.AperFunction,SMDPad,CuDef*%
G36*
G01*
X104953800Y-97161800D02*
X105153800Y-97161800D01*
G75*
G02*
X105253800Y-97261800I0J-100000D01*
G01*
X105253800Y-98536800D01*
G75*
G02*
X105153800Y-98636800I-100000J0D01*
G01*
X104953800Y-98636800D01*
G75*
G02*
X104853800Y-98536800I0J100000D01*
G01*
X104853800Y-97261800D01*
G75*
G02*
X104953800Y-97161800I100000J0D01*
G01*
G37*
%TD.AperFunction*%
%TO.P,U3,2*%
%TO.N,Net-(R20-Pad2)*%
%TA.AperFunction,SMDPad,CuDef*%
G36*
G01*
X105603800Y-97161800D02*
X105803800Y-97161800D01*
G75*
G02*
X105903800Y-97261800I0J-100000D01*
G01*
X105903800Y-98536800D01*
G75*
G02*
X105803800Y-98636800I-100000J0D01*
G01*
X105603800Y-98636800D01*
G75*
G02*
X105503800Y-98536800I0J100000D01*
G01*
X105503800Y-97261800D01*
G75*
G02*
X105603800Y-97161800I100000J0D01*
G01*
G37*
%TD.AperFunction*%
%TO.P,U3,1*%
%TO.N,Net-(R19-Pad2)*%
%TA.AperFunction,SMDPad,CuDef*%
G36*
G01*
X106253800Y-97161800D02*
X106453800Y-97161800D01*
G75*
G02*
X106553800Y-97261800I0J-100000D01*
G01*
X106553800Y-98536800D01*
G75*
G02*
X106453800Y-98636800I-100000J0D01*
G01*
X106253800Y-98636800D01*
G75*
G02*
X106153800Y-98536800I0J100000D01*
G01*
X106153800Y-97261800D01*
G75*
G02*
X106253800Y-97161800I100000J0D01*
G01*
G37*
%TD.AperFunction*%
%TD*%
%TO.P,R40,2*%
%TO.N,+3V3*%
%TA.AperFunction,SMDPad,CuDef*%
G36*
G01*
X82961800Y-101925800D02*
X82961800Y-101375800D01*
G75*
G02*
X83161800Y-101175800I200000J0D01*
G01*
X83561800Y-101175800D01*
G75*
G02*
X83761800Y-101375800I0J-200000D01*
G01*
X83761800Y-101925800D01*
G75*
G02*
X83561800Y-102125800I-200000J0D01*
G01*
X83161800Y-102125800D01*
G75*
G02*
X82961800Y-101925800I0J200000D01*
G01*
G37*
%TD.AperFunction*%
%TO.P,R40,1*%
%TO.N,/Ctrl_part/~IFC_INT*%
%TA.AperFunction,SMDPad,CuDef*%
G36*
G01*
X81311800Y-101925800D02*
X81311800Y-101375800D01*
G75*
G02*
X81511800Y-101175800I200000J0D01*
G01*
X81911800Y-101175800D01*
G75*
G02*
X82111800Y-101375800I0J-200000D01*
G01*
X82111800Y-101925800D01*
G75*
G02*
X81911800Y-102125800I-200000J0D01*
G01*
X81511800Y-102125800D01*
G75*
G02*
X81311800Y-101925800I0J200000D01*
G01*
G37*
%TD.AperFunction*%
%TD*%
%TO.P,C21,2*%
%TO.N,+3V3*%
%TA.AperFunction,SMDPad,CuDef*%
G36*
G01*
X80564800Y-97401800D02*
X80064800Y-97401800D01*
G75*
G02*
X79839800Y-97176800I0J225000D01*
G01*
X79839800Y-96726800D01*
G75*
G02*
X80064800Y-96501800I225000J0D01*
G01*
X80564800Y-96501800D01*
G75*
G02*
X80789800Y-96726800I0J-225000D01*
G01*
X80789800Y-97176800D01*
G75*
G02*
X80564800Y-97401800I-225000J0D01*
G01*
G37*
%TD.AperFunction*%
%TO.P,C21,1*%
%TO.N,GND1*%
%TA.AperFunction,SMDPad,CuDef*%
G36*
G01*
X80564800Y-98951800D02*
X80064800Y-98951800D01*
G75*
G02*
X79839800Y-98726800I0J225000D01*
G01*
X79839800Y-98276800D01*
G75*
G02*
X80064800Y-98051800I225000J0D01*
G01*
X80564800Y-98051800D01*
G75*
G02*
X80789800Y-98276800I0J-225000D01*
G01*
X80789800Y-98726800D01*
G75*
G02*
X80564800Y-98951800I-225000J0D01*
G01*
G37*
%TD.AperFunction*%
%TD*%
%TO.P,C15,2*%
%TO.N,GND1*%
%TA.AperFunction,SMDPad,CuDef*%
G36*
G01*
X84509800Y-99067800D02*
X85009800Y-99067800D01*
G75*
G02*
X85234800Y-99292800I0J-225000D01*
G01*
X85234800Y-99742800D01*
G75*
G02*
X85009800Y-99967800I-225000J0D01*
G01*
X84509800Y-99967800D01*
G75*
G02*
X84284800Y-99742800I0J225000D01*
G01*
X84284800Y-99292800D01*
G75*
G02*
X84509800Y-99067800I225000J0D01*
G01*
G37*
%TD.AperFunction*%
%TO.P,C15,1*%
%TO.N,+3V3*%
%TA.AperFunction,SMDPad,CuDef*%
G36*
G01*
X84509800Y-97517800D02*
X85009800Y-97517800D01*
G75*
G02*
X85234800Y-97742800I0J-225000D01*
G01*
X85234800Y-98192800D01*
G75*
G02*
X85009800Y-98417800I-225000J0D01*
G01*
X84509800Y-98417800D01*
G75*
G02*
X84284800Y-98192800I0J225000D01*
G01*
X84284800Y-97742800D01*
G75*
G02*
X84509800Y-97517800I225000J0D01*
G01*
G37*
%TD.AperFunction*%
%TD*%
D30*
%TO.P,U7,5*%
%TO.N,/+5V*%
X80060800Y-83489800D03*
%TO.P,U7,6*%
%TO.N,/USB_CONN_D+*%
X80060800Y-84439800D03*
%TO.P,U7,4*%
%TO.N,/USB_CONN_D-*%
X80060800Y-82539800D03*
%TO.P,U7,3*%
%TO.N,/USB_D-*%
X82260800Y-82539800D03*
%TO.P,U7,2*%
%TO.N,GND1*%
X82260800Y-83489800D03*
%TO.P,U7,1*%
%TO.N,/USB_D+*%
X82260800Y-84439800D03*
%TD*%
%TO.P,F1,2*%
%TO.N,Net-(D2-Pad2)*%
%TA.AperFunction,SMDPad,CuDef*%
G36*
G01*
X82356800Y-81066800D02*
X82356800Y-79816800D01*
G75*
G02*
X82606800Y-79566800I250000J0D01*
G01*
X83356800Y-79566800D01*
G75*
G02*
X83606800Y-79816800I0J-250000D01*
G01*
X83606800Y-81066800D01*
G75*
G02*
X83356800Y-81316800I-250000J0D01*
G01*
X82606800Y-81316800D01*
G75*
G02*
X82356800Y-81066800I0J250000D01*
G01*
G37*
%TD.AperFunction*%
%TO.P,F1,1*%
%TO.N,Net-(F1-Pad1)*%
%TA.AperFunction,SMDPad,CuDef*%
G36*
G01*
X79556800Y-81066800D02*
X79556800Y-79816800D01*
G75*
G02*
X79806800Y-79566800I250000J0D01*
G01*
X80556800Y-79566800D01*
G75*
G02*
X80806800Y-79816800I0J-250000D01*
G01*
X80806800Y-81066800D01*
G75*
G02*
X80556800Y-81316800I-250000J0D01*
G01*
X79806800Y-81316800D01*
G75*
G02*
X79556800Y-81066800I0J250000D01*
G01*
G37*
%TD.AperFunction*%
%TD*%
D31*
%TO.P,J1,4*%
%TO.N,Net-(J1-Pad4)*%
X122351800Y-89338800D03*
%TO.P,J1,3*%
%TO.N,/scl1*%
X122351800Y-86838800D03*
%TO.P,J1,2*%
%TO.N,/sda1*%
X122351800Y-84338800D03*
%TO.P,J1,1*%
%TO.N,GND1*%
%TA.AperFunction,ComponentPad*%
G36*
G01*
X121626800Y-80988800D02*
X123076800Y-80988800D01*
G75*
G02*
X123326800Y-81238800I0J-250000D01*
G01*
X123326800Y-82438800D01*
G75*
G02*
X123076800Y-82688800I-250000J0D01*
G01*
X121626800Y-82688800D01*
G75*
G02*
X121376800Y-82438800I0J250000D01*
G01*
X121376800Y-81238800D01*
G75*
G02*
X121626800Y-80988800I250000J0D01*
G01*
G37*
%TD.AperFunction*%
%TD*%
D32*
%TO.P,J4,2*%
%TO.N,GND1*%
X77647800Y-132170800D03*
%TO.P,J4,1*%
%TO.N,Net-(BT1-Pad1)*%
%TA.AperFunction,ComponentPad*%
G36*
G01*
X78397800Y-135520800D02*
X76897800Y-135520800D01*
G75*
G02*
X76647800Y-135270800I0J250000D01*
G01*
X76647800Y-134070800D01*
G75*
G02*
X76897800Y-133820800I250000J0D01*
G01*
X78397800Y-133820800D01*
G75*
G02*
X78647800Y-134070800I0J-250000D01*
G01*
X78647800Y-135270800D01*
G75*
G02*
X78397800Y-135520800I-250000J0D01*
G01*
G37*
%TD.AperFunction*%
%TD*%
D33*
%TO.P,J2,2*%
%TO.N,GND1*%
X124151800Y-111330800D03*
D34*
%TO.P,J2,1*%
%TO.N,/ADC*%
X117851800Y-111330800D03*
D35*
%TO.P,J2,3*%
%TO.N,/ADC0*%
X120051800Y-113080800D03*
X120051800Y-109580800D03*
%TD*%
D33*
%TO.P,J8,2*%
%TO.N,GND1*%
X75833800Y-109171800D03*
D34*
%TO.P,J8,1*%
%TO.N,+5VD*%
X82133800Y-109171800D03*
D35*
%TO.P,J8,3*%
%TO.N,Net-(J8-Pad3)*%
X79933800Y-107421800D03*
X79933800Y-110921800D03*
%TD*%
D33*
%TO.P,J7,2*%
%TO.N,GND1*%
X75833800Y-115140800D03*
D34*
%TO.P,J7,1*%
%TO.N,+5VD*%
X82133800Y-115140800D03*
D35*
%TO.P,J7,3*%
%TO.N,Net-(J7-Pad3)*%
X79933800Y-113390800D03*
X79933800Y-116890800D03*
%TD*%
D33*
%TO.P,J6,2*%
%TO.N,GND1*%
X75833800Y-139905800D03*
D34*
%TO.P,J6,1*%
%TO.N,+5VD*%
X82133800Y-139905800D03*
D35*
%TO.P,J6,3*%
%TO.N,Net-(J6-Pad3)*%
X79933800Y-138155800D03*
X79933800Y-141655800D03*
%TD*%
%TO.P,J3,3*%
%TO.N,/ADC2*%
X120051800Y-101170800D03*
X120051800Y-104670800D03*
D34*
%TO.P,J3,1*%
%TO.N,/ADC1*%
X117851800Y-102920800D03*
D33*
%TO.P,J3,2*%
%TO.N,GND1*%
X124151800Y-102920800D03*
%TD*%
D36*
%TO.P,J11,~*%
%TO.N,N/C*%
X103688800Y-78639800D03*
X103688800Y-88639800D03*
X88188800Y-78639800D03*
X88188800Y-88639800D03*
D37*
X95938800Y-77139800D03*
X95938800Y-90139800D03*
D26*
%TO.P,J11,A*%
%TO.N,/Ctrl_part/EC11_A*%
X103938800Y-86139800D03*
D38*
%TO.P,J11,D*%
%TO.N,GND1*%
X88188800Y-86139800D03*
D26*
%TO.P,J11,C*%
X103938800Y-83639800D03*
%TO.P,J11,B*%
%TO.N,/Ctrl_part/EC11_B*%
X103938800Y-81139800D03*
D38*
%TO.P,J11,E*%
%TO.N,/Ctrl_part/EC11_E*%
X88188800Y-81139800D03*
D39*
%TO.P,J11,~*%
%TO.N,N/C*%
X95938800Y-83639800D03*
D40*
X100438800Y-83639800D03*
%TD*%
D41*
%TO.P,J10,6*%
%TO.N,/Ctrl_part/jtbtn*%
X114221800Y-77716800D03*
%TO.P,J10,5*%
%TO.N,/Ctrl_part/jcbtn*%
X110521800Y-77716800D03*
%TO.P,J10,4*%
%TO.N,/Ctrl_part/jlbtn*%
X107721800Y-77716800D03*
%TO.P,J10,3*%
%TO.N,/Ctrl_part/jrbtn*%
X114221800Y-89516800D03*
%TO.P,J10,2*%
%TO.N,/Ctrl_part/jbbtn*%
X110521800Y-89516800D03*
%TO.P,J10,1*%
%TO.N,GND1*%
X107721800Y-89516800D03*
D42*
%TO.P,J10,~*%
%TO.N,N/C*%
X113171800Y-81416800D03*
X113171800Y-85816800D03*
%TD*%
%TO.P,U10,32*%
%TO.N,/DTS_1*%
%TA.AperFunction,SMDPad,CuDef*%
G36*
G01*
X100196300Y-113654300D02*
X98946300Y-113654300D01*
G75*
G02*
X98821300Y-113529300I0J125000D01*
G01*
X98821300Y-113279300D01*
G75*
G02*
X98946300Y-113154300I125000J0D01*
G01*
X100196300Y-113154300D01*
G75*
G02*
X100321300Y-113279300I0J-125000D01*
G01*
X100321300Y-113529300D01*
G75*
G02*
X100196300Y-113654300I-125000J0D01*
G01*
G37*
%TD.AperFunction*%
%TO.P,U10,31*%
%TO.N,/DTS_0*%
%TA.AperFunction,SMDPad,CuDef*%
G36*
G01*
X100196300Y-112854300D02*
X98946300Y-112854300D01*
G75*
G02*
X98821300Y-112729300I0J125000D01*
G01*
X98821300Y-112479300D01*
G75*
G02*
X98946300Y-112354300I125000J0D01*
G01*
X100196300Y-112354300D01*
G75*
G02*
X100321300Y-112479300I0J-125000D01*
G01*
X100321300Y-112729300D01*
G75*
G02*
X100196300Y-112854300I-125000J0D01*
G01*
G37*
%TD.AperFunction*%
%TO.P,U10,30*%
%TO.N,/RTC_CLK*%
%TA.AperFunction,SMDPad,CuDef*%
G36*
G01*
X100196300Y-112054300D02*
X98946300Y-112054300D01*
G75*
G02*
X98821300Y-111929300I0J125000D01*
G01*
X98821300Y-111679300D01*
G75*
G02*
X98946300Y-111554300I125000J0D01*
G01*
X100196300Y-111554300D01*
G75*
G02*
X100321300Y-111679300I0J-125000D01*
G01*
X100321300Y-111929300D01*
G75*
G02*
X100196300Y-112054300I-125000J0D01*
G01*
G37*
%TD.AperFunction*%
%TO.P,U10,29*%
%TO.N,/~RTC_INT*%
%TA.AperFunction,SMDPad,CuDef*%
G36*
G01*
X100196300Y-111254300D02*
X98946300Y-111254300D01*
G75*
G02*
X98821300Y-111129300I0J125000D01*
G01*
X98821300Y-110879300D01*
G75*
G02*
X98946300Y-110754300I125000J0D01*
G01*
X100196300Y-110754300D01*
G75*
G02*
X100321300Y-110879300I0J-125000D01*
G01*
X100321300Y-111129300D01*
G75*
G02*
X100196300Y-111254300I-125000J0D01*
G01*
G37*
%TD.AperFunction*%
%TO.P,U10,28*%
%TO.N,/ESP_LED*%
%TA.AperFunction,SMDPad,CuDef*%
G36*
G01*
X100196300Y-110454300D02*
X98946300Y-110454300D01*
G75*
G02*
X98821300Y-110329300I0J125000D01*
G01*
X98821300Y-110079300D01*
G75*
G02*
X98946300Y-109954300I125000J0D01*
G01*
X100196300Y-109954300D01*
G75*
G02*
X100321300Y-110079300I0J-125000D01*
G01*
X100321300Y-110329300D01*
G75*
G02*
X100196300Y-110454300I-125000J0D01*
G01*
G37*
%TD.AperFunction*%
%TO.P,U10,27*%
%TO.N,/~ESP_RST*%
%TA.AperFunction,SMDPad,CuDef*%
G36*
G01*
X100196300Y-109654300D02*
X98946300Y-109654300D01*
G75*
G02*
X98821300Y-109529300I0J125000D01*
G01*
X98821300Y-109279300D01*
G75*
G02*
X98946300Y-109154300I125000J0D01*
G01*
X100196300Y-109154300D01*
G75*
G02*
X100321300Y-109279300I0J-125000D01*
G01*
X100321300Y-109529300D01*
G75*
G02*
X100196300Y-109654300I-125000J0D01*
G01*
G37*
%TD.AperFunction*%
%TO.P,U10,26*%
%TO.N,/Ctrl_part/eLine_B*%
%TA.AperFunction,SMDPad,CuDef*%
G36*
G01*
X100196300Y-108854300D02*
X98946300Y-108854300D01*
G75*
G02*
X98821300Y-108729300I0J125000D01*
G01*
X98821300Y-108479300D01*
G75*
G02*
X98946300Y-108354300I125000J0D01*
G01*
X100196300Y-108354300D01*
G75*
G02*
X100321300Y-108479300I0J-125000D01*
G01*
X100321300Y-108729300D01*
G75*
G02*
X100196300Y-108854300I-125000J0D01*
G01*
G37*
%TD.AperFunction*%
%TO.P,U10,25*%
%TO.N,/Ctrl_part/SWCLK*%
%TA.AperFunction,SMDPad,CuDef*%
G36*
G01*
X100196300Y-108054300D02*
X98946300Y-108054300D01*
G75*
G02*
X98821300Y-107929300I0J125000D01*
G01*
X98821300Y-107679300D01*
G75*
G02*
X98946300Y-107554300I125000J0D01*
G01*
X100196300Y-107554300D01*
G75*
G02*
X100321300Y-107679300I0J-125000D01*
G01*
X100321300Y-107929300D01*
G75*
G02*
X100196300Y-108054300I-125000J0D01*
G01*
G37*
%TD.AperFunction*%
%TO.P,U10,24*%
%TO.N,/Ctrl_part/SWDIO*%
%TA.AperFunction,SMDPad,CuDef*%
G36*
G01*
X101071300Y-107179300D02*
X100821300Y-107179300D01*
G75*
G02*
X100696300Y-107054300I0J125000D01*
G01*
X100696300Y-105804300D01*
G75*
G02*
X100821300Y-105679300I125000J0D01*
G01*
X101071300Y-105679300D01*
G75*
G02*
X101196300Y-105804300I0J-125000D01*
G01*
X101196300Y-107054300D01*
G75*
G02*
X101071300Y-107179300I-125000J0D01*
G01*
G37*
%TD.AperFunction*%
%TO.P,U10,23*%
%TO.N,/Ctrl_part/IFC_SDA*%
%TA.AperFunction,SMDPad,CuDef*%
G36*
G01*
X101871300Y-107179300D02*
X101621300Y-107179300D01*
G75*
G02*
X101496300Y-107054300I0J125000D01*
G01*
X101496300Y-105804300D01*
G75*
G02*
X101621300Y-105679300I125000J0D01*
G01*
X101871300Y-105679300D01*
G75*
G02*
X101996300Y-105804300I0J-125000D01*
G01*
X101996300Y-107054300D01*
G75*
G02*
X101871300Y-107179300I-125000J0D01*
G01*
G37*
%TD.AperFunction*%
%TO.P,U10,22*%
%TO.N,/Ctrl_part/IFC_SCL*%
%TA.AperFunction,SMDPad,CuDef*%
G36*
G01*
X102671300Y-107179300D02*
X102421300Y-107179300D01*
G75*
G02*
X102296300Y-107054300I0J125000D01*
G01*
X102296300Y-105804300D01*
G75*
G02*
X102421300Y-105679300I125000J0D01*
G01*
X102671300Y-105679300D01*
G75*
G02*
X102796300Y-105804300I0J-125000D01*
G01*
X102796300Y-107054300D01*
G75*
G02*
X102671300Y-107179300I-125000J0D01*
G01*
G37*
%TD.AperFunction*%
%TO.P,U10,21*%
%TO.N,/CTRL_SDA*%
%TA.AperFunction,SMDPad,CuDef*%
G36*
G01*
X103471300Y-107179300D02*
X103221300Y-107179300D01*
G75*
G02*
X103096300Y-107054300I0J125000D01*
G01*
X103096300Y-105804300D01*
G75*
G02*
X103221300Y-105679300I125000J0D01*
G01*
X103471300Y-105679300D01*
G75*
G02*
X103596300Y-105804300I0J-125000D01*
G01*
X103596300Y-107054300D01*
G75*
G02*
X103471300Y-107179300I-125000J0D01*
G01*
G37*
%TD.AperFunction*%
%TO.P,U10,20*%
%TO.N,Net-(R41-Pad2)*%
%TA.AperFunction,SMDPad,CuDef*%
G36*
G01*
X104271300Y-107179300D02*
X104021300Y-107179300D01*
G75*
G02*
X103896300Y-107054300I0J125000D01*
G01*
X103896300Y-105804300D01*
G75*
G02*
X104021300Y-105679300I125000J0D01*
G01*
X104271300Y-105679300D01*
G75*
G02*
X104396300Y-105804300I0J-125000D01*
G01*
X104396300Y-107054300D01*
G75*
G02*
X104271300Y-107179300I-125000J0D01*
G01*
G37*
%TD.AperFunction*%
%TO.P,U10,19*%
%TO.N,/CTRL_SCL*%
%TA.AperFunction,SMDPad,CuDef*%
G36*
G01*
X105071300Y-107179300D02*
X104821300Y-107179300D01*
G75*
G02*
X104696300Y-107054300I0J125000D01*
G01*
X104696300Y-105804300D01*
G75*
G02*
X104821300Y-105679300I125000J0D01*
G01*
X105071300Y-105679300D01*
G75*
G02*
X105196300Y-105804300I0J-125000D01*
G01*
X105196300Y-107054300D01*
G75*
G02*
X105071300Y-107179300I-125000J0D01*
G01*
G37*
%TD.AperFunction*%
%TO.P,U10,18*%
%TO.N,/Ctrl_part/jbline*%
%TA.AperFunction,SMDPad,CuDef*%
G36*
G01*
X105871300Y-107179300D02*
X105621300Y-107179300D01*
G75*
G02*
X105496300Y-107054300I0J125000D01*
G01*
X105496300Y-105804300D01*
G75*
G02*
X105621300Y-105679300I125000J0D01*
G01*
X105871300Y-105679300D01*
G75*
G02*
X105996300Y-105804300I0J-125000D01*
G01*
X105996300Y-107054300D01*
G75*
G02*
X105871300Y-107179300I-125000J0D01*
G01*
G37*
%TD.AperFunction*%
%TO.P,U10,17*%
%TO.N,/Ctrl_part/ADC2*%
%TA.AperFunction,SMDPad,CuDef*%
G36*
G01*
X106671300Y-107179300D02*
X106421300Y-107179300D01*
G75*
G02*
X106296300Y-107054300I0J125000D01*
G01*
X106296300Y-105804300D01*
G75*
G02*
X106421300Y-105679300I125000J0D01*
G01*
X106671300Y-105679300D01*
G75*
G02*
X106796300Y-105804300I0J-125000D01*
G01*
X106796300Y-107054300D01*
G75*
G02*
X106671300Y-107179300I-125000J0D01*
G01*
G37*
%TD.AperFunction*%
%TO.P,U10,16*%
%TO.N,/Ctrl_part/ADC1*%
%TA.AperFunction,SMDPad,CuDef*%
G36*
G01*
X108546300Y-108054300D02*
X107296300Y-108054300D01*
G75*
G02*
X107171300Y-107929300I0J125000D01*
G01*
X107171300Y-107679300D01*
G75*
G02*
X107296300Y-107554300I125000J0D01*
G01*
X108546300Y-107554300D01*
G75*
G02*
X108671300Y-107679300I0J-125000D01*
G01*
X108671300Y-107929300D01*
G75*
G02*
X108546300Y-108054300I-125000J0D01*
G01*
G37*
%TD.AperFunction*%
%TO.P,U10,15*%
%TO.N,/Ctrl_part/ADC0*%
%TA.AperFunction,SMDPad,CuDef*%
G36*
G01*
X108546300Y-108854300D02*
X107296300Y-108854300D01*
G75*
G02*
X107171300Y-108729300I0J125000D01*
G01*
X107171300Y-108479300D01*
G75*
G02*
X107296300Y-108354300I125000J0D01*
G01*
X108546300Y-108354300D01*
G75*
G02*
X108671300Y-108479300I0J-125000D01*
G01*
X108671300Y-108729300D01*
G75*
G02*
X108546300Y-108854300I-125000J0D01*
G01*
G37*
%TD.AperFunction*%
%TO.P,U10,14*%
%TO.N,/Ctrl_part/jcline*%
%TA.AperFunction,SMDPad,CuDef*%
G36*
G01*
X108546300Y-109654300D02*
X107296300Y-109654300D01*
G75*
G02*
X107171300Y-109529300I0J125000D01*
G01*
X107171300Y-109279300D01*
G75*
G02*
X107296300Y-109154300I125000J0D01*
G01*
X108546300Y-109154300D01*
G75*
G02*
X108671300Y-109279300I0J-125000D01*
G01*
X108671300Y-109529300D01*
G75*
G02*
X108546300Y-109654300I-125000J0D01*
G01*
G37*
%TD.AperFunction*%
%TO.P,U10,13*%
%TO.N,/Ctrl_part/jtline*%
%TA.AperFunction,SMDPad,CuDef*%
G36*
G01*
X108546300Y-110454300D02*
X107296300Y-110454300D01*
G75*
G02*
X107171300Y-110329300I0J125000D01*
G01*
X107171300Y-110079300D01*
G75*
G02*
X107296300Y-109954300I125000J0D01*
G01*
X108546300Y-109954300D01*
G75*
G02*
X108671300Y-110079300I0J-125000D01*
G01*
X108671300Y-110329300D01*
G75*
G02*
X108546300Y-110454300I-125000J0D01*
G01*
G37*
%TD.AperFunction*%
%TO.P,U10,12*%
%TO.N,/Ctrl_part/jrline*%
%TA.AperFunction,SMDPad,CuDef*%
G36*
G01*
X108546300Y-111254300D02*
X107296300Y-111254300D01*
G75*
G02*
X107171300Y-111129300I0J125000D01*
G01*
X107171300Y-110879300D01*
G75*
G02*
X107296300Y-110754300I125000J0D01*
G01*
X108546300Y-110754300D01*
G75*
G02*
X108671300Y-110879300I0J-125000D01*
G01*
X108671300Y-111129300D01*
G75*
G02*
X108546300Y-111254300I-125000J0D01*
G01*
G37*
%TD.AperFunction*%
%TO.P,U10,11*%
%TO.N,/Ctrl_part/~btn_int*%
%TA.AperFunction,SMDPad,CuDef*%
G36*
G01*
X108546300Y-112054300D02*
X107296300Y-112054300D01*
G75*
G02*
X107171300Y-111929300I0J125000D01*
G01*
X107171300Y-111679300D01*
G75*
G02*
X107296300Y-111554300I125000J0D01*
G01*
X108546300Y-111554300D01*
G75*
G02*
X108671300Y-111679300I0J-125000D01*
G01*
X108671300Y-111929300D01*
G75*
G02*
X108546300Y-112054300I-125000J0D01*
G01*
G37*
%TD.AperFunction*%
%TO.P,U10,10*%
%TO.N,/Ctrl_part/jlline*%
%TA.AperFunction,SMDPad,CuDef*%
G36*
G01*
X108546300Y-112854300D02*
X107296300Y-112854300D01*
G75*
G02*
X107171300Y-112729300I0J125000D01*
G01*
X107171300Y-112479300D01*
G75*
G02*
X107296300Y-112354300I125000J0D01*
G01*
X108546300Y-112354300D01*
G75*
G02*
X108671300Y-112479300I0J-125000D01*
G01*
X108671300Y-112729300D01*
G75*
G02*
X108546300Y-112854300I-125000J0D01*
G01*
G37*
%TD.AperFunction*%
%TO.P,U10,9*%
%TO.N,/Ctrl_part/~IFC_INT*%
%TA.AperFunction,SMDPad,CuDef*%
G36*
G01*
X108546300Y-113654300D02*
X107296300Y-113654300D01*
G75*
G02*
X107171300Y-113529300I0J125000D01*
G01*
X107171300Y-113279300D01*
G75*
G02*
X107296300Y-113154300I125000J0D01*
G01*
X108546300Y-113154300D01*
G75*
G02*
X108671300Y-113279300I0J-125000D01*
G01*
X108671300Y-113529300D01*
G75*
G02*
X108546300Y-113654300I-125000J0D01*
G01*
G37*
%TD.AperFunction*%
%TO.P,U10,8*%
%TO.N,/+5V_valid*%
%TA.AperFunction,SMDPad,CuDef*%
G36*
G01*
X106671300Y-115529300D02*
X106421300Y-115529300D01*
G75*
G02*
X106296300Y-115404300I0J125000D01*
G01*
X106296300Y-114154300D01*
G75*
G02*
X106421300Y-114029300I125000J0D01*
G01*
X106671300Y-114029300D01*
G75*
G02*
X106796300Y-114154300I0J-125000D01*
G01*
X106796300Y-115404300D01*
G75*
G02*
X106671300Y-115529300I-125000J0D01*
G01*
G37*
%TD.AperFunction*%
%TO.P,U10,7*%
%TO.N,/~CTRL_INT*%
%TA.AperFunction,SMDPad,CuDef*%
G36*
G01*
X105871300Y-115529300D02*
X105621300Y-115529300D01*
G75*
G02*
X105496300Y-115404300I0J125000D01*
G01*
X105496300Y-114154300D01*
G75*
G02*
X105621300Y-114029300I125000J0D01*
G01*
X105871300Y-114029300D01*
G75*
G02*
X105996300Y-114154300I0J-125000D01*
G01*
X105996300Y-115404300D01*
G75*
G02*
X105871300Y-115529300I-125000J0D01*
G01*
G37*
%TD.AperFunction*%
%TO.P,U10,6*%
%TO.N,/Ctrl_part/~RST*%
%TA.AperFunction,SMDPad,CuDef*%
G36*
G01*
X105071300Y-115529300D02*
X104821300Y-115529300D01*
G75*
G02*
X104696300Y-115404300I0J125000D01*
G01*
X104696300Y-114154300D01*
G75*
G02*
X104821300Y-114029300I125000J0D01*
G01*
X105071300Y-114029300D01*
G75*
G02*
X105196300Y-114154300I0J-125000D01*
G01*
X105196300Y-115404300D01*
G75*
G02*
X105071300Y-115529300I-125000J0D01*
G01*
G37*
%TD.AperFunction*%
%TO.P,U10,5*%
%TO.N,GND1*%
%TA.AperFunction,SMDPad,CuDef*%
G36*
G01*
X104271300Y-115529300D02*
X104021300Y-115529300D01*
G75*
G02*
X103896300Y-115404300I0J125000D01*
G01*
X103896300Y-114154300D01*
G75*
G02*
X104021300Y-114029300I125000J0D01*
G01*
X104271300Y-114029300D01*
G75*
G02*
X104396300Y-114154300I0J-125000D01*
G01*
X104396300Y-115404300D01*
G75*
G02*
X104271300Y-115529300I-125000J0D01*
G01*
G37*
%TD.AperFunction*%
%TO.P,U10,4*%
%TO.N,+3V3*%
%TA.AperFunction,SMDPad,CuDef*%
G36*
G01*
X103471300Y-115529300D02*
X103221300Y-115529300D01*
G75*
G02*
X103096300Y-115404300I0J125000D01*
G01*
X103096300Y-114154300D01*
G75*
G02*
X103221300Y-114029300I125000J0D01*
G01*
X103471300Y-114029300D01*
G75*
G02*
X103596300Y-114154300I0J-125000D01*
G01*
X103596300Y-115404300D01*
G75*
G02*
X103471300Y-115529300I-125000J0D01*
G01*
G37*
%TD.AperFunction*%
%TO.P,U10,3*%
%TO.N,Net-(R38-Pad2)*%
%TA.AperFunction,SMDPad,CuDef*%
G36*
G01*
X102671300Y-115529300D02*
X102421300Y-115529300D01*
G75*
G02*
X102296300Y-115404300I0J125000D01*
G01*
X102296300Y-114154300D01*
G75*
G02*
X102421300Y-114029300I125000J0D01*
G01*
X102671300Y-114029300D01*
G75*
G02*
X102796300Y-114154300I0J-125000D01*
G01*
X102796300Y-115404300D01*
G75*
G02*
X102671300Y-115529300I-125000J0D01*
G01*
G37*
%TD.AperFunction*%
%TO.P,U10,2*%
%TO.N,Net-(C16-Pad1)*%
%TA.AperFunction,SMDPad,CuDef*%
G36*
G01*
X101871300Y-115529300D02*
X101621300Y-115529300D01*
G75*
G02*
X101496300Y-115404300I0J125000D01*
G01*
X101496300Y-114154300D01*
G75*
G02*
X101621300Y-114029300I125000J0D01*
G01*
X101871300Y-114029300D01*
G75*
G02*
X101996300Y-114154300I0J-125000D01*
G01*
X101996300Y-115404300D01*
G75*
G02*
X101871300Y-115529300I-125000J0D01*
G01*
G37*
%TD.AperFunction*%
%TO.P,U10,1*%
%TO.N,/DTS_2*%
%TA.AperFunction,SMDPad,CuDef*%
G36*
G01*
X101071300Y-115529300D02*
X100821300Y-115529300D01*
G75*
G02*
X100696300Y-115404300I0J125000D01*
G01*
X100696300Y-114154300D01*
G75*
G02*
X100821300Y-114029300I125000J0D01*
G01*
X101071300Y-114029300D01*
G75*
G02*
X101196300Y-114154300I0J-125000D01*
G01*
X101196300Y-115404300D01*
G75*
G02*
X101071300Y-115529300I-125000J0D01*
G01*
G37*
%TD.AperFunction*%
%TD*%
D43*
%TO.P,J5,6*%
%TO.N,GND1*%
X73720800Y-87660800D03*
X73720800Y-79910800D03*
D44*
X77520800Y-87510800D03*
X77520800Y-80060800D03*
D45*
%TO.P,J5,5*%
X77870800Y-85085800D03*
%TO.P,J5,4*%
%TO.N,N/C*%
X77870800Y-84435800D03*
%TO.P,J5,3*%
%TO.N,/USB_CONN_D+*%
X77870800Y-83785800D03*
%TO.P,J5,2*%
%TO.N,/USB_CONN_D-*%
X77870800Y-83135800D03*
%TO.P,J5,1*%
%TO.N,Net-(F1-Pad1)*%
X77870800Y-82485800D03*
%TD*%
%TO.P,R81,2*%
%TO.N,/ADC*%
%TA.AperFunction,SMDPad,CuDef*%
G36*
G01*
X118562800Y-122498800D02*
X118012800Y-122498800D01*
G75*
G02*
X117812800Y-122298800I0J200000D01*
G01*
X117812800Y-121898800D01*
G75*
G02*
X118012800Y-121698800I200000J0D01*
G01*
X118562800Y-121698800D01*
G75*
G02*
X118762800Y-121898800I0J-200000D01*
G01*
X118762800Y-122298800D01*
G75*
G02*
X118562800Y-122498800I-200000J0D01*
G01*
G37*
%TD.AperFunction*%
%TO.P,R81,1*%
%TO.N,/ESP32_part/ADC*%
%TA.AperFunction,SMDPad,CuDef*%
G36*
G01*
X118562800Y-124148800D02*
X118012800Y-124148800D01*
G75*
G02*
X117812800Y-123948800I0J200000D01*
G01*
X117812800Y-123548800D01*
G75*
G02*
X118012800Y-123348800I200000J0D01*
G01*
X118562800Y-123348800D01*
G75*
G02*
X118762800Y-123548800I0J-200000D01*
G01*
X118762800Y-123948800D01*
G75*
G02*
X118562800Y-124148800I-200000J0D01*
G01*
G37*
%TD.AperFunction*%
%TD*%
D22*
%TO.P,SW3,2*%
%TO.N,GND1*%
X127685800Y-118795800D03*
X127685800Y-115195800D03*
%TO.P,SW3,1*%
%TO.N,Net-(R77-Pad2)*%
X126245800Y-118795800D03*
X126245800Y-115195800D03*
%TD*%
%TO.P,R79,2*%
%TO.N,+3V3*%
%TA.AperFunction,SMDPad,CuDef*%
G36*
G01*
X116530800Y-122498800D02*
X115980800Y-122498800D01*
G75*
G02*
X115780800Y-122298800I0J200000D01*
G01*
X115780800Y-121898800D01*
G75*
G02*
X115980800Y-121698800I200000J0D01*
G01*
X116530800Y-121698800D01*
G75*
G02*
X116730800Y-121898800I0J-200000D01*
G01*
X116730800Y-122298800D01*
G75*
G02*
X116530800Y-122498800I-200000J0D01*
G01*
G37*
%TD.AperFunction*%
%TO.P,R79,1*%
%TO.N,/ESP32_part/EN*%
%TA.AperFunction,SMDPad,CuDef*%
G36*
G01*
X116530800Y-124148800D02*
X115980800Y-124148800D01*
G75*
G02*
X115780800Y-123948800I0J200000D01*
G01*
X115780800Y-123548800D01*
G75*
G02*
X115980800Y-123348800I200000J0D01*
G01*
X116530800Y-123348800D01*
G75*
G02*
X116730800Y-123548800I0J-200000D01*
G01*
X116730800Y-123948800D01*
G75*
G02*
X116530800Y-124148800I-200000J0D01*
G01*
G37*
%TD.AperFunction*%
%TD*%
%TO.P,R78,2*%
%TO.N,/ESP32_part/~RST*%
%TA.AperFunction,SMDPad,CuDef*%
G36*
G01*
X114498800Y-122497800D02*
X113948800Y-122497800D01*
G75*
G02*
X113748800Y-122297800I0J200000D01*
G01*
X113748800Y-121897800D01*
G75*
G02*
X113948800Y-121697800I200000J0D01*
G01*
X114498800Y-121697800D01*
G75*
G02*
X114698800Y-121897800I0J-200000D01*
G01*
X114698800Y-122297800D01*
G75*
G02*
X114498800Y-122497800I-200000J0D01*
G01*
G37*
%TD.AperFunction*%
%TO.P,R78,1*%
%TO.N,/ESP32_part/GPIO16*%
%TA.AperFunction,SMDPad,CuDef*%
G36*
G01*
X114498800Y-124147800D02*
X113948800Y-124147800D01*
G75*
G02*
X113748800Y-123947800I0J200000D01*
G01*
X113748800Y-123547800D01*
G75*
G02*
X113948800Y-123347800I200000J0D01*
G01*
X114498800Y-123347800D01*
G75*
G02*
X114698800Y-123547800I0J-200000D01*
G01*
X114698800Y-123947800D01*
G75*
G02*
X114498800Y-124147800I-200000J0D01*
G01*
G37*
%TD.AperFunction*%
%TD*%
%TO.P,R72,2*%
%TO.N,+3V3*%
%TA.AperFunction,SMDPad,CuDef*%
G36*
G01*
X120467800Y-122498800D02*
X119917800Y-122498800D01*
G75*
G02*
X119717800Y-122298800I0J200000D01*
G01*
X119717800Y-121898800D01*
G75*
G02*
X119917800Y-121698800I200000J0D01*
G01*
X120467800Y-121698800D01*
G75*
G02*
X120667800Y-121898800I0J-200000D01*
G01*
X120667800Y-122298800D01*
G75*
G02*
X120467800Y-122498800I-200000J0D01*
G01*
G37*
%TD.AperFunction*%
%TO.P,R72,1*%
%TO.N,/ESP32_part/~RST*%
%TA.AperFunction,SMDPad,CuDef*%
G36*
G01*
X120467800Y-124148800D02*
X119917800Y-124148800D01*
G75*
G02*
X119717800Y-123948800I0J200000D01*
G01*
X119717800Y-123548800D01*
G75*
G02*
X119917800Y-123348800I200000J0D01*
G01*
X120467800Y-123348800D01*
G75*
G02*
X120667800Y-123548800I0J-200000D01*
G01*
X120667800Y-123948800D01*
G75*
G02*
X120467800Y-124148800I-200000J0D01*
G01*
G37*
%TD.AperFunction*%
%TD*%
%TO.P,C38,2*%
%TO.N,GND1*%
%TA.AperFunction,SMDPad,CuDef*%
G36*
G01*
X106472800Y-122534800D02*
X105972800Y-122534800D01*
G75*
G02*
X105747800Y-122309800I0J225000D01*
G01*
X105747800Y-121859800D01*
G75*
G02*
X105972800Y-121634800I225000J0D01*
G01*
X106472800Y-121634800D01*
G75*
G02*
X106697800Y-121859800I0J-225000D01*
G01*
X106697800Y-122309800D01*
G75*
G02*
X106472800Y-122534800I-225000J0D01*
G01*
G37*
%TD.AperFunction*%
%TO.P,C38,1*%
%TO.N,+3V3*%
%TA.AperFunction,SMDPad,CuDef*%
G36*
G01*
X106472800Y-124084800D02*
X105972800Y-124084800D01*
G75*
G02*
X105747800Y-123859800I0J225000D01*
G01*
X105747800Y-123409800D01*
G75*
G02*
X105972800Y-123184800I225000J0D01*
G01*
X106472800Y-123184800D01*
G75*
G02*
X106697800Y-123409800I0J-225000D01*
G01*
X106697800Y-123859800D01*
G75*
G02*
X106472800Y-124084800I-225000J0D01*
G01*
G37*
%TD.AperFunction*%
%TD*%
%TO.P,C37,2*%
%TO.N,GND1*%
%TA.AperFunction,SMDPad,CuDef*%
G36*
G01*
X104821800Y-122521800D02*
X104321800Y-122521800D01*
G75*
G02*
X104096800Y-122296800I0J225000D01*
G01*
X104096800Y-121846800D01*
G75*
G02*
X104321800Y-121621800I225000J0D01*
G01*
X104821800Y-121621800D01*
G75*
G02*
X105046800Y-121846800I0J-225000D01*
G01*
X105046800Y-122296800D01*
G75*
G02*
X104821800Y-122521800I-225000J0D01*
G01*
G37*
%TD.AperFunction*%
%TO.P,C37,1*%
%TO.N,+3V3*%
%TA.AperFunction,SMDPad,CuDef*%
G36*
G01*
X104821800Y-124071800D02*
X104321800Y-124071800D01*
G75*
G02*
X104096800Y-123846800I0J225000D01*
G01*
X104096800Y-123396800D01*
G75*
G02*
X104321800Y-123171800I225000J0D01*
G01*
X104821800Y-123171800D01*
G75*
G02*
X105046800Y-123396800I0J-225000D01*
G01*
X105046800Y-123846800D01*
G75*
G02*
X104821800Y-124071800I-225000J0D01*
G01*
G37*
%TD.AperFunction*%
%TD*%
%TO.P,C33,2*%
%TO.N,GND1*%
%TA.AperFunction,SMDPad,CuDef*%
G36*
G01*
X127362800Y-120823800D02*
X127362800Y-120323800D01*
G75*
G02*
X127587800Y-120098800I225000J0D01*
G01*
X128037800Y-120098800D01*
G75*
G02*
X128262800Y-120323800I0J-225000D01*
G01*
X128262800Y-120823800D01*
G75*
G02*
X128037800Y-121048800I-225000J0D01*
G01*
X127587800Y-121048800D01*
G75*
G02*
X127362800Y-120823800I0J225000D01*
G01*
G37*
%TD.AperFunction*%
%TO.P,C33,1*%
%TO.N,/ESP32_part/~RST*%
%TA.AperFunction,SMDPad,CuDef*%
G36*
G01*
X125812800Y-120823800D02*
X125812800Y-120323800D01*
G75*
G02*
X126037800Y-120098800I225000J0D01*
G01*
X126487800Y-120098800D01*
G75*
G02*
X126712800Y-120323800I0J-225000D01*
G01*
X126712800Y-120823800D01*
G75*
G02*
X126487800Y-121048800I-225000J0D01*
G01*
X126037800Y-121048800D01*
G75*
G02*
X125812800Y-120823800I0J225000D01*
G01*
G37*
%TD.AperFunction*%
%TD*%
D46*
%TO.P,U13,22*%
%TO.N,/ESP32_part/TX*%
X120263800Y-141127800D03*
%TO.P,U13,21*%
%TO.N,/ESP32_part/RX*%
X118263800Y-141127800D03*
%TO.P,U13,20*%
%TO.N,/I2C_SCL*%
X116263800Y-141127800D03*
%TO.P,U13,19*%
%TO.N,/I2C_SDA*%
X114263800Y-141127800D03*
%TO.P,U13,18*%
%TO.N,/ESP32_part/GPIO0*%
X112263800Y-141127800D03*
%TO.P,U13,17*%
%TO.N,/ESP_LED*%
X110263800Y-141127800D03*
%TO.P,U13,16*%
%TO.N,/ESP32_part/GPIO15*%
X108263800Y-141127800D03*
%TO.P,U13,15*%
%TO.N,GND1*%
X106263800Y-141127800D03*
D47*
%TO.P,U13,14*%
%TO.N,N/C*%
X104763800Y-138527800D03*
%TO.P,U13,13*%
X104763800Y-136527800D03*
%TO.P,U13,12*%
X104763800Y-134527800D03*
%TO.P,U13,11*%
X104763800Y-132527800D03*
%TO.P,U13,10*%
X104763800Y-130527800D03*
%TO.P,U13,9*%
X104763800Y-128527800D03*
D46*
%TO.P,U13,8*%
%TO.N,+3V3*%
X106263800Y-125927800D03*
%TO.P,U13,7*%
%TO.N,/+5V_valid*%
X108263800Y-125927800D03*
%TO.P,U13,6*%
%TO.N,/~I2C_INT*%
X110263800Y-125927800D03*
%TO.P,U13,5*%
%TO.N,/~CTRL_RST*%
X112263800Y-125927800D03*
%TO.P,U13,4*%
%TO.N,/ESP32_part/GPIO16*%
X114263800Y-125927800D03*
%TO.P,U13,3*%
%TO.N,/ESP32_part/EN*%
X116263800Y-125927800D03*
%TO.P,U13,2*%
%TO.N,/ESP32_part/ADC*%
X118263800Y-125927800D03*
%TO.P,U13,1*%
%TO.N,/ESP32_part/~RST*%
X120263800Y-125927800D03*
%TD*%
D48*
%TO.N,*%
X94411800Y-76123800D03*
X94411800Y-78155800D03*
X97459800Y-78155800D03*
X97459800Y-76123800D03*
X95935800Y-76123800D03*
X95935800Y-78155800D03*
X94411800Y-89077800D03*
X97459800Y-89077800D03*
X95935800Y-89077800D03*
X94411800Y-91109800D03*
X95935800Y-91109800D03*
X97459800Y-91109800D03*
X96697800Y-90093800D03*
X95173800Y-90093800D03*
X95173800Y-77139800D03*
X96697800Y-77139800D03*
%TO.N,GND1*%
X107556300Y-116636800D03*
X84759800Y-99491800D03*
X73837800Y-111556800D03*
X73837800Y-115239800D03*
X125907800Y-109778800D03*
X116255800Y-104190800D03*
X112318800Y-129844800D03*
X108254800Y-137337800D03*
X118287800Y-129844800D03*
X127812800Y-120573800D03*
X107365800Y-90982800D03*
X83870800Y-108889800D03*
X106095800Y-82473800D03*
X110540800Y-84759800D03*
X115874800Y-84759800D03*
X115874800Y-82473800D03*
X110540800Y-82473800D03*
X88188800Y-86156800D03*
X98475800Y-84632800D03*
X103936800Y-83616800D03*
X98475800Y-82600800D03*
X86156800Y-78663800D03*
X82346800Y-89585800D03*
X80695800Y-89585800D03*
X72186800Y-90220800D03*
D49*
X77520800Y-99110800D03*
D48*
X99872800Y-135623300D03*
X127685800Y-118795800D03*
X127685800Y-115239800D03*
D50*
X105079800Y-141147800D03*
D48*
X104571800Y-122071800D03*
X106222800Y-122084800D03*
X92887800Y-131368800D03*
X83489800Y-133654800D03*
X83362800Y-83489800D03*
X78536790Y-86029800D03*
X81330800Y-88201800D03*
X86638800Y-90855800D03*
X73837800Y-98501800D03*
X72186800Y-98501800D03*
X74700800Y-100253800D03*
X107746800Y-88188800D03*
D49*
X122479000Y-117398600D03*
D48*
X104521300Y-116636800D03*
X76250800Y-127558800D03*
X80645300Y-120764300D03*
X73964800Y-118033800D03*
X83045300Y-126352300D03*
X100317300Y-123939300D03*
D50*
X90601792Y-128003300D03*
X99491800Y-128003304D03*
X90728800Y-99110800D03*
D48*
X88760300Y-125336300D03*
X105206800Y-94284800D03*
X107746800Y-102158800D03*
D51*
X99618800Y-97205800D03*
D48*
X127812800Y-98983800D03*
%TO.N,+3V3*%
X101904800Y-93141800D03*
X118160800Y-87807800D03*
X97713800Y-100507800D03*
X92506800Y-103301800D03*
X112318800Y-137337800D03*
X110286800Y-137337800D03*
X118287800Y-133908800D03*
X107746800Y-79425800D03*
X112191800Y-87807800D03*
X114223800Y-87807800D03*
X114223800Y-79425800D03*
X112191800Y-79425800D03*
X100126800Y-87807800D03*
X100126800Y-79425800D03*
X90220800Y-77139800D03*
X83362800Y-101650800D03*
X104571800Y-123621800D03*
X120192800Y-122098800D03*
X116255800Y-122098800D03*
X81330800Y-86651800D03*
X88188800Y-90855800D03*
D50*
X81584800Y-95681800D03*
D48*
X105841800Y-90982800D03*
X102971300Y-116636800D03*
X72414800Y-118033800D03*
X79095300Y-120764300D03*
D50*
X88061808Y-128003300D03*
X102031804Y-128003300D03*
D48*
X84759800Y-97967800D03*
X94157800Y-96697800D03*
X94538800Y-105460800D03*
D50*
X89458800Y-95173800D03*
D48*
X89458800Y-98856800D03*
X95554800Y-93396800D03*
X86220300Y-125336300D03*
X101904800Y-135559800D03*
X87934800Y-113588800D03*
X91998800Y-118160800D03*
X94284800Y-110667800D03*
X114096800Y-113842800D03*
X120192800Y-92887800D03*
X126415800Y-86029800D03*
X126414800Y-79552800D03*
X108254800Y-94285800D03*
X103682800Y-94284800D03*
X107746800Y-103682800D03*
X116001800Y-117398800D03*
%TO.N,+5P*%
X83870800Y-107365800D03*
X72211800Y-94806800D03*
D49*
X76251000Y-99110600D03*
X121209000Y-117398600D03*
D48*
X88823800Y-106221800D03*
X88873800Y-103097800D03*
%TO.N,/Ctrl_part/~RST*%
X85013800Y-122351800D03*
X105968800Y-117970300D03*
X81711800Y-118414800D03*
X90030300Y-123050300D03*
%TO.N,/Ctrl_part/jrline*%
X111136285Y-111381868D03*
%TO.N,/Ctrl_part/jcline*%
X110540800Y-80949800D03*
X106796800Y-86029800D03*
X112191800Y-108889800D03*
%TO.N,/Ctrl_part/jtline*%
X111335054Y-110401810D03*
%TO.N,/Ctrl_part/jlline*%
X106095800Y-80923800D03*
X109778800Y-113080800D03*
%TO.N,/Ctrl_part/jbline*%
X106301183Y-105088388D03*
X110540800Y-87808800D03*
%TO.N,/Ctrl_part/eLine_B*%
X98475800Y-81076800D03*
%TO.N,/ESP32_part/~RST*%
X126262800Y-120573800D03*
X127558800Y-113588800D03*
X114223800Y-122097800D03*
X93776800Y-87299800D03*
%TO.N,/ESP32_part/GPIO16*%
X120192800Y-129768800D03*
%TO.N,/ESP_LED*%
X110286800Y-138987800D03*
X101016127Y-110545725D03*
%TO.N,/Ctrl_part/SWDIO*%
X99491800Y-106857800D03*
X96443800Y-120319800D03*
%TO.N,/Ctrl_part/SWCLK*%
X87426800Y-122351800D03*
X98221800Y-107873800D03*
%TO.N,/+5V_valid*%
X95554800Y-95046800D03*
X105206800Y-111429800D03*
%TO.N,Net-(Q8-Pad3)*%
X123748800Y-113461800D03*
X115746800Y-113842800D03*
%TO.N,Net-(Q9-Pad3)*%
X117652800Y-117398800D03*
X123748800Y-117398800D03*
%TO.N,/DTS_2*%
X87934800Y-111683800D03*
X99999800Y-115250800D03*
%TO.N,/Ctrl_part/IFC_SDA*%
X84759800Y-100761800D03*
X101650800Y-108000800D03*
%TO.N,/Ctrl_part/IFC_SCL*%
X102650786Y-108008013D03*
X86410800Y-97459800D03*
%TO.N,/ESP32_part/GPIO0*%
X112318800Y-138987800D03*
X91871800Y-84251800D03*
%TO.N,/Ctrl_part/~IFC_INT*%
X81711800Y-101650800D03*
X106200469Y-112341145D03*
%TO.N,/ESP32_part/GPIO15*%
X108254800Y-138988300D03*
%TO.N,/ESP32_part/ADC*%
X118287800Y-128193800D03*
%TO.N,/~ESP_RST*%
X125907800Y-107111800D03*
X100949726Y-109547930D03*
%TO.N,/ESP32_part/RX*%
X118287800Y-138987800D03*
%TO.N,/ESP32_part/TX*%
X120192800Y-138988800D03*
%TO.N,/I2C_SDA*%
X95110302Y-130987816D03*
X98602800Y-131114800D03*
X105968800Y-102276541D03*
X107492800Y-119684800D03*
%TO.N,/I2C_SCL*%
X95095121Y-132305145D03*
X99618794Y-132638800D03*
X104776609Y-102334991D03*
X106724577Y-120434800D03*
%TO.N,/~I2C_INT*%
X107689476Y-114408124D03*
X105307131Y-104979469D03*
%TO.N,/~CTRL_INT*%
X100507800Y-104952800D03*
X104444800Y-112699800D03*
%TO.N,/~RTC_INT*%
X92630400Y-132631494D03*
X98221800Y-110810787D03*
%TO.N,/RTC_CLK*%
X95110300Y-133591300D03*
X98221792Y-111810800D03*
%TO.N,/Ctrl_part/~btn_int*%
X105333800Y-108889800D03*
X106451400Y-93167200D03*
%TO.N,Net-(D2-Pad2)*%
X82981800Y-80441800D03*
%TO.N,/Ctrl_part/IFC_SDA_VLT/S_left*%
X90474800Y-104572800D03*
%TO.N,Net-(R85-Pad2)*%
X118287800Y-137337800D03*
X87553800Y-84632800D03*
%TO.N,Net-(R86-Pad2)*%
X120192800Y-137337800D03*
X86537800Y-84632800D03*
%TO.N,/USB_D-*%
X83362804Y-82473800D03*
%TO.N,/USB_D+*%
X83362808Y-84632796D03*
%TO.N,/Ctrl_part/jtbtn*%
X114223800Y-77774800D03*
%TO.N,/Ctrl_part/jcbtn*%
X110540800Y-77774800D03*
%TO.N,/Ctrl_part/jlbtn*%
X107746800Y-77774800D03*
%TO.N,/Ctrl_part/jrbtn*%
X114223800Y-89458800D03*
%TO.N,/Ctrl_part/jbbtn*%
X110540800Y-89458800D03*
%TO.N,/Ctrl_part/EC11_A*%
X103938800Y-86139800D03*
%TO.N,/Ctrl_part/EC11_B*%
X103938800Y-81139800D03*
%TO.N,/Ctrl_part/EC11_E*%
X88188800Y-81139800D03*
%TO.N,/EXT_SDA*%
X127939800Y-82854800D03*
%TO.N,/EXT_SCL*%
X127939800Y-89330800D03*
%TO.N,/~EXT_INT*%
X118542800Y-92887800D03*
%TO.N,/POW_SCL*%
X103103800Y-99181800D03*
%TO.N,/POW_SDA*%
X102158800Y-95935800D03*
%TO.N,/FAN_SCL*%
X102834969Y-100548969D03*
X112572800Y-110541800D03*
%TO.N,/FAN_SDA*%
X114477800Y-115748800D03*
X101903810Y-99237800D03*
%TO.N,Net-(R19-Pad2)*%
X108254800Y-95935800D03*
%TO.N,Net-(R20-Pad2)*%
X106730800Y-95934800D03*
%TO.N,Net-(Q16-Pad1)*%
X112318300Y-122098300D03*
%TO.N,Net-(R41-Pad2)*%
X104190800Y-107873800D03*
X107698779Y-105674719D03*
%TO.N,Net-(R77-Pad2)*%
X125120798Y-118795800D03*
%TO.N,Net-(R89-Pad2)*%
X78981300Y-125590300D03*
%TO.N,Net-(R90-Pad2)*%
X80505300Y-125590300D03*
%TO.N,Net-(R95-Pad1)*%
X82029300Y-125590300D03*
%TO.N,/+5V*%
X81076800Y-83489800D03*
%TO.N,/ESP32_part/a0*%
X72186800Y-126669800D03*
%TO.N,/ESP32_part/a1*%
X73710800Y-126669800D03*
%TO.N,/ESP32_part/a2*%
X75234800Y-126669800D03*
%TO.N,Net-(Q6-Pad3)*%
X99110800Y-95935800D03*
%TO.N,Net-(Q10-Pad3)*%
X85648800Y-140639800D03*
X91683808Y-112953800D03*
%TO.N,Net-(Q12-Pad3)*%
X86284800Y-113588800D03*
%TD*%
D52*
%TO.N,GND1*%
X82260800Y-83489800D02*
X83362800Y-83489800D01*
X77870800Y-85363810D02*
X77870800Y-85110801D01*
X78536790Y-86029800D02*
X77870800Y-85363810D01*
X74700800Y-101904800D02*
X74700800Y-100253800D01*
X74700800Y-100253800D02*
X74700800Y-100253800D01*
D53*
X73999798Y-104063800D02*
X74769800Y-104063800D01*
X73894799Y-103958801D02*
X73999798Y-104063800D01*
X73894799Y-102710801D02*
X73894799Y-103958801D01*
X74700800Y-101904800D02*
X73894799Y-102710801D01*
D52*
X78536800Y-101624800D02*
X80187788Y-101624800D01*
D54*
X85810800Y-108889800D02*
X86318800Y-109397800D01*
X83870800Y-108889800D02*
X85810800Y-108889800D01*
X107721800Y-88213800D02*
X107746800Y-88188800D01*
X107721800Y-89516800D02*
X107721800Y-88213800D01*
D55*
X105099800Y-141127800D02*
X105079800Y-141147800D01*
X106263800Y-141127800D02*
X105099800Y-141127800D01*
D53*
X104146300Y-116261800D02*
X104521300Y-116636800D01*
X104146300Y-114779300D02*
X104146300Y-116261800D01*
X104521300Y-116636800D02*
X104521300Y-116636800D01*
X123493800Y-110672800D02*
X124151800Y-111330800D01*
X123493800Y-109461300D02*
X123493800Y-110672800D01*
X123494800Y-102263800D02*
X124151800Y-102920800D01*
X123494800Y-101079300D02*
X123494800Y-102263800D01*
D56*
X127685800Y-114780798D02*
X127685800Y-115195800D01*
X126239802Y-113334800D02*
X127685800Y-114780798D01*
X125939800Y-113334800D02*
X126239802Y-113334800D01*
X73710800Y-120130800D02*
X73710800Y-121081800D01*
X74028300Y-121399300D02*
X74028300Y-122351800D01*
X73710800Y-121081800D02*
X74028300Y-121399300D01*
D52*
X73710800Y-118287800D02*
X73964800Y-118033800D01*
X73710800Y-120130800D02*
X73710800Y-118287800D01*
X73964800Y-118033800D02*
X73964800Y-118033800D01*
X76250800Y-125080800D02*
X76250800Y-127558800D01*
D53*
X75732800Y-128076800D02*
X76250800Y-127558800D01*
X75328300Y-128076800D02*
X75732800Y-128076800D01*
X80505300Y-120904300D02*
X80645300Y-120764300D01*
X80505300Y-122861300D02*
X80505300Y-120904300D01*
X80645300Y-120764300D02*
X80645300Y-120764300D01*
D52*
X83045300Y-126352300D02*
X83045300Y-127811300D01*
D57*
X100343300Y-123965300D02*
X100317300Y-123939300D01*
X101333300Y-123965300D02*
X100343300Y-123965300D01*
X100291300Y-123965300D02*
X100317300Y-123939300D01*
X99301300Y-123965300D02*
X100291300Y-123965300D01*
X100317300Y-123939300D02*
X100317300Y-119748300D01*
D52*
X88760300Y-123638300D02*
X88760300Y-125336300D01*
X88760300Y-126161808D02*
X90601792Y-128003300D01*
D55*
X78054800Y-99110800D02*
X78663800Y-98501800D01*
X77520800Y-99110800D02*
X78054800Y-99110800D01*
X78663800Y-98501800D02*
X80314800Y-98501800D01*
D54*
X80640800Y-98175800D02*
X80314800Y-98501800D01*
X81838800Y-98175800D02*
X80640800Y-98175800D01*
D52*
X88760300Y-125336300D02*
X88760300Y-126161808D01*
D53*
X107746800Y-102132800D02*
X107746800Y-102158800D01*
X100503800Y-97899300D02*
X99810300Y-97205800D01*
X99810300Y-97205800D02*
X99618800Y-97205800D01*
D52*
X127812800Y-97612300D02*
X127812800Y-98983800D01*
D56*
X102539800Y-118618300D02*
X104521300Y-116636800D01*
X102539800Y-124891800D02*
X102539800Y-118618300D01*
X100571300Y-125145800D02*
X102285800Y-125145800D01*
X102285800Y-125145800D02*
X102539800Y-124891800D01*
X100317300Y-124891800D02*
X100571300Y-125145800D01*
X100317300Y-123939300D02*
X100317300Y-124891800D01*
D54*
X77520800Y-100608800D02*
X78536800Y-101624800D01*
X77520800Y-99110800D02*
X77520800Y-100608800D01*
D56*
X82092800Y-133146800D02*
X82600800Y-133654800D01*
X82092800Y-131876800D02*
X82092800Y-133146800D01*
X82600800Y-131368800D02*
X82092800Y-131876800D01*
X82600800Y-133654800D02*
X83489800Y-133654800D01*
X92887800Y-131368800D02*
X82600800Y-131368800D01*
D55*
%TO.N,Net-(BT1-Pad1)*%
X85179302Y-139306300D02*
X80543802Y-134670800D01*
X80543802Y-134670800D02*
X77647800Y-134670800D01*
X90679302Y-139306300D02*
X85179302Y-139306300D01*
X91822302Y-138163300D02*
X90679302Y-139306300D01*
X99602300Y-138163300D02*
X91822302Y-138163300D01*
X100046800Y-137718800D02*
X99602300Y-138163300D01*
X96316800Y-126549800D02*
X95046800Y-125279800D01*
X96316800Y-133988800D02*
X96316800Y-126549800D01*
X100046800Y-137718800D02*
X96316800Y-133988800D01*
%TO.N,+3V3*%
X106263800Y-123675800D02*
X106222800Y-123634800D01*
X106263800Y-125927800D02*
X106263800Y-123675800D01*
X104584800Y-123634800D02*
X104571800Y-123621800D01*
X106222800Y-123634800D02*
X104584800Y-123634800D01*
D56*
X81584800Y-94374800D02*
X81584800Y-94792800D01*
D55*
X81584800Y-94792800D02*
X81584800Y-95681800D01*
D53*
X103346300Y-116261800D02*
X102971300Y-116636800D01*
X103346300Y-114779300D02*
X103346300Y-116261800D01*
X102971300Y-116636800D02*
X102971300Y-116636800D01*
X79095300Y-120764300D02*
X79095300Y-120764300D01*
X79235300Y-122861300D02*
X79235300Y-120904300D01*
X79235300Y-120904300D02*
X79095300Y-120764300D01*
D52*
X72414800Y-118033800D02*
X72414800Y-118033800D01*
X72440800Y-120130800D02*
X72440800Y-118059800D01*
X72440800Y-118059800D02*
X72414800Y-118033800D01*
D56*
X73378300Y-121511300D02*
X72440800Y-120573800D01*
X72440800Y-120573800D02*
X72440800Y-120130800D01*
X73378300Y-122351800D02*
X73378300Y-121511300D01*
D52*
X86220300Y-123638300D02*
X86220300Y-125336300D01*
X86220300Y-126161792D02*
X88061808Y-128003300D01*
D55*
X78663800Y-96189800D02*
X78663800Y-96951800D01*
X79171800Y-95681800D02*
X78663800Y-96189800D01*
X81584800Y-95681800D02*
X79171800Y-95681800D01*
X78663800Y-96951800D02*
X80314800Y-96951800D01*
D54*
X80568800Y-97205800D02*
X80314800Y-96951800D01*
X81838800Y-97205800D02*
X80568800Y-97205800D01*
D52*
X84551800Y-98175800D02*
X84759800Y-97967800D01*
X83338800Y-98175800D02*
X84551800Y-98175800D01*
X84759800Y-97967800D02*
X84759800Y-97967800D01*
D53*
X94156800Y-98476800D02*
X94157800Y-98475800D01*
X92506800Y-98476800D02*
X94156800Y-98476800D01*
X94157800Y-98475800D02*
X94157800Y-96697800D01*
X88423810Y-97572810D02*
X88310800Y-97459800D01*
X91553800Y-96697800D02*
X90678790Y-97572810D01*
X89458800Y-97586800D02*
X89472790Y-97572810D01*
X89458800Y-98856800D02*
X89458800Y-97586800D01*
X89472790Y-97572810D02*
X88423810Y-97572810D01*
X90678790Y-97572810D02*
X89472790Y-97572810D01*
D52*
X86220300Y-125336300D02*
X86220300Y-126161792D01*
D53*
X92125800Y-118033800D02*
X91998800Y-118160800D01*
X92125800Y-116504800D02*
X92125800Y-118033800D01*
X93526800Y-116504800D02*
X93649800Y-116381800D01*
X92125800Y-116504800D02*
X93526800Y-116504800D01*
X91998800Y-118160800D02*
X91998800Y-118160800D01*
X93998800Y-110953800D02*
X94284800Y-110667800D01*
X92633800Y-110953800D02*
X93998800Y-110953800D01*
X92633800Y-110953800D02*
X92633800Y-109143800D01*
X108253800Y-94284800D02*
X108254800Y-94285800D01*
X106730800Y-94284800D02*
X108253800Y-94284800D01*
X103681800Y-94285800D02*
X103682800Y-94284800D01*
X102158800Y-94285800D02*
X103681800Y-94285800D01*
X100635800Y-94285800D02*
X100634800Y-94284800D01*
X102158800Y-94285800D02*
X100635800Y-94285800D01*
X107688300Y-103624300D02*
X107746800Y-103682800D01*
X106353800Y-103624300D02*
X107688300Y-103624300D01*
X100634800Y-94284800D02*
X99110800Y-94284800D01*
D52*
%TO.N,+5P*%
X76250800Y-101904800D02*
X76250800Y-100253800D01*
D53*
X74769800Y-103385800D02*
X76250800Y-101904800D01*
X74769800Y-103413800D02*
X74769800Y-103385800D01*
D58*
X76250800Y-99110800D02*
X76251000Y-99110600D01*
X76250800Y-100253800D02*
X76250800Y-99110800D01*
D54*
X85810800Y-107365800D02*
X86318800Y-106857800D01*
X83870800Y-107365800D02*
X85810800Y-107365800D01*
D52*
X88187800Y-106857800D02*
X88823800Y-106221800D01*
X86318800Y-106857800D02*
X88187800Y-106857800D01*
X88823800Y-106221800D02*
X88823800Y-106221800D01*
D53*
X88824800Y-106222800D02*
X88823800Y-106221800D01*
X90474800Y-106222800D02*
X88824800Y-106222800D01*
X91109800Y-106222800D02*
X90474800Y-106222800D01*
X91712800Y-106825800D02*
X91109800Y-106222800D01*
X92191800Y-106825800D02*
X91712800Y-106825800D01*
D56*
%TO.N,/Ctrl_part/~RST*%
X104946300Y-115563800D02*
X106019300Y-116636800D01*
X104946300Y-114779300D02*
X104946300Y-115563800D01*
X72920799Y-114218299D02*
X72920799Y-114633301D01*
X72990799Y-114148299D02*
X72920799Y-114218299D01*
X73075800Y-114148299D02*
X72990799Y-114148299D01*
X73075800Y-112648301D02*
X73075800Y-114148299D01*
X72920799Y-114633301D02*
X72377550Y-115176550D01*
X72920799Y-112578301D02*
X72990799Y-112648301D01*
X72920799Y-112163299D02*
X72920799Y-112578301D01*
X72990799Y-112648301D02*
X73075800Y-112648301D01*
X72355800Y-111598300D02*
X72920799Y-112163299D01*
X72377550Y-115176550D02*
X72355800Y-115198300D01*
X106019300Y-117919800D02*
X105968800Y-117970300D01*
X106019300Y-116636800D02*
X106019300Y-117919800D01*
X72990799Y-116248301D02*
X72355800Y-115613302D01*
X72355800Y-115613302D02*
X72355800Y-115198300D01*
X74973301Y-116248301D02*
X72990799Y-116248301D01*
X77139800Y-118414800D02*
X74973301Y-116248301D01*
X81711800Y-118414800D02*
X81711800Y-118414800D01*
X81711800Y-118414800D02*
X77139800Y-118414800D01*
X90712300Y-123050300D02*
X91300300Y-123638300D01*
X90030300Y-123050300D02*
X90712300Y-123050300D01*
%TO.N,/Ctrl_part/jrline*%
X110758717Y-111004300D02*
X111136285Y-111381868D01*
X107921300Y-111004300D02*
X110758717Y-111004300D01*
%TO.N,/Ctrl_part/jcline*%
X106796800Y-84693800D02*
X106796800Y-86029800D01*
X110540800Y-80949800D02*
X106796800Y-84693800D01*
X111677300Y-109404300D02*
X112191800Y-108889800D01*
X107921300Y-109404300D02*
X111677300Y-109404300D01*
%TO.N,/Ctrl_part/jtline*%
X107921300Y-110204300D02*
X111137544Y-110204300D01*
X111137544Y-110204300D02*
X111335054Y-110401810D01*
%TO.N,/Ctrl_part/jlline*%
X109302300Y-112604300D02*
X109778800Y-113080800D01*
X107921300Y-112604300D02*
X109302300Y-112604300D01*
%TO.N,/Ctrl_part/jbline*%
X106222800Y-105173802D02*
X106222800Y-104952800D01*
X105746300Y-105650302D02*
X106222800Y-105173802D01*
X105746300Y-106429300D02*
X105746300Y-105650302D01*
%TO.N,/Ctrl_part/eLine_B*%
X99571300Y-108604300D02*
X99551799Y-108623801D01*
X99551799Y-108623801D02*
X97861799Y-108623801D01*
X97861799Y-108623801D02*
X97471799Y-108233801D01*
X98607978Y-106377620D02*
X98607978Y-96684810D01*
X97471799Y-108233801D02*
X97471799Y-107513799D01*
X98285790Y-93856978D02*
X98607978Y-93534790D01*
X97471799Y-107513799D02*
X98607978Y-106377620D01*
X98607978Y-96684810D02*
X98285790Y-96362622D01*
X98285790Y-96362622D02*
X98285790Y-93856978D01*
X98607978Y-93534790D02*
X98607978Y-85874980D01*
X98607978Y-85874980D02*
X97725799Y-84992801D01*
X97725799Y-84992801D02*
X97725799Y-81826801D01*
X97725799Y-81826801D02*
X98475800Y-81076800D01*
%TO.N,/ESP32_part/~RST*%
X120263800Y-123819800D02*
X120192800Y-123748800D01*
X120263800Y-125927800D02*
X120263800Y-123819800D01*
X115124790Y-122998790D02*
X114223800Y-122097800D01*
X119442790Y-122998790D02*
X115124790Y-122998790D01*
X120192800Y-123748800D02*
X119442790Y-122998790D01*
X127939800Y-113207800D02*
X127558800Y-113588800D01*
X127939800Y-112384800D02*
X127939800Y-113207800D01*
X125945300Y-120891300D02*
X126262800Y-120573800D01*
X120147468Y-120891300D02*
X125945300Y-120891300D01*
X119367790Y-121670978D02*
X120147468Y-120891300D01*
X119367790Y-122923790D02*
X119367790Y-121670978D01*
X120192800Y-123748800D02*
X119367790Y-122923790D01*
X114223800Y-122097800D02*
X114223800Y-122097800D01*
%TO.N,/ESP32_part/GPIO16*%
X114263800Y-123787800D02*
X114223800Y-123747800D01*
X114263800Y-125927800D02*
X114263800Y-123787800D01*
X119379800Y-128955800D02*
X120192800Y-129768800D01*
X115741800Y-128955800D02*
X119379800Y-128955800D01*
X114263800Y-127477800D02*
X115741800Y-128955800D01*
X114263800Y-125927800D02*
X114263800Y-127477800D01*
%TO.N,/ESP_LED*%
X110263800Y-139010800D02*
X110286800Y-138987800D01*
X110263800Y-141127800D02*
X110263800Y-139010800D01*
X100662725Y-110545725D02*
X101016127Y-110545725D01*
X100321300Y-110204300D02*
X100662725Y-110545725D01*
X99571300Y-110204300D02*
X100321300Y-110204300D01*
%TO.N,/Ctrl_part/SWDIO*%
X99920300Y-106429300D02*
X99491800Y-106857800D01*
X100946300Y-106429300D02*
X99920300Y-106429300D01*
X91273800Y-120319800D02*
X96443800Y-120319800D01*
X90030300Y-120938300D02*
X90655300Y-120938300D01*
X90655300Y-120938300D02*
X91273800Y-120319800D01*
D53*
%TO.N,/Ctrl_part/SWCLK*%
X87490300Y-122288300D02*
X87426800Y-122351800D01*
X87490300Y-120938300D02*
X87490300Y-122288300D01*
X87426800Y-122351800D02*
X87426800Y-122351800D01*
D56*
X98291300Y-107804300D02*
X98221800Y-107873800D01*
X99571300Y-107804300D02*
X98291300Y-107804300D01*
X91614802Y-121208800D02*
X94411800Y-121208800D01*
X90598802Y-122224800D02*
X91614802Y-121208800D01*
X87553800Y-122224800D02*
X90598802Y-122224800D01*
X87426800Y-122351800D02*
X87553800Y-122224800D01*
%TO.N,/+5V_valid*%
X108369310Y-125822290D02*
X108263800Y-125927800D01*
X108369310Y-116148620D02*
X108369310Y-125822290D01*
X106999990Y-114779300D02*
X108369310Y-116148620D01*
X106546300Y-114779300D02*
X106999990Y-114779300D01*
X106546300Y-113752288D02*
X106546300Y-114779300D01*
X105206800Y-112412788D02*
X106546300Y-113752288D01*
X105206800Y-111429800D02*
X105206800Y-112412788D01*
%TO.N,/DTS_0*%
X90733800Y-109393800D02*
X90983800Y-109143800D01*
X90733800Y-110953800D02*
X90733800Y-109393800D01*
X90983800Y-109143800D02*
X90983800Y-109143800D01*
X91533801Y-111753801D02*
X90733800Y-110953800D01*
X93313801Y-111753801D02*
X91533801Y-111753801D01*
X93499812Y-111567790D02*
X93313801Y-111753801D01*
X95824132Y-112604300D02*
X94787622Y-111567790D01*
X94787622Y-111567790D02*
X93499812Y-111567790D01*
X99571300Y-112604300D02*
X95824132Y-112604300D01*
%TO.N,/DTS_1*%
X93522800Y-114604800D02*
X93649800Y-114731800D01*
X92125800Y-114604800D02*
X93522800Y-114604800D01*
X94977300Y-113404300D02*
X93649800Y-114731800D01*
X99571300Y-113404300D02*
X94977300Y-113404300D01*
%TO.N,/DTS_2*%
X100471300Y-114779300D02*
X99999800Y-115250800D01*
X100946300Y-114779300D02*
X100471300Y-114779300D01*
%TO.N,/Ctrl_part/IFC_SDA*%
X92755800Y-100375800D02*
X92506800Y-100126800D01*
X94157800Y-100375800D02*
X92755800Y-100375800D01*
X83984800Y-100761800D02*
X84759800Y-100761800D01*
X83338800Y-100115800D02*
X83984800Y-100761800D01*
X88092919Y-98659799D02*
X89559920Y-100126800D01*
X86680799Y-98659799D02*
X88092919Y-98659799D01*
X89559920Y-100126800D02*
X92506800Y-100126800D01*
X86066299Y-99274299D02*
X86680799Y-98659799D01*
X86066299Y-99709301D02*
X86066299Y-99274299D01*
X85013800Y-100761800D02*
X86066299Y-99709301D01*
X84759800Y-100761800D02*
X85013800Y-100761800D01*
X101746300Y-107905300D02*
X101650800Y-108000800D01*
X101746300Y-106429300D02*
X101746300Y-107905300D01*
%TO.N,/Ctrl_part/IFC_SCL*%
X83376810Y-97167790D02*
X83338800Y-97205800D01*
X85247980Y-97167790D02*
X83376810Y-97167790D01*
X85539990Y-97459800D02*
X85247980Y-97167790D01*
X86410800Y-97459800D02*
X85539990Y-97459800D01*
X89865799Y-96659799D02*
X89903800Y-96697800D01*
X87210801Y-96659799D02*
X89865799Y-96659799D01*
X86410800Y-97459800D02*
X87210801Y-96659799D01*
X102546300Y-107903527D02*
X102650786Y-108008013D01*
X102546300Y-106429300D02*
X102546300Y-107903527D01*
%TO.N,/ESP32_part/GPIO0*%
X112263800Y-139042800D02*
X112318800Y-138987800D01*
X112263800Y-141127800D02*
X112263800Y-139042800D01*
%TO.N,/Ctrl_part/~IFC_INT*%
X81838800Y-101523800D02*
X81711800Y-101650800D01*
X81838800Y-100115800D02*
X81838800Y-101523800D01*
X81711800Y-101650800D02*
X81711800Y-101650800D01*
X107513624Y-113654300D02*
X106200469Y-112341145D01*
X107671300Y-113654300D02*
X107513624Y-113654300D01*
X107921300Y-113404300D02*
X107671300Y-113654300D01*
%TO.N,/~CTRL_RST*%
X112263800Y-123803800D02*
X112318800Y-123748800D01*
X112263800Y-125927800D02*
X112263800Y-123803800D01*
D57*
%TO.N,/Ctrl_part/ADC0*%
X121843800Y-110412800D02*
X120953800Y-111302800D01*
X121843800Y-109461300D02*
X121843800Y-110412800D01*
D56*
X120510300Y-108127800D02*
X121843800Y-109461300D01*
X109399183Y-108127800D02*
X120510300Y-108127800D01*
X108922683Y-108604300D02*
X109399183Y-108127800D01*
X107921300Y-108604300D02*
X108922683Y-108604300D01*
D57*
%TO.N,/Ctrl_part/ADC1*%
X116193300Y-102477300D02*
X116255800Y-102539800D01*
X116193300Y-101015800D02*
X116193300Y-102477300D01*
D56*
X113185800Y-102539800D02*
X107921300Y-107804300D01*
X116255800Y-102539800D02*
X113185800Y-102539800D01*
D57*
%TO.N,/Ctrl_part/ADC2*%
X121844800Y-102029800D02*
X120953800Y-102920800D01*
X121844800Y-101079300D02*
X121844800Y-102029800D01*
D56*
X114477800Y-99999800D02*
X120765300Y-99999800D01*
X120765300Y-99999800D02*
X121844800Y-101079300D01*
X108048300Y-106429300D02*
X114477800Y-99999800D01*
X106546300Y-106429300D02*
X108048300Y-106429300D01*
%TO.N,/ESP32_part/EN*%
X116263800Y-123756800D02*
X116255800Y-123748800D01*
X116263800Y-125927800D02*
X116263800Y-123756800D01*
%TO.N,/ESP32_part/GPIO15*%
X108263800Y-138997300D02*
X108254800Y-138988300D01*
X108263800Y-141127800D02*
X108263800Y-138997300D01*
%TO.N,/ESP32_part/ADC*%
X118263800Y-128169800D02*
X118287800Y-128193800D01*
X118263800Y-125927800D02*
X118263800Y-128169800D01*
D57*
X118287800Y-125903800D02*
X118263800Y-125927800D01*
X118287800Y-123748800D02*
X118287800Y-125903800D01*
D56*
%TO.N,/~ESP_RST*%
X99571300Y-109404300D02*
X100806096Y-109404300D01*
X100806096Y-109404300D02*
X100949726Y-109547930D01*
%TO.N,/ESP32_part/RX*%
X118263800Y-139011800D02*
X118287800Y-138987800D01*
X118263800Y-141127800D02*
X118263800Y-139011800D01*
%TO.N,/ESP32_part/TX*%
X120263800Y-139059800D02*
X120192800Y-138988800D01*
X120263800Y-141127800D02*
X120263800Y-139059800D01*
%TO.N,/I2C_SDA*%
X75328300Y-121623300D02*
X76250800Y-120700800D01*
X76250800Y-120700800D02*
X76250800Y-120130800D01*
X75328300Y-122351800D02*
X75328300Y-121623300D01*
X76942320Y-119439280D02*
X76250800Y-120130800D01*
X81315590Y-119439280D02*
X76942320Y-119439280D01*
X83045300Y-121168990D02*
X81315590Y-119439280D01*
X83045300Y-122861300D02*
X83045300Y-121168990D01*
X94411816Y-130987816D02*
X95110302Y-130987816D01*
X93522800Y-130098800D02*
X94411816Y-130987816D01*
X88560798Y-130098800D02*
X93522800Y-130098800D01*
X83045300Y-122861300D02*
X83045300Y-124583302D01*
X83045300Y-124583302D02*
X88560798Y-130098800D01*
X107157677Y-135677799D02*
X107158689Y-135678811D01*
X99897803Y-134027811D02*
X102233809Y-134027811D01*
X102233809Y-134027811D02*
X103883797Y-135677799D01*
X111769811Y-135678811D02*
X114263800Y-138172800D01*
X98602800Y-131114800D02*
X98602800Y-132732808D01*
X114263800Y-138172800D02*
X114263800Y-141127800D01*
X98602800Y-132732808D02*
X99897803Y-134027811D01*
X107158689Y-135678811D02*
X111769811Y-135678811D01*
X103883797Y-135677799D02*
X107157677Y-135677799D01*
X105703800Y-102541541D02*
X105968800Y-102276541D01*
X105703800Y-103624300D02*
X105703800Y-102541541D01*
X103047800Y-121589800D02*
X104952800Y-119684800D01*
X104952800Y-119684800D02*
X107492800Y-119684800D01*
X103047800Y-125090920D02*
X103047800Y-121589800D01*
X102276172Y-125645810D02*
X102492910Y-125645810D01*
X100581793Y-129135807D02*
X100581793Y-127340189D01*
X102492910Y-125645810D02*
X103047800Y-125090920D01*
X100581793Y-127340189D02*
X102276172Y-125645810D01*
X98602800Y-131114800D02*
X100581793Y-129135807D01*
%TO.N,/I2C_SCL*%
X74678300Y-122351800D02*
X74678300Y-121541300D01*
X74980800Y-121081800D02*
X74678300Y-121384300D01*
X74678300Y-121384300D02*
X74678300Y-121541300D01*
X74980800Y-120130800D02*
X74980800Y-121081800D01*
X81775300Y-120606110D02*
X81775300Y-122861300D01*
X81108480Y-119939290D02*
X81775300Y-120606110D01*
X77266310Y-119939290D02*
X81108480Y-119939290D01*
X76949300Y-120256300D02*
X77266310Y-119939290D01*
X75878310Y-123175704D02*
X75878310Y-122216290D01*
X75041896Y-123439310D02*
X75614704Y-123439310D01*
X75614704Y-123439310D02*
X75878310Y-123175704D01*
X74678300Y-123075714D02*
X75041896Y-123439310D01*
X76949300Y-121145300D02*
X76949300Y-120256300D01*
X75878310Y-122216290D02*
X76949300Y-121145300D01*
X74678300Y-122351800D02*
X74678300Y-123075714D01*
X81775300Y-122861300D02*
X81775300Y-124020424D01*
X93323678Y-130606800D02*
X95022023Y-132305145D01*
X81775300Y-124020424D02*
X88361676Y-130606800D01*
X88361676Y-130606800D02*
X93323678Y-130606800D01*
X95022023Y-132305145D02*
X95095121Y-132305145D01*
X100507794Y-133527800D02*
X99618794Y-132638800D01*
X105714800Y-133527800D02*
X100507794Y-133527800D01*
X111976922Y-135178800D02*
X107365800Y-135178800D01*
X116263800Y-141127800D02*
X116263800Y-139465678D01*
X107365800Y-135178800D02*
X105714800Y-133527800D01*
X116263800Y-139465678D02*
X111976922Y-135178800D01*
X105053800Y-103624300D02*
X105053800Y-102612182D01*
X105053800Y-102612182D02*
X104776609Y-102334991D01*
X104920610Y-120434800D02*
X106724577Y-120434800D01*
X103547810Y-121807600D02*
X104920610Y-120434800D01*
X102746910Y-126153810D02*
X103547810Y-125352910D01*
X102475292Y-126153810D02*
X102746910Y-126153810D01*
X103547810Y-125352910D02*
X103547810Y-121807600D01*
X101081803Y-129342917D02*
X101081803Y-127547299D01*
X100888800Y-129535920D02*
X101081803Y-129342917D01*
X100888800Y-129590800D02*
X100888800Y-129535920D01*
X99618794Y-130860806D02*
X100888800Y-129590800D01*
X101081803Y-127547299D02*
X102475292Y-126153810D01*
X99618794Y-132638800D02*
X99618794Y-130860806D01*
%TO.N,/~I2C_INT*%
X108869320Y-115600320D02*
X107746800Y-114477800D01*
X108869320Y-124153318D02*
X108869320Y-115600320D01*
X109113801Y-124397799D02*
X108869320Y-124153318D01*
X109113801Y-128627799D02*
X109113801Y-124397799D01*
X110263800Y-127477800D02*
X109113801Y-128627799D01*
X110263800Y-125927800D02*
X110263800Y-127477800D01*
X104403800Y-104361800D02*
X105021469Y-104979469D01*
X105021469Y-104979469D02*
X105307131Y-104979469D01*
X104403800Y-103624300D02*
X104403800Y-104361800D01*
%TO.N,/CTRL_SCL*%
X101803800Y-104348214D02*
X101803800Y-103624300D01*
X102167396Y-104711810D02*
X101803800Y-104348214D01*
X103978810Y-104711810D02*
X102167396Y-104711810D01*
X104946300Y-105679300D02*
X103978810Y-104711810D01*
X104946300Y-106429300D02*
X104946300Y-105679300D01*
%TO.N,/CTRL_SDA*%
X101153800Y-104455800D02*
X101153800Y-103624300D01*
X101909820Y-105211820D02*
X101153800Y-104455800D01*
X102750586Y-105211820D02*
X101909820Y-105211820D01*
X103346300Y-105807534D02*
X102750586Y-105211820D01*
X103346300Y-106429300D02*
X103346300Y-105807534D01*
%TO.N,/~CTRL_INT*%
X100503800Y-104948800D02*
X100507800Y-104952800D01*
X100503800Y-103624300D02*
X100503800Y-104948800D01*
X105746300Y-114001300D02*
X104444800Y-112699800D01*
X105746300Y-114779300D02*
X105746300Y-114001300D01*
%TO.N,/~RTC_INT*%
X99571300Y-111004300D02*
X98415313Y-111004300D01*
X98415313Y-111004300D02*
X98221800Y-110810787D01*
%TO.N,/RTC_CLK*%
X99571300Y-111804300D02*
X98228292Y-111804300D01*
X98228292Y-111804300D02*
X98221792Y-111810800D01*
%TO.N,/Ctrl_part/~btn_int*%
X105333800Y-109966800D02*
X105333800Y-108889800D01*
X107171300Y-111804300D02*
X105333800Y-109966800D01*
X107921300Y-111804300D02*
X107171300Y-111804300D01*
D52*
%TO.N,Net-(D4-Pad2)*%
X127787300Y-96062800D02*
X127812800Y-96037300D01*
X124891800Y-96062800D02*
X127787300Y-96062800D01*
%TO.N,Net-(F1-Pad1)*%
X77870800Y-82127800D02*
X77870800Y-82460799D01*
X79556800Y-80441800D02*
X77870800Y-82127800D01*
X80181800Y-80441800D02*
X79556800Y-80441800D01*
D57*
%TO.N,/ADC2*%
X119303800Y-101918800D02*
X120051800Y-101170800D01*
X119303800Y-102920800D02*
X119303800Y-101918800D01*
X119303800Y-103922800D02*
X120051800Y-104670800D01*
X119303800Y-102920800D02*
X119303800Y-103922800D01*
%TO.N,/ADC1*%
X117843300Y-102912300D02*
X117851800Y-102920800D01*
X117843300Y-101015800D02*
X117843300Y-102912300D01*
%TO.N,/ADC0*%
X119303800Y-110328800D02*
X120051800Y-109580800D01*
X119303800Y-111302800D02*
X119303800Y-110328800D01*
X119303800Y-112332800D02*
X120051800Y-113080800D01*
X119303800Y-111302800D02*
X119303800Y-112332800D01*
%TO.N,/ADC*%
X119811800Y-120555203D02*
X118892780Y-121474223D01*
X118892780Y-121493820D02*
X118287800Y-122098800D01*
X119811800Y-114858800D02*
X119811800Y-120555203D01*
X118892780Y-121474223D02*
X118892780Y-121493820D01*
X117851800Y-112898800D02*
X119811800Y-114858800D01*
X117851800Y-111330800D02*
X117851800Y-112898800D01*
%TO.N,/USB_CONN_D+*%
X79634802Y-84439800D02*
X80060800Y-84439800D01*
X78980802Y-83785800D02*
X79634802Y-84439800D01*
X77870800Y-83785800D02*
X78980802Y-83785800D01*
%TO.N,/USB_CONN_D-*%
X79666800Y-82539800D02*
X80060800Y-82539800D01*
X79070800Y-83135800D02*
X79666800Y-82539800D01*
X77870800Y-83135800D02*
X79070800Y-83135800D01*
D56*
%TO.N,/Ctrl_part/IFC_SDA_VLT/S_left*%
X93291799Y-106025799D02*
X91927799Y-106025799D01*
X91927799Y-106025799D02*
X90474800Y-104572800D01*
X94091800Y-106825800D02*
X93291799Y-106025799D01*
%TO.N,/Ctrl_part/IFC_SCL_VLT/S_left*%
X86572800Y-104571800D02*
X86318800Y-104317800D01*
X88823800Y-104571800D02*
X86572800Y-104571800D01*
X90297800Y-103097800D02*
X90773800Y-103097800D01*
X88823800Y-104571800D02*
X90297800Y-103097800D01*
D57*
%TO.N,/USB_D-*%
X83296804Y-82539800D02*
X83362804Y-82473800D01*
X82260800Y-82539800D02*
X83296804Y-82539800D01*
%TO.N,/USB_D+*%
X83169812Y-84439800D02*
X83362808Y-84632796D01*
X82260800Y-84439800D02*
X83169812Y-84439800D01*
D56*
%TO.N,/EXT_SDA*%
X115692922Y-93776800D02*
X120413802Y-93776800D01*
X127939800Y-86250802D02*
X127939800Y-82854800D01*
X120413802Y-93776800D02*
X127939800Y-86250802D01*
X108715912Y-100753810D02*
X115692922Y-93776800D01*
X103103800Y-102047922D02*
X104397911Y-100753811D01*
X103103800Y-103624300D02*
X103103800Y-102047922D01*
X104397911Y-100753811D02*
X108715912Y-100753810D01*
%TO.N,/EXT_SCL*%
X103753800Y-102105044D02*
X103753800Y-103624300D01*
X104605024Y-101253820D02*
X103753800Y-102105044D01*
X108923024Y-101253820D02*
X104605024Y-101253820D01*
X115892044Y-94284800D02*
X108923024Y-101253820D01*
X123385800Y-94284800D02*
X115892044Y-94284800D01*
X127939800Y-89730800D02*
X123385800Y-94284800D01*
X127939800Y-89330800D02*
X127939800Y-89730800D01*
%TO.N,/~EXT_INT*%
X118142800Y-92887800D02*
X118542800Y-92887800D01*
X115874800Y-92887800D02*
X118142800Y-92887800D01*
X108508800Y-100253800D02*
X115874800Y-92887800D01*
X104190800Y-100253800D02*
X108508800Y-100253800D01*
X102453800Y-101990800D02*
X104190800Y-100253800D01*
X102453800Y-103624300D02*
X102453800Y-101990800D01*
%TO.N,/POW_SCL*%
X103103800Y-99181800D02*
X103103800Y-97899300D01*
%TO.N,/POW_SDA*%
X103753800Y-97175386D02*
X103753800Y-97899300D01*
X103390204Y-96811790D02*
X103753800Y-97175386D01*
X103034790Y-96811790D02*
X103390204Y-96811790D01*
X102158800Y-95935800D02*
X103034790Y-96811790D01*
%TO.N,/FAN_SCL*%
X101153800Y-99723804D02*
X101978965Y-100548969D01*
X101153800Y-97899300D02*
X101153800Y-99723804D01*
X101978965Y-100548969D02*
X102834969Y-100548969D01*
%TO.N,/FAN_SDA*%
X101803800Y-99137790D02*
X101903810Y-99237800D01*
X101803800Y-97899300D02*
X101803800Y-99137790D01*
%TO.N,Net-(R19-Pad2)*%
X106353800Y-97836800D02*
X108254800Y-95935800D01*
X106353800Y-97899300D02*
X106353800Y-97836800D01*
%TO.N,Net-(R20-Pad2)*%
X105703800Y-96961800D02*
X106730800Y-95934800D01*
X105703800Y-97899300D02*
X105703800Y-96961800D01*
%TO.N,Net-(R24-Pad2)*%
X105053800Y-96087800D02*
X105206800Y-95934800D01*
X105053800Y-97899300D02*
X105053800Y-96087800D01*
%TO.N,Net-(R25-Pad1)*%
X104403800Y-96655800D02*
X103682800Y-95934800D01*
X104403800Y-97899300D02*
X104403800Y-96655800D01*
%TO.N,Net-(R26-Pad1)*%
X101511790Y-96811790D02*
X100634800Y-95934800D01*
X102453800Y-97175386D02*
X102090204Y-96811790D01*
X102090204Y-96811790D02*
X101511790Y-96811790D01*
X102453800Y-97899300D02*
X102453800Y-97175386D01*
%TO.N,Net-(U9-Pad5)*%
X81838800Y-99145800D02*
X83338800Y-99145800D01*
D53*
%TO.N,+5VD*%
X75539802Y-104713800D02*
X74769800Y-104713800D01*
X75869800Y-104383802D02*
X75539802Y-104713800D01*
X75869800Y-103809800D02*
X75869800Y-104383802D01*
X76265800Y-103413800D02*
X75869800Y-103809800D01*
X76969800Y-103413800D02*
X76265800Y-103413800D01*
X78297800Y-103413800D02*
X78536800Y-103174800D01*
X76969800Y-103413800D02*
X78297800Y-103413800D01*
D52*
X80073800Y-103174800D02*
X80060800Y-103187800D01*
X78536800Y-103174800D02*
X80073800Y-103174800D01*
D54*
X80187800Y-104697800D02*
X80186800Y-104698800D01*
X80187800Y-103174800D02*
X80187800Y-104697800D01*
D53*
X82105800Y-139877800D02*
X82133800Y-139905800D01*
X80694800Y-139877800D02*
X82105800Y-139877800D01*
X82349800Y-139689800D02*
X82133800Y-139905800D01*
X83632800Y-139689800D02*
X82349800Y-139689800D01*
X82105800Y-109143800D02*
X82133800Y-109171800D01*
X80695800Y-109143800D02*
X82105800Y-109143800D01*
X82034800Y-115239800D02*
X82133800Y-115140800D01*
X80695800Y-115239800D02*
X82034800Y-115239800D01*
D54*
X82788801Y-114485799D02*
X82133800Y-115140800D01*
X82788801Y-112125801D02*
X82788801Y-114485799D01*
X81838800Y-111175800D02*
X82788801Y-112125801D01*
X83804800Y-116811800D02*
X82133800Y-115140800D01*
X83804800Y-117033800D02*
X83804800Y-116811800D01*
X82133800Y-106645800D02*
X82133800Y-109171800D01*
X80186800Y-104698800D02*
X82133800Y-106645800D01*
X82133800Y-110118800D02*
X81838800Y-110413800D01*
X82133800Y-109171800D02*
X82133800Y-110118800D01*
X81838800Y-111175800D02*
X81838800Y-110413800D01*
D57*
%TO.N,Net-(C16-Pad1)*%
X100735290Y-116334832D02*
X100735290Y-117372290D01*
X101042832Y-116027290D02*
X100735290Y-116334832D01*
X101371310Y-116027290D02*
X101042832Y-116027290D01*
X101746300Y-115652300D02*
X101371310Y-116027290D01*
X101746300Y-114779300D02*
X101746300Y-115652300D01*
X101517300Y-118154300D02*
X101517300Y-119748300D01*
X100735290Y-117372290D02*
X101517300Y-118154300D01*
X101517300Y-122231300D02*
X101333300Y-122415300D01*
X101517300Y-119748300D02*
X101517300Y-122231300D01*
%TO.N,Net-(C17-Pad1)*%
X99117300Y-117520300D02*
X99810300Y-116827300D01*
X99117300Y-119748300D02*
X99117300Y-117520300D01*
X99117300Y-122231300D02*
X99301300Y-122415300D01*
X99117300Y-119748300D02*
X99117300Y-122231300D01*
D56*
%TO.N,Net-(J7-Pad3)*%
X79045800Y-114278800D02*
X79933800Y-113390800D01*
X79045800Y-115239800D02*
X79045800Y-114278800D01*
X79045800Y-116002800D02*
X79933800Y-116890800D01*
X79045800Y-115239800D02*
X79045800Y-116002800D01*
X80076800Y-117033800D02*
X79933800Y-116890800D01*
X81904800Y-117033800D02*
X80076800Y-117033800D01*
%TO.N,Net-(J8-Pad3)*%
X79045800Y-108309800D02*
X79933800Y-107421800D01*
X79045800Y-109143800D02*
X79045800Y-108309800D01*
X79045800Y-110033800D02*
X79933800Y-110921800D01*
X79045800Y-109143800D02*
X79045800Y-110033800D01*
X81838800Y-112826800D02*
X79933800Y-110921800D01*
X81838800Y-113075800D02*
X81838800Y-112826800D01*
%TO.N,Net-(Q17-Pad3)*%
X96157800Y-97047800D02*
X95807800Y-96697800D01*
X96157800Y-99425800D02*
X96157800Y-97047800D01*
X96157800Y-101809800D02*
X96157800Y-99425800D01*
X93141800Y-104825800D02*
X96157800Y-101809800D01*
%TO.N,Net-(Q19-Pad3)*%
X90377800Y-101651800D02*
X89823800Y-101097800D01*
X92506800Y-101651800D02*
X90377800Y-101651800D01*
X87360800Y-99459800D02*
X88185800Y-99459800D01*
X88185800Y-99459800D02*
X89823800Y-101097800D01*
%TO.N,Net-(Q22-Pad1)*%
X127558800Y-109815800D02*
X125939800Y-111434800D01*
X127558800Y-109778800D02*
X127558800Y-109815800D01*
X127557800Y-109777800D02*
X127558800Y-109778800D01*
X127557800Y-107111800D02*
X127557800Y-109777800D01*
D57*
%TO.N,Net-(R38-Pad2)*%
X102546300Y-115741300D02*
X101460300Y-116827300D01*
X102546300Y-114779300D02*
X102546300Y-115741300D01*
D56*
%TO.N,Net-(R41-Pad2)*%
X104146300Y-107829300D02*
X104190800Y-107873800D01*
X104146300Y-106429300D02*
X104146300Y-107829300D01*
X123241800Y-96062800D02*
X117310698Y-96062800D01*
X117310698Y-96062800D02*
X107698779Y-105674719D01*
%TO.N,Net-(R77-Pad2)*%
X125120798Y-118795800D02*
X126245800Y-118795800D01*
X126245800Y-118330800D02*
X126245800Y-118795800D01*
X126923800Y-116382800D02*
X126923800Y-117652800D01*
X126245800Y-115704800D02*
X126923800Y-116382800D01*
X126923800Y-117652800D02*
X126245800Y-118330800D01*
X126245800Y-115195800D02*
X126245800Y-115704800D01*
%TO.N,Net-(R89-Pad2)*%
X79235300Y-127811300D02*
X79235300Y-125844300D01*
X79235300Y-125844300D02*
X78981300Y-125590300D01*
%TO.N,Net-(R90-Pad2)*%
X80505300Y-127811300D02*
X80505300Y-125590300D01*
%TO.N,Net-(R95-Pad1)*%
X81775300Y-127811300D02*
X81775300Y-125844300D01*
X81775300Y-125844300D02*
X82029300Y-125590300D01*
%TO.N,Net-(J6-Pad3)*%
X79044800Y-139044800D02*
X79933800Y-138155800D01*
X79044800Y-139877800D02*
X79044800Y-139044800D01*
X79044800Y-140766800D02*
X79933800Y-141655800D01*
X79044800Y-139877800D02*
X79044800Y-140766800D01*
X79999800Y-141589800D02*
X79933800Y-141655800D01*
X83632800Y-141589800D02*
X79999800Y-141589800D01*
D52*
%TO.N,/+5V*%
X80060800Y-83489800D02*
X81076800Y-83489800D01*
D55*
%TO.N,Net-(C7-Pad2)*%
X72211800Y-92506800D02*
X78511800Y-92506800D01*
X79882800Y-91135800D02*
X78511800Y-92506800D01*
X80695800Y-91135800D02*
X79882800Y-91135800D01*
X80695800Y-91135800D02*
X82346800Y-91135800D01*
X82346800Y-92162800D02*
X81584800Y-92924800D01*
X82346800Y-91135800D02*
X82346800Y-92162800D01*
D56*
%TO.N,Net-(D3-Pad5)*%
X77901800Y-104063800D02*
X78536800Y-104698800D01*
X76969800Y-104063800D02*
X77901800Y-104063800D01*
%TO.N,/ESP32_part/a0*%
X72440800Y-125080800D02*
X72440800Y-126415800D01*
X72440800Y-126415800D02*
X72186800Y-126669800D01*
X73378300Y-128076800D02*
X73378300Y-127861300D01*
X73378300Y-127861300D02*
X72186800Y-126669800D01*
%TO.N,/ESP32_part/a1*%
X73710800Y-125080800D02*
X73710800Y-126669800D01*
X74028300Y-128076800D02*
X74028300Y-126987300D01*
X74028300Y-126987300D02*
X73710800Y-126669800D01*
%TO.N,/ESP32_part/a2*%
X74980800Y-125080800D02*
X74980800Y-126415800D01*
X74980800Y-126415800D02*
X75234800Y-126669800D01*
X74678300Y-128076800D02*
X74678300Y-127226300D01*
X74678300Y-127226300D02*
X75234800Y-126669800D01*
%TO.N,Net-(Q10-Pad3)*%
X93648800Y-112953800D02*
X94284800Y-112317800D01*
X91683808Y-112953800D02*
X93648800Y-112953800D01*
D53*
%TO.N,Net-(Q11-Pad3)*%
X90125800Y-117937800D02*
X90348800Y-118160800D01*
X90125800Y-115554800D02*
X90125800Y-117937800D01*
X89712800Y-118160800D02*
X90348800Y-118160800D01*
X88442800Y-119430800D02*
X89712800Y-118160800D01*
X85521800Y-119430800D02*
X88442800Y-119430800D01*
X85140800Y-119049800D02*
X85521800Y-119430800D01*
X82870800Y-119049800D02*
X85140800Y-119049800D01*
X82854800Y-119033800D02*
X82870800Y-119049800D01*
D56*
%TO.N,Net-(Q12-Pad3)*%
X85426800Y-112125800D02*
X85934800Y-112633800D01*
X83838800Y-112125800D02*
X85426800Y-112125800D01*
X85934800Y-113238800D02*
X86284800Y-113588800D01*
X85934800Y-112633800D02*
X85934800Y-113238800D01*
%TD*%
M02*
