%TF.GenerationSoftware,KiCad,Pcbnew,(5.1.10)-1*%
%TF.CreationDate,2022-01-17T19:42:39+07:00*%
%TF.ProjectId,Digital_module_v3,44696769-7461-46c5-9f6d-6f64756c655f,rev?*%
%TF.SameCoordinates,Original*%
%TF.FileFunction,Soldermask,Bot*%
%TF.FilePolarity,Negative*%
%FSLAX46Y46*%
G04 Gerber Fmt 4.6, Leading zero omitted, Abs format (unit mm)*
G04 Created by KiCad (PCBNEW (5.1.10)-1) date 2022-01-17 19:42:39*
%MOMM*%
%LPD*%
G01*
G04 APERTURE LIST*
%ADD10R,0.740000X2.400000*%
%ADD11C,3.500000*%
%ADD12C,1.700000*%
%ADD13R,1.700000X1.700000*%
%ADD14R,0.800000X0.900000*%
%ADD15R,0.900000X0.800000*%
%ADD16O,1.000000X1.000000*%
%ADD17R,1.000000X1.000000*%
%ADD18C,2.000000*%
%ADD19C,0.700000*%
%ADD20R,0.650000X0.400000*%
%ADD21R,0.650000X1.060000*%
%ADD22R,1.800000X1.000000*%
%ADD23C,1.800000*%
%ADD24R,1.300000X0.450000*%
%ADD25R,0.700000X0.450000*%
%ADD26R,1.800000X2.500000*%
%ADD27O,1.950000X1.700000*%
%ADD28O,2.000000X1.700000*%
%ADD29O,1.000000X1.800000*%
%ADD30R,1.000000X1.800000*%
%ADD31O,1.800000X1.000000*%
%ADD32C,1.000000*%
%ADD33C,2.100000*%
%ADD34O,2.200000X1.600000*%
%ADD35C,0.900000*%
%ADD36O,0.800000X0.800000*%
%ADD37O,1.800000X1.150000*%
%ADD38O,2.000000X1.450000*%
%ADD39R,1.050000X1.400000*%
G04 APERTURE END LIST*
D10*
%TO.C,U2*%
X122479000Y-115427000D03*
X121209000Y-115427000D03*
X123749000Y-115427000D03*
X122479000Y-119327000D03*
X121209000Y-119327000D03*
X123749000Y-119327000D03*
%TD*%
%TO.C,U1*%
X89459000Y-97150000D03*
X91999000Y-97150000D03*
X90729000Y-97150000D03*
X89459000Y-101050000D03*
X91999000Y-101050000D03*
X90729000Y-101050000D03*
X76251000Y-97150000D03*
X78791000Y-97150000D03*
X77521000Y-97150000D03*
X76251000Y-101050000D03*
X78791000Y-101050000D03*
X77521000Y-101050000D03*
%TD*%
D11*
%TO.C,U8*%
X111048800Y-116987800D03*
X111048800Y-94187800D03*
X87048800Y-94187800D03*
X87048800Y-116987800D03*
D12*
X86318800Y-101777800D03*
X86318800Y-104317800D03*
X86318800Y-106857800D03*
D13*
X86318800Y-109397800D03*
%TD*%
%TO.C,R39*%
G36*
G01*
X85288800Y-122751800D02*
X84738800Y-122751800D01*
G75*
G02*
X84538800Y-122551800I0J200000D01*
G01*
X84538800Y-122151800D01*
G75*
G02*
X84738800Y-121951800I200000J0D01*
G01*
X85288800Y-121951800D01*
G75*
G02*
X85488800Y-122151800I0J-200000D01*
G01*
X85488800Y-122551800D01*
G75*
G02*
X85288800Y-122751800I-200000J0D01*
G01*
G37*
G36*
G01*
X85288800Y-124401800D02*
X84738800Y-124401800D01*
G75*
G02*
X84538800Y-124201800I0J200000D01*
G01*
X84538800Y-123801800D01*
G75*
G02*
X84738800Y-123601800I200000J0D01*
G01*
X85288800Y-123601800D01*
G75*
G02*
X85488800Y-123801800I0J-200000D01*
G01*
X85488800Y-124201800D01*
G75*
G02*
X85288800Y-124401800I-200000J0D01*
G01*
G37*
%TD*%
%TO.C,R37*%
G36*
G01*
X87151800Y-123601800D02*
X87701800Y-123601800D01*
G75*
G02*
X87901800Y-123801800I0J-200000D01*
G01*
X87901800Y-124201800D01*
G75*
G02*
X87701800Y-124401800I-200000J0D01*
G01*
X87151800Y-124401800D01*
G75*
G02*
X86951800Y-124201800I0J200000D01*
G01*
X86951800Y-123801800D01*
G75*
G02*
X87151800Y-123601800I200000J0D01*
G01*
G37*
G36*
G01*
X87151800Y-121951800D02*
X87701800Y-121951800D01*
G75*
G02*
X87901800Y-122151800I0J-200000D01*
G01*
X87901800Y-122551800D01*
G75*
G02*
X87701800Y-122751800I-200000J0D01*
G01*
X87151800Y-122751800D01*
G75*
G02*
X86951800Y-122551800I0J200000D01*
G01*
X86951800Y-122151800D01*
G75*
G02*
X87151800Y-121951800I200000J0D01*
G01*
G37*
%TD*%
%TO.C,R35*%
G36*
G01*
X86684800Y-111408800D02*
X86684800Y-111958800D01*
G75*
G02*
X86484800Y-112158800I-200000J0D01*
G01*
X86084800Y-112158800D01*
G75*
G02*
X85884800Y-111958800I0J200000D01*
G01*
X85884800Y-111408800D01*
G75*
G02*
X86084800Y-111208800I200000J0D01*
G01*
X86484800Y-111208800D01*
G75*
G02*
X86684800Y-111408800I0J-200000D01*
G01*
G37*
G36*
G01*
X88334800Y-111408800D02*
X88334800Y-111958800D01*
G75*
G02*
X88134800Y-112158800I-200000J0D01*
G01*
X87734800Y-112158800D01*
G75*
G02*
X87534800Y-111958800I0J200000D01*
G01*
X87534800Y-111408800D01*
G75*
G02*
X87734800Y-111208800I200000J0D01*
G01*
X88134800Y-111208800D01*
G75*
G02*
X88334800Y-111408800I0J-200000D01*
G01*
G37*
%TD*%
%TO.C,R32*%
G36*
G01*
X87534800Y-113863800D02*
X87534800Y-113313800D01*
G75*
G02*
X87734800Y-113113800I200000J0D01*
G01*
X88134800Y-113113800D01*
G75*
G02*
X88334800Y-113313800I0J-200000D01*
G01*
X88334800Y-113863800D01*
G75*
G02*
X88134800Y-114063800I-200000J0D01*
G01*
X87734800Y-114063800D01*
G75*
G02*
X87534800Y-113863800I0J200000D01*
G01*
G37*
G36*
G01*
X85884800Y-113863800D02*
X85884800Y-113313800D01*
G75*
G02*
X86084800Y-113113800I200000J0D01*
G01*
X86484800Y-113113800D01*
G75*
G02*
X86684800Y-113313800I0J-200000D01*
G01*
X86684800Y-113863800D01*
G75*
G02*
X86484800Y-114063800I-200000J0D01*
G01*
X86084800Y-114063800D01*
G75*
G02*
X85884800Y-113863800I0J200000D01*
G01*
G37*
%TD*%
%TO.C,R13*%
G36*
G01*
X97438800Y-100107800D02*
X97988800Y-100107800D01*
G75*
G02*
X98188800Y-100307800I0J-200000D01*
G01*
X98188800Y-100707800D01*
G75*
G02*
X97988800Y-100907800I-200000J0D01*
G01*
X97438800Y-100907800D01*
G75*
G02*
X97238800Y-100707800I0J200000D01*
G01*
X97238800Y-100307800D01*
G75*
G02*
X97438800Y-100107800I200000J0D01*
G01*
G37*
G36*
G01*
X97438800Y-98457800D02*
X97988800Y-98457800D01*
G75*
G02*
X98188800Y-98657800I0J-200000D01*
G01*
X98188800Y-99057800D01*
G75*
G02*
X97988800Y-99257800I-200000J0D01*
G01*
X97438800Y-99257800D01*
G75*
G02*
X97238800Y-99057800I0J200000D01*
G01*
X97238800Y-98657800D01*
G75*
G02*
X97438800Y-98457800I200000J0D01*
G01*
G37*
%TD*%
%TO.C,R4*%
G36*
G01*
X94431800Y-102010800D02*
X94431800Y-102560800D01*
G75*
G02*
X94231800Y-102760800I-200000J0D01*
G01*
X93831800Y-102760800D01*
G75*
G02*
X93631800Y-102560800I0J200000D01*
G01*
X93631800Y-102010800D01*
G75*
G02*
X93831800Y-101810800I200000J0D01*
G01*
X94231800Y-101810800D01*
G75*
G02*
X94431800Y-102010800I0J-200000D01*
G01*
G37*
G36*
G01*
X96081800Y-102010800D02*
X96081800Y-102560800D01*
G75*
G02*
X95881800Y-102760800I-200000J0D01*
G01*
X95481800Y-102760800D01*
G75*
G02*
X95281800Y-102560800I0J200000D01*
G01*
X95281800Y-102010800D01*
G75*
G02*
X95481800Y-101810800I200000J0D01*
G01*
X95881800Y-101810800D01*
G75*
G02*
X96081800Y-102010800I0J-200000D01*
G01*
G37*
%TD*%
D14*
%TO.C,Q16*%
X90027800Y-122097800D03*
X89077800Y-124097800D03*
X90977800Y-124097800D03*
%TD*%
D15*
%TO.C,Q4*%
X96062800Y-99618800D03*
X94062800Y-98668800D03*
X94062800Y-100568800D03*
%TD*%
%TO.C,R21*%
G36*
G01*
X107979800Y-100234800D02*
X108529800Y-100234800D01*
G75*
G02*
X108729800Y-100434800I0J-200000D01*
G01*
X108729800Y-100834800D01*
G75*
G02*
X108529800Y-101034800I-200000J0D01*
G01*
X107979800Y-101034800D01*
G75*
G02*
X107779800Y-100834800I0J200000D01*
G01*
X107779800Y-100434800D01*
G75*
G02*
X107979800Y-100234800I200000J0D01*
G01*
G37*
G36*
G01*
X107979800Y-98584800D02*
X108529800Y-98584800D01*
G75*
G02*
X108729800Y-98784800I0J-200000D01*
G01*
X108729800Y-99184800D01*
G75*
G02*
X108529800Y-99384800I-200000J0D01*
G01*
X107979800Y-99384800D01*
G75*
G02*
X107779800Y-99184800I0J200000D01*
G01*
X107779800Y-98784800D01*
G75*
G02*
X107979800Y-98584800I200000J0D01*
G01*
G37*
%TD*%
%TO.C,R22*%
G36*
G01*
X106455800Y-100234800D02*
X107005800Y-100234800D01*
G75*
G02*
X107205800Y-100434800I0J-200000D01*
G01*
X107205800Y-100834800D01*
G75*
G02*
X107005800Y-101034800I-200000J0D01*
G01*
X106455800Y-101034800D01*
G75*
G02*
X106255800Y-100834800I0J200000D01*
G01*
X106255800Y-100434800D01*
G75*
G02*
X106455800Y-100234800I200000J0D01*
G01*
G37*
G36*
G01*
X106455800Y-98584800D02*
X107005800Y-98584800D01*
G75*
G02*
X107205800Y-98784800I0J-200000D01*
G01*
X107205800Y-99184800D01*
G75*
G02*
X107005800Y-99384800I-200000J0D01*
G01*
X106455800Y-99384800D01*
G75*
G02*
X106255800Y-99184800I0J200000D01*
G01*
X106255800Y-98784800D01*
G75*
G02*
X106455800Y-98584800I200000J0D01*
G01*
G37*
%TD*%
%TO.C,Q1*%
X124415800Y-82153800D03*
X126415800Y-83103800D03*
X126415800Y-81203800D03*
%TD*%
%TO.C,Q2*%
X124415800Y-88635800D03*
X126415800Y-89585800D03*
X126415800Y-87685800D03*
%TD*%
%TO.C,R16*%
G36*
G01*
X95279800Y-94646800D02*
X95829800Y-94646800D01*
G75*
G02*
X96029800Y-94846800I0J-200000D01*
G01*
X96029800Y-95246800D01*
G75*
G02*
X95829800Y-95446800I-200000J0D01*
G01*
X95279800Y-95446800D01*
G75*
G02*
X95079800Y-95246800I0J200000D01*
G01*
X95079800Y-94846800D01*
G75*
G02*
X95279800Y-94646800I200000J0D01*
G01*
G37*
G36*
G01*
X95279800Y-92996800D02*
X95829800Y-92996800D01*
G75*
G02*
X96029800Y-93196800I0J-200000D01*
G01*
X96029800Y-93596800D01*
G75*
G02*
X95829800Y-93796800I-200000J0D01*
G01*
X95279800Y-93796800D01*
G75*
G02*
X95079800Y-93596800I0J200000D01*
G01*
X95079800Y-93196800D01*
G75*
G02*
X95279800Y-92996800I200000J0D01*
G01*
G37*
%TD*%
%TO.C,R17*%
G36*
G01*
X112297800Y-111791800D02*
X112847800Y-111791800D01*
G75*
G02*
X113047800Y-111991800I0J-200000D01*
G01*
X113047800Y-112391800D01*
G75*
G02*
X112847800Y-112591800I-200000J0D01*
G01*
X112297800Y-112591800D01*
G75*
G02*
X112097800Y-112391800I0J200000D01*
G01*
X112097800Y-111991800D01*
G75*
G02*
X112297800Y-111791800I200000J0D01*
G01*
G37*
G36*
G01*
X112297800Y-110141800D02*
X112847800Y-110141800D01*
G75*
G02*
X113047800Y-110341800I0J-200000D01*
G01*
X113047800Y-110741800D01*
G75*
G02*
X112847800Y-110941800I-200000J0D01*
G01*
X112297800Y-110941800D01*
G75*
G02*
X112097800Y-110741800I0J200000D01*
G01*
X112097800Y-110341800D01*
G75*
G02*
X112297800Y-110141800I200000J0D01*
G01*
G37*
%TD*%
%TO.C,R18*%
G36*
G01*
X114202800Y-116998800D02*
X114752800Y-116998800D01*
G75*
G02*
X114952800Y-117198800I0J-200000D01*
G01*
X114952800Y-117598800D01*
G75*
G02*
X114752800Y-117798800I-200000J0D01*
G01*
X114202800Y-117798800D01*
G75*
G02*
X114002800Y-117598800I0J200000D01*
G01*
X114002800Y-117198800D01*
G75*
G02*
X114202800Y-116998800I200000J0D01*
G01*
G37*
G36*
G01*
X114202800Y-115348800D02*
X114752800Y-115348800D01*
G75*
G02*
X114952800Y-115548800I0J-200000D01*
G01*
X114952800Y-115948800D01*
G75*
G02*
X114752800Y-116148800I-200000J0D01*
G01*
X114202800Y-116148800D01*
G75*
G02*
X114002800Y-115948800I0J200000D01*
G01*
X114002800Y-115548800D01*
G75*
G02*
X114202800Y-115348800I200000J0D01*
G01*
G37*
%TD*%
%TO.C,R1*%
G36*
G01*
X126014800Y-79827800D02*
X126014800Y-79277800D01*
G75*
G02*
X126214800Y-79077800I200000J0D01*
G01*
X126614800Y-79077800D01*
G75*
G02*
X126814800Y-79277800I0J-200000D01*
G01*
X126814800Y-79827800D01*
G75*
G02*
X126614800Y-80027800I-200000J0D01*
G01*
X126214800Y-80027800D01*
G75*
G02*
X126014800Y-79827800I0J200000D01*
G01*
G37*
G36*
G01*
X124364800Y-79827800D02*
X124364800Y-79277800D01*
G75*
G02*
X124564800Y-79077800I200000J0D01*
G01*
X124964800Y-79077800D01*
G75*
G02*
X125164800Y-79277800I0J-200000D01*
G01*
X125164800Y-79827800D01*
G75*
G02*
X124964800Y-80027800I-200000J0D01*
G01*
X124564800Y-80027800D01*
G75*
G02*
X124364800Y-79827800I0J200000D01*
G01*
G37*
%TD*%
%TO.C,R2*%
G36*
G01*
X126015800Y-86304800D02*
X126015800Y-85754800D01*
G75*
G02*
X126215800Y-85554800I200000J0D01*
G01*
X126615800Y-85554800D01*
G75*
G02*
X126815800Y-85754800I0J-200000D01*
G01*
X126815800Y-86304800D01*
G75*
G02*
X126615800Y-86504800I-200000J0D01*
G01*
X126215800Y-86504800D01*
G75*
G02*
X126015800Y-86304800I0J200000D01*
G01*
G37*
G36*
G01*
X124365800Y-86304800D02*
X124365800Y-85754800D01*
G75*
G02*
X124565800Y-85554800I200000J0D01*
G01*
X124965800Y-85554800D01*
G75*
G02*
X125165800Y-85754800I0J-200000D01*
G01*
X125165800Y-86304800D01*
G75*
G02*
X124965800Y-86504800I-200000J0D01*
G01*
X124565800Y-86504800D01*
G75*
G02*
X124365800Y-86304800I0J200000D01*
G01*
G37*
%TD*%
%TO.C,R3*%
G36*
G01*
X119410800Y-88082800D02*
X119410800Y-87532800D01*
G75*
G02*
X119610800Y-87332800I200000J0D01*
G01*
X120010800Y-87332800D01*
G75*
G02*
X120210800Y-87532800I0J-200000D01*
G01*
X120210800Y-88082800D01*
G75*
G02*
X120010800Y-88282800I-200000J0D01*
G01*
X119610800Y-88282800D01*
G75*
G02*
X119410800Y-88082800I0J200000D01*
G01*
G37*
G36*
G01*
X117760800Y-88082800D02*
X117760800Y-87532800D01*
G75*
G02*
X117960800Y-87332800I200000J0D01*
G01*
X118360800Y-87332800D01*
G75*
G02*
X118560800Y-87532800I0J-200000D01*
G01*
X118560800Y-88082800D01*
G75*
G02*
X118360800Y-88282800I-200000J0D01*
G01*
X117960800Y-88282800D01*
G75*
G02*
X117760800Y-88082800I0J200000D01*
G01*
G37*
%TD*%
%TO.C,Q7*%
X92030800Y-94157800D03*
X94030800Y-95107800D03*
X94030800Y-93207800D03*
%TD*%
%TO.C,Q8*%
X116096800Y-111241800D03*
X114096800Y-110291800D03*
X114096800Y-112191800D03*
%TD*%
%TO.C,Q9*%
X118001800Y-116448800D03*
X116001800Y-115498800D03*
X116001800Y-117398800D03*
%TD*%
D14*
%TO.C,Q3*%
X119242800Y-89363800D03*
X118292800Y-91363800D03*
X120192800Y-91363800D03*
%TD*%
%TO.C,Q5*%
X91363800Y-103698800D03*
X90413800Y-105698800D03*
X92313800Y-105698800D03*
%TD*%
D15*
%TO.C,Q6*%
X99904800Y-94091800D03*
X101904800Y-95041800D03*
X101904800Y-93141800D03*
%TD*%
%TO.C,R12*%
G36*
G01*
X118942800Y-92612800D02*
X118942800Y-93162800D01*
G75*
G02*
X118742800Y-93362800I-200000J0D01*
G01*
X118342800Y-93362800D01*
G75*
G02*
X118142800Y-93162800I0J200000D01*
G01*
X118142800Y-92612800D01*
G75*
G02*
X118342800Y-92412800I200000J0D01*
G01*
X118742800Y-92412800D01*
G75*
G02*
X118942800Y-92612800I0J-200000D01*
G01*
G37*
G36*
G01*
X120592800Y-92612800D02*
X120592800Y-93162800D01*
G75*
G02*
X120392800Y-93362800I-200000J0D01*
G01*
X119992800Y-93362800D01*
G75*
G02*
X119792800Y-93162800I0J200000D01*
G01*
X119792800Y-92612800D01*
G75*
G02*
X119992800Y-92412800I200000J0D01*
G01*
X120392800Y-92412800D01*
G75*
G02*
X120592800Y-92612800I0J-200000D01*
G01*
G37*
%TD*%
%TO.C,R14*%
G36*
G01*
X90875800Y-106963800D02*
X90875800Y-107513800D01*
G75*
G02*
X90675800Y-107713800I-200000J0D01*
G01*
X90275800Y-107713800D01*
G75*
G02*
X90075800Y-107513800I0J200000D01*
G01*
X90075800Y-106963800D01*
G75*
G02*
X90275800Y-106763800I200000J0D01*
G01*
X90675800Y-106763800D01*
G75*
G02*
X90875800Y-106963800I0J-200000D01*
G01*
G37*
G36*
G01*
X92525800Y-106963800D02*
X92525800Y-107513800D01*
G75*
G02*
X92325800Y-107713800I-200000J0D01*
G01*
X91925800Y-107713800D01*
G75*
G02*
X91725800Y-107513800I0J200000D01*
G01*
X91725800Y-106963800D01*
G75*
G02*
X91925800Y-106763800I200000J0D01*
G01*
X92325800Y-106763800D01*
G75*
G02*
X92525800Y-106963800I0J-200000D01*
G01*
G37*
%TD*%
%TO.C,R5*%
G36*
G01*
X94813800Y-104210800D02*
X94263800Y-104210800D01*
G75*
G02*
X94063800Y-104010800I0J200000D01*
G01*
X94063800Y-103610800D01*
G75*
G02*
X94263800Y-103410800I200000J0D01*
G01*
X94813800Y-103410800D01*
G75*
G02*
X95013800Y-103610800I0J-200000D01*
G01*
X95013800Y-104010800D01*
G75*
G02*
X94813800Y-104210800I-200000J0D01*
G01*
G37*
G36*
G01*
X94813800Y-105860800D02*
X94263800Y-105860800D01*
G75*
G02*
X94063800Y-105660800I0J200000D01*
G01*
X94063800Y-105260800D01*
G75*
G02*
X94263800Y-105060800I200000J0D01*
G01*
X94813800Y-105060800D01*
G75*
G02*
X95013800Y-105260800I0J-200000D01*
G01*
X95013800Y-105660800D01*
G75*
G02*
X94813800Y-105860800I-200000J0D01*
G01*
G37*
%TD*%
%TO.C,R7*%
G36*
G01*
X96930800Y-94645800D02*
X97480800Y-94645800D01*
G75*
G02*
X97680800Y-94845800I0J-200000D01*
G01*
X97680800Y-95245800D01*
G75*
G02*
X97480800Y-95445800I-200000J0D01*
G01*
X96930800Y-95445800D01*
G75*
G02*
X96730800Y-95245800I0J200000D01*
G01*
X96730800Y-94845800D01*
G75*
G02*
X96930800Y-94645800I200000J0D01*
G01*
G37*
G36*
G01*
X96930800Y-92995800D02*
X97480800Y-92995800D01*
G75*
G02*
X97680800Y-93195800I0J-200000D01*
G01*
X97680800Y-93595800D01*
G75*
G02*
X97480800Y-93795800I-200000J0D01*
G01*
X96930800Y-93795800D01*
G75*
G02*
X96730800Y-93595800I0J200000D01*
G01*
X96730800Y-93195800D01*
G75*
G02*
X96930800Y-92995800I200000J0D01*
G01*
G37*
%TD*%
%TO.C,R8*%
G36*
G01*
X114496800Y-113567800D02*
X114496800Y-114117800D01*
G75*
G02*
X114296800Y-114317800I-200000J0D01*
G01*
X113896800Y-114317800D01*
G75*
G02*
X113696800Y-114117800I0J200000D01*
G01*
X113696800Y-113567800D01*
G75*
G02*
X113896800Y-113367800I200000J0D01*
G01*
X114296800Y-113367800D01*
G75*
G02*
X114496800Y-113567800I0J-200000D01*
G01*
G37*
G36*
G01*
X116146800Y-113567800D02*
X116146800Y-114117800D01*
G75*
G02*
X115946800Y-114317800I-200000J0D01*
G01*
X115546800Y-114317800D01*
G75*
G02*
X115346800Y-114117800I0J200000D01*
G01*
X115346800Y-113567800D01*
G75*
G02*
X115546800Y-113367800I200000J0D01*
G01*
X115946800Y-113367800D01*
G75*
G02*
X116146800Y-113567800I0J-200000D01*
G01*
G37*
%TD*%
%TO.C,R10*%
G36*
G01*
X128214800Y-81604800D02*
X127664800Y-81604800D01*
G75*
G02*
X127464800Y-81404800I0J200000D01*
G01*
X127464800Y-81004800D01*
G75*
G02*
X127664800Y-80804800I200000J0D01*
G01*
X128214800Y-80804800D01*
G75*
G02*
X128414800Y-81004800I0J-200000D01*
G01*
X128414800Y-81404800D01*
G75*
G02*
X128214800Y-81604800I-200000J0D01*
G01*
G37*
G36*
G01*
X128214800Y-83254800D02*
X127664800Y-83254800D01*
G75*
G02*
X127464800Y-83054800I0J200000D01*
G01*
X127464800Y-82654800D01*
G75*
G02*
X127664800Y-82454800I200000J0D01*
G01*
X128214800Y-82454800D01*
G75*
G02*
X128414800Y-82654800I0J-200000D01*
G01*
X128414800Y-83054800D01*
G75*
G02*
X128214800Y-83254800I-200000J0D01*
G01*
G37*
%TD*%
%TO.C,R11*%
G36*
G01*
X128214800Y-88080800D02*
X127664800Y-88080800D01*
G75*
G02*
X127464800Y-87880800I0J200000D01*
G01*
X127464800Y-87480800D01*
G75*
G02*
X127664800Y-87280800I200000J0D01*
G01*
X128214800Y-87280800D01*
G75*
G02*
X128414800Y-87480800I0J-200000D01*
G01*
X128414800Y-87880800D01*
G75*
G02*
X128214800Y-88080800I-200000J0D01*
G01*
G37*
G36*
G01*
X128214800Y-89730800D02*
X127664800Y-89730800D01*
G75*
G02*
X127464800Y-89530800I0J200000D01*
G01*
X127464800Y-89130800D01*
G75*
G02*
X127664800Y-88930800I200000J0D01*
G01*
X128214800Y-88930800D01*
G75*
G02*
X128414800Y-89130800I0J-200000D01*
G01*
X128414800Y-89530800D01*
G75*
G02*
X128214800Y-89730800I-200000J0D01*
G01*
G37*
%TD*%
D16*
%TO.C,JP2*%
X95681800Y-121208800D03*
D17*
X94411800Y-121208800D03*
%TD*%
%TO.C,R96*%
G36*
G01*
X74959800Y-127920800D02*
X75509800Y-127920800D01*
G75*
G02*
X75709800Y-128120800I0J-200000D01*
G01*
X75709800Y-128520800D01*
G75*
G02*
X75509800Y-128720800I-200000J0D01*
G01*
X74959800Y-128720800D01*
G75*
G02*
X74759800Y-128520800I0J200000D01*
G01*
X74759800Y-128120800D01*
G75*
G02*
X74959800Y-127920800I200000J0D01*
G01*
G37*
G36*
G01*
X74959800Y-126270800D02*
X75509800Y-126270800D01*
G75*
G02*
X75709800Y-126470800I0J-200000D01*
G01*
X75709800Y-126870800D01*
G75*
G02*
X75509800Y-127070800I-200000J0D01*
G01*
X74959800Y-127070800D01*
G75*
G02*
X74759800Y-126870800I0J200000D01*
G01*
X74759800Y-126470800D01*
G75*
G02*
X74959800Y-126270800I200000J0D01*
G01*
G37*
%TD*%
%TO.C,R87*%
G36*
G01*
X71911800Y-124745800D02*
X72461800Y-124745800D01*
G75*
G02*
X72661800Y-124945800I0J-200000D01*
G01*
X72661800Y-125345800D01*
G75*
G02*
X72461800Y-125545800I-200000J0D01*
G01*
X71911800Y-125545800D01*
G75*
G02*
X71711800Y-125345800I0J200000D01*
G01*
X71711800Y-124945800D01*
G75*
G02*
X71911800Y-124745800I200000J0D01*
G01*
G37*
G36*
G01*
X71911800Y-123095800D02*
X72461800Y-123095800D01*
G75*
G02*
X72661800Y-123295800I0J-200000D01*
G01*
X72661800Y-123695800D01*
G75*
G02*
X72461800Y-123895800I-200000J0D01*
G01*
X71911800Y-123895800D01*
G75*
G02*
X71711800Y-123695800I0J200000D01*
G01*
X71711800Y-123295800D01*
G75*
G02*
X71911800Y-123095800I200000J0D01*
G01*
G37*
%TD*%
%TO.C,R94*%
G36*
G01*
X80230300Y-125190300D02*
X80780300Y-125190300D01*
G75*
G02*
X80980300Y-125390300I0J-200000D01*
G01*
X80980300Y-125790300D01*
G75*
G02*
X80780300Y-125990300I-200000J0D01*
G01*
X80230300Y-125990300D01*
G75*
G02*
X80030300Y-125790300I0J200000D01*
G01*
X80030300Y-125390300D01*
G75*
G02*
X80230300Y-125190300I200000J0D01*
G01*
G37*
G36*
G01*
X80230300Y-126840300D02*
X80780300Y-126840300D01*
G75*
G02*
X80980300Y-127040300I0J-200000D01*
G01*
X80980300Y-127440300D01*
G75*
G02*
X80780300Y-127640300I-200000J0D01*
G01*
X80230300Y-127640300D01*
G75*
G02*
X80030300Y-127440300I0J200000D01*
G01*
X80030300Y-127040300D01*
G75*
G02*
X80230300Y-126840300I200000J0D01*
G01*
G37*
%TD*%
%TO.C,R88*%
G36*
G01*
X73435800Y-124745800D02*
X73985800Y-124745800D01*
G75*
G02*
X74185800Y-124945800I0J-200000D01*
G01*
X74185800Y-125345800D01*
G75*
G02*
X73985800Y-125545800I-200000J0D01*
G01*
X73435800Y-125545800D01*
G75*
G02*
X73235800Y-125345800I0J200000D01*
G01*
X73235800Y-124945800D01*
G75*
G02*
X73435800Y-124745800I200000J0D01*
G01*
G37*
G36*
G01*
X73435800Y-123095800D02*
X73985800Y-123095800D01*
G75*
G02*
X74185800Y-123295800I0J-200000D01*
G01*
X74185800Y-123695800D01*
G75*
G02*
X73985800Y-123895800I-200000J0D01*
G01*
X73435800Y-123895800D01*
G75*
G02*
X73235800Y-123695800I0J200000D01*
G01*
X73235800Y-123295800D01*
G75*
G02*
X73435800Y-123095800I200000J0D01*
G01*
G37*
%TD*%
%TO.C,R89*%
G36*
G01*
X78706300Y-122016300D02*
X79256300Y-122016300D01*
G75*
G02*
X79456300Y-122216300I0J-200000D01*
G01*
X79456300Y-122616300D01*
G75*
G02*
X79256300Y-122816300I-200000J0D01*
G01*
X78706300Y-122816300D01*
G75*
G02*
X78506300Y-122616300I0J200000D01*
G01*
X78506300Y-122216300D01*
G75*
G02*
X78706300Y-122016300I200000J0D01*
G01*
G37*
G36*
G01*
X78706300Y-123666300D02*
X79256300Y-123666300D01*
G75*
G02*
X79456300Y-123866300I0J-200000D01*
G01*
X79456300Y-124266300D01*
G75*
G02*
X79256300Y-124466300I-200000J0D01*
G01*
X78706300Y-124466300D01*
G75*
G02*
X78506300Y-124266300I0J200000D01*
G01*
X78506300Y-123866300D01*
G75*
G02*
X78706300Y-123666300I200000J0D01*
G01*
G37*
%TD*%
%TO.C,R90*%
G36*
G01*
X80230300Y-122016300D02*
X80780300Y-122016300D01*
G75*
G02*
X80980300Y-122216300I0J-200000D01*
G01*
X80980300Y-122616300D01*
G75*
G02*
X80780300Y-122816300I-200000J0D01*
G01*
X80230300Y-122816300D01*
G75*
G02*
X80030300Y-122616300I0J200000D01*
G01*
X80030300Y-122216300D01*
G75*
G02*
X80230300Y-122016300I200000J0D01*
G01*
G37*
G36*
G01*
X80230300Y-123666300D02*
X80780300Y-123666300D01*
G75*
G02*
X80980300Y-123866300I0J-200000D01*
G01*
X80980300Y-124266300D01*
G75*
G02*
X80780300Y-124466300I-200000J0D01*
G01*
X80230300Y-124466300D01*
G75*
G02*
X80030300Y-124266300I0J200000D01*
G01*
X80030300Y-123866300D01*
G75*
G02*
X80230300Y-123666300I200000J0D01*
G01*
G37*
%TD*%
%TO.C,R91*%
G36*
G01*
X71911800Y-127919800D02*
X72461800Y-127919800D01*
G75*
G02*
X72661800Y-128119800I0J-200000D01*
G01*
X72661800Y-128519800D01*
G75*
G02*
X72461800Y-128719800I-200000J0D01*
G01*
X71911800Y-128719800D01*
G75*
G02*
X71711800Y-128519800I0J200000D01*
G01*
X71711800Y-128119800D01*
G75*
G02*
X71911800Y-127919800I200000J0D01*
G01*
G37*
G36*
G01*
X71911800Y-126269800D02*
X72461800Y-126269800D01*
G75*
G02*
X72661800Y-126469800I0J-200000D01*
G01*
X72661800Y-126869800D01*
G75*
G02*
X72461800Y-127069800I-200000J0D01*
G01*
X71911800Y-127069800D01*
G75*
G02*
X71711800Y-126869800I0J200000D01*
G01*
X71711800Y-126469800D01*
G75*
G02*
X71911800Y-126269800I200000J0D01*
G01*
G37*
%TD*%
%TO.C,R92*%
G36*
G01*
X73435800Y-127919800D02*
X73985800Y-127919800D01*
G75*
G02*
X74185800Y-128119800I0J-200000D01*
G01*
X74185800Y-128519800D01*
G75*
G02*
X73985800Y-128719800I-200000J0D01*
G01*
X73435800Y-128719800D01*
G75*
G02*
X73235800Y-128519800I0J200000D01*
G01*
X73235800Y-128119800D01*
G75*
G02*
X73435800Y-127919800I200000J0D01*
G01*
G37*
G36*
G01*
X73435800Y-126269800D02*
X73985800Y-126269800D01*
G75*
G02*
X74185800Y-126469800I0J-200000D01*
G01*
X74185800Y-126869800D01*
G75*
G02*
X73985800Y-127069800I-200000J0D01*
G01*
X73435800Y-127069800D01*
G75*
G02*
X73235800Y-126869800I0J200000D01*
G01*
X73235800Y-126469800D01*
G75*
G02*
X73435800Y-126269800I200000J0D01*
G01*
G37*
%TD*%
%TO.C,R93*%
G36*
G01*
X78706300Y-125190300D02*
X79256300Y-125190300D01*
G75*
G02*
X79456300Y-125390300I0J-200000D01*
G01*
X79456300Y-125790300D01*
G75*
G02*
X79256300Y-125990300I-200000J0D01*
G01*
X78706300Y-125990300D01*
G75*
G02*
X78506300Y-125790300I0J200000D01*
G01*
X78506300Y-125390300D01*
G75*
G02*
X78706300Y-125190300I200000J0D01*
G01*
G37*
G36*
G01*
X78706300Y-126840300D02*
X79256300Y-126840300D01*
G75*
G02*
X79456300Y-127040300I0J-200000D01*
G01*
X79456300Y-127440300D01*
G75*
G02*
X79256300Y-127640300I-200000J0D01*
G01*
X78706300Y-127640300D01*
G75*
G02*
X78506300Y-127440300I0J200000D01*
G01*
X78506300Y-127040300D01*
G75*
G02*
X78706300Y-126840300I200000J0D01*
G01*
G37*
%TD*%
%TO.C,R95*%
G36*
G01*
X81754300Y-125190300D02*
X82304300Y-125190300D01*
G75*
G02*
X82504300Y-125390300I0J-200000D01*
G01*
X82504300Y-125790300D01*
G75*
G02*
X82304300Y-125990300I-200000J0D01*
G01*
X81754300Y-125990300D01*
G75*
G02*
X81554300Y-125790300I0J200000D01*
G01*
X81554300Y-125390300D01*
G75*
G02*
X81754300Y-125190300I200000J0D01*
G01*
G37*
G36*
G01*
X81754300Y-126840300D02*
X82304300Y-126840300D01*
G75*
G02*
X82504300Y-127040300I0J-200000D01*
G01*
X82504300Y-127440300D01*
G75*
G02*
X82304300Y-127640300I-200000J0D01*
G01*
X81754300Y-127640300D01*
G75*
G02*
X81554300Y-127440300I0J200000D01*
G01*
X81554300Y-127040300D01*
G75*
G02*
X81754300Y-126840300I200000J0D01*
G01*
G37*
%TD*%
D18*
%TO.C,GND1*%
X123367800Y-77139800D03*
%TD*%
%TO.C,C10*%
G36*
G01*
X91407800Y-129028300D02*
X91407800Y-126978300D01*
G75*
G02*
X91657800Y-126728300I250000J0D01*
G01*
X93232800Y-126728300D01*
G75*
G02*
X93482800Y-126978300I0J-250000D01*
G01*
X93482800Y-129028300D01*
G75*
G02*
X93232800Y-129278300I-250000J0D01*
G01*
X91657800Y-129278300D01*
G75*
G02*
X91407800Y-129028300I0J250000D01*
G01*
G37*
G36*
G01*
X85182800Y-129028300D02*
X85182800Y-126978300D01*
G75*
G02*
X85432800Y-126728300I250000J0D01*
G01*
X87007800Y-126728300D01*
G75*
G02*
X87257800Y-126978300I0J-250000D01*
G01*
X87257800Y-129028300D01*
G75*
G02*
X87007800Y-129278300I-250000J0D01*
G01*
X85432800Y-129278300D01*
G75*
G02*
X85182800Y-129028300I0J250000D01*
G01*
G37*
%TD*%
%TO.C,C12*%
G36*
G01*
X98687800Y-126978300D02*
X98687800Y-129028300D01*
G75*
G02*
X98437800Y-129278300I-250000J0D01*
G01*
X96862800Y-129278300D01*
G75*
G02*
X96612800Y-129028300I0J250000D01*
G01*
X96612800Y-126978300D01*
G75*
G02*
X96862800Y-126728300I250000J0D01*
G01*
X98437800Y-126728300D01*
G75*
G02*
X98687800Y-126978300I0J-250000D01*
G01*
G37*
G36*
G01*
X104912800Y-126978300D02*
X104912800Y-129028300D01*
G75*
G02*
X104662800Y-129278300I-250000J0D01*
G01*
X103087800Y-129278300D01*
G75*
G02*
X102837800Y-129028300I0J250000D01*
G01*
X102837800Y-126978300D01*
G75*
G02*
X103087800Y-126728300I250000J0D01*
G01*
X104662800Y-126728300D01*
G75*
G02*
X104912800Y-126978300I0J-250000D01*
G01*
G37*
%TD*%
D19*
%TO.C,SW1*%
X72175800Y-113398300D03*
X73975800Y-113398300D03*
%TD*%
D20*
%TO.C,Q21*%
X93710800Y-86362300D03*
X93710800Y-85062300D03*
X91810800Y-85712300D03*
X93710800Y-85712300D03*
X91810800Y-85062300D03*
X91810800Y-86362300D03*
%TD*%
%TO.C,R86*%
G36*
G01*
X120467800Y-137738800D02*
X119917800Y-137738800D01*
G75*
G02*
X119717800Y-137538800I0J200000D01*
G01*
X119717800Y-137138800D01*
G75*
G02*
X119917800Y-136938800I200000J0D01*
G01*
X120467800Y-136938800D01*
G75*
G02*
X120667800Y-137138800I0J-200000D01*
G01*
X120667800Y-137538800D01*
G75*
G02*
X120467800Y-137738800I-200000J0D01*
G01*
G37*
G36*
G01*
X120467800Y-139388800D02*
X119917800Y-139388800D01*
G75*
G02*
X119717800Y-139188800I0J200000D01*
G01*
X119717800Y-138788800D01*
G75*
G02*
X119917800Y-138588800I200000J0D01*
G01*
X120467800Y-138588800D01*
G75*
G02*
X120667800Y-138788800I0J-200000D01*
G01*
X120667800Y-139188800D01*
G75*
G02*
X120467800Y-139388800I-200000J0D01*
G01*
G37*
%TD*%
%TO.C,R85*%
G36*
G01*
X118562800Y-137737800D02*
X118012800Y-137737800D01*
G75*
G02*
X117812800Y-137537800I0J200000D01*
G01*
X117812800Y-137137800D01*
G75*
G02*
X118012800Y-136937800I200000J0D01*
G01*
X118562800Y-136937800D01*
G75*
G02*
X118762800Y-137137800I0J-200000D01*
G01*
X118762800Y-137537800D01*
G75*
G02*
X118562800Y-137737800I-200000J0D01*
G01*
G37*
G36*
G01*
X118562800Y-139387800D02*
X118012800Y-139387800D01*
G75*
G02*
X117812800Y-139187800I0J200000D01*
G01*
X117812800Y-138787800D01*
G75*
G02*
X118012800Y-138587800I200000J0D01*
G01*
X118562800Y-138587800D01*
G75*
G02*
X118762800Y-138787800I0J-200000D01*
G01*
X118762800Y-139187800D01*
G75*
G02*
X118562800Y-139387800I-200000J0D01*
G01*
G37*
%TD*%
%TO.C,R43*%
G36*
G01*
X112043800Y-129444800D02*
X112593800Y-129444800D01*
G75*
G02*
X112793800Y-129644800I0J-200000D01*
G01*
X112793800Y-130044800D01*
G75*
G02*
X112593800Y-130244800I-200000J0D01*
G01*
X112043800Y-130244800D01*
G75*
G02*
X111843800Y-130044800I0J200000D01*
G01*
X111843800Y-129644800D01*
G75*
G02*
X112043800Y-129444800I200000J0D01*
G01*
G37*
G36*
G01*
X112043800Y-127794800D02*
X112593800Y-127794800D01*
G75*
G02*
X112793800Y-127994800I0J-200000D01*
G01*
X112793800Y-128394800D01*
G75*
G02*
X112593800Y-128594800I-200000J0D01*
G01*
X112043800Y-128594800D01*
G75*
G02*
X111843800Y-128394800I0J200000D01*
G01*
X111843800Y-127994800D01*
G75*
G02*
X112043800Y-127794800I200000J0D01*
G01*
G37*
%TD*%
%TO.C,R59*%
G36*
G01*
X88463800Y-77539800D02*
X87913800Y-77539800D01*
G75*
G02*
X87713800Y-77339800I0J200000D01*
G01*
X87713800Y-76939800D01*
G75*
G02*
X87913800Y-76739800I200000J0D01*
G01*
X88463800Y-76739800D01*
G75*
G02*
X88663800Y-76939800I0J-200000D01*
G01*
X88663800Y-77339800D01*
G75*
G02*
X88463800Y-77539800I-200000J0D01*
G01*
G37*
G36*
G01*
X88463800Y-79189800D02*
X87913800Y-79189800D01*
G75*
G02*
X87713800Y-78989800I0J200000D01*
G01*
X87713800Y-78589800D01*
G75*
G02*
X87913800Y-78389800I200000J0D01*
G01*
X88463800Y-78389800D01*
G75*
G02*
X88663800Y-78589800I0J-200000D01*
G01*
X88663800Y-78989800D01*
G75*
G02*
X88463800Y-79189800I-200000J0D01*
G01*
G37*
%TD*%
%TO.C,R58*%
G36*
G01*
X100527800Y-80801800D02*
X100527800Y-81351800D01*
G75*
G02*
X100327800Y-81551800I-200000J0D01*
G01*
X99927800Y-81551800D01*
G75*
G02*
X99727800Y-81351800I0J200000D01*
G01*
X99727800Y-80801800D01*
G75*
G02*
X99927800Y-80601800I200000J0D01*
G01*
X100327800Y-80601800D01*
G75*
G02*
X100527800Y-80801800I0J-200000D01*
G01*
G37*
G36*
G01*
X102177800Y-80801800D02*
X102177800Y-81351800D01*
G75*
G02*
X101977800Y-81551800I-200000J0D01*
G01*
X101577800Y-81551800D01*
G75*
G02*
X101377800Y-81351800I0J200000D01*
G01*
X101377800Y-80801800D01*
G75*
G02*
X101577800Y-80601800I200000J0D01*
G01*
X101977800Y-80601800D01*
G75*
G02*
X102177800Y-80801800I0J-200000D01*
G01*
G37*
%TD*%
%TO.C,R57*%
G36*
G01*
X100527800Y-85881800D02*
X100527800Y-86431800D01*
G75*
G02*
X100327800Y-86631800I-200000J0D01*
G01*
X99927800Y-86631800D01*
G75*
G02*
X99727800Y-86431800I0J200000D01*
G01*
X99727800Y-85881800D01*
G75*
G02*
X99927800Y-85681800I200000J0D01*
G01*
X100327800Y-85681800D01*
G75*
G02*
X100527800Y-85881800I0J-200000D01*
G01*
G37*
G36*
G01*
X102177800Y-85881800D02*
X102177800Y-86431800D01*
G75*
G02*
X101977800Y-86631800I-200000J0D01*
G01*
X101577800Y-86631800D01*
G75*
G02*
X101377800Y-86431800I0J200000D01*
G01*
X101377800Y-85881800D01*
G75*
G02*
X101577800Y-85681800I200000J0D01*
G01*
X101977800Y-85681800D01*
G75*
G02*
X102177800Y-85881800I0J-200000D01*
G01*
G37*
%TD*%
%TO.C,R56*%
G36*
G01*
X90495800Y-77540800D02*
X89945800Y-77540800D01*
G75*
G02*
X89745800Y-77340800I0J200000D01*
G01*
X89745800Y-76940800D01*
G75*
G02*
X89945800Y-76740800I200000J0D01*
G01*
X90495800Y-76740800D01*
G75*
G02*
X90695800Y-76940800I0J-200000D01*
G01*
X90695800Y-77340800D01*
G75*
G02*
X90495800Y-77540800I-200000J0D01*
G01*
G37*
G36*
G01*
X90495800Y-79190800D02*
X89945800Y-79190800D01*
G75*
G02*
X89745800Y-78990800I0J200000D01*
G01*
X89745800Y-78590800D01*
G75*
G02*
X89945800Y-78390800I200000J0D01*
G01*
X90495800Y-78390800D01*
G75*
G02*
X90695800Y-78590800I0J-200000D01*
G01*
X90695800Y-78990800D01*
G75*
G02*
X90495800Y-79190800I-200000J0D01*
G01*
G37*
%TD*%
%TO.C,R55*%
G36*
G01*
X100527800Y-79150800D02*
X100527800Y-79700800D01*
G75*
G02*
X100327800Y-79900800I-200000J0D01*
G01*
X99927800Y-79900800D01*
G75*
G02*
X99727800Y-79700800I0J200000D01*
G01*
X99727800Y-79150800D01*
G75*
G02*
X99927800Y-78950800I200000J0D01*
G01*
X100327800Y-78950800D01*
G75*
G02*
X100527800Y-79150800I0J-200000D01*
G01*
G37*
G36*
G01*
X102177800Y-79150800D02*
X102177800Y-79700800D01*
G75*
G02*
X101977800Y-79900800I-200000J0D01*
G01*
X101577800Y-79900800D01*
G75*
G02*
X101377800Y-79700800I0J200000D01*
G01*
X101377800Y-79150800D01*
G75*
G02*
X101577800Y-78950800I200000J0D01*
G01*
X101977800Y-78950800D01*
G75*
G02*
X102177800Y-79150800I0J-200000D01*
G01*
G37*
%TD*%
%TO.C,R54*%
G36*
G01*
X100527800Y-87532800D02*
X100527800Y-88082800D01*
G75*
G02*
X100327800Y-88282800I-200000J0D01*
G01*
X99927800Y-88282800D01*
G75*
G02*
X99727800Y-88082800I0J200000D01*
G01*
X99727800Y-87532800D01*
G75*
G02*
X99927800Y-87332800I200000J0D01*
G01*
X100327800Y-87332800D01*
G75*
G02*
X100527800Y-87532800I0J-200000D01*
G01*
G37*
G36*
G01*
X102177800Y-87532800D02*
X102177800Y-88082800D01*
G75*
G02*
X101977800Y-88282800I-200000J0D01*
G01*
X101577800Y-88282800D01*
G75*
G02*
X101377800Y-88082800I0J200000D01*
G01*
X101377800Y-87532800D01*
G75*
G02*
X101577800Y-87332800I200000J0D01*
G01*
X101977800Y-87332800D01*
G75*
G02*
X102177800Y-87532800I0J-200000D01*
G01*
G37*
%TD*%
%TO.C,R53*%
G36*
G01*
X110815800Y-88208800D02*
X110265800Y-88208800D01*
G75*
G02*
X110065800Y-88008800I0J200000D01*
G01*
X110065800Y-87608800D01*
G75*
G02*
X110265800Y-87408800I200000J0D01*
G01*
X110815800Y-87408800D01*
G75*
G02*
X111015800Y-87608800I0J-200000D01*
G01*
X111015800Y-88008800D01*
G75*
G02*
X110815800Y-88208800I-200000J0D01*
G01*
G37*
G36*
G01*
X110815800Y-89858800D02*
X110265800Y-89858800D01*
G75*
G02*
X110065800Y-89658800I0J200000D01*
G01*
X110065800Y-89258800D01*
G75*
G02*
X110265800Y-89058800I200000J0D01*
G01*
X110815800Y-89058800D01*
G75*
G02*
X111015800Y-89258800I0J-200000D01*
G01*
X111015800Y-89658800D01*
G75*
G02*
X110815800Y-89858800I-200000J0D01*
G01*
G37*
%TD*%
%TO.C,R52*%
G36*
G01*
X105820800Y-79024800D02*
X106370800Y-79024800D01*
G75*
G02*
X106570800Y-79224800I0J-200000D01*
G01*
X106570800Y-79624800D01*
G75*
G02*
X106370800Y-79824800I-200000J0D01*
G01*
X105820800Y-79824800D01*
G75*
G02*
X105620800Y-79624800I0J200000D01*
G01*
X105620800Y-79224800D01*
G75*
G02*
X105820800Y-79024800I200000J0D01*
G01*
G37*
G36*
G01*
X105820800Y-77374800D02*
X106370800Y-77374800D01*
G75*
G02*
X106570800Y-77574800I0J-200000D01*
G01*
X106570800Y-77974800D01*
G75*
G02*
X106370800Y-78174800I-200000J0D01*
G01*
X105820800Y-78174800D01*
G75*
G02*
X105620800Y-77974800I0J200000D01*
G01*
X105620800Y-77574800D01*
G75*
G02*
X105820800Y-77374800I200000J0D01*
G01*
G37*
%TD*%
%TO.C,R51*%
G36*
G01*
X115599800Y-79024800D02*
X116149800Y-79024800D01*
G75*
G02*
X116349800Y-79224800I0J-200000D01*
G01*
X116349800Y-79624800D01*
G75*
G02*
X116149800Y-79824800I-200000J0D01*
G01*
X115599800Y-79824800D01*
G75*
G02*
X115399800Y-79624800I0J200000D01*
G01*
X115399800Y-79224800D01*
G75*
G02*
X115599800Y-79024800I200000J0D01*
G01*
G37*
G36*
G01*
X115599800Y-77374800D02*
X116149800Y-77374800D01*
G75*
G02*
X116349800Y-77574800I0J-200000D01*
G01*
X116349800Y-77974800D01*
G75*
G02*
X116149800Y-78174800I-200000J0D01*
G01*
X115599800Y-78174800D01*
G75*
G02*
X115399800Y-77974800I0J200000D01*
G01*
X115399800Y-77574800D01*
G75*
G02*
X115599800Y-77374800I200000J0D01*
G01*
G37*
%TD*%
%TO.C,R50*%
G36*
G01*
X110265800Y-79024800D02*
X110815800Y-79024800D01*
G75*
G02*
X111015800Y-79224800I0J-200000D01*
G01*
X111015800Y-79624800D01*
G75*
G02*
X110815800Y-79824800I-200000J0D01*
G01*
X110265800Y-79824800D01*
G75*
G02*
X110065800Y-79624800I0J200000D01*
G01*
X110065800Y-79224800D01*
G75*
G02*
X110265800Y-79024800I200000J0D01*
G01*
G37*
G36*
G01*
X110265800Y-77374800D02*
X110815800Y-77374800D01*
G75*
G02*
X111015800Y-77574800I0J-200000D01*
G01*
X111015800Y-77974800D01*
G75*
G02*
X110815800Y-78174800I-200000J0D01*
G01*
X110265800Y-78174800D01*
G75*
G02*
X110065800Y-77974800I0J200000D01*
G01*
X110065800Y-77574800D01*
G75*
G02*
X110265800Y-77374800I200000J0D01*
G01*
G37*
%TD*%
%TO.C,R49*%
G36*
G01*
X116149800Y-88208800D02*
X115599800Y-88208800D01*
G75*
G02*
X115399800Y-88008800I0J200000D01*
G01*
X115399800Y-87608800D01*
G75*
G02*
X115599800Y-87408800I200000J0D01*
G01*
X116149800Y-87408800D01*
G75*
G02*
X116349800Y-87608800I0J-200000D01*
G01*
X116349800Y-88008800D01*
G75*
G02*
X116149800Y-88208800I-200000J0D01*
G01*
G37*
G36*
G01*
X116149800Y-89858800D02*
X115599800Y-89858800D01*
G75*
G02*
X115399800Y-89658800I0J200000D01*
G01*
X115399800Y-89258800D01*
G75*
G02*
X115599800Y-89058800I200000J0D01*
G01*
X116149800Y-89058800D01*
G75*
G02*
X116349800Y-89258800I0J-200000D01*
G01*
X116349800Y-89658800D01*
G75*
G02*
X116149800Y-89858800I-200000J0D01*
G01*
G37*
%TD*%
%TO.C,R48*%
G36*
G01*
X112466800Y-88207800D02*
X111916800Y-88207800D01*
G75*
G02*
X111716800Y-88007800I0J200000D01*
G01*
X111716800Y-87607800D01*
G75*
G02*
X111916800Y-87407800I200000J0D01*
G01*
X112466800Y-87407800D01*
G75*
G02*
X112666800Y-87607800I0J-200000D01*
G01*
X112666800Y-88007800D01*
G75*
G02*
X112466800Y-88207800I-200000J0D01*
G01*
G37*
G36*
G01*
X112466800Y-89857800D02*
X111916800Y-89857800D01*
G75*
G02*
X111716800Y-89657800I0J200000D01*
G01*
X111716800Y-89257800D01*
G75*
G02*
X111916800Y-89057800I200000J0D01*
G01*
X112466800Y-89057800D01*
G75*
G02*
X112666800Y-89257800I0J-200000D01*
G01*
X112666800Y-89657800D01*
G75*
G02*
X112466800Y-89857800I-200000J0D01*
G01*
G37*
%TD*%
%TO.C,R47*%
G36*
G01*
X107471800Y-79024800D02*
X108021800Y-79024800D01*
G75*
G02*
X108221800Y-79224800I0J-200000D01*
G01*
X108221800Y-79624800D01*
G75*
G02*
X108021800Y-79824800I-200000J0D01*
G01*
X107471800Y-79824800D01*
G75*
G02*
X107271800Y-79624800I0J200000D01*
G01*
X107271800Y-79224800D01*
G75*
G02*
X107471800Y-79024800I200000J0D01*
G01*
G37*
G36*
G01*
X107471800Y-77374800D02*
X108021800Y-77374800D01*
G75*
G02*
X108221800Y-77574800I0J-200000D01*
G01*
X108221800Y-77974800D01*
G75*
G02*
X108021800Y-78174800I-200000J0D01*
G01*
X107471800Y-78174800D01*
G75*
G02*
X107271800Y-77974800I0J200000D01*
G01*
X107271800Y-77574800D01*
G75*
G02*
X107471800Y-77374800I200000J0D01*
G01*
G37*
%TD*%
%TO.C,R46*%
G36*
G01*
X113948800Y-79024800D02*
X114498800Y-79024800D01*
G75*
G02*
X114698800Y-79224800I0J-200000D01*
G01*
X114698800Y-79624800D01*
G75*
G02*
X114498800Y-79824800I-200000J0D01*
G01*
X113948800Y-79824800D01*
G75*
G02*
X113748800Y-79624800I0J200000D01*
G01*
X113748800Y-79224800D01*
G75*
G02*
X113948800Y-79024800I200000J0D01*
G01*
G37*
G36*
G01*
X113948800Y-77374800D02*
X114498800Y-77374800D01*
G75*
G02*
X114698800Y-77574800I0J-200000D01*
G01*
X114698800Y-77974800D01*
G75*
G02*
X114498800Y-78174800I-200000J0D01*
G01*
X113948800Y-78174800D01*
G75*
G02*
X113748800Y-77974800I0J200000D01*
G01*
X113748800Y-77574800D01*
G75*
G02*
X113948800Y-77374800I200000J0D01*
G01*
G37*
%TD*%
%TO.C,R45*%
G36*
G01*
X111916800Y-79024800D02*
X112466800Y-79024800D01*
G75*
G02*
X112666800Y-79224800I0J-200000D01*
G01*
X112666800Y-79624800D01*
G75*
G02*
X112466800Y-79824800I-200000J0D01*
G01*
X111916800Y-79824800D01*
G75*
G02*
X111716800Y-79624800I0J200000D01*
G01*
X111716800Y-79224800D01*
G75*
G02*
X111916800Y-79024800I200000J0D01*
G01*
G37*
G36*
G01*
X111916800Y-77374800D02*
X112466800Y-77374800D01*
G75*
G02*
X112666800Y-77574800I0J-200000D01*
G01*
X112666800Y-77974800D01*
G75*
G02*
X112466800Y-78174800I-200000J0D01*
G01*
X111916800Y-78174800D01*
G75*
G02*
X111716800Y-77974800I0J200000D01*
G01*
X111716800Y-77574800D01*
G75*
G02*
X111916800Y-77374800I200000J0D01*
G01*
G37*
%TD*%
%TO.C,R44*%
G36*
G01*
X114498800Y-88208800D02*
X113948800Y-88208800D01*
G75*
G02*
X113748800Y-88008800I0J200000D01*
G01*
X113748800Y-87608800D01*
G75*
G02*
X113948800Y-87408800I200000J0D01*
G01*
X114498800Y-87408800D01*
G75*
G02*
X114698800Y-87608800I0J-200000D01*
G01*
X114698800Y-88008800D01*
G75*
G02*
X114498800Y-88208800I-200000J0D01*
G01*
G37*
G36*
G01*
X114498800Y-89858800D02*
X113948800Y-89858800D01*
G75*
G02*
X113748800Y-89658800I0J200000D01*
G01*
X113748800Y-89258800D01*
G75*
G02*
X113948800Y-89058800I200000J0D01*
G01*
X114498800Y-89058800D01*
G75*
G02*
X114698800Y-89258800I0J-200000D01*
G01*
X114698800Y-89658800D01*
G75*
G02*
X114498800Y-89858800I-200000J0D01*
G01*
G37*
%TD*%
%TO.C,C32*%
G36*
G01*
X85906800Y-78239800D02*
X86406800Y-78239800D01*
G75*
G02*
X86631800Y-78464800I0J-225000D01*
G01*
X86631800Y-78914800D01*
G75*
G02*
X86406800Y-79139800I-225000J0D01*
G01*
X85906800Y-79139800D01*
G75*
G02*
X85681800Y-78914800I0J225000D01*
G01*
X85681800Y-78464800D01*
G75*
G02*
X85906800Y-78239800I225000J0D01*
G01*
G37*
G36*
G01*
X85906800Y-76689800D02*
X86406800Y-76689800D01*
G75*
G02*
X86631800Y-76914800I0J-225000D01*
G01*
X86631800Y-77364800D01*
G75*
G02*
X86406800Y-77589800I-225000J0D01*
G01*
X85906800Y-77589800D01*
G75*
G02*
X85681800Y-77364800I0J225000D01*
G01*
X85681800Y-76914800D01*
G75*
G02*
X85906800Y-76689800I225000J0D01*
G01*
G37*
%TD*%
%TO.C,C31*%
G36*
G01*
X98225800Y-82176800D02*
X98725800Y-82176800D01*
G75*
G02*
X98950800Y-82401800I0J-225000D01*
G01*
X98950800Y-82851800D01*
G75*
G02*
X98725800Y-83076800I-225000J0D01*
G01*
X98225800Y-83076800D01*
G75*
G02*
X98000800Y-82851800I0J225000D01*
G01*
X98000800Y-82401800D01*
G75*
G02*
X98225800Y-82176800I225000J0D01*
G01*
G37*
G36*
G01*
X98225800Y-80626800D02*
X98725800Y-80626800D01*
G75*
G02*
X98950800Y-80851800I0J-225000D01*
G01*
X98950800Y-81301800D01*
G75*
G02*
X98725800Y-81526800I-225000J0D01*
G01*
X98225800Y-81526800D01*
G75*
G02*
X98000800Y-81301800I0J225000D01*
G01*
X98000800Y-80851800D01*
G75*
G02*
X98225800Y-80626800I225000J0D01*
G01*
G37*
%TD*%
%TO.C,C30*%
G36*
G01*
X98725800Y-85056800D02*
X98225800Y-85056800D01*
G75*
G02*
X98000800Y-84831800I0J225000D01*
G01*
X98000800Y-84381800D01*
G75*
G02*
X98225800Y-84156800I225000J0D01*
G01*
X98725800Y-84156800D01*
G75*
G02*
X98950800Y-84381800I0J-225000D01*
G01*
X98950800Y-84831800D01*
G75*
G02*
X98725800Y-85056800I-225000J0D01*
G01*
G37*
G36*
G01*
X98725800Y-86606800D02*
X98225800Y-86606800D01*
G75*
G02*
X98000800Y-86381800I0J225000D01*
G01*
X98000800Y-85931800D01*
G75*
G02*
X98225800Y-85706800I225000J0D01*
G01*
X98725800Y-85706800D01*
G75*
G02*
X98950800Y-85931800I0J-225000D01*
G01*
X98950800Y-86381800D01*
G75*
G02*
X98725800Y-86606800I-225000J0D01*
G01*
G37*
%TD*%
%TO.C,C29*%
G36*
G01*
X106941800Y-91232800D02*
X106941800Y-90732800D01*
G75*
G02*
X107166800Y-90507800I225000J0D01*
G01*
X107616800Y-90507800D01*
G75*
G02*
X107841800Y-90732800I0J-225000D01*
G01*
X107841800Y-91232800D01*
G75*
G02*
X107616800Y-91457800I-225000J0D01*
G01*
X107166800Y-91457800D01*
G75*
G02*
X106941800Y-91232800I0J225000D01*
G01*
G37*
G36*
G01*
X105391800Y-91232800D02*
X105391800Y-90732800D01*
G75*
G02*
X105616800Y-90507800I225000J0D01*
G01*
X106066800Y-90507800D01*
G75*
G02*
X106291800Y-90732800I0J-225000D01*
G01*
X106291800Y-91232800D01*
G75*
G02*
X106066800Y-91457800I-225000J0D01*
G01*
X105616800Y-91457800D01*
G75*
G02*
X105391800Y-91232800I0J225000D01*
G01*
G37*
%TD*%
%TO.C,C28*%
G36*
G01*
X110790800Y-85196800D02*
X110290800Y-85196800D01*
G75*
G02*
X110065800Y-84971800I0J225000D01*
G01*
X110065800Y-84521800D01*
G75*
G02*
X110290800Y-84296800I225000J0D01*
G01*
X110790800Y-84296800D01*
G75*
G02*
X111015800Y-84521800I0J-225000D01*
G01*
X111015800Y-84971800D01*
G75*
G02*
X110790800Y-85196800I-225000J0D01*
G01*
G37*
G36*
G01*
X110790800Y-86746800D02*
X110290800Y-86746800D01*
G75*
G02*
X110065800Y-86521800I0J225000D01*
G01*
X110065800Y-86071800D01*
G75*
G02*
X110290800Y-85846800I225000J0D01*
G01*
X110790800Y-85846800D01*
G75*
G02*
X111015800Y-86071800I0J-225000D01*
G01*
X111015800Y-86521800D01*
G75*
G02*
X110790800Y-86746800I-225000J0D01*
G01*
G37*
%TD*%
%TO.C,C27*%
G36*
G01*
X105845800Y-82023800D02*
X106345800Y-82023800D01*
G75*
G02*
X106570800Y-82248800I0J-225000D01*
G01*
X106570800Y-82698800D01*
G75*
G02*
X106345800Y-82923800I-225000J0D01*
G01*
X105845800Y-82923800D01*
G75*
G02*
X105620800Y-82698800I0J225000D01*
G01*
X105620800Y-82248800D01*
G75*
G02*
X105845800Y-82023800I225000J0D01*
G01*
G37*
G36*
G01*
X105845800Y-80473800D02*
X106345800Y-80473800D01*
G75*
G02*
X106570800Y-80698800I0J-225000D01*
G01*
X106570800Y-81148800D01*
G75*
G02*
X106345800Y-81373800I-225000J0D01*
G01*
X105845800Y-81373800D01*
G75*
G02*
X105620800Y-81148800I0J225000D01*
G01*
X105620800Y-80698800D01*
G75*
G02*
X105845800Y-80473800I225000J0D01*
G01*
G37*
%TD*%
%TO.C,C26*%
G36*
G01*
X115624800Y-82023800D02*
X116124800Y-82023800D01*
G75*
G02*
X116349800Y-82248800I0J-225000D01*
G01*
X116349800Y-82698800D01*
G75*
G02*
X116124800Y-82923800I-225000J0D01*
G01*
X115624800Y-82923800D01*
G75*
G02*
X115399800Y-82698800I0J225000D01*
G01*
X115399800Y-82248800D01*
G75*
G02*
X115624800Y-82023800I225000J0D01*
G01*
G37*
G36*
G01*
X115624800Y-80473800D02*
X116124800Y-80473800D01*
G75*
G02*
X116349800Y-80698800I0J-225000D01*
G01*
X116349800Y-81148800D01*
G75*
G02*
X116124800Y-81373800I-225000J0D01*
G01*
X115624800Y-81373800D01*
G75*
G02*
X115399800Y-81148800I0J225000D01*
G01*
X115399800Y-80698800D01*
G75*
G02*
X115624800Y-80473800I225000J0D01*
G01*
G37*
%TD*%
%TO.C,C25*%
G36*
G01*
X110290800Y-82049800D02*
X110790800Y-82049800D01*
G75*
G02*
X111015800Y-82274800I0J-225000D01*
G01*
X111015800Y-82724800D01*
G75*
G02*
X110790800Y-82949800I-225000J0D01*
G01*
X110290800Y-82949800D01*
G75*
G02*
X110065800Y-82724800I0J225000D01*
G01*
X110065800Y-82274800D01*
G75*
G02*
X110290800Y-82049800I225000J0D01*
G01*
G37*
G36*
G01*
X110290800Y-80499800D02*
X110790800Y-80499800D01*
G75*
G02*
X111015800Y-80724800I0J-225000D01*
G01*
X111015800Y-81174800D01*
G75*
G02*
X110790800Y-81399800I-225000J0D01*
G01*
X110290800Y-81399800D01*
G75*
G02*
X110065800Y-81174800I0J225000D01*
G01*
X110065800Y-80724800D01*
G75*
G02*
X110290800Y-80499800I225000J0D01*
G01*
G37*
%TD*%
%TO.C,C24*%
G36*
G01*
X116124800Y-85183800D02*
X115624800Y-85183800D01*
G75*
G02*
X115399800Y-84958800I0J225000D01*
G01*
X115399800Y-84508800D01*
G75*
G02*
X115624800Y-84283800I225000J0D01*
G01*
X116124800Y-84283800D01*
G75*
G02*
X116349800Y-84508800I0J-225000D01*
G01*
X116349800Y-84958800D01*
G75*
G02*
X116124800Y-85183800I-225000J0D01*
G01*
G37*
G36*
G01*
X116124800Y-86733800D02*
X115624800Y-86733800D01*
G75*
G02*
X115399800Y-86508800I0J225000D01*
G01*
X115399800Y-86058800D01*
G75*
G02*
X115624800Y-85833800I225000J0D01*
G01*
X116124800Y-85833800D01*
G75*
G02*
X116349800Y-86058800I0J-225000D01*
G01*
X116349800Y-86508800D01*
G75*
G02*
X116124800Y-86733800I-225000J0D01*
G01*
G37*
%TD*%
D21*
%TO.C,U11*%
X105846800Y-89372800D03*
X107746800Y-89372800D03*
X107746800Y-87172800D03*
X106796800Y-87172800D03*
X105846800Y-87172800D03*
%TD*%
D22*
%TO.C,Y1*%
X87045800Y-132404800D03*
X87045800Y-134904800D03*
%TD*%
D23*
%TO.C,BT1*%
X95046800Y-141318800D03*
X90046800Y-137718800D03*
X100046800Y-137718800D03*
%TD*%
%TO.C,C6*%
G36*
G01*
X72436800Y-97401800D02*
X71936800Y-97401800D01*
G75*
G02*
X71711800Y-97176800I0J225000D01*
G01*
X71711800Y-96726800D01*
G75*
G02*
X71936800Y-96501800I225000J0D01*
G01*
X72436800Y-96501800D01*
G75*
G02*
X72661800Y-96726800I0J-225000D01*
G01*
X72661800Y-97176800D01*
G75*
G02*
X72436800Y-97401800I-225000J0D01*
G01*
G37*
G36*
G01*
X72436800Y-98951800D02*
X71936800Y-98951800D01*
G75*
G02*
X71711800Y-98726800I0J225000D01*
G01*
X71711800Y-98276800D01*
G75*
G02*
X71936800Y-98051800I225000J0D01*
G01*
X72436800Y-98051800D01*
G75*
G02*
X72661800Y-98276800I0J-225000D01*
G01*
X72661800Y-98726800D01*
G75*
G02*
X72436800Y-98951800I-225000J0D01*
G01*
G37*
%TD*%
%TO.C,C5*%
G36*
G01*
X74087800Y-97401800D02*
X73587800Y-97401800D01*
G75*
G02*
X73362800Y-97176800I0J225000D01*
G01*
X73362800Y-96726800D01*
G75*
G02*
X73587800Y-96501800I225000J0D01*
G01*
X74087800Y-96501800D01*
G75*
G02*
X74312800Y-96726800I0J-225000D01*
G01*
X74312800Y-97176800D01*
G75*
G02*
X74087800Y-97401800I-225000J0D01*
G01*
G37*
G36*
G01*
X74087800Y-98951800D02*
X73587800Y-98951800D01*
G75*
G02*
X73362800Y-98726800I0J225000D01*
G01*
X73362800Y-98276800D01*
G75*
G02*
X73587800Y-98051800I225000J0D01*
G01*
X74087800Y-98051800D01*
G75*
G02*
X74312800Y-98276800I0J-225000D01*
G01*
X74312800Y-98726800D01*
G75*
G02*
X74087800Y-98951800I-225000J0D01*
G01*
G37*
%TD*%
%TO.C,C22*%
G36*
G01*
X84120800Y-107815800D02*
X83620800Y-107815800D01*
G75*
G02*
X83395800Y-107590800I0J225000D01*
G01*
X83395800Y-107140800D01*
G75*
G02*
X83620800Y-106915800I225000J0D01*
G01*
X84120800Y-106915800D01*
G75*
G02*
X84345800Y-107140800I0J-225000D01*
G01*
X84345800Y-107590800D01*
G75*
G02*
X84120800Y-107815800I-225000J0D01*
G01*
G37*
G36*
G01*
X84120800Y-109365800D02*
X83620800Y-109365800D01*
G75*
G02*
X83395800Y-109140800I0J225000D01*
G01*
X83395800Y-108690800D01*
G75*
G02*
X83620800Y-108465800I225000J0D01*
G01*
X84120800Y-108465800D01*
G75*
G02*
X84345800Y-108690800I0J-225000D01*
G01*
X84345800Y-109140800D01*
G75*
G02*
X84120800Y-109365800I-225000J0D01*
G01*
G37*
%TD*%
%TO.C,U12*%
G36*
G01*
X88861800Y-89354800D02*
X88861800Y-89054800D01*
G75*
G02*
X89011800Y-88904800I150000J0D01*
G01*
X90661800Y-88904800D01*
G75*
G02*
X90811800Y-89054800I0J-150000D01*
G01*
X90811800Y-89354800D01*
G75*
G02*
X90661800Y-89504800I-150000J0D01*
G01*
X89011800Y-89504800D01*
G75*
G02*
X88861800Y-89354800I0J150000D01*
G01*
G37*
G36*
G01*
X88861800Y-88084800D02*
X88861800Y-87784800D01*
G75*
G02*
X89011800Y-87634800I150000J0D01*
G01*
X90661800Y-87634800D01*
G75*
G02*
X90811800Y-87784800I0J-150000D01*
G01*
X90811800Y-88084800D01*
G75*
G02*
X90661800Y-88234800I-150000J0D01*
G01*
X89011800Y-88234800D01*
G75*
G02*
X88861800Y-88084800I0J150000D01*
G01*
G37*
G36*
G01*
X88861800Y-86814800D02*
X88861800Y-86514800D01*
G75*
G02*
X89011800Y-86364800I150000J0D01*
G01*
X90661800Y-86364800D01*
G75*
G02*
X90811800Y-86514800I0J-150000D01*
G01*
X90811800Y-86814800D01*
G75*
G02*
X90661800Y-86964800I-150000J0D01*
G01*
X89011800Y-86964800D01*
G75*
G02*
X88861800Y-86814800I0J150000D01*
G01*
G37*
G36*
G01*
X88861800Y-85544800D02*
X88861800Y-85244800D01*
G75*
G02*
X89011800Y-85094800I150000J0D01*
G01*
X90661800Y-85094800D01*
G75*
G02*
X90811800Y-85244800I0J-150000D01*
G01*
X90811800Y-85544800D01*
G75*
G02*
X90661800Y-85694800I-150000J0D01*
G01*
X89011800Y-85694800D01*
G75*
G02*
X88861800Y-85544800I0J150000D01*
G01*
G37*
G36*
G01*
X88861800Y-84274800D02*
X88861800Y-83974800D01*
G75*
G02*
X89011800Y-83824800I150000J0D01*
G01*
X90661800Y-83824800D01*
G75*
G02*
X90811800Y-83974800I0J-150000D01*
G01*
X90811800Y-84274800D01*
G75*
G02*
X90661800Y-84424800I-150000J0D01*
G01*
X89011800Y-84424800D01*
G75*
G02*
X88861800Y-84274800I0J150000D01*
G01*
G37*
G36*
G01*
X88861800Y-83004800D02*
X88861800Y-82704800D01*
G75*
G02*
X89011800Y-82554800I150000J0D01*
G01*
X90661800Y-82554800D01*
G75*
G02*
X90811800Y-82704800I0J-150000D01*
G01*
X90811800Y-83004800D01*
G75*
G02*
X90661800Y-83154800I-150000J0D01*
G01*
X89011800Y-83154800D01*
G75*
G02*
X88861800Y-83004800I0J150000D01*
G01*
G37*
G36*
G01*
X88861800Y-81734800D02*
X88861800Y-81434800D01*
G75*
G02*
X89011800Y-81284800I150000J0D01*
G01*
X90661800Y-81284800D01*
G75*
G02*
X90811800Y-81434800I0J-150000D01*
G01*
X90811800Y-81734800D01*
G75*
G02*
X90661800Y-81884800I-150000J0D01*
G01*
X89011800Y-81884800D01*
G75*
G02*
X88861800Y-81734800I0J150000D01*
G01*
G37*
G36*
G01*
X88861800Y-80464800D02*
X88861800Y-80164800D01*
G75*
G02*
X89011800Y-80014800I150000J0D01*
G01*
X90661800Y-80014800D01*
G75*
G02*
X90811800Y-80164800I0J-150000D01*
G01*
X90811800Y-80464800D01*
G75*
G02*
X90661800Y-80614800I-150000J0D01*
G01*
X89011800Y-80614800D01*
G75*
G02*
X88861800Y-80464800I0J150000D01*
G01*
G37*
G36*
G01*
X83911800Y-80464800D02*
X83911800Y-80164800D01*
G75*
G02*
X84061800Y-80014800I150000J0D01*
G01*
X85711800Y-80014800D01*
G75*
G02*
X85861800Y-80164800I0J-150000D01*
G01*
X85861800Y-80464800D01*
G75*
G02*
X85711800Y-80614800I-150000J0D01*
G01*
X84061800Y-80614800D01*
G75*
G02*
X83911800Y-80464800I0J150000D01*
G01*
G37*
G36*
G01*
X83911800Y-81734800D02*
X83911800Y-81434800D01*
G75*
G02*
X84061800Y-81284800I150000J0D01*
G01*
X85711800Y-81284800D01*
G75*
G02*
X85861800Y-81434800I0J-150000D01*
G01*
X85861800Y-81734800D01*
G75*
G02*
X85711800Y-81884800I-150000J0D01*
G01*
X84061800Y-81884800D01*
G75*
G02*
X83911800Y-81734800I0J150000D01*
G01*
G37*
G36*
G01*
X83911800Y-83004800D02*
X83911800Y-82704800D01*
G75*
G02*
X84061800Y-82554800I150000J0D01*
G01*
X85711800Y-82554800D01*
G75*
G02*
X85861800Y-82704800I0J-150000D01*
G01*
X85861800Y-83004800D01*
G75*
G02*
X85711800Y-83154800I-150000J0D01*
G01*
X84061800Y-83154800D01*
G75*
G02*
X83911800Y-83004800I0J150000D01*
G01*
G37*
G36*
G01*
X83911800Y-84274800D02*
X83911800Y-83974800D01*
G75*
G02*
X84061800Y-83824800I150000J0D01*
G01*
X85711800Y-83824800D01*
G75*
G02*
X85861800Y-83974800I0J-150000D01*
G01*
X85861800Y-84274800D01*
G75*
G02*
X85711800Y-84424800I-150000J0D01*
G01*
X84061800Y-84424800D01*
G75*
G02*
X83911800Y-84274800I0J150000D01*
G01*
G37*
G36*
G01*
X83911800Y-85544800D02*
X83911800Y-85244800D01*
G75*
G02*
X84061800Y-85094800I150000J0D01*
G01*
X85711800Y-85094800D01*
G75*
G02*
X85861800Y-85244800I0J-150000D01*
G01*
X85861800Y-85544800D01*
G75*
G02*
X85711800Y-85694800I-150000J0D01*
G01*
X84061800Y-85694800D01*
G75*
G02*
X83911800Y-85544800I0J150000D01*
G01*
G37*
G36*
G01*
X83911800Y-86814800D02*
X83911800Y-86514800D01*
G75*
G02*
X84061800Y-86364800I150000J0D01*
G01*
X85711800Y-86364800D01*
G75*
G02*
X85861800Y-86514800I0J-150000D01*
G01*
X85861800Y-86814800D01*
G75*
G02*
X85711800Y-86964800I-150000J0D01*
G01*
X84061800Y-86964800D01*
G75*
G02*
X83911800Y-86814800I0J150000D01*
G01*
G37*
G36*
G01*
X83911800Y-88084800D02*
X83911800Y-87784800D01*
G75*
G02*
X84061800Y-87634800I150000J0D01*
G01*
X85711800Y-87634800D01*
G75*
G02*
X85861800Y-87784800I0J-150000D01*
G01*
X85861800Y-88084800D01*
G75*
G02*
X85711800Y-88234800I-150000J0D01*
G01*
X84061800Y-88234800D01*
G75*
G02*
X83911800Y-88084800I0J150000D01*
G01*
G37*
G36*
G01*
X83911800Y-89354800D02*
X83911800Y-89054800D01*
G75*
G02*
X84061800Y-88904800I150000J0D01*
G01*
X85711800Y-88904800D01*
G75*
G02*
X85861800Y-89054800I0J-150000D01*
G01*
X85861800Y-89354800D01*
G75*
G02*
X85711800Y-89504800I-150000J0D01*
G01*
X84061800Y-89504800D01*
G75*
G02*
X83911800Y-89354800I0J150000D01*
G01*
G37*
%TD*%
%TO.C,R80*%
G36*
G01*
X108529800Y-137738300D02*
X107979800Y-137738300D01*
G75*
G02*
X107779800Y-137538300I0J200000D01*
G01*
X107779800Y-137138300D01*
G75*
G02*
X107979800Y-136938300I200000J0D01*
G01*
X108529800Y-136938300D01*
G75*
G02*
X108729800Y-137138300I0J-200000D01*
G01*
X108729800Y-137538300D01*
G75*
G02*
X108529800Y-137738300I-200000J0D01*
G01*
G37*
G36*
G01*
X108529800Y-139388300D02*
X107979800Y-139388300D01*
G75*
G02*
X107779800Y-139188300I0J200000D01*
G01*
X107779800Y-138788300D01*
G75*
G02*
X107979800Y-138588300I200000J0D01*
G01*
X108529800Y-138588300D01*
G75*
G02*
X108729800Y-138788300I0J-200000D01*
G01*
X108729800Y-139188300D01*
G75*
G02*
X108529800Y-139388300I-200000J0D01*
G01*
G37*
%TD*%
%TO.C,R75*%
G36*
G01*
X110561800Y-137737800D02*
X110011800Y-137737800D01*
G75*
G02*
X109811800Y-137537800I0J200000D01*
G01*
X109811800Y-137137800D01*
G75*
G02*
X110011800Y-136937800I200000J0D01*
G01*
X110561800Y-136937800D01*
G75*
G02*
X110761800Y-137137800I0J-200000D01*
G01*
X110761800Y-137537800D01*
G75*
G02*
X110561800Y-137737800I-200000J0D01*
G01*
G37*
G36*
G01*
X110561800Y-139387800D02*
X110011800Y-139387800D01*
G75*
G02*
X109811800Y-139187800I0J200000D01*
G01*
X109811800Y-138787800D01*
G75*
G02*
X110011800Y-138587800I200000J0D01*
G01*
X110561800Y-138587800D01*
G75*
G02*
X110761800Y-138787800I0J-200000D01*
G01*
X110761800Y-139187800D01*
G75*
G02*
X110561800Y-139387800I-200000J0D01*
G01*
G37*
%TD*%
%TO.C,R74*%
G36*
G01*
X112593800Y-137737800D02*
X112043800Y-137737800D01*
G75*
G02*
X111843800Y-137537800I0J200000D01*
G01*
X111843800Y-137137800D01*
G75*
G02*
X112043800Y-136937800I200000J0D01*
G01*
X112593800Y-136937800D01*
G75*
G02*
X112793800Y-137137800I0J-200000D01*
G01*
X112793800Y-137537800D01*
G75*
G02*
X112593800Y-137737800I-200000J0D01*
G01*
G37*
G36*
G01*
X112593800Y-139387800D02*
X112043800Y-139387800D01*
G75*
G02*
X111843800Y-139187800I0J200000D01*
G01*
X111843800Y-138787800D01*
G75*
G02*
X112043800Y-138587800I200000J0D01*
G01*
X112593800Y-138587800D01*
G75*
G02*
X112793800Y-138787800I0J-200000D01*
G01*
X112793800Y-139187800D01*
G75*
G02*
X112593800Y-139387800I-200000J0D01*
G01*
G37*
%TD*%
%TO.C,C36*%
G36*
G01*
X87088800Y-90605800D02*
X87088800Y-91105800D01*
G75*
G02*
X86863800Y-91330800I-225000J0D01*
G01*
X86413800Y-91330800D01*
G75*
G02*
X86188800Y-91105800I0J225000D01*
G01*
X86188800Y-90605800D01*
G75*
G02*
X86413800Y-90380800I225000J0D01*
G01*
X86863800Y-90380800D01*
G75*
G02*
X87088800Y-90605800I0J-225000D01*
G01*
G37*
G36*
G01*
X88638800Y-90605800D02*
X88638800Y-91105800D01*
G75*
G02*
X88413800Y-91330800I-225000J0D01*
G01*
X87963800Y-91330800D01*
G75*
G02*
X87738800Y-91105800I0J225000D01*
G01*
X87738800Y-90605800D01*
G75*
G02*
X87963800Y-90380800I225000J0D01*
G01*
X88413800Y-90380800D01*
G75*
G02*
X88638800Y-90605800I0J-225000D01*
G01*
G37*
%TD*%
%TO.C,C35*%
G36*
G01*
X81080800Y-87751800D02*
X81580800Y-87751800D01*
G75*
G02*
X81805800Y-87976800I0J-225000D01*
G01*
X81805800Y-88426800D01*
G75*
G02*
X81580800Y-88651800I-225000J0D01*
G01*
X81080800Y-88651800D01*
G75*
G02*
X80855800Y-88426800I0J225000D01*
G01*
X80855800Y-87976800D01*
G75*
G02*
X81080800Y-87751800I225000J0D01*
G01*
G37*
G36*
G01*
X81080800Y-86201800D02*
X81580800Y-86201800D01*
G75*
G02*
X81805800Y-86426800I0J-225000D01*
G01*
X81805800Y-86876800D01*
G75*
G02*
X81580800Y-87101800I-225000J0D01*
G01*
X81080800Y-87101800D01*
G75*
G02*
X80855800Y-86876800I0J225000D01*
G01*
X80855800Y-86426800D01*
G75*
G02*
X81080800Y-86201800I225000J0D01*
G01*
G37*
%TD*%
%TO.C,C34*%
G36*
G01*
X83104800Y-87101800D02*
X82604800Y-87101800D01*
G75*
G02*
X82379800Y-86876800I0J225000D01*
G01*
X82379800Y-86426800D01*
G75*
G02*
X82604800Y-86201800I225000J0D01*
G01*
X83104800Y-86201800D01*
G75*
G02*
X83329800Y-86426800I0J-225000D01*
G01*
X83329800Y-86876800D01*
G75*
G02*
X83104800Y-87101800I-225000J0D01*
G01*
G37*
G36*
G01*
X83104800Y-88651800D02*
X82604800Y-88651800D01*
G75*
G02*
X82379800Y-88426800I0J225000D01*
G01*
X82379800Y-87976800D01*
G75*
G02*
X82604800Y-87751800I225000J0D01*
G01*
X83104800Y-87751800D01*
G75*
G02*
X83329800Y-87976800I0J-225000D01*
G01*
X83329800Y-88426800D01*
G75*
G02*
X83104800Y-88651800I-225000J0D01*
G01*
G37*
%TD*%
%TO.C,R23*%
G36*
G01*
X88802800Y-133508800D02*
X89352800Y-133508800D01*
G75*
G02*
X89552800Y-133708800I0J-200000D01*
G01*
X89552800Y-134108800D01*
G75*
G02*
X89352800Y-134308800I-200000J0D01*
G01*
X88802800Y-134308800D01*
G75*
G02*
X88602800Y-134108800I0J200000D01*
G01*
X88602800Y-133708800D01*
G75*
G02*
X88802800Y-133508800I200000J0D01*
G01*
G37*
G36*
G01*
X88802800Y-131858800D02*
X89352800Y-131858800D01*
G75*
G02*
X89552800Y-132058800I0J-200000D01*
G01*
X89552800Y-132458800D01*
G75*
G02*
X89352800Y-132658800I-200000J0D01*
G01*
X88802800Y-132658800D01*
G75*
G02*
X88602800Y-132458800I0J200000D01*
G01*
X88602800Y-132058800D01*
G75*
G02*
X88802800Y-131858800I200000J0D01*
G01*
G37*
%TD*%
D24*
%TO.C,U4*%
X98348800Y-133938800D03*
X98348800Y-133288800D03*
X98348800Y-132638800D03*
X98348800Y-131988800D03*
X93848800Y-131988800D03*
X93848800Y-132638800D03*
X93848800Y-133288800D03*
X93848800Y-133938800D03*
%TD*%
%TO.C,U5*%
G36*
G01*
X90291800Y-135328800D02*
X90291800Y-135028800D01*
G75*
G02*
X90441800Y-134878800I150000J0D01*
G01*
X91891800Y-134878800D01*
G75*
G02*
X92041800Y-135028800I0J-150000D01*
G01*
X92041800Y-135328800D01*
G75*
G02*
X91891800Y-135478800I-150000J0D01*
G01*
X90441800Y-135478800D01*
G75*
G02*
X90291800Y-135328800I0J150000D01*
G01*
G37*
G36*
G01*
X90291800Y-134058800D02*
X90291800Y-133758800D01*
G75*
G02*
X90441800Y-133608800I150000J0D01*
G01*
X91891800Y-133608800D01*
G75*
G02*
X92041800Y-133758800I0J-150000D01*
G01*
X92041800Y-134058800D01*
G75*
G02*
X91891800Y-134208800I-150000J0D01*
G01*
X90441800Y-134208800D01*
G75*
G02*
X90291800Y-134058800I0J150000D01*
G01*
G37*
G36*
G01*
X90291800Y-132788800D02*
X90291800Y-132488800D01*
G75*
G02*
X90441800Y-132338800I150000J0D01*
G01*
X91891800Y-132338800D01*
G75*
G02*
X92041800Y-132488800I0J-150000D01*
G01*
X92041800Y-132788800D01*
G75*
G02*
X91891800Y-132938800I-150000J0D01*
G01*
X90441800Y-132938800D01*
G75*
G02*
X90291800Y-132788800I0J150000D01*
G01*
G37*
G36*
G01*
X90291800Y-131518800D02*
X90291800Y-131218800D01*
G75*
G02*
X90441800Y-131068800I150000J0D01*
G01*
X91891800Y-131068800D01*
G75*
G02*
X92041800Y-131218800I0J-150000D01*
G01*
X92041800Y-131518800D01*
G75*
G02*
X91891800Y-131668800I-150000J0D01*
G01*
X90441800Y-131668800D01*
G75*
G02*
X90291800Y-131518800I0J150000D01*
G01*
G37*
G36*
G01*
X95441800Y-131518800D02*
X95441800Y-131218800D01*
G75*
G02*
X95591800Y-131068800I150000J0D01*
G01*
X97041800Y-131068800D01*
G75*
G02*
X97191800Y-131218800I0J-150000D01*
G01*
X97191800Y-131518800D01*
G75*
G02*
X97041800Y-131668800I-150000J0D01*
G01*
X95591800Y-131668800D01*
G75*
G02*
X95441800Y-131518800I0J150000D01*
G01*
G37*
G36*
G01*
X95441800Y-132788800D02*
X95441800Y-132488800D01*
G75*
G02*
X95591800Y-132338800I150000J0D01*
G01*
X97041800Y-132338800D01*
G75*
G02*
X97191800Y-132488800I0J-150000D01*
G01*
X97191800Y-132788800D01*
G75*
G02*
X97041800Y-132938800I-150000J0D01*
G01*
X95591800Y-132938800D01*
G75*
G02*
X95441800Y-132788800I0J150000D01*
G01*
G37*
G36*
G01*
X95441800Y-134058800D02*
X95441800Y-133758800D01*
G75*
G02*
X95591800Y-133608800I150000J0D01*
G01*
X97041800Y-133608800D01*
G75*
G02*
X97191800Y-133758800I0J-150000D01*
G01*
X97191800Y-134058800D01*
G75*
G02*
X97041800Y-134208800I-150000J0D01*
G01*
X95591800Y-134208800D01*
G75*
G02*
X95441800Y-134058800I0J150000D01*
G01*
G37*
G36*
G01*
X95441800Y-135328800D02*
X95441800Y-135028800D01*
G75*
G02*
X95591800Y-134878800I150000J0D01*
G01*
X97041800Y-134878800D01*
G75*
G02*
X97191800Y-135028800I0J-150000D01*
G01*
X97191800Y-135328800D01*
G75*
G02*
X97041800Y-135478800I-150000J0D01*
G01*
X95591800Y-135478800D01*
G75*
G02*
X95441800Y-135328800I0J150000D01*
G01*
G37*
%TD*%
D25*
%TO.C,D1*%
X100063300Y-133464300D03*
X102063300Y-134114300D03*
X102063300Y-132814300D03*
%TD*%
%TO.C,C4*%
G36*
G01*
X99385300Y-135873300D02*
X99385300Y-135373300D01*
G75*
G02*
X99610300Y-135148300I225000J0D01*
G01*
X100060300Y-135148300D01*
G75*
G02*
X100285300Y-135373300I0J-225000D01*
G01*
X100285300Y-135873300D01*
G75*
G02*
X100060300Y-136098300I-225000J0D01*
G01*
X99610300Y-136098300D01*
G75*
G02*
X99385300Y-135873300I0J225000D01*
G01*
G37*
G36*
G01*
X97835300Y-135873300D02*
X97835300Y-135373300D01*
G75*
G02*
X98060300Y-135148300I225000J0D01*
G01*
X98510300Y-135148300D01*
G75*
G02*
X98735300Y-135373300I0J-225000D01*
G01*
X98735300Y-135873300D01*
G75*
G02*
X98510300Y-136098300I-225000J0D01*
G01*
X98060300Y-136098300D01*
G75*
G02*
X97835300Y-135873300I0J225000D01*
G01*
G37*
%TD*%
%TO.C,C2*%
G36*
G01*
X83913800Y-132261800D02*
X83913800Y-132761800D01*
G75*
G02*
X83688800Y-132986800I-225000J0D01*
G01*
X83238800Y-132986800D01*
G75*
G02*
X83013800Y-132761800I0J225000D01*
G01*
X83013800Y-132261800D01*
G75*
G02*
X83238800Y-132036800I225000J0D01*
G01*
X83688800Y-132036800D01*
G75*
G02*
X83913800Y-132261800I0J-225000D01*
G01*
G37*
G36*
G01*
X85463800Y-132261800D02*
X85463800Y-132761800D01*
G75*
G02*
X85238800Y-132986800I-225000J0D01*
G01*
X84788800Y-132986800D01*
G75*
G02*
X84563800Y-132761800I0J225000D01*
G01*
X84563800Y-132261800D01*
G75*
G02*
X84788800Y-132036800I225000J0D01*
G01*
X85238800Y-132036800D01*
G75*
G02*
X85463800Y-132261800I0J-225000D01*
G01*
G37*
%TD*%
%TO.C,C1*%
G36*
G01*
X83913800Y-134547800D02*
X83913800Y-135047800D01*
G75*
G02*
X83688800Y-135272800I-225000J0D01*
G01*
X83238800Y-135272800D01*
G75*
G02*
X83013800Y-135047800I0J225000D01*
G01*
X83013800Y-134547800D01*
G75*
G02*
X83238800Y-134322800I225000J0D01*
G01*
X83688800Y-134322800D01*
G75*
G02*
X83913800Y-134547800I0J-225000D01*
G01*
G37*
G36*
G01*
X85463800Y-134547800D02*
X85463800Y-135047800D01*
G75*
G02*
X85238800Y-135272800I-225000J0D01*
G01*
X84788800Y-135272800D01*
G75*
G02*
X84563800Y-135047800I0J225000D01*
G01*
X84563800Y-134547800D01*
G75*
G02*
X84788800Y-134322800I225000J0D01*
G01*
X85238800Y-134322800D01*
G75*
G02*
X85463800Y-134547800I0J-225000D01*
G01*
G37*
%TD*%
%TO.C,R77*%
G36*
G01*
X114117800Y-137737800D02*
X113567800Y-137737800D01*
G75*
G02*
X113367800Y-137537800I0J200000D01*
G01*
X113367800Y-137137800D01*
G75*
G02*
X113567800Y-136937800I200000J0D01*
G01*
X114117800Y-136937800D01*
G75*
G02*
X114317800Y-137137800I0J-200000D01*
G01*
X114317800Y-137537800D01*
G75*
G02*
X114117800Y-137737800I-200000J0D01*
G01*
G37*
G36*
G01*
X114117800Y-139387800D02*
X113567800Y-139387800D01*
G75*
G02*
X113367800Y-139187800I0J200000D01*
G01*
X113367800Y-138787800D01*
G75*
G02*
X113567800Y-138587800I200000J0D01*
G01*
X114117800Y-138587800D01*
G75*
G02*
X114317800Y-138787800I0J-200000D01*
G01*
X114317800Y-139187800D01*
G75*
G02*
X114117800Y-139387800I-200000J0D01*
G01*
G37*
%TD*%
D26*
%TO.C,D2*%
X81076800Y-80314800D03*
X81076800Y-84314800D03*
%TD*%
D27*
%TO.C,J1*%
X122351800Y-89338800D03*
X122351800Y-86838800D03*
X122351800Y-84338800D03*
G36*
G01*
X121626800Y-80988800D02*
X123076800Y-80988800D01*
G75*
G02*
X123326800Y-81238800I0J-250000D01*
G01*
X123326800Y-82438800D01*
G75*
G02*
X123076800Y-82688800I-250000J0D01*
G01*
X121626800Y-82688800D01*
G75*
G02*
X121376800Y-82438800I0J250000D01*
G01*
X121376800Y-81238800D01*
G75*
G02*
X121626800Y-80988800I250000J0D01*
G01*
G37*
%TD*%
D28*
%TO.C,J4*%
X77647800Y-132170800D03*
G36*
G01*
X78397800Y-135520800D02*
X76897800Y-135520800D01*
G75*
G02*
X76647800Y-135270800I0J250000D01*
G01*
X76647800Y-134070800D01*
G75*
G02*
X76897800Y-133820800I250000J0D01*
G01*
X78397800Y-133820800D01*
G75*
G02*
X78647800Y-134070800I0J-250000D01*
G01*
X78647800Y-135270800D01*
G75*
G02*
X78397800Y-135520800I-250000J0D01*
G01*
G37*
%TD*%
D29*
%TO.C,J2*%
X124151800Y-111330800D03*
D30*
X117851800Y-111330800D03*
D31*
X120051800Y-113080800D03*
D32*
X122351800Y-111330800D03*
D31*
X120051800Y-109580800D03*
%TD*%
D29*
%TO.C,J8*%
X75833800Y-109171800D03*
D30*
X82133800Y-109171800D03*
D31*
X79933800Y-107421800D03*
D32*
X77633800Y-109171800D03*
D31*
X79933800Y-110921800D03*
%TD*%
D29*
%TO.C,J7*%
X75833800Y-115140800D03*
D30*
X82133800Y-115140800D03*
D31*
X79933800Y-113390800D03*
D32*
X77633800Y-115140800D03*
D31*
X79933800Y-116890800D03*
%TD*%
D29*
%TO.C,J6*%
X75833800Y-139905800D03*
D30*
X82133800Y-139905800D03*
D31*
X79933800Y-138155800D03*
D32*
X77633800Y-139905800D03*
D31*
X79933800Y-141655800D03*
%TD*%
%TO.C,J3*%
X120051800Y-101170800D03*
D32*
X122351800Y-102920800D03*
D31*
X120051800Y-104670800D03*
D30*
X117851800Y-102920800D03*
D29*
X124151800Y-102920800D03*
%TD*%
D33*
%TO.C,J11*%
X95938800Y-83639800D03*
D34*
X100438800Y-83639800D03*
%TD*%
D35*
%TO.C,J10*%
X113171800Y-81416800D03*
X113171800Y-85816800D03*
%TD*%
%TO.C,D6*%
G36*
G01*
X119936550Y-135122300D02*
X120449050Y-135122300D01*
G75*
G02*
X120667800Y-135341050I0J-218750D01*
G01*
X120667800Y-135778550D01*
G75*
G02*
X120449050Y-135997300I-218750J0D01*
G01*
X119936550Y-135997300D01*
G75*
G02*
X119717800Y-135778550I0J218750D01*
G01*
X119717800Y-135341050D01*
G75*
G02*
X119936550Y-135122300I218750J0D01*
G01*
G37*
G36*
G01*
X119936550Y-133547300D02*
X120449050Y-133547300D01*
G75*
G02*
X120667800Y-133766050I0J-218750D01*
G01*
X120667800Y-134203550D01*
G75*
G02*
X120449050Y-134422300I-218750J0D01*
G01*
X119936550Y-134422300D01*
G75*
G02*
X119717800Y-134203550I0J218750D01*
G01*
X119717800Y-133766050D01*
G75*
G02*
X119936550Y-133547300I218750J0D01*
G01*
G37*
%TD*%
%TO.C,D5*%
G36*
G01*
X120449050Y-128631300D02*
X119936550Y-128631300D01*
G75*
G02*
X119717800Y-128412550I0J218750D01*
G01*
X119717800Y-127975050D01*
G75*
G02*
X119936550Y-127756300I218750J0D01*
G01*
X120449050Y-127756300D01*
G75*
G02*
X120667800Y-127975050I0J-218750D01*
G01*
X120667800Y-128412550D01*
G75*
G02*
X120449050Y-128631300I-218750J0D01*
G01*
G37*
G36*
G01*
X120449050Y-130206300D02*
X119936550Y-130206300D01*
G75*
G02*
X119717800Y-129987550I0J218750D01*
G01*
X119717800Y-129550050D01*
G75*
G02*
X119936550Y-129331300I218750J0D01*
G01*
X120449050Y-129331300D01*
G75*
G02*
X120667800Y-129550050I0J-218750D01*
G01*
X120667800Y-129987550D01*
G75*
G02*
X120449050Y-130206300I-218750J0D01*
G01*
G37*
%TD*%
%TO.C,R76*%
G36*
G01*
X118562800Y-134309800D02*
X118012800Y-134309800D01*
G75*
G02*
X117812800Y-134109800I0J200000D01*
G01*
X117812800Y-133709800D01*
G75*
G02*
X118012800Y-133509800I200000J0D01*
G01*
X118562800Y-133509800D01*
G75*
G02*
X118762800Y-133709800I0J-200000D01*
G01*
X118762800Y-134109800D01*
G75*
G02*
X118562800Y-134309800I-200000J0D01*
G01*
G37*
G36*
G01*
X118562800Y-135959800D02*
X118012800Y-135959800D01*
G75*
G02*
X117812800Y-135759800I0J200000D01*
G01*
X117812800Y-135359800D01*
G75*
G02*
X118012800Y-135159800I200000J0D01*
G01*
X118562800Y-135159800D01*
G75*
G02*
X118762800Y-135359800I0J-200000D01*
G01*
X118762800Y-135759800D01*
G75*
G02*
X118562800Y-135959800I-200000J0D01*
G01*
G37*
%TD*%
%TO.C,R73*%
G36*
G01*
X120467800Y-122497800D02*
X119917800Y-122497800D01*
G75*
G02*
X119717800Y-122297800I0J200000D01*
G01*
X119717800Y-121897800D01*
G75*
G02*
X119917800Y-121697800I200000J0D01*
G01*
X120467800Y-121697800D01*
G75*
G02*
X120667800Y-121897800I0J-200000D01*
G01*
X120667800Y-122297800D01*
G75*
G02*
X120467800Y-122497800I-200000J0D01*
G01*
G37*
G36*
G01*
X120467800Y-124147800D02*
X119917800Y-124147800D01*
G75*
G02*
X119717800Y-123947800I0J200000D01*
G01*
X119717800Y-123547800D01*
G75*
G02*
X119917800Y-123347800I200000J0D01*
G01*
X120467800Y-123347800D01*
G75*
G02*
X120667800Y-123547800I0J-200000D01*
G01*
X120667800Y-123947800D01*
G75*
G02*
X120467800Y-124147800I-200000J0D01*
G01*
G37*
%TD*%
D16*
%TO.C,J5*%
X75470800Y-81510800D03*
X75470800Y-86060800D03*
D36*
X76470800Y-86285800D03*
X76470800Y-81285800D03*
D37*
X73720800Y-87660800D03*
X73720800Y-79910800D03*
D38*
X77520800Y-87510800D03*
X77520800Y-80060800D03*
%TD*%
%TO.C,R82*%
G36*
G01*
X118562800Y-128593800D02*
X118012800Y-128593800D01*
G75*
G02*
X117812800Y-128393800I0J200000D01*
G01*
X117812800Y-127993800D01*
G75*
G02*
X118012800Y-127793800I200000J0D01*
G01*
X118562800Y-127793800D01*
G75*
G02*
X118762800Y-127993800I0J-200000D01*
G01*
X118762800Y-128393800D01*
G75*
G02*
X118562800Y-128593800I-200000J0D01*
G01*
G37*
G36*
G01*
X118562800Y-130243800D02*
X118012800Y-130243800D01*
G75*
G02*
X117812800Y-130043800I0J200000D01*
G01*
X117812800Y-129643800D01*
G75*
G02*
X118012800Y-129443800I200000J0D01*
G01*
X118562800Y-129443800D01*
G75*
G02*
X118762800Y-129643800I0J-200000D01*
G01*
X118762800Y-130043800D01*
G75*
G02*
X118562800Y-130243800I-200000J0D01*
G01*
G37*
%TD*%
D19*
%TO.C,SW3*%
X127865800Y-116995800D03*
X126065800Y-116995800D03*
%TD*%
%TO.C,SW2*%
X127865800Y-116995800D03*
X126065800Y-116995800D03*
D39*
X127685800Y-115195800D03*
X127685800Y-118795800D03*
X126245800Y-115195800D03*
X126245800Y-118795800D03*
%TD*%
M02*
